<svg width="11" height="11" viewBox="0 0 11 11" fill="none" xmlns="http://www.w3.org/2000/svg">
<path fill-rule="evenodd" clip-rule="evenodd" d="M10.6071 8.53571C10.6071 8.7738 10.5238 8.97618 10.3571 9.14285L9.14285 10.3571C8.97619 10.5238 8.7738 10.6071 8.53571 10.6071C8.29761 10.6071 8.09524 10.5238 7.92857 10.3571L5.30357 7.73215L2.67857 10.3571C2.51191 10.5238 2.30952 10.6071 2.07143 10.6071C1.83333 10.6071 1.63095 10.5238 1.46428 10.3571L0.25 9.14285C0.083332 8.97618 0 8.7738 0 8.53571C0 8.29761 0.083332 8.09524 0.25 7.92857L2.875 5.30357L0.25 2.67857C0.083332 2.51191 0 2.30952 0 2.07143C0 1.83333 0.083332 1.63095 0.25 1.46428L1.46428 0.25C1.63095 0.083333 1.83333 0 2.07143 0C2.30952 0 2.51191 0.083333 2.67857 0.25L5.30357 2.875L7.92857 0.25C8.09524 0.083333 8.29761 0 8.53571 0C8.7738 0 8.97619 0.083333 9.14285 0.25L10.3571 1.46428C10.5238 1.63095 10.6071 1.83333 10.6071 2.07143C10.6071 2.30952 10.5238 2.51191 10.3571 2.67857L7.73213 5.30357L10.3571 7.92857C10.5238 8.09524 10.6071 8.29761 10.6071 8.53571Z" fill="white"/>
</svg>
