<?xml version="1.0" encoding="UTF-8"?>
<svg width="11px" height="12px" viewBox="0 0 11 12" version="1.1" xmlns="http://www.w3.org/2000/svg" xmlns:xlink="http://www.w3.org/1999/xlink">
    <!-- Generator: Sketch 47.1 (45422) - http://www.bohemiancoding.com/sketch -->
    <title>close-button</title>
    <desc>Created with Sketch.</desc>
    <defs></defs>
    <g id="Icons" stroke="none" stroke-width="1" fill="none" fill-rule="evenodd">
        <g id="Artboard" transform="translate(-225.000000, -239.000000)" fill="#2D3240">
            <path d="M235.589286,248.089286 C235.589286,248.327382 235.505953,248.529761 235.339286,248.696429 L234.125,249.910714 C233.958333,250.077382 233.755954,250.160714 233.517857,250.160714 C233.279761,250.160714 233.077382,250.077382 232.910714,249.910714 L230.285714,247.285714 L227.660714,249.910714 C227.494047,250.077382 227.291668,250.160714 227.053571,250.160714 C226.815475,250.160714 226.613096,250.077382 226.446429,249.910714 L225.232143,248.696429 C225.065475,248.529761 224.982143,248.327382 224.982143,248.089286 C224.982143,247.851189 225.065475,247.64881 225.232143,247.482143 L227.857143,244.857143 L225.232143,242.232143 C225.065475,242.065475 224.982143,241.863096 224.982143,241.625 C224.982143,241.386904 225.065475,241.184525 225.232143,241.017857 L226.446429,239.803571 C226.613096,239.636904 226.815475,239.553571 227.053571,239.553571 C227.291668,239.553571 227.494047,239.636904 227.660714,239.803571 L230.285714,242.428571 L232.910714,239.803571 C233.077382,239.636904 233.279761,239.553571 233.517857,239.553571 C233.755954,239.553571 233.958333,239.636904 234.125,239.803571 L235.339286,241.017857 C235.505953,241.184525 235.589286,241.386904 235.589286,241.625 C235.589286,241.863096 235.505953,242.065475 235.339286,242.232143 L232.714286,244.857143 L235.339286,247.482143 C235.505953,247.64881 235.589286,247.851189 235.589286,248.089286 Z" id="close-button"></path>
        </g>
    </g>
</svg>