<?xml version="1.0" encoding="UTF-8"?>
<svg width="14px" height="14px" viewBox="0 0 14 14" version="1.1" xmlns="http://www.w3.org/2000/svg" xmlns:xlink="http://www.w3.org/1999/xlink">
    <!-- Generator: Sketch 39.1 (31720) - http://www.bohemiancoding.com/sketch -->
    <title>delete-row-icon</title>
    <desc>Created with Sketch.</desc>
    <defs></defs>
    <g id="Symbols" stroke="none" stroke-width="1" fill="none" fill-rule="evenodd">
        <g id="delete-row-icon" fill="#FFFFFF">
            <g>
                <path d="M13.5,7 C13.5,3.41014913 10.5898509,0.5 7,0.5 C3.41014913,0.5 0.5,3.41014913 0.5,7 C0.5,10.5898509 3.41014913,13.5 7,13.5 C10.5898509,13.5 13.5,10.5898509 13.5,7 Z M1.5,7 C1.5,3.96243388 3.96243388,1.5 7,1.5 C10.0375661,1.5 12.5,3.96243388 12.5,7 C12.5,10.0375661 10.0375661,12.5 7,12.5 C3.96243388,12.5 1.5,10.0375661 1.5,7 Z" id="Oval-2"></path>
                <polygon id="-" points="10 7.59277344 4 7.59277344 4 6 10 6"></polygon>
            </g>
        </g>
    </g>
</svg>