<?xml version="1.0" encoding="UTF-8"?>
<svg width="26px" height="26px" viewBox="0 0 26 26" version="1.1" xmlns="http://www.w3.org/2000/svg" xmlns:xlink="http://www.w3.org/1999/xlink">
    <!-- Generator: Sketch 57.1 (83088) - https://sketch.com -->
    <title>icon-pin-inactive</title>
    <desc>Created with Sketch.</desc>
    <g id="UPSIZE" stroke="none" stroke-width="1" fill="none" fill-rule="evenodd">
        <g id="Artboard" transform="translate(-340.000000, -130.000000)">
            <g id="icon-pin-inactive" transform="translate(341.000000, 131.000000)">
                <circle id="Oval" stroke="#C2C5CC" stroke-width="2" fill="#FFFFFF" cx="12" cy="12" r="12"></circle>
                <path d="M11.3877551,12 L11.3877551,8.57142857 C11.3877551,8.49999964 11.3647961,8.44132676 11.3188776,8.39540816 C11.272959,8.34948957 11.2142857,8.32653061 11.1428571,8.32653061 C11.0714282,8.32653061 11.0127553,8.34948957 10.9668367,8.39540816 C10.9209181,8.44132676 10.8979592,8.49999964 10.8979592,8.57142857 L10.8979592,12 C10.8979592,12.0714289 10.9209181,12.1301018 10.9668367,12.1760204 C11.0127553,12.221939 11.0714282,12.244898 11.1428571,12.244898 C11.2142857,12.244898 11.272959,12.221939 11.3188776,12.1760204 C11.3647961,12.1301018 11.3877551,12.0714289 11.3877551,12 Z M16.5306122,14.6938776 C16.5306122,14.8265313 16.4821433,14.941326 16.3852041,15.0382653 C16.2882648,15.1352046 16.1734701,15.1836735 16.0408163,15.1836735 L12.7576531,15.1836735 L12.3673469,18.880102 C12.3571428,18.9413268 12.3303574,18.9936222 12.2869898,19.0369898 C12.2436222,19.0803574 12.1913268,19.1020408 12.130102,19.1020408 L12.122449,19.1020408 C11.9846932,19.1020408 11.9030614,19.033164 11.877551,18.8954082 L11.2959184,15.1836735 L8.20408163,15.1836735 C8.07142791,15.1836735 7.95663314,15.1352046 7.85969388,15.0382653 C7.76275462,14.941326 7.71428571,14.8265313 7.71428571,14.6938776 C7.71428571,14.0663234 7.91453881,13.501278 8.31505102,12.9987245 C8.71556323,12.496171 9.16836482,12.244898 9.67346939,12.244898 L9.67346939,8.32653061 C9.40816194,8.32653061 9.1785724,8.22959281 8.98469388,8.03571429 C8.79081536,7.84183577 8.69387755,7.61224622 8.69387755,7.34693878 C8.69387755,7.08163133 8.79081536,6.85204179 8.98469388,6.65816327 C9.1785724,6.46428474 9.40816194,6.36734694 9.67346939,6.36734694 L14.5714286,6.36734694 C14.836736,6.36734694 15.0663256,6.46428474 15.2602041,6.65816327 C15.4540826,6.85204179 15.5510204,7.08163133 15.5510204,7.34693878 C15.5510204,7.61224622 15.4540826,7.84183577 15.2602041,8.03571429 C15.0663256,8.22959281 14.836736,8.32653061 14.5714286,8.32653061 L14.5714286,12.244898 C15.0765331,12.244898 15.5293347,12.496171 15.9298469,12.9987245 C16.3303591,13.501278 16.5306122,14.0663234 16.5306122,14.6938776 Z" id="ï‚" fill="#C2C5CC" fill-rule="nonzero" transform="translate(12.122449, 12.734694) rotate(-330.000000) translate(-12.122449, -12.734694) "></path>
            </g>
        </g>
    </g>
</svg>