<?xml version="1.0" encoding="UTF-8"?>
<svg width="14px" height="14px" viewBox="0 0 14 14" version="1.1" xmlns="http://www.w3.org/2000/svg" xmlns:xlink="http://www.w3.org/1999/xlink">
    <!-- Generator: Sketch 48.2 (47327) - http://www.bohemiancoding.com/sketch -->
    <title>icon-remove-light</title>
    <desc>Created with Sketch.</desc>
    <defs></defs>
    <g id="Artboard-4-Copy" stroke="none" stroke-width="1" fill="none" fill-rule="evenodd" transform="translate(-65.000000, -10.000000)">
        <path d="M76.0833333,17.5833333 L76.0833333,16.4166667 C76.0833333,16.2586798 76.0256082,16.1219624 75.9101562,16.0065104 C75.7947043,15.8910585 75.6579869,15.8333333 75.5,15.8333333 L73.1666667,15.8333333 L73.1666667,13.5 C73.1666667,13.3420131 73.1089415,13.2052957 72.9934896,13.0898438 C72.8780376,12.9743918 72.7413202,12.9166667 72.5833333,12.9166667 L71.4166667,12.9166667 C71.2586798,12.9166667 71.1219624,12.9743918 71.0065104,13.0898438 C70.8910585,13.2052957 70.8333333,13.3420131 70.8333333,13.5 L70.8333333,15.8333333 L68.5,15.8333333 C68.3420131,15.8333333 68.2052957,15.8910585 68.0898438,16.0065104 C67.9743918,16.1219624 67.9166667,16.2586798 67.9166667,16.4166667 L67.9166667,17.5833333 C67.9166667,17.7413202 67.9743918,17.8780376 68.0898438,17.9934896 C68.2052957,18.1089415 68.3420131,18.1666667 68.5,18.1666667 L70.8333333,18.1666667 L70.8333333,20.5 C70.8333333,20.6579869 70.8910585,20.7947043 71.0065104,20.9101562 C71.1219624,21.0256082 71.2586798,21.0833333 71.4166667,21.0833333 L72.5833333,21.0833333 C72.7413202,21.0833333 72.8780376,21.0256082 72.9934896,20.9101562 C73.1089415,20.7947043 73.1666667,20.6579869 73.1666667,20.5 L73.1666667,18.1666667 L75.5,18.1666667 C75.6579869,18.1666667 75.7947043,18.1089415 75.9101562,17.9934896 C76.0256082,17.8780376 76.0833333,17.7413202 76.0833333,17.5833333 Z M79,17 C79,18.2699716 78.6870691,19.4411839 78.0611979,20.5136719 C77.4353267,21.5861599 76.5861599,22.4353267 75.5136719,23.0611979 C74.4411839,23.6870691 73.2699716,24 72,24 C70.7300284,24 69.5588161,23.6870691 68.4863281,23.0611979 C67.4138401,22.4353267 66.5646733,21.5861599 65.9388021,20.5136719 C65.3129309,19.4411839 65,18.2699716 65,17 C65,15.7300284 65.3129309,14.5588161 65.9388021,13.4863281 C66.5646733,12.4138401 67.4138401,11.5646733 68.4863281,10.9388021 C69.5588161,10.3129309 70.7300284,10 72,10 C73.2699716,10 74.4411839,10.3129309 75.5136719,10.9388021 C76.5861599,11.5646733 77.4353267,12.4138401 78.0611979,13.4863281 C78.6870691,14.5588161 79,15.7300284 79,17 Z" id="icon-remove-light" fill="#FFFFFF" transform="translate(72.000000, 17.000000) rotate(-45.000000) translate(-72.000000, -17.000000) "></path>
    </g>
</svg>