<?xml version="1.0" encoding="UTF-8"?>
<svg width="11px" height="11px" viewBox="0 0 11 11" version="1.1" xmlns="http://www.w3.org/2000/svg" xmlns:xlink="http://www.w3.org/1999/xlink">
    <!-- Generator: Sketch 41.2 (35397) - http://www.bohemiancoding.com/sketch -->
    <title>icon-nego-done</title>
    <desc>Created with Sketch.</desc>
    <defs></defs>
    <g id="V3" stroke="none" stroke-width="1" fill="none" fill-rule="evenodd">
        <g id="Artboard-3" transform="translate(-86.000000, -121.000000)" fill="#00E097">
            <path d="M94.5982143,125.058036 C94.5982143,124.933035 94.5580361,124.830358 94.4776786,124.75 L93.8683036,124.147321 C93.7834817,124.0625 93.6830363,124.020089 93.5669643,124.020089 C93.4508923,124.020089 93.3504469,124.0625 93.265625,124.147321 L90.5334821,126.872768 L89.0200893,125.359375 C88.9352674,125.274553 88.834822,125.232143 88.71875,125.232143 C88.602678,125.232143 88.5022326,125.274553 88.4174107,125.359375 L87.8080357,125.962054 C87.7276782,126.042411 87.6875,126.145089 87.6875,126.270089 C87.6875,126.390626 87.7276782,126.491071 87.8080357,126.571429 L90.2321429,128.995536 C90.3169647,129.080358 90.4174101,129.122768 90.5334821,129.122768 C90.6540185,129.122768 90.756696,129.080358 90.8415179,128.995536 L94.4776786,125.359375 C94.5580361,125.279017 94.5982143,125.178572 94.5982143,125.058036 Z M96.2857143,126.142857 C96.2857143,127.075898 96.0558059,127.93638 95.5959821,128.72433 C95.1361584,129.512281 94.5122807,130.136158 93.7243304,130.595982 C92.93638,131.055806 92.0758975,131.285714 91.1428571,131.285714 C90.2098168,131.285714 89.3493343,131.055806 88.5613839,130.595982 C87.7734336,130.136158 87.1495559,129.512281 86.6897321,128.72433 C86.2299084,127.93638 86,127.075898 86,126.142857 C86,125.209817 86.2299084,124.349334 86.6897321,123.561384 C87.1495559,122.773434 87.7734336,122.149556 88.5613839,121.689732 C89.3493343,121.229908 90.2098168,121 91.1428571,121 C92.0758975,121 92.93638,121.229908 93.7243304,121.689732 C94.5122807,122.149556 95.1361584,122.773434 95.5959821,123.561384 C96.0558059,124.349334 96.2857143,125.209817 96.2857143,126.142857 Z" id="icon-nego-done"></path>
        </g>
    </g>
</svg>