<svg width="15" height="14" viewBox="0 0 15 14" fill="none" xmlns="http://www.w3.org/2000/svg">
<path fill-rule="evenodd" clip-rule="evenodd" d="M8.99006 11.0157V9.53297C8.99006 9.46014 8.96536 9.39902 8.91594 9.3496C8.86651 9.30017 8.80801 9.27547 8.74037 9.27547H7.24206C7.17443 9.27547 7.11588 9.30017 7.06646 9.3496C7.01704 9.39902 6.99233 9.46014 6.99233 9.53297V11.0157C6.99233 11.0885 7.01704 11.1496 7.06646 11.1991C7.11588 11.2485 7.17443 11.2732 7.24206 11.2732H8.74037C8.80801 11.2732 8.86651 11.2485 8.91594 11.1991C8.96536 11.1496 8.99006 11.0885 8.99006 11.0157ZM8.97447 8.09711L9.11493 4.51522C9.11493 4.45279 9.08894 4.40336 9.03692 4.36695C8.96928 4.30972 8.90683 4.28111 8.84961 4.28111H7.13279C7.07556 4.28111 7.01314 4.30972 6.94551 4.36695C6.89349 4.40336 6.86747 4.458 6.86747 4.53083L7.00013 8.09711C7.00013 8.14913 7.02615 8.19205 7.07817 8.22587C7.1302 8.25968 7.19265 8.27659 7.26548 8.27659H8.70915C8.78198 8.27659 8.84312 8.25968 8.89254 8.22587C8.94197 8.19205 8.96927 8.14913 8.97447 8.09711ZM8.86524 0.808487L14.8584 11.796C15.0405 12.1238 15.0353 12.4516 14.8428 12.7793C14.7544 12.9302 14.6334 13.0498 14.4799 13.1383C14.3264 13.2267 14.1613 13.2709 13.9844 13.2709H1.99801C1.82112 13.2709 1.65595 13.2267 1.50247 13.1383C1.349 13.0498 1.22804 12.9302 1.1396 12.7793C0.947109 12.4516 0.941884 12.1238 1.12397 11.796L7.11719 0.808487C7.20564 0.64721 7.32791 0.519745 7.48399 0.426102C7.64006 0.332457 7.80911 0.285645 7.9912 0.285645C8.17328 0.285645 8.34237 0.332457 8.49845 0.426102C8.65452 0.519745 8.77679 0.64721 8.86524 0.808487Z" fill="#FF9E09"/>
</svg>
