<?xml version="1.0" encoding="UTF-8"?>
<svg width="14px" height="14px" viewBox="0 0 14 14" version="1.1" xmlns="http://www.w3.org/2000/svg" xmlns:xlink="http://www.w3.org/1999/xlink">
    <!-- Generator: Sketch 42 (36781) - http://www.bohemiancoding.com/sketch -->
    <title>icon-check-green-big</title>
    <desc>Created with Sketch.</desc>
    <defs></defs>
    <g id="Icons" stroke="none" stroke-width="1" fill="none" fill-rule="evenodd">
        <g id="Artboard-2" transform="translate(-42.000000, -101.000000)" fill-rule="nonzero" fill="#00E097">
            <path d="M52.9431815,106.89204 C52.9431815,106.732949 52.8920458,106.602278 52.7897733,106.500002 L52.0142051,105.732955 C51.9062498,105.625002 51.7784095,105.571025 51.6306815,105.571025 C51.4829535,105.571025 51.3551144,105.625002 51.2471591,105.732955 L47.7698862,109.201709 L45.8437496,107.275564 C45.7357944,107.167611 45.6079553,107.113635 45.4602273,107.113635 C45.3124993,107.113635 45.1846602,107.167611 45.0767049,107.275564 L44.3011367,108.042611 C44.1988629,108.144887 44.1477273,108.275571 44.1477273,108.434662 C44.1477273,108.588064 44.1988629,108.715909 44.3011367,108.818185 L47.3863638,111.903404 C47.4943191,112.011369 47.6221582,112.065345 47.7698862,112.065345 C47.9232956,112.065345 48.0539767,112.011369 48.161932,111.903404 L52.7897733,107.275564 C52.8920458,107.1733 52.9431815,107.045455 52.9431815,106.89204 Z M55.0909087,108.272733 C55.0909087,109.460238 54.7982985,110.555395 54.213068,111.55824 C53.6278375,112.561085 52.8338122,113.355115 51.8309655,113.94034 C50.82812,114.525565 49.7329611,114.818178 48.5454544,114.818178 C47.3579489,114.818178 46.2627887,114.525565 45.2599433,113.94034 C44.2570978,113.355115 43.4630713,112.561085 42.8778407,111.55824 C42.2926102,110.555395 42,109.460238 42,108.272733 C42,107.085227 42.2926102,105.990058 42.8778407,104.987213 C43.4630713,103.984367 44.2570978,103.190338 45.2599433,102.605113 C46.2627887,102.019887 47.3579489,101.727275 48.5454544,101.727275 C49.7329611,101.727275 50.82812,102.019887 51.8309655,102.605113 C52.8338122,103.190338 53.6278375,103.984367 54.213068,104.987213 C54.7982985,105.990058 55.0909087,107.085227 55.0909087,108.272733 Z" id="icon-check-green-big"></path>
        </g>
    </g>
</svg>