<?xml version="1.0" encoding="UTF-8"?>
<svg width="13px" height="13px" viewBox="0 0 13 13" version="1.1" xmlns="http://www.w3.org/2000/svg" xmlns:xlink="http://www.w3.org/1999/xlink">
    <!-- Generator: Sketch 46.2 (44496) - http://www.bohemiancoding.com/sketch -->
    <title>icon-favorite-on</title>
    <desc>Created with Sketch.</desc>
    <defs></defs>
    <g id="Icons" stroke="none" stroke-width="1" fill="none" fill-rule="evenodd">
        <g id="Artboard-5" transform="translate(-206.000000, -126.000000)" fill="#FFFFFF">
            <path d="M219,131.054688 C219,131.169271 218.932292,131.29427 218.796875,131.429688 L215.960938,134.195312 L216.632812,138.101562 C216.638021,138.138021 216.640625,138.190104 216.640625,138.257812 C216.640625,138.367188 216.613282,138.459635 216.558594,138.535156 C216.503906,138.610677 216.42448,138.648438 216.320312,138.648438 C216.221354,138.648438 216.117188,138.617188 216.007812,138.554688 L212.5,136.710938 L208.992188,138.554688 C208.877604,138.617188 208.773438,138.648438 208.679688,138.648438 C208.570312,138.648438 208.488282,138.610677 208.433594,138.535156 C208.378906,138.459635 208.351562,138.367188 208.351562,138.257812 C208.351562,138.226562 208.356771,138.17448 208.367188,138.101562 L209.039062,134.195312 L206.195312,131.429688 C206.065104,131.289062 206,131.164063 206,131.054688 C206,130.861978 206.145832,130.742188 206.4375,130.695312 L210.359375,130.125 L212.117188,126.570312 C212.216146,126.35677 212.343749,126.25 212.5,126.25 C212.656251,126.25 212.783854,126.35677 212.882812,126.570312 L214.640625,130.125 L218.5625,130.695312 C218.854168,130.742188 219,130.861978 219,131.054688 Z" id="icon-favorite-on"></path>
        </g>
    </g>
</svg>