<?xml version="1.0" encoding="UTF-8"?>
<svg width="11px" height="11px" viewBox="0 0 11 11" version="1.1" xmlns="http://www.w3.org/2000/svg" xmlns:xlink="http://www.w3.org/1999/xlink">
    <!-- Generator: Sketch 41 (35326) - http://www.bohemiancoding.com/sketch -->
    <title>icon-check-green</title>
    <desc>Created with Sketch.</desc>
    <defs></defs>
    <g id="Modals" stroke="none" stroke-width="1" fill="none" fill-rule="evenodd">
        <g id="Modals-V2.1" transform="translate(-146.000000, -1835.000000)" fill="#00E097">
            <path d="M154.598214,1839.62946 C154.598214,1839.50446 154.558036,1839.40179 154.477679,1839.32143 L153.868304,1838.71875 C153.783482,1838.63393 153.683036,1838.59152 153.566964,1838.59152 C153.450892,1838.59152 153.350447,1838.63393 153.265625,1838.71875 L150.533482,1841.4442 L149.020089,1839.9308 C148.935267,1839.84598 148.834822,1839.80357 148.71875,1839.80357 C148.602678,1839.80357 148.502233,1839.84598 148.417411,1839.9308 L147.808036,1840.53348 C147.727678,1840.61384 147.6875,1840.71652 147.6875,1840.84152 C147.6875,1840.96205 147.727678,1841.0625 147.808036,1841.14286 L150.232143,1843.56696 C150.316965,1843.65179 150.41741,1843.6942 150.533482,1843.6942 C150.654018,1843.6942 150.756696,1843.65179 150.841518,1843.56696 L154.477679,1839.9308 C154.558036,1839.85045 154.598214,1839.75 154.598214,1839.62946 Z M156.285714,1840.71429 C156.285714,1841.64733 156.055806,1842.50781 155.595982,1843.29576 C155.136158,1844.08371 154.512281,1844.70759 153.72433,1845.16741 C152.93638,1845.62723 152.075898,1845.85714 151.142857,1845.85714 C150.209817,1845.85714 149.349334,1845.62723 148.561384,1845.16741 C147.773434,1844.70759 147.149556,1844.08371 146.689732,1843.29576 C146.229908,1842.50781 146,1841.64733 146,1840.71429 C146,1839.78125 146.229908,1838.92076 146.689732,1838.13281 C147.149556,1837.34486 147.773434,1836.72098 148.561384,1836.26116 C149.349334,1835.80134 150.209817,1835.57143 151.142857,1835.57143 C152.075898,1835.57143 152.93638,1835.80134 153.72433,1836.26116 C154.512281,1836.72098 155.136158,1837.34486 155.595982,1838.13281 C156.055806,1838.92076 156.285714,1839.78125 156.285714,1840.71429 Z" id="icon-check-green"></path>
        </g>
    </g>
</svg>