<?xml version="1.0" encoding="UTF-8"?>
<svg width="14px" height="14px" viewBox="0 0 14 14" version="1.1" xmlns="http://www.w3.org/2000/svg" xmlns:xlink="http://www.w3.org/1999/xlink">
    <!-- Generator: Sketch 44 (41411) - http://www.bohemiancoding.com/sketch -->
    <title>icon-add-interest</title>
    <desc>Created with Sketch.</desc>
    <defs></defs>
    <g id="Icons" stroke="none" stroke-width="1" fill="none" fill-rule="evenodd">
        <g id="Artboard-4-Copy" transform="translate(-35.000000, -10.000000)" fill="#FFFFFF">
            <path d="M46.0833333,17.5833333 L46.0833333,16.4166667 C46.0833333,16.2586798 46.0256082,16.1219624 45.9101562,16.0065104 C45.7947043,15.8910585 45.6579869,15.8333333 45.5,15.8333333 L43.1666667,15.8333333 L43.1666667,13.5 C43.1666667,13.3420131 43.1089415,13.2052957 42.9934896,13.0898438 C42.8780376,12.9743918 42.7413202,12.9166667 42.5833333,12.9166667 L41.4166667,12.9166667 C41.2586798,12.9166667 41.1219624,12.9743918 41.0065104,13.0898438 C40.8910585,13.2052957 40.8333333,13.3420131 40.8333333,13.5 L40.8333333,15.8333333 L38.5,15.8333333 C38.3420131,15.8333333 38.2052957,15.8910585 38.0898438,16.0065104 C37.9743918,16.1219624 37.9166667,16.2586798 37.9166667,16.4166667 L37.9166667,17.5833333 C37.9166667,17.7413202 37.9743918,17.8780376 38.0898438,17.9934896 C38.2052957,18.1089415 38.3420131,18.1666667 38.5,18.1666667 L40.8333333,18.1666667 L40.8333333,20.5 C40.8333333,20.6579869 40.8910585,20.7947043 41.0065104,20.9101562 C41.1219624,21.0256082 41.2586798,21.0833333 41.4166667,21.0833333 L42.5833333,21.0833333 C42.7413202,21.0833333 42.8780376,21.0256082 42.9934896,20.9101562 C43.1089415,20.7947043 43.1666667,20.6579869 43.1666667,20.5 L43.1666667,18.1666667 L45.5,18.1666667 C45.6579869,18.1666667 45.7947043,18.1089415 45.9101562,17.9934896 C46.0256082,17.8780376 46.0833333,17.7413202 46.0833333,17.5833333 Z M49,17 C49,18.2699716 48.6870691,19.4411839 48.0611979,20.5136719 C47.4353267,21.5861599 46.5861599,22.4353267 45.5136719,23.0611979 C44.4411839,23.6870691 43.2699716,24 42,24 C40.7300284,24 39.5588161,23.6870691 38.4863281,23.0611979 C37.4138401,22.4353267 36.5646733,21.5861599 35.9388021,20.5136719 C35.3129309,19.4411839 35,18.2699716 35,17 C35,15.7300284 35.3129309,14.5588161 35.9388021,13.4863281 C36.5646733,12.4138401 37.4138401,11.5646733 38.4863281,10.9388021 C39.5588161,10.3129309 40.7300284,10 42,10 C43.2699716,10 44.4411839,10.3129309 45.5136719,10.9388021 C46.5861599,11.5646733 47.4353267,12.4138401 48.0611979,13.4863281 C48.6870691,14.5588161 49,15.7300284 49,17 Z" id="icon-add-interest"></path>
        </g>
    </g>
</svg>