<?xml version="1.0" encoding="UTF-8"?>
<svg width="11px" height="11px" viewBox="0 0 11 11" version="1.1" xmlns="http://www.w3.org/2000/svg" xmlns:xlink="http://www.w3.org/1999/xlink">
    <!-- Generator: Sketch 42 (36781) - http://www.bohemiancoding.com/sketch -->
    <title>icon-warning-light</title>
    <desc>Created with Sketch.</desc>
    <defs></defs>
    <g id="Icons" stroke="none" stroke-width="1" fill="none" fill-rule="evenodd">
        <g id="Artboard-4" transform="translate(-72.000000, -11.000000)" fill="#FFFFFF">
            <path d="M77.5,11 C78.4978349,11 79.418073,11.2458743 80.2607422,11.7376302 C81.1034113,12.2293861 81.7706139,12.8965887 82.2623698,13.7392578 C82.7541257,14.581927 83,15.5021651 83,16.5 C83,17.4978349 82.7541257,18.418073 82.2623698,19.2607422 C81.7706139,20.1034113 81.1034113,20.7706139 80.2607422,21.2623698 C79.418073,21.7541257 78.4978349,22 77.5,22 C76.5021651,22 75.581927,21.7541257 74.7392578,21.2623698 C73.8965887,20.7706139 73.2293861,20.1034113 72.7376302,19.2607422 C72.2458743,18.418073 72,17.4978349 72,16.5 C72,15.5021651 72.2458743,14.581927 72.7376302,13.7392578 C73.2293861,12.8965887 73.8965887,12.2293861 74.7392578,11.7376302 C75.581927,11.2458743 76.5021651,11 77.5,11 Z M78.4166667,19.9303385 L78.4166667,18.5696615 C78.4166667,18.5028208 78.3951825,18.4467233 78.3522135,18.4013672 C78.3092446,18.3560111 78.2567277,18.3333333 78.1946615,18.3333333 L76.8196615,18.3333333 C76.7575952,18.3333333 76.7026912,18.3572046 76.6549479,18.4049479 C76.6072046,18.4526912 76.5833333,18.5075952 76.5833333,18.5696615 L76.5833333,19.9303385 C76.5833333,19.9924048 76.6072046,20.0473088 76.6549479,20.0950521 C76.7026912,20.1427954 76.7575952,20.1666667 76.8196615,20.1666667 L78.1946615,20.1666667 C78.2567277,20.1666667 78.3092446,20.1439889 78.3522135,20.0986328 C78.3951825,20.0532767 78.4166667,19.9971792 78.4166667,19.9303385 Z M78.4023437,17.4667969 L78.53125,13.0195313 C78.53125,12.9622393 78.5073787,12.919271 78.4596354,12.890625 C78.4118921,12.8524304 78.354601,12.8333333 78.2877604,12.8333333 L76.7122396,12.8333333 C76.645399,12.8333333 76.5881079,12.8524304 76.5403646,12.890625 C76.4926213,12.919271 76.46875,12.9622393 76.46875,13.0195313 L76.5904948,17.4667969 C76.5904948,17.5145402 76.6143661,17.5563149 76.6621094,17.5921224 C76.7098527,17.6279299 76.7671438,17.6458333 76.8339844,17.6458333 L78.1588542,17.6458333 C78.2256948,17.6458333 78.2817923,17.6279299 78.3271484,17.5921224 C78.3725046,17.5563149 78.3975694,17.5145402 78.4023437,17.4667969 Z" id="icon-warning-light"></path>
        </g>
    </g>
</svg>