<svg width="15" height="14" viewBox="0 0 15 14" fill="none" xmlns="http://www.w3.org/2000/svg">
<path fill-rule="evenodd" clip-rule="evenodd" d="M8.98982 11.0157V9.53297C8.98982 9.46014 8.96512 9.39902 8.9157 9.3496C8.86627 9.30017 8.80777 9.27547 8.74013 9.27547H7.24182C7.17419 9.27547 7.11564 9.30017 7.06622 9.3496C7.0168 9.39902 6.99209 9.46014 6.99209 9.53297V11.0157C6.99209 11.0885 7.0168 11.1496 7.06622 11.1991C7.11564 11.2485 7.17419 11.2732 7.24182 11.2732H8.74013C8.80777 11.2732 8.86627 11.2485 8.9157 11.1991C8.96512 11.1496 8.98982 11.0885 8.98982 11.0157ZM8.97423 8.09711L9.11469 4.51522C9.11469 4.45279 9.0887 4.40336 9.03668 4.36695C8.96904 4.30972 8.90659 4.28111 8.84937 4.28111H7.13255C7.07532 4.28111 7.0129 4.30972 6.94527 4.36695C6.89325 4.40336 6.86723 4.458 6.86723 4.53083L6.99989 8.09711C6.99989 8.14913 7.02591 8.19205 7.07793 8.22587C7.12996 8.25968 7.19241 8.27659 7.26524 8.27659H8.70891C8.78174 8.27659 8.84288 8.25968 8.8923 8.22587C8.94173 8.19205 8.96903 8.14913 8.97423 8.09711ZM8.865 0.808487L14.8582 11.796C15.0403 12.1238 15.0351 12.4516 14.8426 12.7793C14.7542 12.9302 14.6332 13.0498 14.4797 13.1383C14.3262 13.2267 14.1611 13.2709 13.9842 13.2709H1.99777C1.82088 13.2709 1.65571 13.2267 1.50223 13.1383C1.34876 13.0498 1.2278 12.9302 1.13936 12.7793C0.946866 12.4516 0.941641 12.1238 1.12373 11.796L7.11695 0.808487C7.2054 0.64721 7.32767 0.519745 7.48375 0.426102C7.63982 0.332457 7.80887 0.285645 7.99096 0.285645C8.17304 0.285645 8.34213 0.332457 8.49821 0.426102C8.65428 0.519745 8.77655 0.64721 8.865 0.808487Z" fill="#FF0928"/>
</svg>
