<?xml version="1.0" encoding="UTF-8"?>
<svg width="14px" height="9px" viewBox="0 0 14 9" version="1.1" xmlns="http://www.w3.org/2000/svg" xmlns:xlink="http://www.w3.org/1999/xlink">
    <!-- Generator: Sketch 47.1 (45422) - http://www.bohemiancoding.com/sketch -->
    <title>icon-watched</title>
    <desc>Created with Sketch.</desc>
    <defs></defs>
    <g id="Icons" stroke="none" stroke-width="1" fill="none" fill-rule="evenodd">
        <g id="Artboard-5" transform="translate(-212.000000, -113.000000)" fill="#FFFFFF">
            <path d="M225,117.5 C224.208329,116.270827 223.216152,115.351566 222.023437,114.742187 C222.341147,115.283857 222.5,115.869789 222.5,116.5 C222.5,117.463546 222.157556,118.287757 221.472656,118.972656 C220.787757,119.657556 219.963546,120 219,120 C218.036454,120 217.212243,119.657556 216.527344,118.972656 C215.842444,118.287757 215.5,117.463546 215.5,116.5 C215.5,115.869789 215.658853,115.283857 215.976562,114.742187 C214.783848,115.351566 213.791671,116.270827 213,117.5 C213.692712,118.567714 214.561193,119.417966 215.605469,120.050781 C216.649745,120.683597 217.781244,121 219,121 C220.218756,121 221.350255,120.683597 222.394531,120.050781 C223.438807,119.417966 224.307288,118.567714 225,117.5 Z M219.375,114.5 C219.375,114.395833 219.338542,114.307292 219.265625,114.234375 C219.192708,114.161458 219.104167,114.125 219,114.125 C218.348955,114.125 217.790367,114.358071 217.324219,114.824219 C216.858071,115.290367 216.625,115.848955 216.625,116.5 C216.625,116.604167 216.661458,116.692708 216.734375,116.765625 C216.807292,116.838542 216.895833,116.875 217,116.875 C217.104167,116.875 217.192708,116.838542 217.265625,116.765625 C217.338542,116.692708 217.375,116.604167 217.375,116.5 C217.375,116.052081 217.533853,115.669272 217.851562,115.351562 C218.169272,115.033853 218.552081,114.875 219,114.875 C219.104167,114.875 219.192708,114.838542 219.265625,114.765625 C219.338542,114.692708 219.375,114.604167 219.375,114.5 Z M226,117.5 C226,117.677084 225.947917,117.85677 225.84375,118.039062 C225.11458,119.236985 224.134121,120.196611 222.902344,120.917969 C221.670567,121.639327 220.369799,122 219,122 C217.630201,122 216.329433,121.638024 215.097656,120.914062 C213.865879,120.190101 212.88542,119.231777 212.15625,118.039062 C212.052083,117.85677 212,117.677084 212,117.5 C212,117.322916 212.052083,117.14323 212.15625,116.960938 C212.88542,115.768223 213.865879,114.809899 215.097656,114.085937 C216.329433,113.361976 217.630201,113 219,113 C220.369799,113 221.670567,113.361976 222.902344,114.085937 C224.134121,114.809899 225.11458,115.768223 225.84375,116.960938 C225.947917,117.14323 226,117.322916 226,117.5 Z" id="icon-watched"></path>
        </g>
    </g>
</svg>