<?xml version="1.0" encoding="UTF-8"?>
<svg width="11px" height="12px" viewBox="0 0 11 12" version="1.1" xmlns="http://www.w3.org/2000/svg" xmlns:xlink="http://www.w3.org/1999/xlink">
    <!-- Generator: Sketch 42 (36781) - http://www.bohemiancoding.com/sketch -->
    <title>icon-check-light</title>
    <desc>Created with Sketch.</desc>
    <defs></defs>
    <g id="Icons" stroke="none" stroke-width="1" fill="none" fill-rule="evenodd">
        <g id="Artboard-4" transform="translate(-34.000000, -11.000000)" fill="#FFFFFF">
            <path d="M43.1953125,15.7684152 C43.1953125,15.634734 43.1523442,15.524926 43.0664063,15.4389881 L42.4147135,14.7944568 C42.3240013,14.7037446 42.2165805,14.6583891 42.0924479,14.6583891 C41.9683154,14.6583891 41.8608946,14.7037446 41.7701823,14.7944568 L38.8483073,17.7091704 L37.2298177,16.0906808 C37.1391054,15.9999685 37.0316846,15.9546131 36.9075521,15.9546131 C36.7834195,15.9546131 36.6759987,15.9999685 36.5852865,16.0906808 L35.9335937,16.7352121 C35.8476558,16.82115 35.8046875,16.9309579 35.8046875,17.0646391 C35.8046875,17.193546 35.8476558,17.3009668 35.9335937,17.3869048 L38.5260417,19.9793527 C38.6167539,20.0700649 38.7241747,20.1154204 38.8483073,20.1154204 C38.9772142,20.1154204 39.0870221,20.0700649 39.1777344,19.9793527 L43.0664063,16.0906808 C43.1523442,16.0047429 43.1953125,15.8973221 43.1953125,15.7684152 Z M45,16.9285714 C45,17.9264063 44.7541257,18.8466445 44.2623698,19.6893136 C43.7706139,20.5319828 43.1034113,21.1991853 42.2607422,21.6909412 C41.418073,22.1826972 40.4978349,22.4285714 39.5,22.4285714 C38.5021651,22.4285714 37.581927,22.1826972 36.7392578,21.6909412 C35.8965887,21.1991853 35.2293861,20.5319828 34.7376302,19.6893136 C34.2458743,18.8466445 34,17.9264063 34,16.9285714 C34,15.9307366 34.2458743,15.0104984 34.7376302,14.1678292 C35.2293861,13.3251601 35.8965887,12.6579576 36.7392578,12.1662016 C37.581927,11.6744457 38.5021651,11.4285714 39.5,11.4285714 C40.4978349,11.4285714 41.418073,11.6744457 42.2607422,12.1662016 C43.1034113,12.6579576 43.7706139,13.3251601 44.2623698,14.1678292 C44.7541257,15.0104984 45,15.9307366 45,16.9285714 Z" id="icon-check-light"></path>
        </g>
    </g>
</svg>