<?xml version="1.0" encoding="UTF-8"?>
<svg width="11px" height="11px" viewBox="0 0 11 11" version="1.1" xmlns="http://www.w3.org/2000/svg" xmlns:xlink="http://www.w3.org/1999/xlink">
    <!-- Generator: Sketch 41 (35326) - http://www.bohemiancoding.com/sketch -->
    <title>icon-warning</title>
    <desc>Created with Sketch.</desc>
    <defs></defs>
    <g id="Modals" stroke="none" stroke-width="1" fill="none" fill-rule="evenodd">
        <g id="Modals-V2.1" transform="translate(-601.000000, -1258.000000)" fill="#FF9E09">
            <g id="Group-4-Copy" transform="translate(23.000000, 384.000000)">
                <g id="Group-12" transform="translate(443.000000, 826.000000)">
                    <g id="Group-5">
                        <g id="Group-8" transform="translate(0.000000, 45.000000)">
                            <path d="M140.142857,3.57142857 C141.075898,3.57142857 141.93638,3.80133699 142.72433,4.26116071 C143.512281,4.72098444 144.136158,5.34486213 144.595982,6.1328125 C145.055806,6.92076287 145.285714,7.78124533 145.285714,8.71428571 C145.285714,9.64732609 145.055806,10.5078086 144.595982,11.2957589 C144.136158,12.0837093 143.512281,12.707587 142.72433,13.1674107 C141.93638,13.6272344 141.075898,13.8571429 140.142857,13.8571429 C139.209817,13.8571429 138.349334,13.6272344 137.561384,13.1674107 C136.773434,12.707587 136.149556,12.0837093 135.689732,11.2957589 C135.229908,10.5078086 135,9.64732609 135,8.71428571 C135,7.78124533 135.229908,6.92076287 135.689732,6.1328125 C136.149556,5.34486213 136.773434,4.72098444 137.561384,4.26116071 C138.349334,3.80133699 139.209817,3.57142857 140.142857,3.57142857 Z M141,11.921875 L141,10.6495536 C141,10.5870533 140.979911,10.5345984 140.939732,10.4921875 C140.899553,10.4497766 140.850447,10.4285714 140.792411,10.4285714 L139.506696,10.4285714 C139.44866,10.4285714 139.397322,10.4508926 139.352679,10.4955357 C139.308035,10.5401788 139.285714,10.5915176 139.285714,10.6495536 L139.285714,11.921875 C139.285714,11.979911 139.308035,12.0312498 139.352679,12.0758929 C139.397322,12.1205359 139.44866,12.1428571 139.506696,12.1428571 L140.792411,12.1428571 C140.850447,12.1428571 140.899553,12.121652 140.939732,12.0792411 C140.979911,12.0368301 141,11.9843753 141,11.921875 Z M140.986607,9.61830357 L141.107143,5.45982143 C141.107143,5.40624973 141.084822,5.36607156 141.040179,5.33928571 C140.995535,5.30357125 140.941965,5.28571429 140.879464,5.28571429 L139.40625,5.28571429 C139.34375,5.28571429 139.290179,5.30357125 139.245536,5.33928571 C139.200893,5.36607156 139.178571,5.40624973 139.178571,5.45982143 L139.292411,9.61830357 C139.292411,9.66294665 139.314732,9.70200876 139.359375,9.73549107 C139.404018,9.76897338 139.457589,9.78571429 139.520089,9.78571429 L140.758929,9.78571429 C140.821429,9.78571429 140.873884,9.76897338 140.916295,9.73549107 C140.958706,9.70200876 140.982143,9.66294665 140.986607,9.61830357 Z" id="icon-warning"></path>
                        </g>
                    </g>
                </g>
            </g>
        </g>
    </g>
</svg>
