<?xml version="1.0" encoding="UTF-8"?>
<svg width="14px" height="14px" viewBox="0 0 14 14" version="1.1" xmlns="http://www.w3.org/2000/svg" xmlns:xlink="http://www.w3.org/1999/xlink">
    <!-- Generator: Sketch 40.3 (33839) - http://www.bohemiancoding.com/sketch -->
    <title>icon-notification</title>
    <desc>Created with Sketch.</desc>
    <defs></defs>
    <g id="V2" stroke="none" stroke-width="1" fill="none" fill-rule="evenodd">
        <g id="New-Columns" transform="translate(-376.000000, -62.000000)" fill="#FFFFFF">
            <g id="Group-Copy-3" transform="translate(365.000000, 51.000000)">
                <g id="Group-2" transform="translate(6.000000, 6.000000)">
                    <path d="M12.125,18.25 C12.125,18.1666662 12.0833337,18.125 12,18.125 C11.6927068,18.125 11.4283865,18.014324 11.2070312,17.7929688 C10.985676,17.5716135 10.875,17.3072932 10.875,17 C10.875,16.9166662 10.8333337,16.875 10.75,16.875 C10.6666662,16.875 10.625,16.9166662 10.625,17 C10.625,17.3802102 10.7591132,17.7044257 11.0273438,17.9726562 C11.2955743,18.2408868 11.6197898,18.375 12,18.375 C12.0833337,18.375 12.125,18.3333338 12.125,18.25 L12.125,18.25 Z M6.921875,16 L17.078125,16 C15.6927014,14.4374922 15,12.2708472 15,9.5 C15,9.23437367 14.9375006,8.96093891 14.8125,8.6796875 C14.6874994,8.39843609 14.5078137,8.13020961 14.2734375,7.875 C14.0390613,7.61979039 13.7226582,7.41015707 13.3242188,7.24609375 C12.9257793,7.08203043 12.4843774,7 12,7 C11.5156226,7 11.0742207,7.08203043 10.6757812,7.24609375 C10.2773418,7.41015707 9.96093867,7.61979039 9.7265625,7.875 C9.49218633,8.13020961 9.31250063,8.39843609 9.1875,8.6796875 C9.06249937,8.96093891 9,9.23437367 9,9.5 C9,12.2708472 8.30729859,14.4374922 6.921875,16 L6.921875,16 Z M18.5,16 C18.5,16.2708347 18.4010427,16.5052073 18.203125,16.703125 C18.0052073,16.9010427 17.7708347,17 17.5,17 L14,17 C14,17.5520861 13.8046895,18.0234355 13.4140625,18.4140625 C13.0234355,18.8046895 12.5520861,19 12,19 C11.4479139,19 10.9765645,18.8046895 10.5859375,18.4140625 C10.1953105,18.0234355 10,17.5520861 10,17 L6.5,17 C6.22916531,17 5.99479266,16.9010427 5.796875,16.703125 C5.59895734,16.5052073 5.5,16.2708347 5.5,16 C5.76041797,15.7812489 5.99739477,15.5520845 6.2109375,15.3125 C6.42448023,15.0729155 6.64583219,14.7617207 6.875,14.3789062 C7.10416781,13.9960918 7.29817629,13.5833355 7.45703125,13.140625 C7.61588621,12.6979145 7.74609324,12.1614615 7.84765625,11.53125 C7.94921926,10.9010385 8,10.223962 8,9.5 C8,8.70832937 8.30468445,7.97265965 8.9140625,7.29296875 C9.52344055,6.61327785 10.3229117,6.20052156 11.3125,6.0546875 C11.2708331,5.95572867 11.25,5.85416719 11.25,5.75 C11.25,5.54166563 11.3229159,5.36458406 11.46875,5.21875 C11.6145841,5.07291594 11.7916656,5 12,5 C12.2083344,5 12.3854159,5.07291594 12.53125,5.21875 C12.6770841,5.36458406 12.75,5.54166563 12.75,5.75 C12.75,5.85416719 12.7291669,5.95572867 12.6875,6.0546875 C13.6770883,6.20052156 14.4765595,6.61327785 15.0859375,7.29296875 C15.6953155,7.97265965 16,8.70832937 16,9.5 C16,10.223962 16.0507807,10.9010385 16.1523438,11.53125 C16.2539068,12.1614615 16.3841138,12.6979145 16.5429688,13.140625 C16.7018237,13.5833355 16.8958322,13.9960918 17.125,14.3789062 C17.3541678,14.7617207 17.5755198,15.0729155 17.7890625,15.3125 C18.0026052,15.5520845 18.239582,15.7812489 18.5,16 L18.5,16 Z" id="icon-notification"></path>
                </g>
            </g>
        </g>
    </g>
</svg>