<?xml version="1.0" encoding="UTF-8"?>
<svg width="15px" height="13px" viewBox="0 0 15 13" version="1.1" xmlns="http://www.w3.org/2000/svg" xmlns:xlink="http://www.w3.org/1999/xlink">
    <!-- Generator: Sketch 42 (36781) - http://www.bohemiancoding.com/sketch -->
    <title>icon-check-ok</title>
    <desc>Created with Sketch.</desc>
    <defs></defs>
    <g id="Icons" stroke="none" stroke-width="1" fill="none" fill-rule="evenodd">
        <g id="Artboard-2" transform="translate(-41.000000, -61.000000)">
            <g id="icon-check-ok" transform="translate(41.000000, 61.000000)">
                <path d="M12.5714286,7.58928571 L12.5714286,10.4285714 C12.5714286,11.1369083 12.319943,11.742557 11.8169643,12.2455357 C11.3139856,12.7485144 10.7083369,13 10,13 L2.57142857,13 C1.8630917,13 1.25744299,12.7485144 0.754464286,12.2455357 C0.25148558,11.742557 0,11.1369083 0,10.4285714 L0,3 C0,2.29166313 0.25148558,1.68601442 0.754464286,1.18303571 C1.25744299,0.680057009 1.8630917,0.428571429 2.57142857,0.428571429 L10,0.428571429 C10.3750019,0.428571429 10.7232127,0.502975446 11.0446429,0.651785714 C11.133929,0.693452589 11.1874999,0.761904286 11.2053571,0.857142857 C11.2232144,0.958333839 11.1964289,1.0446425 11.125,1.11607143 L10.6875,1.55357143 C10.6279759,1.61309554 10.5595242,1.64285714 10.4821429,1.64285714 C10.4642856,1.64285714 10.4375002,1.63690482 10.4017857,1.625 C10.2648803,1.58928554 10.130953,1.57142857 10,1.57142857 L2.57142857,1.57142857 C2.17856946,1.57142857 1.8422633,1.71130813 1.5625,1.99107143 C1.2827367,2.27083473 1.14285714,2.60714089 1.14285714,3 L1.14285714,10.4285714 C1.14285714,10.8214305 1.2827367,11.1577367 1.5625,11.4375 C1.8422633,11.7172633 2.17856946,11.8571429 2.57142857,11.8571429 L10,11.8571429 C10.3928591,11.8571429 10.7291653,11.7172633 11.0089286,11.4375 C11.2886919,11.1577367 11.4285714,10.8214305 11.4285714,10.4285714 L11.4285714,8.16071429 C11.4285714,8.08333295 11.4553569,8.01785741 11.5089286,7.96428571 L12.0803571,7.39285714 C12.1398813,7.33333304 12.2083329,7.30357143 12.2857143,7.30357143 C12.3214287,7.30357143 12.3571427,7.31249991 12.3928571,7.33035714 C12.5119054,7.37797643 12.5714286,7.46428509 12.5714286,7.58928571 Z" id="ï†" fill="#2C323F"></path>
                <path d="M14.6339286,3.22321429 L7.36607143,10.4910714 C7.22321357,10.6339293 7.05357241,10.7053571 6.85714286,10.7053571 C6.6607133,10.7053571 6.49107214,10.6339293 6.34821429,10.4910714 L2.50892857,6.65178571 C2.36607071,6.50892786 2.29464286,6.3392867 2.29464286,6.14285714 C2.29464286,5.94642759 2.36607071,5.77678643 2.50892857,5.63392857 L3.49107143,4.65178571 C3.63392929,4.50892786 3.80357045,4.4375 4,4.4375 C4.19642955,4.4375 4.36607071,4.50892786 4.50892857,4.65178571 L6.85714286,7 L12.6339286,1.22321429 C12.7767864,1.08035643 12.9464276,1.00892857 13.1428571,1.00892857 C13.3392867,1.00892857 13.5089279,1.08035643 13.6517857,1.22321429 L14.6339286,2.20535714 C14.7767864,2.348215 14.8482143,2.51785616 14.8482143,2.71428571 C14.8482143,2.91071527 14.7767864,3.08035643 14.6339286,3.22321429 Z" id="Path" fill="#00E097"></path>
            </g>
        </g>
    </g>
</svg>