<?xml version="1.0" encoding="UTF-8"?>
<svg width="26px" height="26px" viewBox="0 0 26 26" version="1.1" xmlns="http://www.w3.org/2000/svg" xmlns:xlink="http://www.w3.org/1999/xlink">
    <!-- Generator: Sketch 57.1 (83088) - https://sketch.com -->
    <title>icon-pin-active</title>
    <desc>Created with Sketch.</desc>
    <g id="UPSIZE" stroke="none" stroke-width="1" fill="none" fill-rule="evenodd">
        <g id="Artboard-Copy-4" transform="translate(-340.000000, -130.000000)">
            <g id="icon-pin-active" transform="translate(341.000000, 131.000000)">
                <circle id="Oval" stroke="#2B5FD9" stroke-width="2" fill="#F2F5FD" cx="12" cy="12" r="12"></circle>
                <path d="M10.5306122,12 L10.5306122,8.57142857 C10.5306122,8.49999964 10.5076533,8.44132676 10.4617347,8.39540816 C10.4158161,8.34948957 10.3571429,8.32653061 10.2857143,8.32653061 C10.2142854,8.32653061 10.1556125,8.34948957 10.1096939,8.39540816 C10.0637753,8.44132676 10.0408163,8.49999964 10.0408163,8.57142857 L10.0408163,12 C10.0408163,12.0714289 10.0637753,12.1301018 10.1096939,12.1760204 C10.1556125,12.221939 10.2142854,12.244898 10.2857143,12.244898 C10.3571429,12.244898 10.4158161,12.221939 10.4617347,12.1760204 C10.5076533,12.1301018 10.5306122,12.0714289 10.5306122,12 Z M15.6734694,14.6938776 C15.6734694,14.8265313 15.6250005,14.941326 15.5280612,15.0382653 C15.431122,15.1352046 15.3163272,15.1836735 15.1836735,15.1836735 L11.9005102,15.1836735 L11.5102041,18.880102 C11.4999999,18.9413268 11.4732145,18.9936222 11.4298469,19.0369898 C11.3864794,19.0803574 11.334184,19.1020408 11.2729592,19.1020408 L11.2653061,19.1020408 C11.1275503,19.1020408 11.0459185,19.033164 11.0204082,18.8954082 L10.4387755,15.1836735 L7.34693878,15.1836735 C7.21428505,15.1836735 7.09949028,15.1352046 7.00255102,15.0382653 C6.90561176,14.941326 6.85714286,14.8265313 6.85714286,14.6938776 C6.85714286,14.0663234 7.05739596,13.501278 7.45790816,12.9987245 C7.85842037,12.496171 8.31122196,12.244898 8.81632653,12.244898 L8.81632653,8.32653061 C8.55101908,8.32653061 8.32142954,8.22959281 8.12755102,8.03571429 C7.9336725,7.84183577 7.83673469,7.61224622 7.83673469,7.34693878 C7.83673469,7.08163133 7.9336725,6.85204179 8.12755102,6.65816327 C8.32142954,6.46428474 8.55101908,6.36734694 8.81632653,6.36734694 L13.7142857,6.36734694 C13.9795932,6.36734694 14.2091827,6.46428474 14.4030612,6.65816327 C14.5969397,6.85204179 14.6938776,7.08163133 14.6938776,7.34693878 C14.6938776,7.61224622 14.5969397,7.84183577 14.4030612,8.03571429 C14.2091827,8.22959281 13.9795932,8.32653061 13.7142857,8.32653061 L13.7142857,12.244898 C14.2193903,12.244898 14.6721919,12.496171 15.0727041,12.9987245 C15.4732163,13.501278 15.6734694,14.0663234 15.6734694,14.6938776 Z" id="ï‚" fill="#2B5FD9" fill-rule="nonzero" transform="translate(11.265306, 12.734694) rotate(-330.000000) translate(-11.265306, -12.734694) "></path>
            </g>
        </g>
    </g>
</svg>