<?xml version="1.0" encoding="UTF-8"?>
<svg width="13px" height="12px" viewBox="0 0 13 12" version="1.1" xmlns="http://www.w3.org/2000/svg" xmlns:xlink="http://www.w3.org/1999/xlink">
    <!-- Generator: Sketch 57.1 (83088) - https://sketch.com -->
    <title>icon-open</title>
    <desc>Created with Sketch.</desc>
    <g id="Icons" stroke="none" stroke-width="1" fill="none" fill-rule="evenodd">
        <g id="Artboard-5" transform="translate(-235.000000, -89.000000)" fill="#FFFFFF" fill-rule="nonzero">
            <path d="M246,96.7265625 L246,98.75 C246,99.3697948 245.77995,99.8997374 245.339844,100.339844 C244.899737,100.77995 244.369795,101 243.75,101 L237.25,101 C236.630205,101 236.100263,100.77995 235.660156,100.339844 C235.22005,99.8997374 235,99.3697948 235,98.75 L235,92.25 C235,91.6302052 235.22005,91.1002626 235.660156,90.6601563 C236.100263,90.2200499 236.630205,90 237.25,90 L239.242188,90 C239.309896,90 239.368489,90.0247393 239.417969,90.0742188 C239.467448,90.1236982 239.492188,90.1822913 239.492188,90.25 C239.492188,90.3906257 239.42448,90.4739582 239.289062,90.5 C238.888019,90.6354173 238.541668,90.7916658 238.25,90.96875 C238.197916,90.9895834 238.15625,91 238.125,91 L237.25,91 C236.906248,91 236.61198,91.1223946 236.367188,91.3671875 C236.122395,91.6119804 236,91.9062483 236,92.25 L236,98.75 C236,99.0937517 236.122395,99.3880196 236.367188,99.6328125 C236.61198,99.8776054 236.906248,100 237.25,100 L243.75,100 C244.093752,100 244.38802,99.8776054 244.632812,99.6328125 C244.877605,99.3880196 245,99.0937517 245,98.75 L245,97.078125 C245,96.9791662 245.046875,96.9036461 245.140625,96.8515625 C245.286459,96.7838538 245.427083,96.6875006 245.5625,96.5625 C245.645834,96.4791663 245.736979,96.4583331 245.835938,96.5 C245.945313,96.5468752 246,96.6223953 246,96.7265625 Z M247.851562,92.8515625 L244.851562,95.8515625 C244.757812,95.9505213 244.640626,96 244.5,96 C244.4375,96 244.372396,95.9869793 244.304688,95.9609375 C244.101561,95.8723954 244,95.7187511 244,95.5 L244,94 L242.75,94 C241.0677,94 239.927086,94.3411424 239.328125,95.0234375 C238.70833,95.7369827 238.515624,96.9687412 238.75,98.71875 C238.765625,98.8385423 238.713542,98.927083 238.59375,98.984375 C238.552083,98.9947917 238.520833,99 238.5,99 C238.416666,99 238.348959,98.9661462 238.296875,98.8984375 C238.244791,98.8255205 238.190104,98.7447921 238.132812,98.65625 C238.075521,98.5677079 237.972657,98.3893243 237.824219,98.1210938 C237.675781,97.8528632 237.546876,97.5937513 237.4375,97.34375 C237.328124,97.0937488 237.227865,96.7968767 237.136719,96.453125 C237.045572,96.1093733 237,95.7916681 237,95.5 C237,95.2447904 237.009114,95.0078136 237.027344,94.7890625 C237.045573,94.5703114 237.082031,94.3359387 237.136719,94.0859375 C237.191407,93.8359363 237.264322,93.6067719 237.355469,93.3984375 C237.446615,93.1901031 237.56901,92.9778657 237.722656,92.7617188 C237.876303,92.5455718 238.054686,92.3528654 238.257812,92.1835938 C238.460939,92.0143221 238.70703,91.8541674 238.996094,91.703125 C239.285158,91.5520826 239.609373,91.4257818 239.96875,91.3242188 C240.328127,91.2226557 240.743487,91.1432295 241.214844,91.0859375 C241.6862,91.0286455 242.197914,91 242.75,91 L244,91 L244,89.5 C244,89.2812489 244.101561,89.1276046 244.304688,89.0390625 C244.372396,89.0130207 244.4375,89 244.5,89 C244.635417,89 244.752604,89.0494787 244.851562,89.1484375 L247.851562,92.1484375 C247.950521,92.2473963 248,92.3645827 248,92.5 C248,92.6354173 247.950521,92.7526037 247.851562,92.8515625 Z" id="icon-open"></path>
        </g>
    </g>
</svg>