<svg width="52" height="52" viewBox="0 0 52 52" fill="none" xmlns="http://www.w3.org/2000/svg">
<g id="icon-popup-close">
<path id="Oval" fill-rule="evenodd" clip-rule="evenodd" d="M26 50C39.2548 50 50 39.2548 50 26C50 12.7452 39.2548 2 26 2C12.7452 2 2 12.7452 2 26C2 39.2548 12.7452 50 26 50Z" fill="white" stroke="#C2C5CC" stroke-width="2"/>
<g id="Group 11">
<path id="Line 1 (Stroke)" fill-rule="evenodd" clip-rule="evenodd" d="M36.6839 36.5662C36.0005 37.2496 34.8924 37.2496 34.209 36.5662L15.3551 17.7123C14.6717 17.0289 14.6717 15.9209 15.3551 15.2374C16.0385 14.554 17.1465 14.554 17.83 15.2374L36.6839 34.0914C37.3673 34.7748 37.3673 35.8828 36.6839 36.5662Z" fill="#C2C5CC"/>
<path id="Line 2 (Stroke)" fill-rule="evenodd" clip-rule="evenodd" d="M36.6451 15.2374C37.3285 15.9208 37.3285 17.0288 36.6451 17.7123L17.7912 36.5662C17.1078 37.2496 15.9997 37.2496 15.3163 36.5662C14.6329 35.8828 14.6329 34.7747 15.3163 34.0913L34.1702 15.2374C34.8536 14.554 35.9617 14.554 36.6451 15.2374Z" fill="#C2C5CC"/>
</g>
</g>
</svg>
