<?xml version="1.0" encoding="UTF-8"?>
<svg width="16px" height="17px" viewBox="0 0 16 17" version="1.1" xmlns="http://www.w3.org/2000/svg" xmlns:xlink="http://www.w3.org/1999/xlink">
    <!-- Generator: Sketch 41 (35326) - http://www.bohemiancoding.com/sketch -->
    <title>icon-delete</title>
    <desc>Created with Sketch.</desc>
    <defs></defs>
    <g id="V3" stroke="none" stroke-width="1" fill="none" fill-rule="evenodd">
        <g id="Artboard" transform="translate(-103.000000, -52.000000)" fill="#FF0928">
            <path d="M114.96875,62.639881 C114.96875,62.4593245 114.902778,62.3030761 114.770833,62.171131 L112.885417,60.2857143 L114.770833,58.4002976 C114.902778,58.2683525 114.96875,58.1121041 114.96875,57.9315476 C114.96875,57.7440467 114.902778,57.5843261 114.770833,57.452381 L113.833333,56.514881 C113.701388,56.3829358 113.541668,56.3169643 113.354167,56.3169643 C113.17361,56.3169643 113.017362,56.3829358 112.885417,56.514881 L111,58.4002976 L109.114583,56.514881 C108.982638,56.3829358 108.82639,56.3169643 108.645833,56.3169643 C108.458332,56.3169643 108.298612,56.3829358 108.166667,56.514881 L107.229167,57.452381 C107.097222,57.5843261 107.03125,57.7440467 107.03125,57.9315476 C107.03125,58.1121041 107.097222,58.2683525 107.229167,58.4002976 L109.114583,60.2857143 L107.229167,62.171131 C107.097222,62.3030761 107.03125,62.4593245 107.03125,62.639881 C107.03125,62.8273819 107.097222,62.9871025 107.229167,63.1190476 L108.166667,64.0565476 C108.298612,64.1884927 108.458332,64.2544643 108.645833,64.2544643 C108.82639,64.2544643 108.982638,64.1884927 109.114583,64.0565476 L111,62.171131 L112.885417,64.0565476 C113.017362,64.1884927 113.17361,64.2544643 113.354167,64.2544643 C113.541668,64.2544643 113.701388,64.1884927 113.833333,64.0565476 L114.770833,63.1190476 C114.902778,62.9871025 114.96875,62.8273819 114.96875,62.639881 Z M119,60.2857143 C119,61.7371104 118.642365,63.0756387 117.927083,64.3013393 C117.211802,65.5270399 116.241326,66.4975163 115.015625,67.2127976 C113.789924,67.928079 112.451396,68.2857143 111,68.2857143 C109.548604,68.2857143 108.210076,67.928079 106.984375,67.2127976 C105.758674,66.4975163 104.788198,65.5270399 104.072917,64.3013393 C103.357635,63.0756387 103,61.7371104 103,60.2857143 C103,58.8343181 103.357635,57.4957899 104.072917,56.2700893 C104.788198,55.0443887 105.758674,54.0739123 106.984375,53.358631 C108.210076,52.6433496 109.548604,52.2857143 111,52.2857143 C112.451396,52.2857143 113.789924,52.6433496 115.015625,53.358631 C116.241326,54.0739123 117.211802,55.0443887 117.927083,56.2700893 C118.642365,57.4957899 119,58.8343181 119,60.2857143 Z" id="icon-delete"></path>
        </g>
    </g>
</svg>
