<?xml version="1.0" encoding="UTF-8"?>
<svg width="14px" height="15px" viewBox="0 0 14 15" version="1.1" xmlns="http://www.w3.org/2000/svg" xmlns:xlink="http://www.w3.org/1999/xlink">
    <!-- Generator: Sketch 49.3 (51167) - http://www.bohemiancoding.com/sketch -->
    <title>icon-clock-light</title>
    <desc>Created with Sketch.</desc>
    <defs></defs>
    <g id="Icons" stroke="none" stroke-width="1" fill="none" fill-rule="evenodd">
        <g id="Artboard-4" transform="translate(-10.000000, -11.000000)" fill="#FFFFFF">
            <path d="M18,15.1428571 L18,19.1428571 C18,19.2261909 17.9732146,19.2946426 17.9196429,19.3482143 C17.8660712,19.401786 17.7976195,19.4285714 17.7142857,19.4285714 L14.8571429,19.4285714 C14.7738091,19.4285714 14.7053574,19.401786 14.6517857,19.3482143 C14.598214,19.2946426 14.5714286,19.2261909 14.5714286,19.1428571 L14.5714286,18.5714286 C14.5714286,18.4880948 14.598214,18.4196431 14.6517857,18.3660714 C14.7053574,18.3124997 14.7738091,18.2857143 14.8571429,18.2857143 L16.8571429,18.2857143 L16.8571429,15.1428571 C16.8571429,15.0595234 16.8839283,14.9910717 16.9375,14.9375 C16.9910717,14.8839283 17.0595234,14.8571429 17.1428571,14.8571429 L17.7142857,14.8571429 C17.7976195,14.8571429 17.8660712,14.8839283 17.9196429,14.9375 C17.9732146,14.9910717 18,15.0595234 18,15.1428571 Z M21.7142857,18.2857143 C21.7142857,17.4047575 21.497026,16.5922656 21.0625,15.8482143 C20.627974,15.1041629 20.0386942,14.5148831 19.2946429,14.0803571 C18.5505915,13.6458312 17.7380996,13.4285714 16.8571429,13.4285714 C15.9761861,13.4285714 15.1636942,13.6458312 14.4196429,14.0803571 C13.6755915,14.5148831 13.0863117,15.1041629 12.6517857,15.8482143 C12.2172597,16.5922656 12,17.4047575 12,18.2857143 C12,19.1666711 12.2172597,19.9791629 12.6517857,20.7232143 C13.0863117,21.4672656 13.6755915,22.0565454 14.4196429,22.4910714 C15.1636942,22.9255974 15.9761861,23.1428571 16.8571429,23.1428571 C17.7380996,23.1428571 18.5505915,22.9255974 19.2946429,22.4910714 C20.0386942,22.0565454 20.627974,21.4672656 21.0625,20.7232143 C21.497026,19.9791629 21.7142857,19.1666711 21.7142857,18.2857143 Z M23.7142857,18.2857143 C23.7142857,19.5297681 23.4077412,20.6770781 22.7946429,21.7276786 C22.1815446,22.7782791 21.3497076,23.610116 20.2991071,24.2232143 C19.2485067,24.8363126 18.1011967,25.1428571 16.8571429,25.1428571 C15.613089,25.1428571 14.4657791,24.8363126 13.4151786,24.2232143 C12.3645781,23.610116 11.5327412,22.7782791 10.9196429,21.7276786 C10.3065446,20.6770781 10,19.5297681 10,18.2857143 C10,17.0416604 10.3065446,15.8943505 10.9196429,14.84375 C11.5327412,13.7931495 12.3645781,12.9613126 13.4151786,12.3482143 C14.4657791,11.735116 15.613089,11.4285714 16.8571429,11.4285714 C18.1011967,11.4285714 19.2485067,11.735116 20.2991071,12.3482143 C21.3497076,12.9613126 22.1815446,13.7931495 22.7946429,14.84375 C23.4077412,15.8943505 23.7142857,17.0416604 23.7142857,18.2857143 Z" id="icon-clock-light"></path>
        </g>
    </g>
</svg>