<?xml version="1.0" encoding="UTF-8"?>
<svg width="12px" height="13px" viewBox="0 0 12 13" version="1.1" xmlns="http://www.w3.org/2000/svg" xmlns:xlink="http://www.w3.org/1999/xlink">
    <!-- Generator: Sketch 56.3 (81716) - https://sketch.com -->
    <title>icon-shield-dark</title>
    <desc>Created with Sketch.</desc>
    <g id="Auto-Protect" stroke="none" stroke-width="1" fill="none" fill-rule="evenodd">
        <g id="Artboard-Copy-2" transform="translate(-58.000000, -131.000000)" fill="#2D3240" fill-rule="nonzero">
            <g id="Group" transform="translate(37.000000, 127.000000)">
                <g id="Group-4" transform="translate(21.000000, 0.000000)">
                    <path d="M6,14.4003812 L6,6.53867694 L2.4275,8.04956649 C2.6375,11.0002449 4.0575,13.1942089 6,14.4003812 Z M11.2625,6.12476939 L6.4625,4.09332125 C6.16720062,3.96889292 5.83529938,3.96889292 5.54,4.09332125 L0.74,6.12476939 C0.2925,6.31267834 0,6.75705762 0,7.24968379 C0,12.2902145 2.8625,15.774148 5.5375,16.9066804 C5.8325,17.0311065 6.165,17.0311065 6.46,16.9066804 C8.6025,16.0001466 12,12.8691772 12,7.24968379 C12,6.75705762 11.7075,6.31267834 11.2625,6.12476939 Z M6,15.7817659 C3.5625,14.750806 1.2,11.5487359 1.2,7.24968379 L6,5.21823566 L10.8,7.24968379 C10.8,11.6630049 8.34,14.791435 6,15.7817659 Z" id="icon-shield-dark"></path>
                </g>
            </g>
        </g>
    </g>
</svg>