<?xml version="1.0" encoding="UTF-8"?>
<svg width="14px" height="14px" viewBox="0 0 14 14" version="1.1" xmlns="http://www.w3.org/2000/svg" xmlns:xlink="http://www.w3.org/1999/xlink">
    <!-- Generator: Sketch 42 (36781) - http://www.bohemiancoding.com/sketch -->
    <title>icon-warning-big</title>
    <desc>Created with Sketch.</desc>
    <defs></defs>
    <g id="Icons" stroke="none" stroke-width="1" fill="none" fill-rule="evenodd">
        <g id="Artboard-2" transform="translate(-69.000000, -101.000000)" fill-rule="nonzero" fill="#FF9E09">
            <path d="M75.5454544,101.727273 C76.7329611,101.727273 77.82812,102.019883 78.8309655,102.605114 C79.8338122,103.190344 80.6278375,103.98437 81.213068,104.987216 C81.7982985,105.990062 82.0909087,107.085221 82.0909087,108.272727 C82.0909087,109.460233 81.7982985,110.555393 81.213068,111.558239 C80.6278375,112.561085 79.8338122,113.355111 78.8309655,113.940341 C77.82812,114.525571 76.7329611,114.818182 75.5454544,114.818182 C74.3579489,114.818182 73.2627887,114.525571 72.2599433,113.940341 C71.2570978,113.355111 70.4630713,112.561085 69.8778407,111.558239 C69.2926102,110.555393 69,109.460233 69,108.272727 C69,107.085221 69.2926102,105.990062 69.8778407,104.987216 C70.4630713,103.98437 71.2570978,103.190344 72.2599433,102.605114 C73.2627887,102.019883 74.3579489,101.727273 75.5454544,101.727273 Z M76.6363636,112.355114 L76.6363636,110.735795 C76.6363636,110.65625 76.6107958,110.589489 76.5596589,110.535511 C76.508522,110.481534 76.4460235,110.454545 76.3721595,110.454545 L74.7357949,110.454545 C74.6619309,110.454545 74.5965916,110.482954 74.5397733,110.539773 C74.4829536,110.596591 74.4545451,110.661931 74.4545451,110.735795 L74.4545451,112.355114 C74.4545451,112.428978 74.4829536,112.494318 74.5397733,112.551136 C74.5965916,112.607955 74.6619309,112.636364 74.7357949,112.636364 L76.3721595,112.636364 C76.4460235,112.636364 76.508522,112.609375 76.5596589,112.555398 C76.6107958,112.50142 76.6363636,112.434659 76.6363636,112.355114 Z M76.619318,109.423295 L76.7727275,104.130682 C76.7727275,104.0625 76.7443189,104.011364 76.6875005,103.977273 C76.6306809,103.931818 76.5625009,103.909091 76.4829542,103.909091 L74.6079545,103.909091 C74.5284091,103.909091 74.4602278,103.931818 74.4034095,103.977273 C74.3465911,104.011364 74.3181813,104.0625 74.3181813,104.130682 L74.4630685,109.423295 C74.4630685,109.480114 74.4914771,109.529829 74.5482955,109.572443 C74.6051138,109.615057 74.6732951,109.636364 74.7528405,109.636364 L76.329546,109.636364 C76.4090915,109.636364 76.4758524,109.615057 76.52983,109.572443 C76.5838076,109.529829 76.6136365,109.480114 76.619318,109.423295 Z" id="icon-warning-big"></path>
        </g>
    </g>
</svg>