<?xml version="1.0" encoding="UTF-8"?>
<svg width="11px" height="11px" viewBox="0 0 11 11" version="1.1" xmlns="http://www.w3.org/2000/svg" xmlns:xlink="http://www.w3.org/1999/xlink">
    <!-- Generator: Sketch 48.2 (47327) - http://www.bohemiancoding.com/sketch -->
    <title>icon-switch-light</title>
    <desc>Created with Sketch.</desc>
    <defs></defs>
    <g id="Artboard" stroke="none" stroke-width="1" fill="none" fill-rule="evenodd" transform="translate(-853.000000, -627.000000)" opacity="0.5">
        <g id="Pending---Requester" transform="translate(722.000000, 397.000000)" fill="#FFFFFF">
            <g id="Group-3" transform="translate(90.000000, 223.000000)">
                <path d="M51.1183036,13.7857143 C51.1183036,13.8080358 51.1160715,13.8236607 51.1116071,13.8325893 C50.8258914,15.0290238 50.2276831,15.9988802 49.3169643,16.7421875 C48.4062454,17.4854948 47.3392918,17.8571429 46.1160714,17.8571429 C45.4642825,17.8571429 44.8337084,17.7343762 44.2243304,17.4888393 C43.6149523,17.2433023 43.071431,16.8928594 42.59375,16.4375 L41.7299107,17.3013393 C41.6450889,17.3861611 41.5446434,17.4285714 41.4285714,17.4285714 C41.3124994,17.4285714 41.212054,17.3861611 41.1272321,17.3013393 C41.0424103,17.2165174 41,17.116072 41,17 L41,14 C41,13.883928 41.0424103,13.7834826 41.1272321,13.6986607 C41.212054,13.6138389 41.3124994,13.5714286 41.4285714,13.5714286 L44.4285714,13.5714286 C44.5446434,13.5714286 44.6450889,13.6138389 44.7299107,13.6986607 C44.8147326,13.7834826 44.8571429,13.883928 44.8571429,14 C44.8571429,14.116072 44.8147326,14.2165174 44.7299107,14.3013393 L43.8125,15.21875 C44.1294659,15.5133943 44.4888373,15.7410706 44.890625,15.9017857 C45.2924127,16.0625008 45.7098193,16.1428571 46.1428571,16.1428571 C46.7410744,16.1428571 47.2991046,15.9977693 47.8169643,15.7075893 C48.334824,15.4174093 48.7499984,15.0178597 49.0625,14.5089286 C49.1116074,14.4330353 49.2299098,14.1718772 49.4174107,13.7254464 C49.4531252,13.6227673 49.5200888,13.5714286 49.6183036,13.5714286 L50.9040179,13.5714286 C50.9620539,13.5714286 51.0122766,13.5926337 51.0546875,13.6350446 C51.0970984,13.6774556 51.1183036,13.7276783 51.1183036,13.7857143 Z M51.2857143,8.42857143 L51.2857143,11.4285714 C51.2857143,11.5446434 51.243304,11.6450889 51.1584821,11.7299107 C51.0736603,11.8147326 50.9732149,11.8571429 50.8571429,11.8571429 L47.8571429,11.8571429 C47.7410708,11.8571429 47.6406254,11.8147326 47.5558036,11.7299107 C47.4709817,11.6450889 47.4285714,11.5446434 47.4285714,11.4285714 C47.4285714,11.3124994 47.4709817,11.212054 47.5558036,11.1272321 L48.4799107,10.203125 C47.8191931,9.5915148 47.0401831,9.28571429 46.1428571,9.28571429 C45.5446399,9.28571429 44.9866097,9.43080212 44.46875,9.72098214 C43.9508903,10.0111622 43.5357158,10.4107117 43.2232143,10.9196429 C43.1741069,10.9955361 43.0558045,11.2566942 42.8683036,11.703125 C42.8325891,11.8058041 42.7656255,11.8571429 42.6674107,11.8571429 L41.3348214,11.8571429 C41.2767854,11.8571429 41.2265627,11.8359377 41.1841518,11.7935268 C41.1417409,11.7511159 41.1205357,11.7008931 41.1205357,11.6428571 L41.1205357,11.5959821 C41.4107157,10.3995476 42.0133883,9.42969122 42.9285714,8.68638393 C43.8437546,7.94307664 44.9151724,7.57142857 46.1428571,7.57142857 C46.7946461,7.57142857 47.4285683,7.69531126 48.0446429,7.94308036 C48.6607174,8.19084945 49.2075869,8.54017632 49.6852679,8.99107143 L50.5558036,8.12723214 C50.6406254,8.04241029 50.7410708,8 50.8571429,8 C50.9732149,8 51.0736603,8.04241029 51.1584821,8.12723214 C51.243304,8.212054 51.2857143,8.31249942 51.2857143,8.42857143 Z" id="icon-switch-light"></path>
            </g>
        </g>
    </g>
</svg>