<?xml version="1.0" encoding="UTF-8"?>
<svg width="12px" height="14px" viewBox="0 0 12 14" version="1.1" xmlns="http://www.w3.org/2000/svg" xmlns:xlink="http://www.w3.org/1999/xlink">
    <!-- Generator: Sketch 40.3 (33839) - http://www.bohemiancoding.com/sketch -->
    <title>icon-waiting</title>
    <desc>Created with Sketch.</desc>
    <defs></defs>
    <g id="V2" stroke="none" stroke-width="1" fill="none" fill-rule="evenodd" opacity="0.5">
        <g id="New-Columns" transform="translate(-377.000000, -174.000000)" fill="#2C323F">
            <g id="Group-Copy-2" transform="translate(365.000000, 163.000000)">
                <g id="Group-2" transform="translate(6.000000, 6.000000)">
                    <path d="M17,6 C17,7.3593818 16.722659,8.5611927 16.1679688,9.60546875 C15.6132785,10.6497448 14.919275,11.4479139 14.0859375,12 C14.919275,12.5520861 15.6132785,13.3502552 16.1679688,14.3945312 C16.722659,15.4388073 17,16.6406182 17,18 L17.75,18 C17.822917,18 17.8828123,18.0234373 17.9296875,18.0703125 C17.9765627,18.1171877 18,18.177083 18,18.25 L18,18.75 C18,18.822917 17.9765627,18.8828123 17.9296875,18.9296875 C17.8828123,18.9765627 17.822917,19 17.75,19 L6.25,19 C6.17708297,19 6.11718773,18.9765627 6.0703125,18.9296875 C6.02343727,18.8828123 6,18.822917 6,18.75 L6,18.25 C6,18.177083 6.02343727,18.1171877 6.0703125,18.0703125 C6.11718773,18.0234373 6.17708297,18 6.25,18 L7,18 C7,16.6406182 7.27734098,15.4388073 7.83203125,14.3945312 C8.38672152,13.3502552 9.080725,12.5520861 9.9140625,12 C9.080725,11.4479139 8.38672152,10.6497448 7.83203125,9.60546875 C7.27734098,8.5611927 7,7.3593818 7,6 L6.25,6 C6.17708297,6 6.11718773,5.97656273 6.0703125,5.9296875 C6.02343727,5.88281227 6,5.82291703 6,5.75 L6,5.25 C6,5.17708297 6.02343727,5.11718773 6.0703125,5.0703125 C6.11718773,5.02343727 6.17708297,5 6.25,5 L17.75,5 C17.822917,5 17.8828123,5.02343727 17.9296875,5.0703125 C17.9765627,5.11718773 18,5.17708297 18,5.25 L18,5.75 C18,5.82291703 17.9765627,5.88281227 17.9296875,5.9296875 C17.8828123,5.97656273 17.822917,6 17.75,6 L17,6 Z M12.828125,11.53125 C13.2291687,11.3802076 13.6171856,11.1393246 13.9921875,10.8085938 C14.3671894,10.4778629 14.7044256,10.0807315 15.0039062,9.6171875 C15.3033869,9.15364352 15.5442699,8.60677398 15.7265625,7.9765625 C15.9088551,7.34635102 16,6.68750344 16,6 L8,6 C8,6.68750344 8.09114492,7.34635102 8.2734375,7.9765625 C8.45573008,8.60677398 8.69661309,9.15364352 8.99609375,9.6171875 C9.29557441,10.0807315 9.63281062,10.4778629 10.0078125,10.8085938 C10.3828144,11.1393246 10.7708313,11.3802076 11.171875,11.53125 C11.2708338,11.5677085 11.3502601,11.6289058 11.4101562,11.7148438 C11.4700524,11.8007817 11.5,11.8958328 11.5,12 C11.5,12.1041672 11.4700524,12.1992183 11.4101562,12.2851562 C11.3502601,12.3710942 11.2708338,12.4322915 11.171875,12.46875 C10.7708313,12.6197924 10.3828144,12.8606754 10.0078125,13.1914062 C9.63281062,13.5221371 9.29557441,13.9192685 8.99609375,14.3828125 C8.69661309,14.8463565 8.45573008,15.393226 8.2734375,16.0234375 C8.09114492,16.653649 8,17.3124966 8,18 L16,18 C16,17.3124966 15.9088551,16.653649 15.7265625,16.0234375 C15.5442699,15.393226 15.3033869,14.8463565 15.0039062,14.3828125 C14.7044256,13.9192685 14.3671894,13.5221371 13.9921875,13.1914062 C13.6171856,12.8606754 13.2291687,12.6197924 12.828125,12.46875 C12.7291662,12.4322915 12.6497399,12.3710942 12.5898438,12.2851562 C12.5299476,12.1992183 12.5,12.1041672 12.5,12 C12.5,11.8958328 12.5299476,11.8007817 12.5898438,11.7148438 C12.6497399,11.6289058 12.7291662,11.5677085 12.828125,11.53125 L12.828125,11.53125 Z" id="icon-waiting"></path>
                </g>
            </g>
        </g>
    </g>
</svg>