<?xml version="1.0" encoding="UTF-8"?>
<svg width="13px" height="13px" viewBox="0 0 13 13" version="1.1" xmlns="http://www.w3.org/2000/svg" xmlns:xlink="http://www.w3.org/1999/xlink">
    <!-- Generator: Sketch 46.2 (44496) - http://www.bohemiancoding.com/sketch -->
    <title>icon-favorite-off</title>
    <desc>Created with Sketch.</desc>
    <defs></defs>
    <g id="Icons" stroke="none" stroke-width="1" fill="none" fill-rule="evenodd">
        <g id="Artboard-5" transform="translate(-176.000000, -126.000000)" fill="#FFFFFF">
            <path d="M184.882812,133.84375 L187.273438,131.523438 L183.976562,131.039062 L182.5,128.054688 L181.023438,131.039062 L177.726562,131.523438 L180.117188,133.84375 L179.546875,137.132812 L182.5,135.578125 L185.445312,137.132812 L184.882812,133.84375 Z M189,131.054688 C189,131.169271 188.932292,131.29427 188.796875,131.429688 L185.960938,134.195312 L186.632812,138.101562 C186.638021,138.138021 186.640625,138.190104 186.640625,138.257812 C186.640625,138.51823 186.533855,138.648438 186.320312,138.648438 C186.221354,138.648438 186.117188,138.617188 186.007812,138.554688 L182.5,136.710938 L178.992188,138.554688 C178.877604,138.617188 178.773438,138.648438 178.679688,138.648438 C178.570312,138.648438 178.488282,138.610677 178.433594,138.535156 C178.378906,138.459635 178.351562,138.367188 178.351562,138.257812 C178.351562,138.226562 178.356771,138.17448 178.367188,138.101562 L179.039062,134.195312 L176.195312,131.429688 C176.065104,131.289062 176,131.164063 176,131.054688 C176,130.861978 176.145832,130.742188 176.4375,130.695312 L180.359375,130.125 L182.117188,126.570312 C182.216146,126.35677 182.343749,126.25 182.5,126.25 C182.656251,126.25 182.783854,126.35677 182.882812,126.570312 L184.640625,130.125 L188.5625,130.695312 C188.854168,130.742188 189,130.861978 189,131.054688 Z" id="icon-favorite-off"></path>
        </g>
    </g>
</svg>