<?xml version="1.0" encoding="UTF-8"?>
<svg width="10px" height="12px" viewBox="0 0 10 12" version="1.1" xmlns="http://www.w3.org/2000/svg" xmlns:xlink="http://www.w3.org/1999/xlink">
    <title>icon-revert</title>
    <g id="Icons" stroke="none" stroke-width="1" fill="none" fill-rule="evenodd">
        <g id="Artboard" transform="translate(-87.000000, -223.000000)" fill="#2D3240" fill-rule="nonzero">
            <path d="M90.0554335,223.285714 L90.1113106,223.29208 C90.1462043,223.300568 90.1763826,223.317543 90.2018456,223.343006 C90.24004,223.3812 90.2591372,223.430004 90.2591372,223.489418 L90.2591372,223.489418 L90.2591372,231.433862 L91.6850631,231.433862 L91.7467313,231.441422 C91.8032272,231.45654 91.8442067,231.494337 91.8696696,231.554812 C91.9036202,231.635444 91.8930107,231.709711 91.8378409,231.777612 L91.8378409,231.777612 L89.6098317,234.222057 L89.5652715,234.257422 C89.5341501,234.276284 89.5001995,234.285714 89.4634196,234.285714 C89.404006,234.285714 89.3530801,234.264495 89.3106418,234.222057 L89.3106418,234.222057 L87.0508039,231.777612 L87.0177816,231.725493 C86.9931144,231.67218 86.9935122,231.615286 87.0189752,231.554812 C87.0571696,231.474179 87.1187051,231.433862 87.2035817,231.433862 L87.2035817,231.433862 L88.6295076,231.433862 L88.6295076,223.489418 L88.6358733,223.433541 C88.644361,223.398647 88.6613363,223.368469 88.6867993,223.343006 C88.7249937,223.304812 88.7737977,223.285714 88.8332113,223.285714 L88.8332113,223.285714 L90.0554335,223.285714 Z M94.4159659,223.285714 C94.4753795,223.285714 94.5263054,223.306933 94.5687437,223.349372 L94.5687437,223.349372 L96.8285817,225.793816 L96.8616039,225.845936 C96.8862712,225.899249 96.8858733,225.956143 96.8604104,226.016617 C96.8222159,226.09725 96.7606804,226.137566 96.6758039,226.137566 L96.6758039,226.137566 L95.249878,226.137566 L95.249878,234.082011 L95.2435122,234.137888 C95.2350246,234.172781 95.2180493,234.20296 95.1925863,234.228423 C95.1543918,234.266617 95.1055878,234.285714 95.0461743,234.285714 L95.0461743,234.285714 L93.823952,234.285714 L93.768075,234.279349 C93.7331813,234.270861 93.703003,234.253886 93.67754,234.228423 C93.6393456,234.190228 93.6202483,234.141424 93.6202483,234.082011 L93.6202483,234.082011 L93.6202483,226.137566 L92.1943224,226.137566 L92.1326543,226.130007 C92.0761583,226.114888 92.0351789,226.077092 92.0097159,226.016617 C91.9757653,225.935984 91.9863749,225.861717 92.0415446,225.793816 L92.0415446,225.793816 L94.2695539,223.349372 L94.3141141,223.314006 C94.3452355,223.295145 94.3791861,223.285714 94.4159659,223.285714 Z" id="icon-revert"></path>
        </g>
    </g>
</svg>