<?xml version="1.0" encoding="UTF-8"?>
<svg width="13px" height="13px" viewBox="0 0 13 13" version="1.1" xmlns="http://www.w3.org/2000/svg" xmlns:xlink="http://www.w3.org/1999/xlink">
    <!-- Generator: Sketch 52.5 (67469) - http://www.bohemiancoding.com/sketch -->
    <title>icon-price-minus</title>
    <desc>Created with Sketch.</desc>
    <g id="WIR" stroke="none" stroke-width="1" fill="none" fill-rule="evenodd">
        <g id="Artboard" transform="translate(-400.000000, -659.000000)" fill="#2D3240">
            <g id="Group-9" transform="translate(119.000000, 623.000000)">
                <g id="Group-5" transform="translate(99.000000, 30.000000)">
                    <path d="M192.291667,13.0416667 L192.291667,11.9583333 C192.291667,11.8116312 192.238065,11.6846794 192.130859,11.577474 C192.023654,11.4702686 191.896702,11.4166667 191.75,11.4166667 L185.25,11.4166667 C185.103298,11.4166667 184.976346,11.4702686 184.869141,11.577474 C184.761935,11.6846794 184.708333,11.8116312 184.708333,11.9583333 L184.708333,13.0416667 C184.708333,13.1883688 184.761935,13.3153206 184.869141,13.422526 C184.976346,13.5297314 185.103298,13.5833333 185.25,13.5833333 L191.75,13.5833333 C191.896702,13.5833333 192.023654,13.5297314 192.130859,13.422526 C192.238065,13.3153206 192.291667,13.1883688 192.291667,13.0416667 Z M194.128255,9.24153646 C194.709421,10.234597 195,11.3207406 195,12.5 C195,13.6792594 194.709421,14.7668136 194.128255,15.7626953 C193.547089,16.758577 192.758577,17.5470891 191.762695,18.1282552 C190.766814,18.7094213 189.679259,19 188.5,19 C187.320741,19 186.233186,18.7094213 185.237305,18.1282552 C184.241423,17.5470891 183.452911,16.758577 182.871745,15.7626953 C182.290579,14.7668136 182,13.6792594 182,12.5 C182,11.3207406 182.290579,10.2331864 182.871745,9.23730469 C183.452911,8.24142297 184.241423,7.45291089 185.237305,6.87174479 C186.233186,6.29057869 187.320741,6 188.5,6 C189.679259,6 190.766814,6.29057869 191.762695,6.87174479 C192.758577,7.45291089 193.547089,8.24283355 194.128255,9.24153646 Z" id="icon-price-minus"></path>
                </g>
            </g>
        </g>
    </g>
</svg>