<?xml version="1.0" encoding="UTF-8"?>
<svg width="11px" height="11px" viewBox="0 0 11 11" version="1.1" xmlns="http://www.w3.org/2000/svg" xmlns:xlink="http://www.w3.org/1999/xlink">
    <!-- Generator: Sketch 41 (35326) - http://www.bohemiancoding.com/sketch -->
    <title>icon-check-grey</title>
    <desc>Created with Sketch.</desc>
    <defs></defs>
    <g id="Modals" stroke="none" stroke-width="1" fill="none" fill-rule="evenodd">
        <g id="Modals-V2.1" transform="translate(-541.000000, -1368.000000)" fill="#9699A0">
            <g id="Group-4-Copy" transform="translate(23.000000, 384.000000)">
                <g id="Group-12" transform="translate(443.000000, 826.000000)">
                    <g id="Group-5">
                        <path d="M83.5982143,162.629464 C83.5982143,162.504464 83.5580361,162.401786 83.4776786,162.321429 L82.8683036,161.71875 C82.7834817,161.633928 82.6830363,161.591518 82.5669643,161.591518 C82.4508923,161.591518 82.3504469,161.633928 82.265625,161.71875 L79.5334821,164.444196 L78.0200893,162.930804 C77.9352674,162.845982 77.834822,162.803571 77.71875,162.803571 C77.602678,162.803571 77.5022326,162.845982 77.4174107,162.930804 L76.8080357,163.533482 C76.7276782,163.61384 76.6875,163.716517 76.6875,163.841518 C76.6875,163.962054 76.7276782,164.0625 76.8080357,164.142857 L79.2321429,166.566964 C79.3169647,166.651786 79.4174101,166.694196 79.5334821,166.694196 C79.6540185,166.694196 79.756696,166.651786 79.8415179,166.566964 L83.4776786,162.930804 C83.5580361,162.850446 83.5982143,162.750001 83.5982143,162.629464 Z M85.2857143,163.714286 C85.2857143,164.647326 85.0558059,165.507809 84.5959821,166.295759 C84.1361584,167.083709 83.5122807,167.707587 82.7243304,168.167411 C81.93638,168.627234 81.0758975,168.857143 80.1428571,168.857143 C79.2098168,168.857143 78.3493343,168.627234 77.5613839,168.167411 C76.7734336,167.707587 76.1495559,167.083709 75.6897321,166.295759 C75.2299084,165.507809 75,164.647326 75,163.714286 C75,162.781245 75.2299084,161.920763 75.6897321,161.132812 C76.1495559,160.344862 76.7734336,159.720984 77.5613839,159.261161 C78.3493343,158.801337 79.2098168,158.571429 80.1428571,158.571429 C81.0758975,158.571429 81.93638,158.801337 82.7243304,159.261161 C83.5122807,159.720984 84.1361584,160.344862 84.5959821,161.132812 C85.0558059,161.920763 85.2857143,162.781245 85.2857143,163.714286 Z" id="icon-check-grey"></path>
                    </g>
                </g>
            </g>
        </g>
    </g>
</svg>