<?xml version="1.0" encoding="UTF-8"?>
<svg width="13px" height="9px" viewBox="0 0 13 9" version="1.1" xmlns="http://www.w3.org/2000/svg" xmlns:xlink="http://www.w3.org/1999/xlink">
    <!-- Generator: Sketch 50.2 (55047) - http://www.bohemiancoding.com/sketch -->
    <title>icon-add-rfq</title>
    <desc>Created with Sketch.</desc>
    <defs></defs>
    <g id="Icons" stroke="none" stroke-width="1" fill="none" fill-rule="evenodd">
        <g id="Artboard-4-Copy-2" transform="translate(-134.000000, -12.000000)" fill="#FFFFFF">
            <path d="M140.459518,17.795156 C140.478114,18.3718046 140.510896,19.0531812 140.557864,19.8392857 C140.557864,19.9456851 140.518988,20.03776 140.441235,20.1155134 C140.363481,20.1932668 140.271406,20.2321429 140.165007,20.2321429 C140.058608,20.2321429 139.966533,20.1932668 139.888779,20.1155134 L137.844694,18.0714286 L137.10742,18.0714286 L136.972755,19.9720173 L137.036978,20.2529813 C137.098511,20.5221806 136.930165,20.7902924 136.660966,20.8518258 C136.624416,20.8601803 136.587042,20.8643973 136.54955,20.8643973 L135.772946,20.8643973 C135.496803,20.8643973 135.272946,20.6405397 135.272946,20.3643973 C135.272946,20.3321998 135.276056,20.3000775 135.282233,20.2684779 L135.626442,18.5075398 L135.484392,18.0714286 L135.461838,18.0714286 C134.909553,18.0714286 134.461838,17.6237133 134.461838,17.0714286 L134.461838,15.9285714 C134.461838,15.3762867 134.909553,14.9285714 135.461838,14.9285714 L137.844694,14.9285714 L139.888779,12.8844866 C139.966533,12.8067332 140.058608,12.7678571 140.165007,12.7678571 C140.271406,12.7678571 140.363481,12.8067332 140.441235,12.8844866 C140.518988,12.96224 140.557864,13.0543149 140.557864,13.1607143 C140.516951,14.0378313 140.486801,14.7889509 140.467417,15.4140731 C140.822329,15.6884026 141.05088,16.1183022 141.05088,16.6015828 C141.05088,17.088439 140.818935,17.5211215 140.459518,17.795156 Z M143.223275,15.6283482 C143.399243,15.8984389 143.487226,16.1889865 143.487226,16.5 C143.487226,16.8110135 143.400266,17.1005381 143.226344,17.3685826 C143.052422,17.6366271 142.822234,17.8279384 142.535775,17.9425223 C142.494852,17.9629837 142.443699,17.9732143 142.382315,17.9732143 C142.275916,17.9732143 142.183841,17.9353612 142.106087,17.859654 C142.028334,17.7839468 141.989458,17.6908488 141.989458,17.5803571 C141.989458,17.4944192 142.014011,17.4217823 142.063118,17.3624442 C142.112226,17.3031061 142.171563,17.2519533 142.241132,17.2089844 C142.310701,17.1660154 142.380268,17.1189549 142.449837,17.0678013 C142.519406,17.0166478 142.578743,16.9440109 142.627851,16.8498884 C142.676958,16.7557659 142.701511,16.6391376 142.701511,16.5 C142.701511,16.3608624 142.676958,16.2442341 142.627851,16.1501116 C142.578743,16.0559891 142.519406,15.9833522 142.449837,15.9321987 C142.380268,15.8810451 142.310701,15.8339846 142.241132,15.7910156 C142.171563,15.7480467 142.112226,15.6968939 142.063118,15.6375558 C142.014011,15.5782177 141.989458,15.5055808 141.989458,15.4196429 C141.989458,15.3091512 142.028334,15.2160532 142.106087,15.140346 C142.183841,15.0646388 142.275916,15.0267857 142.382315,15.0267857 C142.443699,15.0267857 142.494852,15.0370163 142.535775,15.0574777 C142.822234,15.1679693 143.051399,15.3582576 143.223275,15.6283482 Z M144.536891,14.7689732 C144.884735,15.2968776 145.058654,15.8738808 145.058654,16.5 C145.058654,17.1261192 144.884735,17.7041454 144.536891,18.234096 C144.189047,18.7640465 143.728672,19.1497384 143.155752,19.391183 C143.102553,19.4116444 143.0514,19.421875 143.002293,19.421875 C142.891801,19.421875 142.79768,19.3829989 142.719926,19.3052455 C142.642173,19.2274922 142.603297,19.1354172 142.603297,19.0290179 C142.603297,18.8694188 142.683095,18.7486983 142.842694,18.6668527 C143.071862,18.5481765 143.227367,18.4581476 143.309212,18.3967634 C143.612041,18.1757801 143.848367,17.8985322 144.018197,17.5650112 C144.188026,17.2314901 144.27294,16.87649 144.27294,16.5 C144.27294,16.12351 144.188026,15.7685099 144.018197,15.4349888 C143.848367,15.1014678 143.612041,14.8242199 143.309212,14.6032366 C143.227367,14.5418524 143.071862,14.4518235 142.842694,14.3331473 C142.683095,14.2513017 142.603297,14.1305812 142.603297,13.9709821 C142.603297,13.8645828 142.642173,13.7725078 142.719926,13.6947545 C142.79768,13.6170011 142.889755,13.578125 142.996154,13.578125 C143.049354,13.578125 143.102553,13.5883556 143.155752,13.608817 C143.728672,13.8502616 144.189047,14.2369765 144.536891,14.7689732 Z M145.850507,13.9095982 C146.370227,14.6953164 146.630083,15.5587751 146.630083,16.5 C146.630083,17.4412249 146.370227,18.3057066 145.850507,19.093471 C145.330787,19.8812353 144.639202,20.4613077 143.77573,20.8337054 C143.72253,20.8541668 143.669332,20.8643973 143.616132,20.8643973 C143.509733,20.8643973 143.417658,20.8255212 143.339904,20.7477679 C143.262151,20.6700145 143.223275,20.5779395 143.223275,20.4715402 C143.223275,20.324218 143.303073,20.2034975 143.462672,20.109375 C143.491318,20.0930059 143.537355,20.0715217 143.600786,20.0449219 C143.664216,20.018322 143.710254,19.9968379 143.7389,19.9804687 C143.927145,19.8781617 144.094926,19.7738101 144.242248,19.6674107 C144.745599,19.295013 145.138452,18.8305459 145.420819,18.2739955 C145.703187,17.7174451 145.844368,17.1261192 145.844368,16.5 C145.844368,15.8738808 145.703187,15.2825549 145.420819,14.7260045 C145.138452,14.1694541 144.745599,13.704987 144.242248,13.3325893 C144.094926,13.2261899 143.927145,13.1218383 143.7389,13.0195312 C143.710254,13.0031621 143.664216,12.981678 143.600786,12.9550781 C143.537355,12.9284783 143.491318,12.9069941 143.462672,12.890625 C143.303073,12.7965025 143.223275,12.675782 143.223275,12.5284598 C143.223275,12.4220605 143.262151,12.3299855 143.339904,12.2522321 C143.417658,12.1744788 143.509733,12.1356027 143.616132,12.1356027 C143.669332,12.1356027 143.72253,12.1458332 143.77573,12.1662946 C144.639202,12.5386923 145.330787,13.1197877 145.850507,13.9095982 Z" id="icon-add-rfq" transform="translate(140.545960, 16.500000) rotate(-360.000000) translate(-140.545960, -16.500000) "></path>
        </g>
    </g>
</svg>