<?xml version="1.0" encoding="UTF-8"?>
<svg width="14px" height="12px" viewBox="0 0 14 12" version="1.1" xmlns="http://www.w3.org/2000/svg" xmlns:xlink="http://www.w3.org/1999/xlink">
    <!-- Generator: Sketch 41.2 (35397) - http://www.bohemiancoding.com/sketch -->
    <title>icon-menu</title>
    <desc>Created with Sketch.</desc>
    <defs></defs>
    <g id="V3" stroke="none" stroke-width="1" fill="none" fill-rule="evenodd">
        <g id="My-Positions-Copy" transform="translate(-335.000000, -42.000000)" fill="#2C323F">
            <g id="Group" transform="translate(36.000000, 30.000000)">
                <g id="Group-4-Copy">
                    <path d="M312.714286,22.2857143 L312.714286,23.4285714 C312.714286,23.5833341 312.657739,23.7172613 312.544643,23.8303571 C312.431547,23.9434529 312.29762,24 312.142857,24 L299.571429,24 C299.416666,24 299.282739,23.9434529 299.169643,23.8303571 C299.056547,23.7172613 299,23.5833341 299,23.4285714 L299,22.2857143 C299,22.1309516 299.056547,21.9970244 299.169643,21.8839286 C299.282739,21.7708328 299.416666,21.7142857 299.571429,21.7142857 L312.142857,21.7142857 C312.29762,21.7142857 312.431547,21.7708328 312.544643,21.8839286 C312.657739,21.9970244 312.714286,22.1309516 312.714286,22.2857143 Z M312.714286,17.7142857 L312.714286,18.8571429 C312.714286,19.0119055 312.657739,19.1458328 312.544643,19.2589286 C312.431547,19.3720244 312.29762,19.4285714 312.142857,19.4285714 L299.571429,19.4285714 C299.416666,19.4285714 299.282739,19.3720244 299.169643,19.2589286 C299.056547,19.1458328 299,19.0119055 299,18.8571429 L299,17.7142857 C299,17.559523 299.056547,17.4255958 299.169643,17.3125 C299.282739,17.1994042 299.416666,17.1428571 299.571429,17.1428571 L312.142857,17.1428571 C312.29762,17.1428571 312.431547,17.1994042 312.544643,17.3125 C312.657739,17.4255958 312.714286,17.559523 312.714286,17.7142857 Z M312.714286,13.1428571 L312.714286,14.2857143 C312.714286,14.440477 312.657739,14.5744042 312.544643,14.6875 C312.431547,14.8005958 312.29762,14.8571429 312.142857,14.8571429 L299.571429,14.8571429 C299.416666,14.8571429 299.282739,14.8005958 299.169643,14.6875 C299.056547,14.5744042 299,14.440477 299,14.2857143 L299,13.1428571 C299,12.9880945 299.056547,12.8541672 299.169643,12.7410714 C299.282739,12.6279756 299.416666,12.5714286 299.571429,12.5714286 L312.142857,12.5714286 C312.29762,12.5714286 312.431547,12.6279756 312.544643,12.7410714 C312.657739,12.8541672 312.714286,12.9880945 312.714286,13.1428571 Z" id="icon-menu"></path>
                </g>
            </g>
        </g>
    </g>
</svg>