<?xml version="1.0" encoding="UTF-8"?>
<svg width="14px" height="14px" viewBox="0 0 14 14" version="1.1" xmlns="http://www.w3.org/2000/svg" xmlns:xlink="http://www.w3.org/1999/xlink">
    <!-- Generator: Sketch 57.1 (83088) - https://sketch.com -->
    <title>icon-write-interest</title>
    <desc>Created with Sketch.</desc>
    <g id="Icons" stroke="none" stroke-width="1" fill="none" fill-rule="evenodd">
        <g id="Artboard-4-Copy-2" transform="translate(-54.000000, -10.000000)" fill="#FFFFFF">
            <path d="M61,10 C62.2661048,10 63.4377314,10.2774857 64.5149148,10.8324653 C65.5920982,11.3874449 66.4422317,12.142935 67.0653409,13.0989583 C67.6884501,14.0549816 68,15.0960592 68,16.2222222 C68,17.3483853 67.6884501,18.3894628 67.0653409,19.3454861 C66.4422317,20.3015094 65.5920982,21.0569995 64.5149148,21.6119792 C63.4377314,22.1669588 62.2661048,22.4444444 61,22.4444444 C60.4299214,22.4444444 59.8465939,22.3796303 59.25,22.25 C58.4280262,22.9629665 57.5066339,23.4814799 56.4857955,23.8055556 C56.2471579,23.8784726 55.9621229,23.9432868 55.6306818,24 L55.6008523,24 C55.5279352,24 55.4599908,23.9675929 55.397017,23.9027778 C55.3340432,23.8379626 55.2959281,23.752894 55.2826705,23.6475694 C55.2760416,23.6232638 55.2727273,23.596933 55.2727273,23.5685764 C55.2727273,23.5402198 55.2743845,23.513889 55.2776989,23.4895833 C55.2810133,23.4652777 55.287642,23.4409723 55.2975852,23.4166667 L55.3224432,23.3559028 C55.329072,23.339699 55.3406723,23.3174191 55.3572443,23.2890625 C55.3738164,23.2607059 55.3870738,23.2404514 55.397017,23.2282986 C55.4069603,23.2161458 55.4218749,23.1958913 55.4417614,23.1675347 C55.4616478,23.1391781 55.4749053,23.1209491 55.4815341,23.1128472 C55.5146782,23.0642359 55.5909085,22.9629637 55.7102273,22.8090278 C55.8295461,22.6550918 55.9157194,22.5355907 55.96875,22.4505208 C56.0217806,22.365451 56.0963537,22.2479753 56.1924716,22.0980903 C56.2885895,21.9482053 56.3714485,21.7922462 56.4410511,21.6302083 C56.5106538,21.4681705 56.5785982,21.2899315 56.6448864,21.0954861 C55.8229126,20.5121499 55.1766122,19.7951431 54.7059659,18.9444444 C54.2353196,18.0937457 54,17.1863474 54,16.2222222 C54,15.0960592 54.3115499,14.0549816 54.9346591,13.0989583 C55.5577683,12.142935 56.4079018,11.3874449 57.4850852,10.8324653 C58.5622686,10.2774857 59.7338952,10 61,10 Z M57.3636364,15 C56.6105208,15 56,15.6105208 56,16.3636364 C56,17.1167519 56.6105208,17.7272727 57.3636364,17.7272727 C58.1167519,17.7272727 58.7272727,17.1167519 58.7272727,16.3636364 C58.7272727,15.6105208 58.1167519,15 57.3636364,15 Z M61,15 C60.2468844,15 59.6363636,15.6105208 59.6363636,16.3636364 C59.6363636,17.1167519 60.2468844,17.7272727 61,17.7272727 C61.7531156,17.7272727 62.3636364,17.1167519 62.3636364,16.3636364 C62.3636364,15.6105208 61.7531156,15 61,15 Z M64.6363636,15 C63.8832481,15 63.2727273,15.6105208 63.2727273,16.3636364 C63.2727273,17.1167519 63.8832481,17.7272727 64.6363636,17.7272727 C65.3894792,17.7272727 66,17.1167519 66,16.3636364 C66,15.6105208 65.3894792,15 64.6363636,15 Z" id="icon-write-interest"></path>
        </g>
    </g>
</svg>