<?xml version="1.0" encoding="UTF-8"?>
<svg width="20px" height="20px" viewBox="0 0 20 20" version="1.1" xmlns="http://www.w3.org/2000/svg" xmlns:xlink="http://www.w3.org/1999/xlink">
    <!-- Generator: Sketch 52.5 (67469) - http://www.bohemiancoding.com/sketch -->
    <title>icon-modal-close</title>
    <desc>Created with Sketch.</desc>
    <g id="WIR" stroke="none" stroke-width="1" fill="none" fill-rule="evenodd">
        <g id="Artboard" transform="translate(-1031.000000, -135.000000)" fill="#FFFFFF" fill-rule="nonzero">
            <path d="M1049.02296,135.339206 C1049.47524,134.886931 1050.20852,134.886931 1050.66079,135.339206 C1051.11307,135.79148 1051.11307,136.524762 1050.66079,136.977037 L1042.63783,145 L1050.66079,153.022963 C1051.11307,153.475238 1051.11307,154.20852 1050.66079,154.660794 C1050.20852,155.113069 1049.47524,155.113069 1049.02296,154.660794 L1041,146.637831 L1032.97704,154.660794 C1032.52476,155.113069 1031.79148,155.113069 1031.33921,154.660794 C1030.88693,154.20852 1030.88693,153.475238 1031.33921,153.022963 L1039.36217,145 L1031.33921,136.977037 C1030.88693,136.524762 1030.88693,135.79148 1031.33921,135.339206 C1031.79148,134.886931 1032.52476,134.886931 1032.97704,135.339206 L1041,143.362169 L1049.02296,135.339206 Z" id="icon-modal-close"></path>
        </g>
    </g>
</svg>