<?xml version="1.0" encoding="UTF-8"?>
<svg width="27px" height="24px" viewBox="0 0 27 24" version="1.1" xmlns="http://www.w3.org/2000/svg" xmlns:xlink="http://www.w3.org/1999/xlink">
    <!-- Generator: Sketch 40.3 (33839) - http://www.bohemiancoding.com/sketch -->
    <title>icon-settings</title>
    <desc>Created with Sketch.</desc>
    <defs></defs>
    <g id="V3" stroke="none" stroke-width="1" fill="none" fill-rule="evenodd">
        <g id="Desktop-V3" transform="translate(-1250.000000, -6.000000)">
            <g id="Header">
                <g id="icon-settings" transform="translate(1250.000000, 6.000000)">
                    <rect id="Rectangle-3" fill="#283B66" x="0" y="0" width="27" height="24" rx="2"></rect>
                    <path d="M15.3541667,12 C15.3541667,11.4479139 15.1588561,10.9765645 14.7682292,10.5859375 C14.3776022,10.1953105 13.9062528,10 13.3541667,10 C12.8020806,10 12.3307311,10.1953105 11.9401042,10.5859375 C11.5494772,10.9765645 11.3541667,11.4479139 11.3541667,12 C11.3541667,12.5520861 11.5494772,13.0234355 11.9401042,13.4140625 C12.3307311,13.8046895 12.8020806,14 13.3541667,14 C13.9062528,14 14.3776022,13.8046895 14.7682292,13.4140625 C15.1588561,13.0234355 15.3541667,12.5520861 15.3541667,12 L15.3541667,12 Z M19.3541667,11.1484375 L19.3541667,12.8828125 C19.3541667,12.9453128 19.3333336,13.005208 19.2916667,13.0625 C19.2499998,13.119792 19.197917,13.1536458 19.1354167,13.1640625 L17.6901042,13.3828125 C17.5911454,13.6640639 17.4895839,13.9010407 17.3854167,14.09375 C17.5677093,14.354168 17.8463523,14.7135394 18.2213542,15.171875 C18.2734378,15.2343753 18.2994792,15.2994788 18.2994792,15.3671875 C18.2994792,15.4348962 18.2760419,15.4947914 18.2291667,15.546875 C18.088541,15.7395843 17.8307311,16.0208315 17.4557292,16.390625 C17.0807273,16.7604185 16.8359381,16.9453125 16.7213542,16.9453125 C16.6588539,16.9453125 16.5911462,16.9218752 16.5182292,16.875 L15.4401042,16.03125 C15.2109364,16.1510423 14.9739596,16.2499996 14.7291667,16.328125 C14.6458329,17.0364619 14.5703129,17.520832 14.5026042,17.78125 C14.4661457,17.9270841 14.3723966,18 14.2213542,18 L12.4869792,18 C12.4140622,18 12.3502607,17.9778648 12.2955729,17.9335938 C12.2408852,17.8893227 12.2109375,17.8333337 12.2057292,17.765625 L11.9869792,16.328125 C11.7317696,16.2447912 11.4973969,16.148438 11.2838542,16.0390625 L10.1822917,16.875 C10.1302081,16.9218752 10.0651046,16.9453125 9.98697919,16.9453125 C9.91406216,16.9453125 9.84895864,16.916667 9.79166669,16.859375 C9.13541341,16.265622 8.7057302,15.8281264 8.50260419,15.546875 C8.46614567,15.4947914 8.44791669,15.4348962 8.44791669,15.3671875 C8.44791669,15.3046872 8.46874981,15.244792 8.51041669,15.1875 C8.58854208,15.0781245 8.72135325,14.9049491 8.90885419,14.6679688 C9.09635512,14.4309884 9.23697872,14.2473965 9.33072919,14.1171875 C9.19010348,13.8567695 9.08333372,13.5989596 9.01041669,13.34375 L7.58072919,13.1328125 C7.51302051,13.1223958 7.45833356,13.089844 7.41666669,13.0351562 C7.37499981,12.9804685 7.35416669,12.9192712 7.35416669,12.8515625 L7.35416669,11.1171875 C7.35416669,11.0546872 7.37499981,10.994792 7.41666669,10.9375 C7.45833356,10.880208 7.50781223,10.8463542 7.56510419,10.8359375 L9.01822919,10.6171875 C9.09114622,10.377603 9.1927077,10.138022 9.32291669,9.8984375 C9.11458231,9.60156102 8.83593926,9.24218961 8.48697919,8.8203125 C8.43489559,8.75781219 8.40885419,8.69531281 8.40885419,8.6328125 C8.40885419,8.58072891 8.43229145,8.52083367 8.47916669,8.453125 C8.61458403,8.26562406 8.87109188,7.98567895 9.24869794,7.61328125 C9.62630399,7.24088355 9.87239528,7.0546875 9.98697919,7.0546875 C10.0546879,7.0546875 10.1223955,7.08072891 10.1901042,7.1328125 L11.2682292,7.96875 C11.497397,7.84895773 11.7343738,7.75000039 11.9791667,7.671875 C12.0625004,6.96353812 12.1380205,6.47916797 12.2057292,6.21875 C12.2421877,6.07291594 12.3359368,6 12.4869792,6 L14.2213542,6 C14.2942712,6 14.3580727,6.0221352 14.4127604,6.06640625 C14.4674482,6.1106773 14.4973958,6.16666633 14.5026042,6.234375 L14.7213542,7.671875 C14.9765638,7.75520875 15.2109365,7.85156195 15.4244792,7.9609375 L16.5338542,7.125 C16.5807294,7.07812477 16.6432288,7.0546875 16.7213542,7.0546875 C16.7890629,7.0546875 16.8541664,7.08072891 16.9166667,7.1328125 C17.588545,7.75260727 18.0182282,8.19531117 18.2057292,8.4609375 C18.2421877,8.50260438 18.2604167,8.55989547 18.2604167,8.6328125 C18.2604167,8.69531281 18.2395836,8.75520805 18.1979167,8.8125 C18.1197913,8.92187555 17.9869801,9.0950509 17.7994792,9.33203125 C17.6119782,9.5690116 17.4713547,9.75260352 17.3776042,9.8828125 C17.5130215,10.1432305 17.6197913,10.3984362 17.6979167,10.6484375 L19.1276042,10.8671875 C19.1953129,10.8776042 19.2499998,10.910156 19.2916667,10.9648438 C19.3333336,11.0195315 19.3541667,11.0807288 19.3541667,11.1484375 L19.3541667,11.1484375 Z" id="" fill="#FFFFFF"></path>
                </g>
            </g>
        </g>
    </g>
</svg>