<?xml version="1.0" encoding="UTF-8"?>
<svg width="15px" height="13px" viewBox="0 0 15 13" version="1.1" xmlns="http://www.w3.org/2000/svg" xmlns:xlink="http://www.w3.org/1999/xlink">
    <!-- Generator: Sketch 42 (36781) - http://www.bohemiancoding.com/sketch -->
    <title>icon-unlocked</title>
    <desc>Created with Sketch.</desc>
    <defs></defs>
    <g id="Icons" stroke="none" stroke-width="1" fill="none" fill-rule="evenodd">
        <g id="Artboard" transform="translate(-444.000000, -260.000000)" fill="#FFFFFF">
            <path d="M458.857143,264 L458.857143,266.285714 C458.857143,266.440477 458.800596,266.574404 458.6875,266.6875 C458.574404,266.800596 458.440477,266.857143 458.285714,266.857143 L457.714286,266.857143 C457.559523,266.857143 457.425596,266.800596 457.3125,266.6875 C457.199404,266.574404 457.142857,266.440477 457.142857,266.285714 L457.142857,264 C457.142857,263.369044 456.919645,262.830359 456.473214,262.383929 C456.026783,261.937498 455.488098,261.714286 454.857143,261.714286 C454.226187,261.714286 453.687502,261.937498 453.241071,262.383929 C452.794641,262.830359 452.571429,263.369044 452.571429,264 L452.571429,265.714286 L453.428571,265.714286 C453.666668,265.714286 453.869047,265.797618 454.035714,265.964286 C454.202382,266.130953 454.285714,266.333332 454.285714,266.571429 L454.285714,271.714286 C454.285714,271.952382 454.202382,272.154761 454.035714,272.321429 C453.869047,272.488096 453.666668,272.571429 453.428571,272.571429 L444.857143,272.571429 C444.619046,272.571429 444.416668,272.488096 444.25,272.321429 C444.083332,272.154761 444,271.952382 444,271.714286 L444,266.571429 C444,266.333332 444.083332,266.130953 444.25,265.964286 C444.416668,265.797618 444.619046,265.714286 444.857143,265.714286 L450.857143,265.714286 L450.857143,264 C450.857143,262.898804 451.248508,261.956849 452.03125,261.174107 C452.813992,260.391365 453.755947,260 454.857143,260 C455.958339,260 456.900294,260.391365 457.683036,261.174107 C458.465778,261.956849 458.857143,262.898804 458.857143,264 Z" id="icon-unlocked"></path>
        </g>
    </g>
</svg>
