<?xml version="1.0" encoding="UTF-8"?>
<svg width="14px" height="9px" viewBox="0 0 14 9" version="1.1" xmlns="http://www.w3.org/2000/svg" xmlns:xlink="http://www.w3.org/1999/xlink">
    <!-- Generator: Sketch 41.2 (35397) - http://www.bohemiancoding.com/sketch -->
    <title>icon-product-shown</title>
    <desc>Created with Sketch.</desc>
    <defs></defs>
    <g id="V3" stroke="none" stroke-width="1" fill="none" fill-rule="evenodd">
        <g id="Artboard-2" transform="translate(-317.000000, -43.000000)" fill="#FFFFFF">
            <path d="M330,47.5 C329.208329,46.2708272 328.216152,45.3515655 327.023438,44.7421875 C327.341147,45.2838569 327.5,45.8697885 327.5,46.5 C327.5,47.4635465 327.157556,48.287757 326.472656,48.9726562 C325.787757,49.6575555 324.963546,50 324,50 C323.036454,50 322.212243,49.6575555 321.527344,48.9726562 C320.842444,48.287757 320.5,47.4635465 320.5,46.5 C320.5,45.8697885 320.658853,45.2838569 320.976562,44.7421875 C319.783848,45.3515655 318.791671,46.2708272 318,47.5 C318.692712,48.5677137 319.561193,49.4179656 320.605469,50.0507812 C321.649745,50.6835969 322.781244,51 324,51 C325.218756,51 326.350255,50.6835969 327.394531,50.0507812 C328.438807,49.4179656 329.307288,48.5677137 330,47.5 Z M324.375,44.5 C324.375,44.3958328 324.338542,44.307292 324.265625,44.234375 C324.192708,44.161458 324.104167,44.125 324,44.125 C323.348955,44.125 322.790367,44.3580706 322.324219,44.8242188 C321.858071,45.2903669 321.625,45.8489551 321.625,46.5 C321.625,46.6041672 321.661458,46.692708 321.734375,46.765625 C321.807292,46.838542 321.895833,46.875 322,46.875 C322.104167,46.875 322.192708,46.838542 322.265625,46.765625 C322.338542,46.692708 322.375,46.6041672 322.375,46.5 C322.375,46.0520811 322.533853,45.6692724 322.851562,45.3515625 C323.169272,45.0338526 323.552081,44.875 324,44.875 C324.104167,44.875 324.192708,44.838542 324.265625,44.765625 C324.338542,44.692708 324.375,44.6041672 324.375,44.5 Z M331,47.5 C331,47.6770842 330.947917,47.8567699 330.84375,48.0390625 C330.11458,49.2369852 329.134121,50.196611 327.902344,50.9179688 C326.670567,51.6393265 325.369799,52 324,52 C322.630201,52 321.329433,51.6380245 320.097656,50.9140625 C318.865879,50.1901005 317.88542,49.2317768 317.15625,48.0390625 C317.052083,47.8567699 317,47.6770842 317,47.5 C317,47.3229158 317.052083,47.1432301 317.15625,46.9609375 C317.88542,45.7682232 318.865879,44.8098995 320.097656,44.0859375 C321.329433,43.3619755 322.630201,43 324,43 C325.369799,43 326.670567,43.3619755 327.902344,44.0859375 C329.134121,44.8098995 330.11458,45.7682232 330.84375,46.9609375 C330.947917,47.1432301 331,47.3229158 331,47.5 Z" id="icon-product-shown"></path>
        </g>
    </g>
</svg>