<?xml version="1.0" encoding="UTF-8"?>
<svg width="13px" height="13px" viewBox="0 0 13 13" version="1.1" xmlns="http://www.w3.org/2000/svg" xmlns:xlink="http://www.w3.org/1999/xlink">
    <!-- Generator: Sketch 50.2 (55047) - http://www.bohemiancoding.com/sketch -->
    <title>icon-ghost-light</title>
    <desc>Created with Sketch.</desc>
    <defs></defs>
    <g id="Icons" stroke="none" stroke-width="1" fill="none" fill-rule="evenodd">
        <g id="Artboard-4" transform="translate(-89.000000, -11.000000)" fill="#FFFFFF" fill-rule="nonzero">
            <path d="M89.8475111,23.7995551 C88.8468018,23.7995551 89.23224,23.3589402 89.3103056,22.8727544 C89.6684426,21.7249188 89.8475111,20.2159202 89.8475111,18.3457586 L89.8475111,15.939231 C89.8475111,13.0668822 92.520343,10.829389 95.6561423,11.0102385 C98.5101788,11.1749127 100.752495,13.4117663 100.752495,16.0809346 L100.752495,18.3457586 C100.499843,22.125487 100.988431,22.8612617 100.992126,22.8727544 C100.995822,22.884247 101.541219,23.7995551 100.499843,23.7995551 C99.4375512,23.7995551 99.7964248,22.7999992 98.8500977,22.7999992 C97.9037705,22.7999992 97.9692136,23.7995551 96.9752197,23.7995551 C95.9812259,23.7995551 95.9991743,22.7999992 95.2576431,22.7999992 C94.516112,22.7999992 94.4755407,23.7995551 93.5406494,23.7995551 C92.6057582,23.7995551 92.513436,22.7999992 91.5882568,22.7999992 C90.6630777,22.7999992 90.8482204,23.7995551 89.8475111,23.7995551 Z M93.8000031,18 C94.3522878,18 94.8000031,17.3284271 94.8000031,16.5 C94.8000031,15.6715729 94.3522878,15 93.8000031,15 C93.2477183,15 92.8000031,15.6715729 92.8000031,16.5 C92.8000031,17.3284271 93.2477183,18 93.8000031,18 Z M96.8000031,18 C97.3522878,18 97.8000031,17.3284271 97.8000031,16.5 C97.8000031,15.6715729 97.3522878,15 96.8000031,15 C96.2477183,15 95.8000031,15.6715729 95.8000031,16.5 C95.8000031,17.3284271 96.2477183,18 96.8000031,18 Z" id="icon-ghost-light"></path>
        </g>
    </g>
</svg>