<?xml version="1.0" encoding="UTF-8"?>
<svg width="12px" height="12px" viewBox="0 0 12 12" version="1.1" xmlns="http://www.w3.org/2000/svg" xmlns:xlink="http://www.w3.org/1999/xlink">
    <!-- Generator: Sketch 41 (35326) - http://www.bohemiancoding.com/sketch -->
    <title>icon-warning</title>
    <desc>Created with Sketch.</desc>
    <defs></defs>
    <g id="V3" stroke="none" stroke-width="1" fill="none" fill-rule="evenodd">
        <g id="Desktop-V3" transform="translate(-382.000000, -458.000000)" fill="#FFFFFF">
            <g id="Group-5" transform="translate(7.000000, 79.000000)">
                <g id="Group-Copy-2" transform="translate(363.000000, 367.000000)">
                    <path d="M18,12 C19.0885471,12 20.0924433,12.2682265 21.0117188,12.8046875 C21.9309942,13.3411485 22.6588515,14.0690058 23.1953125,14.9882812 C23.7317735,15.9075567 24,16.9114529 24,18 C24,19.0885471 23.7317735,20.0924433 23.1953125,21.0117188 C22.6588515,21.9309942 21.9309942,22.6588515 21.0117188,23.1953125 C20.0924433,23.7317735 19.0885471,24 18,24 C16.9114529,24 15.9075567,23.7317735 14.9882812,23.1953125 C14.0690058,22.6588515 13.3411485,21.9309942 12.8046875,21.0117188 C12.2682265,20.0924433 12,19.0885471 12,18 C12,16.9114529 12.2682265,15.9075567 12.8046875,14.9882812 C13.3411485,14.0690058 14.0690058,13.3411485 14.9882812,12.8046875 C15.9075567,12.2682265 16.9114529,12 18,12 Z M19,21.7421875 L19,20.2578125 C19,20.1848955 18.9765627,20.1236982 18.9296875,20.0742188 C18.8828123,20.0247393 18.8255212,20 18.7578125,20 L17.2578125,20 C17.1901038,20 17.1302086,20.0260414 17.078125,20.078125 C17.0260414,20.1302086 17,20.1901038 17,20.2578125 L17,21.7421875 C17,21.8098962 17.0260414,21.8697914 17.078125,21.921875 C17.1302086,21.9739586 17.1901038,22 17.2578125,22 L18.7578125,22 C18.8255212,22 18.8828123,21.9752607 18.9296875,21.9257812 C18.9765627,21.8763018 19,21.8151045 19,21.7421875 Z M18.984375,19.0546875 L19.125,14.203125 C19.125,14.1406247 19.0989586,14.0937502 19.046875,14.0625 C18.9947914,14.0208331 18.932292,14 18.859375,14 L17.140625,14 C17.067708,14 17.0052086,14.0208331 16.953125,14.0625 C16.9010414,14.0937502 16.875,14.1406247 16.875,14.203125 L17.0078125,19.0546875 C17.0078125,19.1067711 17.0338539,19.1523436 17.0859375,19.1914062 C17.1380211,19.2304689 17.2005205,19.25 17.2734375,19.25 L18.71875,19.25 C18.791667,19.25 18.8528643,19.2304689 18.9023438,19.1914062 C18.9518232,19.1523436 18.9791666,19.1067711 18.984375,19.0546875 Z" id="icon-warning"></path>
                </g>
            </g>
        </g>
    </g>
</svg>