<?xml version="1.0" encoding="UTF-8"?>
<svg width="11px" height="11px" viewBox="0 0 11 11" version="1.1" xmlns="http://www.w3.org/2000/svg" xmlns:xlink="http://www.w3.org/1999/xlink">
    <!-- Generator: Sketch 47.1 (45422) - http://www.bohemiancoding.com/sketch -->
    <title>icon-alert-red</title>
    <desc>Created with Sketch.</desc>
    <defs></defs>
    <g id="Icons" stroke="none" stroke-width="1" fill="none" fill-rule="evenodd">
        <g id="Artboard" transform="translate(-76.000000, -114.000000)" fill="#FF0928">
            <path d="M81.5,114 C82.4978349,114 83.418073,114.245874 84.2607422,114.73763 C85.1034113,115.229386 85.7706139,115.896589 86.2623698,116.739258 C86.7541257,117.581927 87,118.502165 87,119.5 C87,120.497835 86.7541257,121.418073 86.2623698,122.260742 C85.7706139,123.103411 85.1034113,123.770614 84.2607422,124.26237 C83.418073,124.754126 82.4978349,125 81.5,125 C80.5021651,125 79.581927,124.754126 78.7392578,124.26237 C77.8965887,123.770614 77.2293861,123.103411 76.7376302,122.260742 C76.2458743,121.418073 76,120.497835 76,119.5 C76,118.502165 76.2458743,117.581927 76.7376302,116.739258 C77.2293861,115.896589 77.8965887,115.229386 78.7392578,114.73763 C79.581927,114.245874 80.5021651,114 81.5,114 Z M82.4166667,122.930339 L82.4166667,121.569661 C82.4166667,121.502821 82.3951825,121.446723 82.3522135,121.401367 C82.3092446,121.356011 82.2567277,121.333333 82.1946615,121.333333 L80.8196615,121.333333 C80.7575952,121.333333 80.7026912,121.357205 80.6549479,121.404948 C80.6072046,121.452691 80.5833333,121.507595 80.5833333,121.569661 L80.5833333,122.930339 C80.5833333,122.992405 80.6072046,123.047309 80.6549479,123.095052 C80.7026912,123.142795 80.7575952,123.166667 80.8196615,123.166667 L82.1946615,123.166667 C82.2567277,123.166667 82.3092446,123.143989 82.3522135,123.098633 C82.3951825,123.053277 82.4166667,122.997179 82.4166667,122.930339 Z M82.4023437,120.466797 L82.53125,116.019531 C82.53125,115.962239 82.5073787,115.919271 82.4596354,115.890625 C82.4118921,115.85243 82.354601,115.833333 82.2877604,115.833333 L80.7122396,115.833333 C80.645399,115.833333 80.5881079,115.85243 80.5403646,115.890625 C80.4926213,115.919271 80.46875,115.962239 80.46875,116.019531 L80.5904948,120.466797 C80.5904948,120.51454 80.6143661,120.556315 80.6621094,120.592122 C80.7098527,120.62793 80.7671438,120.645833 80.8339844,120.645833 L82.1588542,120.645833 C82.2256948,120.645833 82.2817923,120.62793 82.3271484,120.592122 C82.3725046,120.556315 82.3975694,120.51454 82.4023437,120.466797 Z" id="icon-alert-red"></path>
        </g>
    </g>
</svg>