<?xml version="1.0" encoding="UTF-8"?>
<svg width="13px" height="9px" viewBox="0 0 13 9" version="1.1" xmlns="http://www.w3.org/2000/svg" xmlns:xlink="http://www.w3.org/1999/xlink">
    <!-- Generator: Sketch 42 (36781) - http://www.bohemiancoding.com/sketch -->
    <title>icon-level-current</title>
    <desc>Created with Sketch.</desc>
    <defs></defs>
    <g id="Icons" stroke="none" stroke-width="1" fill="none" fill-rule="evenodd">
        <g id="Artboard-2" transform="translate(-110.000000, -104.000000)" fill="#2C323F">
            <path d="M122.73878,107.857176 L122.73878,109.857289 C122.73878,109.954517 122.707529,110.034382 122.645025,110.096886 C122.582521,110.15939 122.502656,110.190641 122.405428,110.190641 L115.238358,110.190641 L115.238358,112.524106 C115.238358,112.669948 115.172383,112.770647 115.04043,112.826206 C114.908478,112.881765 114.786944,112.864403 114.675826,112.77412 L110.675601,109.128081 C110.606152,109.058633 110.571429,108.978768 110.571429,108.888485 C110.571429,108.791256 110.606152,108.707919 110.675601,108.63847 L114.675826,104.950763 C114.786944,104.853535 114.908478,104.8327 115.04043,104.888259 C115.172383,104.950763 115.238358,105.051462 115.238358,105.19036 L115.238358,107.523824 L122.405428,107.523824 C122.502656,107.523824 122.582521,107.555076 122.645025,107.61758 C122.707529,107.680083 122.73878,107.759948 122.73878,107.857176 Z" id="icon-level-current"></path>
        </g>
    </g>
</svg>