<?xml version="1.0" encoding="UTF-8"?>
<svg width="18px" height="10px" viewBox="0 0 18 10" version="1.1" xmlns="http://www.w3.org/2000/svg" xmlns:xlink="http://www.w3.org/1999/xlink">
    <!-- Generator: Sketch 52.5 (67469) - http://www.bohemiancoding.com/sketch -->
    <title>icon-menu-dark</title>
    <desc>Created with Sketch.</desc>
    <g id="WIR" stroke="none" stroke-width="1" fill="none" fill-rule="evenodd">
        <g id="WIR-Main-Page" transform="translate(-12.000000, -240.000000)">
            <g id="Group-6" transform="translate(0.000000, 1.000000)">
                <g id="Group-5" transform="translate(0.000000, 43.000000)">
                    <g id="icon-menu-dark" transform="translate(9.000000, 189.000000)">
                        <path d="M3,13 L5,13 L5,11 L3,11 L3,13 Z M3,17 L5,17 L5,15 L3,15 L3,17 Z M3,9 L5,9 L5,7 L3,7 L3,9 Z M7,13 L21,13 L21,11 L7,11 L7,13 Z M7,17 L21,17 L21,15 L7,15 L7,17 Z M7,7 L7,9 L21,9 L21,7 L7,7 Z" id="Shape" fill="#2D3240" fill-rule="nonzero"></path>
                        <polygon id="Shape" points="0 0 24 0 24 24 0 24"></polygon>
                    </g>
                </g>
            </g>
        </g>
    </g>
</svg>