<?xml version="1.0" encoding="UTF-8"?>
<svg width="9px" height="9px" viewBox="0 0 9 9" version="1.1" xmlns="http://www.w3.org/2000/svg" xmlns:xlink="http://www.w3.org/1999/xlink">
    <!-- Generator: Sketch 42 (36781) - http://www.bohemiancoding.com/sketch -->
    <title>icon-show-menu</title>
    <desc>Created with Sketch.</desc>
    <defs></defs>
    <g id="Icons" stroke="none" stroke-width="1" fill="none" fill-rule="evenodd">
        <g id="Artboard" transform="translate(-481.000000, -354.000000)" fill="#2C323F">
            <path d="M486.196429,362.169643 C486.196429,362.247024 486.166667,362.315476 486.107143,362.375 L485.660714,362.821429 C485.60119,362.880953 485.532738,362.910714 485.455357,362.910714 C485.377976,362.910714 485.309524,362.880953 485.25,362.821429 L481.089286,358.660714 C481.029762,358.60119 481,358.532738 481,358.455357 C481,358.377976 481.029762,358.309524 481.089286,358.25 L485.25,354.089286 C485.309524,354.029762 485.377976,354 485.455357,354 C485.532738,354 485.60119,354.029762 485.660714,354.089286 L486.107143,354.535714 C486.166667,354.595238 486.196429,354.66369 486.196429,354.741071 C486.196429,354.818453 486.166667,354.886904 486.107143,354.946429 L482.598214,358.455357 L486.107143,361.964286 C486.166667,362.02381 486.196429,362.092262 486.196429,362.169643 Z M489.625,362.169643 C489.625,362.247024 489.595238,362.315476 489.535714,362.375 L489.089286,362.821429 C489.029762,362.880953 488.96131,362.910714 488.883929,362.910714 C488.806547,362.910714 488.738096,362.880953 488.678571,362.821429 L484.517857,358.660714 C484.458333,358.60119 484.428571,358.532738 484.428571,358.455357 C484.428571,358.377976 484.458333,358.309524 484.517857,358.25 L488.678571,354.089286 C488.738096,354.029762 488.806547,354 488.883929,354 C488.96131,354 489.029762,354.029762 489.089286,354.089286 L489.535714,354.535714 C489.595238,354.595238 489.625,354.66369 489.625,354.741071 C489.625,354.818453 489.595238,354.886904 489.535714,354.946429 L486.026786,358.455357 L489.535714,361.964286 C489.595238,362.02381 489.625,362.092262 489.625,362.169643 Z" id="icon-show-menu" transform="translate(485.312500, 358.455357) rotate(-180.000000) translate(-485.312500, -358.455357) "></path>
        </g>
    </g>
</svg>