<?xml version="1.0" encoding="UTF-8"?>
<svg width="14px" height="10px" viewBox="0 0 14 10" version="1.1" xmlns="http://www.w3.org/2000/svg" xmlns:xlink="http://www.w3.org/1999/xlink">
    <!-- Generator: Sketch 44 (41411) - http://www.bohemiancoding.com/sketch -->
    <title>icon-show</title>
    <desc>Created with Sketch.</desc>
    <defs></defs>
    <g id="Icons" stroke="none" stroke-width="1" fill="none" fill-rule="evenodd">
        <g id="Artboard" transform="translate(-501.000000, -68.000000)" fill="#2C323F">
            <path d="M514,73.2142857 C513.208329,71.9851129 512.216152,71.0658513 511.023438,70.4564732 C511.341147,70.9981426 511.5,71.5840742 511.5,72.2142857 C511.5,73.1778322 511.157556,74.0020427 510.472656,74.686942 C509.787757,75.3718412 508.963546,75.7142857 508,75.7142857 C507.036454,75.7142857 506.212243,75.3718412 505.527344,74.686942 C504.842444,74.0020427 504.5,73.1778322 504.5,72.2142857 C504.5,71.5840742 504.658853,70.9981426 504.976562,70.4564732 C503.783848,71.0658513 502.791671,71.9851129 502,73.2142857 C502.692712,74.2819994 503.561193,75.1322513 504.605469,75.765067 C505.649745,76.3978826 506.781244,76.7142857 508,76.7142857 C509.218756,76.7142857 510.350255,76.3978826 511.394531,75.765067 C512.438807,75.1322513 513.307288,74.2819994 514,73.2142857 Z M508.375,70.2142857 C508.375,70.1101185 508.338542,70.0215777 508.265625,69.9486607 C508.192708,69.8757437 508.104167,69.8392857 508,69.8392857 C507.348955,69.8392857 506.790367,70.0723563 506.324219,70.5385045 C505.858071,71.0046526 505.625,71.5632408 505.625,72.2142857 C505.625,72.3184529 505.661458,72.4069937 505.734375,72.4799107 C505.807292,72.5528277 505.895833,72.5892857 506,72.5892857 C506.104167,72.5892857 506.192708,72.5528277 506.265625,72.4799107 C506.338542,72.4069937 506.375,72.3184529 506.375,72.2142857 C506.375,71.7663668 506.533853,71.3835581 506.851562,71.0658482 C507.169272,70.7481383 507.552081,70.5892857 508,70.5892857 C508.104167,70.5892857 508.192708,70.5528277 508.265625,70.4799107 C508.338542,70.4069937 508.375,70.3184529 508.375,70.2142857 Z M515,73.2142857 C515,73.3913699 514.947917,73.5710556 514.84375,73.7533482 C514.11458,74.9512709 513.134121,75.9108967 511.902344,76.6322545 C510.670567,77.3536122 509.369799,77.7142857 508,77.7142857 C506.630201,77.7142857 505.329433,77.3523102 504.097656,76.6283482 C502.865879,75.9043863 501.88542,74.9460625 501.15625,73.7533482 C501.052083,73.5710556 501,73.3913699 501,73.2142857 C501,73.0372015 501.052083,72.8575158 501.15625,72.6752232 C501.88542,71.4825089 502.865879,70.5241852 504.097656,69.8002232 C505.329433,69.0762613 506.630201,68.7142857 508,68.7142857 C509.369799,68.7142857 510.670567,69.0762613 511.902344,69.8002232 C513.134121,70.5241852 514.11458,71.4825089 514.84375,72.6752232 C514.947917,72.8575158 515,73.0372015 515,73.2142857 Z" id="icon-show"></path>
        </g>
    </g>
</svg>