<?xml version="1.0" encoding="UTF-8"?>
<svg width="13px" height="9px" viewBox="0 0 13 9" version="1.1" xmlns="http://www.w3.org/2000/svg" xmlns:xlink="http://www.w3.org/1999/xlink">
    <title>icon-level-current-right</title>
    <g id="Page-1" stroke="none" stroke-width="1" fill="none" fill-rule="evenodd">
        <g id="icon-level-current-right" transform="translate(6.655104, 4.857954) rotate(-180.000000) translate(-6.655104, -4.857954) translate(0.571429, 0.857954)" fill="#2C323F" fill-rule="nonzero">
            <path d="M12.167351,2.99922181 L12.167351,4.99933481 C12.167351,5.09656281 12.1361,5.17642781 12.073596,5.23893181 C12.011092,5.30143581 11.931227,5.33268681 11.833999,5.33268681 L4.666929,5.33268681 L4.666929,7.66615181 C4.666929,7.81199381 4.600954,7.91269281 4.469001,7.96825181 C4.337049,8.02381081 4.215515,8.00644881 4.104397,7.91616581 L0.104172,4.27012681 C0.034723,4.20067881 0,4.12081381 0,4.03053081 C0,3.93330181 0.034723,3.84996481 0.104172,3.78051581 L4.104397,0.0928088084 C4.215515,-0.00441919159 4.337049,-0.0252541916 4.469001,0.0303048084 C4.600954,0.0928088084 4.666929,0.193507808 4.666929,0.332405808 L4.666929,2.66586981 L11.833999,2.66586981 C11.931227,2.66586981 12.011092,2.69712181 12.073596,2.75962581 C12.1361,2.82212881 12.167351,2.90199381 12.167351,2.99922181 Z" id="icon-level-current"></path>
        </g>
    </g>
</svg>