<?xml version="1.0" encoding="UTF-8"?>
<svg width="12px" height="11px" viewBox="0 0 12 11" version="1.1" xmlns="http://www.w3.org/2000/svg" xmlns:xlink="http://www.w3.org/1999/xlink">
    <!-- Generator: Sketch 57.1 (83088) - https://sketch.com -->
    <title>icon-open</title>
    <desc>Created with Sketch.</desc>
    <g id="Icons" stroke="none" stroke-width="1" fill="none" fill-rule="evenodd">
        <g id="Artboard" transform="translate(-305.000000, -101.000000)" fill="#2B5FD9" fill-rule="nonzero">
            <path d="M314.428571,107.5 L314.428571,109.642857 C314.428571,110.17411 314.239957,110.628346 313.862723,111.00558 C313.485489,111.382814 313.031253,111.571429 312.5,111.571429 L306.928571,111.571429 C306.397319,111.571429 305.943082,111.382814 305.565848,111.00558 C305.188614,110.628346 305,110.17411 305,109.642857 L305,104.071429 C305,103.540176 305.188614,103.085939 305.565848,102.708705 C305.943082,102.331471 306.397319,102.142857 306.928571,102.142857 L311.642857,102.142857 C311.705357,102.142857 311.756696,102.162946 311.796875,102.203125 C311.837054,102.243304 311.857143,102.294643 311.857143,102.357143 L311.857143,102.785714 C311.857143,102.848215 311.837054,102.899553 311.796875,102.939732 C311.756696,102.979911 311.705357,103 311.642857,103 L306.928571,103 C306.633927,103 306.381697,103.10491 306.171875,103.314732 C305.962053,103.524555 305.857143,103.776784 305.857143,104.071429 L305.857143,109.642857 C305.857143,109.937501 305.962053,110.189731 306.171875,110.399554 C306.381697,110.609376 306.633927,110.714286 306.928571,110.714286 L312.5,110.714286 C312.794644,110.714286 313.046874,110.609376 313.256696,110.399554 C313.466519,110.189731 313.571429,109.937501 313.571429,109.642857 L313.571429,107.5 C313.571429,107.4375 313.591518,107.386161 313.631696,107.345982 C313.671875,107.305803 313.723214,107.285714 313.785714,107.285714 L314.214286,107.285714 C314.276786,107.285714 314.328125,107.305803 314.368304,107.345982 C314.408482,107.386161 314.428571,107.4375 314.428571,107.5 Z M317,101.714286 L317,105.142857 C317,105.258929 316.95759,105.359375 316.872768,105.444196 C316.787946,105.529018 316.687501,105.571429 316.571429,105.571429 C316.455357,105.571429 316.354911,105.529018 316.270089,105.444196 L315.091518,104.265625 L310.725446,108.631696 C310.680803,108.67634 310.629465,108.698661 310.571429,108.698661 C310.513393,108.698661 310.462054,108.67634 310.417411,108.631696 L309.654018,107.868304 C309.609375,107.82366 309.587054,107.772322 309.587054,107.714286 C309.587054,107.65625 309.609375,107.604911 309.654018,107.560268 L314.020089,103.194196 L312.841518,102.015625 C312.756696,101.930803 312.714286,101.830358 312.714286,101.714286 C312.714286,101.598214 312.756696,101.497768 312.841518,101.412946 C312.92634,101.328125 313.026785,101.285714 313.142857,101.285714 L316.571429,101.285714 C316.687501,101.285714 316.787946,101.328125 316.872768,101.412946 C316.95759,101.497768 317,101.598214 317,101.714286 Z" id="icon-open"></path>
        </g>
    </g>
</svg>