<?xml version="1.0" encoding="UTF-8"?>
<svg width="13px" height="13px" viewBox="0 0 13 13" version="1.1" xmlns="http://www.w3.org/2000/svg" xmlns:xlink="http://www.w3.org/1999/xlink">
    <!-- Generator: Sketch 56.3 (81716) - https://sketch.com -->
    <title>icon-shield</title>
    <desc>Created with Sketch.</desc>
    <g id="Icons" stroke="none" stroke-width="1" fill="none" fill-rule="evenodd">
        <g id="Artboard-5" transform="translate(-230.000000, -111.000000)" fill="#FFFFFF" fill-rule="nonzero">
            <path d="M236.09375,121.400381 L236.09375,113.538677 L232.46543,115.049566 C232.678711,118.000245 234.120898,120.194209 236.09375,121.400381 Z M241.438477,113.124769 L236.563477,111.093321 C236.263563,110.968893 235.926476,110.968893 235.626563,111.093321 L230.751563,113.124769 C230.29707,113.312678 230,113.757058 230,114.249684 C230,119.290214 232.907227,122.774148 235.624023,123.90668 C235.923633,124.031107 236.261328,124.031107 236.560937,123.90668 C238.736914,123.000147 242.1875,119.869177 242.1875,114.249684 C242.1875,113.757058 241.89043,113.312678 241.438477,113.124769 Z M236.09375,122.781766 C233.618164,121.750806 231.21875,118.548736 231.21875,114.249684 L236.09375,112.218236 L240.96875,114.249684 C240.96875,118.663005 238.470313,121.791435 236.09375,122.781766 Z" id="icon-shield"></path>
        </g>
    </g>
</svg>