<?xml version="1.0" encoding="UTF-8"?>
<svg width="16px" height="17px" viewBox="0 0 16 17" version="1.1" xmlns="http://www.w3.org/2000/svg" xmlns:xlink="http://www.w3.org/1999/xlink">
    <!-- Generator: Sketch 47.1 (45422) - http://www.bohemiancoding.com/sketch -->
    <title>icon-copy</title>
    <desc>Created with Sketch.</desc>
    <defs></defs>
    <g id="Icons" stroke="none" stroke-width="1" fill="none" fill-rule="evenodd">
        <g id="Artboard" transform="translate(-511.000000, -107.000000)" fill="#2D3240">
            <path d="M526.142857,110.714286 C526.380954,110.714286 526.583332,110.797618 526.75,110.964286 C526.916668,111.130953 527,111.333332 527,111.571429 L527,122.428571 C527,122.666668 526.916668,122.869047 526.75,123.035714 C526.583332,123.202382 526.380954,123.285714 526.142857,123.285714 L517.571429,123.285714 C517.333332,123.285714 517.130953,123.202382 516.964286,123.035714 C516.797618,122.869047 516.714286,122.666668 516.714286,122.428571 L516.714286,119.857143 L511.857143,119.857143 C511.619046,119.857143 511.416668,119.77381 511.25,119.607143 C511.083332,119.440475 511,119.238096 511,119 L511,113 C511,112.761904 511.059523,112.500001 511.178571,112.214286 C511.29762,111.92857 511.440475,111.702382 511.607143,111.535714 L515.25,107.892857 C515.416668,107.72619 515.642856,107.583334 515.928571,107.464286 C516.214287,107.345237 516.476189,107.285714 516.714286,107.285714 L520.428571,107.285714 C520.666668,107.285714 520.869047,107.369047 521.035714,107.535714 C521.202382,107.702382 521.285714,107.904761 521.285714,108.142857 L521.285714,111.071429 C521.690478,110.833332 522.071427,110.714286 522.428571,110.714286 L526.142857,110.714286 Z M521.285714,112.616071 L518.616071,115.285714 L521.285714,115.285714 L521.285714,112.616071 Z M515.571429,109.1875 L512.901786,111.857143 L515.571429,111.857143 L515.571429,109.1875 Z M517.321429,114.964286 L520.142857,112.142857 L520.142857,108.428571 L516.714286,108.428571 L516.714286,112.142857 C516.714286,112.380954 516.630953,112.583332 516.464286,112.75 C516.297618,112.916667 516.095239,113 515.857143,113 L512.142857,113 L512.142857,118.714286 L516.714286,118.714286 L516.714286,116.428571 C516.714286,116.190475 516.773809,115.928573 516.892857,115.642857 C517.011905,115.357141 517.154761,115.130953 517.321429,114.964286 Z M525.857143,122.142857 L525.857143,111.857143 L522.428571,111.857143 L522.428571,115.571429 C522.428571,115.809525 522.345239,116.011904 522.178571,116.178571 C522.011904,116.345239 521.809525,116.428571 521.571429,116.428571 L517.857143,116.428571 L517.857143,122.142857 L525.857143,122.142857 Z" id="icon-copy"></path>
        </g>
    </g>
</svg>