<?xml version="1.0" encoding="UTF-8"?>
<svg width="11px" height="13px" viewBox="0 0 11 13" version="1.1" xmlns="http://www.w3.org/2000/svg" xmlns:xlink="http://www.w3.org/1999/xlink">
    <!-- Generator: Sketch 42 (36781) - http://www.bohemiancoding.com/sketch -->
    <title>icon-locked</title>
    <desc>Created with Sketch.</desc>
    <defs></defs>
    <g id="Icons" stroke="none" stroke-width="1" fill="none" fill-rule="evenodd">
        <g id="Artboard" transform="translate(-408.000000, -260.000000)" fill="#2C323F">
            <path d="M410.857143,266.142857 L415.428571,266.142857 L415.428571,264.428571 C415.428571,263.797616 415.205359,263.258931 414.758929,262.8125 C414.312498,262.366069 413.773813,262.142857 413.142857,262.142857 C412.511902,262.142857 411.973217,262.366069 411.526786,262.8125 C411.080355,263.258931 410.857143,263.797616 410.857143,264.428571 L410.857143,266.142857 Z M418.285714,267 L418.285714,272.142857 C418.285714,272.380954 418.202382,272.583332 418.035714,272.75 C417.869047,272.916668 417.666668,273 417.428571,273 L408.857143,273 C408.619046,273 408.416668,272.916668 408.25,272.75 C408.083332,272.583332 408,272.380954 408,272.142857 L408,267 C408,266.761904 408.083332,266.559525 408.25,266.392857 C408.416668,266.22619 408.619046,266.142857 408.857143,266.142857 L409.142857,266.142857 L409.142857,264.428571 C409.142857,263.333328 409.53571,262.392861 410.321429,261.607143 C411.107147,260.821425 412.047614,260.428571 413.142857,260.428571 C414.238101,260.428571 415.178567,260.821425 415.964286,261.607143 C416.750004,262.392861 417.142857,263.333328 417.142857,264.428571 L417.142857,266.142857 L417.428571,266.142857 C417.666668,266.142857 417.869047,266.22619 418.035714,266.392857 C418.202382,266.559525 418.285714,266.761904 418.285714,267 Z" id="icon-locked"></path>
        </g>
    </g>
</svg>