<?xml version="1.0" encoding="UTF-8"?>
<svg width="9px" height="10px" viewBox="0 0 9 10" version="1.1" xmlns="http://www.w3.org/2000/svg" xmlns:xlink="http://www.w3.org/1999/xlink">
    <!-- Generator: Sketch 42 (36781) - http://www.bohemiancoding.com/sketch -->
    <title>icon-locked-by</title>
    <desc>Created with Sketch.</desc>
    <defs></defs>
    <g id="Icons" stroke="none" stroke-width="1" fill="none" fill-rule="evenodd" opacity="0.600000024">
        <g id="Helo" transform="translate(-358.000000, -289.000000)" fill="#FFFFFF">
            <path d="M360.272727,293.545455 L363.909091,293.545455 L363.909091,292.181818 C363.909091,291.679922 363.731536,291.251422 363.37642,290.896307 C363.021305,290.541191 362.592806,290.363636 362.090909,290.363636 C361.589013,290.363636 361.160513,290.541191 360.805398,290.896307 C360.450282,291.251422 360.272727,291.679922 360.272727,292.181818 L360.272727,293.545455 Z M366.181818,294.227273 L366.181818,298.318182 C366.181818,298.507577 366.115531,298.66856 365.982955,298.801136 C365.850378,298.933713 365.689395,299 365.5,299 L358.681818,299 C358.492423,299 358.33144,298.933713 358.198864,298.801136 C358.066287,298.66856 358,298.507577 358,298.318182 L358,294.227273 C358,294.037878 358.066287,293.876895 358.198864,293.744318 C358.33144,293.611742 358.492423,293.545455 358.681818,293.545455 L358.909091,293.545455 L358.909091,292.181818 C358.909091,291.310602 359.221588,290.562503 359.846591,289.9375 C360.471594,289.312497 361.219693,289 362.090909,289 C362.962126,289 363.710224,289.312497 364.335227,289.9375 C364.96023,290.562503 365.272727,291.310602 365.272727,292.181818 L365.272727,293.545455 L365.5,293.545455 C365.689395,293.545455 365.850378,293.611742 365.982955,293.744318 C366.115531,293.876895 366.181818,294.037878 366.181818,294.227273 Z" id="icon-locked-by"></path>
        </g>
    </g>
</svg>