<?xml version="1.0" encoding="UTF-8"?>
<svg width="9px" height="9px" viewBox="0 0 9 9" version="1.1" xmlns="http://www.w3.org/2000/svg" xmlns:xlink="http://www.w3.org/1999/xlink">
    <!-- Generator: Sketch 42 (36781) - http://www.bohemiancoding.com/sketch -->
    <title>icon-hide-menu</title>
    <desc>Created with Sketch.</desc>
    <defs></defs>
    <g id="Icons" stroke="none" stroke-width="1" fill="none" fill-rule="evenodd">
        <g id="Artboard" transform="translate(-441.000000, -354.000000)" fill="#2C323F">
            <path d="M446.196429,362.169643 C446.196429,362.247024 446.166667,362.315476 446.107143,362.375 L445.660714,362.821429 C445.60119,362.880953 445.532738,362.910714 445.455357,362.910714 C445.377976,362.910714 445.309524,362.880953 445.25,362.821429 L441.089286,358.660714 C441.029762,358.60119 441,358.532738 441,358.455357 C441,358.377976 441.029762,358.309524 441.089286,358.25 L445.25,354.089286 C445.309524,354.029762 445.377976,354 445.455357,354 C445.532738,354 445.60119,354.029762 445.660714,354.089286 L446.107143,354.535714 C446.166667,354.595238 446.196429,354.66369 446.196429,354.741071 C446.196429,354.818453 446.166667,354.886904 446.107143,354.946429 L442.598214,358.455357 L446.107143,361.964286 C446.166667,362.02381 446.196429,362.092262 446.196429,362.169643 Z M449.625,362.169643 C449.625,362.247024 449.595238,362.315476 449.535714,362.375 L449.089286,362.821429 C449.029762,362.880953 448.96131,362.910714 448.883929,362.910714 C448.806547,362.910714 448.738096,362.880953 448.678571,362.821429 L444.517857,358.660714 C444.458333,358.60119 444.428571,358.532738 444.428571,358.455357 C444.428571,358.377976 444.458333,358.309524 444.517857,358.25 L448.678571,354.089286 C448.738096,354.029762 448.806547,354 448.883929,354 C448.96131,354 449.029762,354.029762 449.089286,354.089286 L449.535714,354.535714 C449.595238,354.595238 449.625,354.66369 449.625,354.741071 C449.625,354.818453 449.595238,354.886904 449.535714,354.946429 L446.026786,358.455357 L449.535714,361.964286 C449.595238,362.02381 449.625,362.092262 449.625,362.169643 Z" id="icon-hide-menu"></path>
        </g>
    </g>
</svg>