<?xml version="1.0" encoding="UTF-8"?>
<svg width="14px" height="11px" viewBox="0 0 14 11" version="1.1" xmlns="http://www.w3.org/2000/svg" xmlns:xlink="http://www.w3.org/1999/xlink">
    <!-- Generator: Sketch 41.2 (35397) - http://www.bohemiancoding.com/sketch -->
    <title>icon-product-hidden</title>
    <desc>Created with Sketch.</desc>
    <defs></defs>
    <g id="V3" stroke="none" stroke-width="1" fill="none" fill-rule="evenodd">
        <g id="Artboard-2" transform="translate(-318.000000, -97.000000)" fill="#2C323F">
            <path d="M322.335938,105.429688 L322.945312,104.328125 C322.492185,103.999998 322.138022,103.58594 321.882812,103.085938 C321.627603,102.585935 321.5,102.057294 321.5,101.5 C321.5,100.869789 321.658853,100.283857 321.976562,99.7421875 C320.783848,100.351566 319.791671,101.270827 319,102.5 C319.869796,103.843757 320.981764,104.820309 322.335938,105.429688 Z M325.375,99.5 C325.375,99.3958328 325.338542,99.307292 325.265625,99.234375 C325.192708,99.161458 325.104167,99.125 325,99.125 C324.348955,99.125 323.790367,99.3580706 323.324219,99.8242188 C322.858071,100.290367 322.625,100.848955 322.625,101.5 C322.625,101.604167 322.661458,101.692708 322.734375,101.765625 C322.807292,101.838542 322.895833,101.875 323,101.875 C323.104167,101.875 323.192708,101.838542 323.265625,101.765625 C323.338542,101.692708 323.375,101.604167 323.375,101.5 C323.375,101.052081 323.533853,100.669272 323.851562,100.351562 C324.169272,100.033853 324.552081,99.875 325,99.875 C325.104167,99.875 325.192708,99.838542 325.265625,99.765625 C325.338542,99.692708 325.375,99.6041672 325.375,99.5 Z M328.210938,98.0078125 C328.210938,98.044271 328.208333,98.0677083 328.203125,98.078125 C327.656247,99.0572966 326.835943,100.53124 325.742188,102.5 C324.648432,104.46876 323.825524,105.945308 323.273438,106.929688 L322.890625,107.625 C322.838541,107.708334 322.765625,107.75 322.671875,107.75 C322.609375,107.75 322.26042,107.56771 321.625,107.203125 C321.541666,107.151041 321.5,107.078125 321.5,106.984375 C321.5,106.921875 321.614582,106.695314 321.84375,106.304688 C321.098955,105.966144 320.412764,105.515628 319.785156,104.953125 C319.157549,104.390622 318.614586,103.752608 318.15625,103.039062 C318.052083,102.877603 318,102.697918 318,102.5 C318,102.302082 318.052083,102.122397 318.15625,101.960938 C318.953129,100.736973 319.942702,99.7708369 321.125,99.0625 C322.307298,98.3541631 323.598951,98 325,98 C325.463544,98 325.932289,98.0442704 326.40625,98.1328125 L326.828125,97.375 C326.880209,97.2916663 326.953125,97.25 327.046875,97.25 C327.072917,97.25 327.119791,97.2656248 327.1875,97.296875 C327.255209,97.3281252 327.335937,97.3684893 327.429688,97.4179688 C327.523438,97.4674482 327.609375,97.5156248 327.6875,97.5625 C327.765625,97.6093752 327.847656,97.6575518 327.933594,97.7070312 C328.019532,97.7565107 328.070312,97.7864583 328.085938,97.796875 C328.169271,97.8489586 328.210938,97.9192704 328.210938,98.0078125 Z M328.5,101.5 C328.5,102.223962 328.294273,102.884112 327.882812,103.480469 C327.471352,104.076826 326.927087,104.505207 326.25,104.765625 L328.4375,100.84375 C328.479167,101.078126 328.5,101.296874 328.5,101.5 Z M332,102.5 C332,102.682293 331.947917,102.861978 331.84375,103.039062 C331.640624,103.372398 331.356773,103.749998 330.992188,104.171875 C330.210934,105.067713 329.305995,105.763018 328.277344,106.257812 C327.248693,106.752607 326.156256,107 325,107 L325.578125,105.96875 C326.682297,105.875 327.704422,105.518232 328.644531,104.898438 C329.58464,104.278643 330.369789,103.479172 331,102.5 C330.401039,101.567704 329.666671,100.802086 328.796875,100.203125 L329.289062,99.328125 C329.783857,99.66146 330.259112,100.059894 330.714844,100.523438 C331.170575,100.986981 331.546874,101.466143 331.84375,101.960938 C331.947917,102.138022 332,102.317707 332,102.5 Z" id="icon-product-hidden"></path>
        </g>
    </g>
</svg>