<svg width="14" height="14" viewBox="0 0 14 14" fill="none" xmlns="http://www.w3.org/2000/svg">
<path fill-rule="evenodd" clip-rule="evenodd" d="M8.07692 1C8.07692 0.447715 7.62921 0 7.07692 0H6.92308C6.37079 0 5.92308 0.447716 5.92308 1V5.92308H1C0.447715 5.92308 0 6.37079 0 6.92308V7.07692C0 7.62921 0.447716 8.07692 1 8.07692H5.92308V13C5.92308 13.5523 6.37079 14 6.92308 14H7.07692C7.62921 14 8.07692 13.5523 8.07692 13V8.07692H13C13.5523 8.07692 14 7.62921 14 7.07692V6.92308C14 6.37079 13.5523 5.92308 13 5.92308H8.07692V1Z" fill="#F2F4F7"/>
</svg>
