<?xml version="1.0" encoding="UTF-8"?>
<svg width="12px" height="12px" viewBox="0 0 12 12" version="1.1" xmlns="http://www.w3.org/2000/svg" xmlns:xlink="http://www.w3.org/1999/xlink">
    <!-- Generator: Sketch 45.1 (43504) - http://www.bohemiancoding.com/sketch -->
    <title>icon-warning-sign</title>
    <desc>Created with Sketch.</desc>
    <defs></defs>
    <g id="Icons" stroke="none" stroke-width="1" fill="none" fill-rule="evenodd">
        <g id="Artboard" transform="translate(-276.000000, -136.000000)" fill="#FF0928">
            <path d="M282.847121,145.482895 L282.847121,144.212012 C282.847121,144.149583 282.825939,144.097187 282.783576,144.054824 C282.741213,144.012461 282.691047,143.99128 282.633077,143.99128 L281.348816,143.99128 C281.290846,143.99128 281.24068,144.012461 281.198317,144.054824 C281.155954,144.097187 281.134773,144.149583 281.134773,144.212012 L281.134773,145.482895 C281.134773,145.545325 281.155954,145.597721 281.198317,145.640084 C281.24068,145.682447 281.290846,145.703628 281.348816,145.703628 L282.633077,145.703628 C282.691047,145.703628 282.741213,145.682447 282.783576,145.640084 C282.825939,145.597721 282.847121,145.545325 282.847121,145.482895 Z M282.833743,142.981262 L282.954142,139.911076 C282.954142,139.857565 282.931846,139.815202 282.887254,139.783988 C282.829283,139.734936 282.775773,139.71041 282.726721,139.71041 L281.255172,139.71041 C281.20612,139.71041 281.15261,139.734936 281.09464,139.783988 C281.050047,139.815202 281.027751,139.862024 281.027751,139.924454 L281.141462,142.981262 C281.141462,143.025855 281.163758,143.062643 281.20835,143.091628 C281.252943,143.120613 281.306453,143.135106 281.368883,143.135106 L282.606322,143.135106 C282.668751,143.135106 282.721147,143.120613 282.76351,143.091628 C282.805873,143.062643 282.829284,143.025855 282.833743,142.981262 Z M282.740099,136.733868 L287.877143,146.151781 C288.033217,146.432715 288.028757,146.713644 287.863765,146.994578 C287.787957,147.123896 287.684281,147.226458 287.552733,147.302265 C287.421185,147.378072 287.279605,147.415976 287.12799,147.415976 L276.853903,147.415976 C276.702288,147.415976 276.560709,147.378072 276.42916,147.302265 C276.297612,147.226458 276.193936,147.123896 276.118128,146.994578 C275.953136,146.713644 275.948677,146.432715 276.104751,146.151781 L281.241794,136.733868 C281.317602,136.595631 281.422393,136.48638 281.556171,136.406114 C281.689949,136.325847 281.834872,136.285714 281.990947,136.285714 C282.147021,136.285714 282.291945,136.325847 282.425722,136.406114 C282.5595,136.48638 282.664291,136.595631 282.740099,136.733868 Z" id="icon-warning-sign"></path>
        </g>
    </g>
</svg>