<?xml version="1.0" encoding="UTF-8"?>
<svg width="14px" height="12px" viewBox="0 0 14 12" version="1.1" xmlns="http://www.w3.org/2000/svg" xmlns:xlink="http://www.w3.org/1999/xlink">
    <!-- Generator: Sketch 44 (41411) - http://www.bohemiancoding.com/sketch -->
    <title>icon-hide</title>
    <desc>Created with Sketch.</desc>
    <defs></defs>
    <g id="Icons" stroke="none" stroke-width="1" fill="none" fill-rule="evenodd">
        <g id="Artboard" transform="translate(-441.000000, -67.000000)" fill="#2C323F">
            <path d="M445.335938,76.0368304 L445.945312,74.9352679 C445.492185,74.6071412 445.138022,74.1930829 444.882812,73.6930804 C444.627603,73.1930779 444.5,72.6644373 444.5,72.1071429 C444.5,71.4769314 444.658853,70.8909997 444.976562,70.3493304 C443.783848,70.9587084 442.791671,71.87797 442,73.1071429 C442.869796,74.4508996 443.981764,75.4274523 445.335938,76.0368304 Z M448.375,70.1071429 C448.375,70.0029757 448.338542,69.9144349 448.265625,69.8415179 C448.192708,69.7686008 448.104167,69.7321429 448,69.7321429 C447.348955,69.7321429 446.790367,69.9652134 446.324219,70.4313616 C445.858071,70.8975098 445.625,71.4560979 445.625,72.1071429 C445.625,72.21131 445.661458,72.2998508 445.734375,72.3727679 C445.807292,72.4456849 445.895833,72.4821429 446,72.4821429 C446.104167,72.4821429 446.192708,72.4456849 446.265625,72.3727679 C446.338542,72.2998508 446.375,72.21131 446.375,72.1071429 C446.375,71.659224 446.533853,71.2764153 446.851562,70.9587054 C447.169272,70.6409954 447.552081,70.4821429 448,70.4821429 C448.104167,70.4821429 448.192708,70.4456849 448.265625,70.3727679 C448.338542,70.2998508 448.375,70.21131 448.375,70.1071429 Z M451.210938,68.6149554 C451.210938,68.6514139 451.208333,68.6748511 451.203125,68.6852679 C450.656247,69.6644394 449.835943,71.138383 448.742188,73.1071429 C447.648432,75.0759027 446.825524,76.5524504 446.273438,77.5368304 L445.890625,78.2321429 C445.838541,78.3154766 445.765625,78.3571429 445.671875,78.3571429 C445.609375,78.3571429 445.26042,78.174853 444.625,77.8102679 C444.541666,77.7581843 444.5,77.6852683 444.5,77.5915179 C444.5,77.5290175 444.614582,77.3024573 444.84375,76.9118304 C444.098955,76.573287 443.412764,76.1227707 442.785156,75.5602679 C442.157549,74.997765 441.614586,74.3597506 441.15625,73.6462054 C441.052083,73.4847462 441,73.3050605 441,73.1071429 C441,72.9092252 441.052083,72.7295395 441.15625,72.5680804 C441.953129,71.3441159 442.942702,70.3779797 444.125,69.6696429 C445.307298,68.961306 446.598951,68.6071429 448,68.6071429 C448.463544,68.6071429 448.932289,68.6514132 449.40625,68.7399554 L449.828125,67.9821429 C449.880209,67.8988091 449.953125,67.8571429 450.046875,67.8571429 C450.072917,67.8571429 450.119791,67.8727677 450.1875,67.9040179 C450.255209,67.935268 450.335937,67.9756322 450.429688,68.0251116 C450.523438,68.074591 450.609375,68.1227676 450.6875,68.1696429 C450.765625,68.2165181 450.847656,68.2646947 450.933594,68.3141741 C451.019532,68.3636535 451.070312,68.3936011 451.085938,68.4040179 C451.169271,68.4561015 451.210938,68.5264132 451.210938,68.6149554 Z M451.5,72.1071429 C451.5,72.8311048 451.294273,73.4912545 450.882812,74.0876116 C450.471352,74.6839688 449.927087,75.1123499 449.25,75.3727679 L451.4375,71.4508929 C451.479167,71.685269 451.5,71.9040168 451.5,72.1071429 Z M455,73.1071429 C455,73.2894354 454.947917,73.4691211 454.84375,73.6462054 C454.640624,73.9795404 454.356773,74.3571407 453.992188,74.7790179 C453.210934,75.6748557 452.305995,76.3701612 451.277344,76.8649554 C450.248693,77.3597495 449.156256,77.6071429 448,77.6071429 L448.578125,76.5758929 C449.682297,76.4821424 450.704422,76.1253751 451.644531,75.5055804 C452.58464,74.8857856 453.369789,74.0863144 454,73.1071429 C453.401039,72.1748465 452.666671,71.4092292 451.796875,70.8102679 L452.289062,69.9352679 C452.783857,70.2686029 453.259112,70.6670364 453.714844,71.1305804 C454.170575,71.5941243 454.546874,72.0732862 454.84375,72.5680804 C454.947917,72.7451646 455,72.9248503 455,73.1071429 Z" id="icon-hide"></path>
        </g>
    </g>
</svg>