<?xml version="1.0" encoding="UTF-8"?>
<svg width="14px" height="15px" viewBox="0 0 14 15" version="1.1" xmlns="http://www.w3.org/2000/svg" xmlns:xlink="http://www.w3.org/1999/xlink">
    <!-- Generator: Sketch 49.3 (51167) - http://www.bohemiancoding.com/sketch -->
    <title>icon-clock</title>
    <desc>Created with Sketch.</desc>
    <defs></defs>
    <g id="Icons" stroke="none" stroke-width="1" fill="none" fill-rule="evenodd">
        <g id="Artboard" transform="translate(-253.000000, -99.000000)" fill="#2D3240">
            <path d="M261,103.142857 L261,107.142857 C261,107.226191 260.973215,107.294643 260.919643,107.348214 C260.866071,107.401786 260.797619,107.428571 260.714286,107.428571 L257.857143,107.428571 C257.773809,107.428571 257.705357,107.401786 257.651786,107.348214 C257.598214,107.294643 257.571429,107.226191 257.571429,107.142857 L257.571429,106.571429 C257.571429,106.488095 257.598214,106.419643 257.651786,106.366071 C257.705357,106.3125 257.773809,106.285714 257.857143,106.285714 L259.857143,106.285714 L259.857143,103.142857 C259.857143,103.059523 259.883928,102.991072 259.9375,102.9375 C259.991072,102.883928 260.059523,102.857143 260.142857,102.857143 L260.714286,102.857143 C260.797619,102.857143 260.866071,102.883928 260.919643,102.9375 C260.973215,102.991072 261,103.059523 261,103.142857 Z M264.714286,106.285714 C264.714286,105.404758 264.497026,104.592266 264.0625,103.848214 C263.627974,103.104163 263.038694,102.514883 262.294643,102.080357 C261.550592,101.645831 260.7381,101.428571 259.857143,101.428571 C258.976186,101.428571 258.163694,101.645831 257.419643,102.080357 C256.675592,102.514883 256.086312,103.104163 255.651786,103.848214 C255.21726,104.592266 255,105.404758 255,106.285714 C255,107.166671 255.21726,107.979163 255.651786,108.723214 C256.086312,109.467266 256.675592,110.056545 257.419643,110.491071 C258.163694,110.925597 258.976186,111.142857 259.857143,111.142857 C260.7381,111.142857 261.550592,110.925597 262.294643,110.491071 C263.038694,110.056545 263.627974,109.467266 264.0625,108.723214 C264.497026,107.979163 264.714286,107.166671 264.714286,106.285714 Z M266.714286,106.285714 C266.714286,107.529768 266.407741,108.677078 265.794643,109.727679 C265.181545,110.778279 264.349708,111.610116 263.299107,112.223214 C262.248507,112.836313 261.101197,113.142857 259.857143,113.142857 C258.613089,113.142857 257.465779,112.836313 256.415179,112.223214 C255.364578,111.610116 254.532741,110.778279 253.919643,109.727679 C253.306545,108.677078 253,107.529768 253,106.285714 C253,105.04166 253.306545,103.89435 253.919643,102.84375 C254.532741,101.79315 255.364578,100.961313 256.415179,100.348214 C257.465779,99.735116 258.613089,99.4285714 259.857143,99.4285714 C261.101197,99.4285714 262.248507,99.735116 263.299107,100.348214 C264.349708,100.961313 265.181545,101.79315 265.794643,102.84375 C266.407741,103.89435 266.714286,105.04166 266.714286,106.285714 Z" id="icon-clock"></path>
        </g>
    </g>
</svg>