<?xml version="1.0" encoding="UTF-8"?>
<svg width="16px" height="17px" viewBox="0 0 16 17" version="1.1" xmlns="http://www.w3.org/2000/svg" xmlns:xlink="http://www.w3.org/1999/xlink">
    <!-- Generator: Sketch 47.1 (45422) - http://www.bohemiancoding.com/sketch -->
    <title>icon-copy-light</title>
    <desc>Created with Sketch.</desc>
    <defs></defs>
    <g id="Icons" stroke="none" stroke-width="1" fill="none" fill-rule="evenodd">
        <g id="Artboard" transform="translate(-541.000000, -97.000000)" fill="#FFFFFF">
            <path d="M556.142857,100.714286 C556.380954,100.714286 556.583332,100.797618 556.75,100.964286 C556.916668,101.130953 557,101.333332 557,101.571429 L557,112.428571 C557,112.666668 556.916668,112.869047 556.75,113.035714 C556.583332,113.202382 556.380954,113.285714 556.142857,113.285714 L547.571429,113.285714 C547.333332,113.285714 547.130953,113.202382 546.964286,113.035714 C546.797618,112.869047 546.714286,112.666668 546.714286,112.428571 L546.714286,109.857143 L541.857143,109.857143 C541.619046,109.857143 541.416668,109.77381 541.25,109.607143 C541.083332,109.440475 541,109.238096 541,109 L541,103 C541,102.761904 541.059523,102.500001 541.178571,102.214286 C541.29762,101.92857 541.440475,101.702382 541.607143,101.535714 L545.25,97.8928571 C545.416668,97.7261896 545.642856,97.5833339 545.928571,97.4642857 C546.214287,97.3452375 546.476189,97.2857143 546.714286,97.2857143 L550.428571,97.2857143 C550.666668,97.2857143 550.869047,97.3690468 551.035714,97.5357143 C551.202382,97.7023818 551.285714,97.9047607 551.285714,98.1428571 L551.285714,101.071429 C551.690478,100.833332 552.071427,100.714286 552.428571,100.714286 L556.142857,100.714286 Z M551.285714,102.616071 L548.616071,105.285714 L551.285714,105.285714 L551.285714,102.616071 Z M545.571429,99.1875 L542.901786,101.857143 L545.571429,101.857143 L545.571429,99.1875 Z M547.321429,104.964286 L550.142857,102.142857 L550.142857,98.4285714 L546.714286,98.4285714 L546.714286,102.142857 C546.714286,102.380954 546.630953,102.583332 546.464286,102.75 C546.297618,102.916668 546.095239,103 545.857143,103 L542.142857,103 L542.142857,108.714286 L546.714286,108.714286 L546.714286,106.428571 C546.714286,106.190475 546.773809,105.928573 546.892857,105.642857 C547.011905,105.357141 547.154761,105.130953 547.321429,104.964286 Z M555.857143,112.142857 L555.857143,101.857143 L552.428571,101.857143 L552.428571,105.571429 C552.428571,105.809525 552.345239,106.011904 552.178571,106.178571 C552.011904,106.345239 551.809525,106.428571 551.571429,106.428571 L547.857143,106.428571 L547.857143,112.142857 L555.857143,112.142857 Z" id="icon-copy-light"></path>
        </g>
    </g>
</svg>