<?xml version="1.0" encoding="UTF-8"?>
<svg width="13px" height="13px" viewBox="0 0 13 13" version="1.1" xmlns="http://www.w3.org/2000/svg" xmlns:xlink="http://www.w3.org/1999/xlink">
    <!-- Generator: Sketch 42 (36781) - http://www.bohemiancoding.com/sketch -->
    <title>icon-check-ko</title>
    <desc>Created with Sketch.</desc>
    <defs></defs>
    <g id="Icons" stroke="none" stroke-width="1" fill="none" fill-rule="evenodd">
        <g id="Artboard-2" transform="translate(-100.000000, -61.000000)" fill="#2C323F">
            <path d="M110,62.5714286 L102.571429,62.5714286 C102.178569,62.5714286 101.842263,62.7113081 101.5625,62.9910714 C101.282737,63.2708347 101.142857,63.6071409 101.142857,64 L101.142857,71.4285714 C101.142857,71.8214305 101.282737,72.1577367 101.5625,72.4375 C101.842263,72.7172633 102.178569,72.8571429 102.571429,72.8571429 L110,72.8571429 C110.392859,72.8571429 110.729165,72.7172633 111.008929,72.4375 C111.288692,72.1577367 111.428571,71.8214305 111.428571,71.4285714 L111.428571,64 C111.428571,63.6071409 111.288692,63.2708347 111.008929,62.9910714 C110.729165,62.7113081 110.392859,62.5714286 110,62.5714286 Z M112.571429,64 L112.571429,71.4285714 C112.571429,72.1369083 112.319943,72.742557 111.816964,73.2455357 C111.313986,73.7485144 110.708337,74 110,74 L102.571429,74 C101.863092,74 101.257443,73.7485144 100.754464,73.2455357 C100.251486,72.742557 100,72.1369083 100,71.4285714 L100,64 C100,63.2916631 100.251486,62.6860144 100.754464,62.1830357 C101.257443,61.680057 101.863092,61.4285714 102.571429,61.4285714 L110,61.4285714 C110.708337,61.4285714 111.313986,61.680057 111.816964,62.1830357 C112.319943,62.6860144 112.571429,63.2916631 112.571429,64 Z" id="icon-check-ko"></path>
        </g>
    </g>
</svg>