<?xml version="1.0" encoding="UTF-8"?>
<svg width="14px" height="15px" viewBox="0 0 14 15" version="1.1" xmlns="http://www.w3.org/2000/svg" xmlns:xlink="http://www.w3.org/1999/xlink">
    <!-- Generator: Sketch 42 (36781) - http://www.bohemiancoding.com/sketch -->
    <title>icon-go-back</title>
    <desc>Created with Sketch.</desc>
    <defs></defs>
    <g id="Icons" stroke="none" stroke-width="1" fill="none" fill-rule="evenodd">
        <g id="Artboard" transform="translate(-434.000000, -187.000000)" fill="#2B5FD9">
            <path d="M447.714286,194.285714 C447.714286,195.21429 447.53274,196.101186 447.169643,196.946429 C446.806546,197.791671 446.318455,198.52083 445.705357,199.133929 C445.092259,199.747027 444.363099,200.235117 443.517857,200.598214 C442.672615,200.961311 441.785719,201.142857 440.857143,201.142857 C439.833328,201.142857 438.860124,200.927085 437.9375,200.495536 C437.014876,200.063986 436.22917,199.455361 435.580357,198.669643 C435.53869,198.610119 435.519345,198.543155 435.522321,198.46875 C435.525298,198.394345 435.550595,198.333334 435.598214,198.285714 L436.821429,197.053571 C436.880953,197 436.955357,196.973214 437.044643,196.973214 C437.139881,196.985119 437.208333,197.020833 437.25,197.080357 C437.684526,197.645836 438.217259,198.083332 438.848214,198.392857 C439.47917,198.702382 440.148806,198.857143 440.857143,198.857143 C441.476194,198.857143 442.066961,198.736608 442.629464,198.495536 C443.191967,198.254463 443.678569,197.928573 444.089286,197.517857 C444.500002,197.107141 444.825892,196.620539 445.066964,196.058036 C445.308037,195.495533 445.428571,194.904765 445.428571,194.285714 C445.428571,193.666664 445.308037,193.075896 445.066964,192.513393 C444.825892,191.95089 444.500002,191.464288 444.089286,191.053571 C443.678569,190.642855 443.191967,190.316965 442.629464,190.075893 C442.066961,189.83482 441.476194,189.714286 440.857143,189.714286 C440.273807,189.714286 439.714288,189.819939 439.178571,190.03125 C438.642854,190.242561 438.166669,190.544641 437.75,190.9375 L438.973214,192.169643 C439.157739,192.348215 439.199405,192.55357 439.098214,192.785714 C438.997023,193.023811 438.82143,193.142857 438.571429,193.142857 L434.571429,193.142857 C434.416666,193.142857 434.282739,193.08631 434.169643,192.973214 C434.056547,192.860118 434,192.726191 434,192.571429 L434,188.571429 C434,188.321427 434.119046,188.145834 434.357143,188.044643 C434.589287,187.943452 434.794642,187.985118 434.973214,188.169643 L436.133929,189.321429 C436.770837,188.720235 437.498508,188.254466 438.316964,187.924107 C439.135421,187.593748 439.982138,187.428571 440.857143,187.428571 C441.785719,187.428571 442.672615,187.610117 443.517857,187.973214 C444.363099,188.336311 445.092259,188.824402 445.705357,189.4375 C446.318455,190.050598 446.806546,190.779758 447.169643,191.625 C447.53274,192.470242 447.714286,193.357138 447.714286,194.285714 Z" id="icon-go-back"></path>
        </g>
    </g>
</svg>
