<?xml version="1.0" encoding="UTF-8"?>
<svg width="11px" height="11px" viewBox="0 0 11 11" version="1.1" xmlns="http://www.w3.org/2000/svg" xmlns:xlink="http://www.w3.org/1999/xlink">
    <!-- Generator: Sketch 42 (36781) - http://www.bohemiancoding.com/sketch -->
    <title>icon-info-light</title>
    <desc>Created with Sketch.</desc>
    <defs></defs>
    <g id="Icons" stroke="none" stroke-width="1" fill="none" fill-rule="evenodd">
        <g id="Artboard-4" transform="translate(-110.000000, -11.000000)" fill="#000000">
            <path d="M117.333333,19.9375 L117.333333,18.7916667 C117.333333,18.7248261 117.311849,18.6699221 117.26888,18.6269531 C117.225911,18.5839842 117.171007,18.5625 117.104167,18.5625 L116.416667,18.5625 L116.416667,14.8958333 C116.416667,14.8289927 116.395183,14.7740888 116.352214,14.7311198 C116.309245,14.6881508 116.254341,14.6666667 116.1875,14.6666667 L113.895833,14.6666667 C113.828993,14.6666667 113.774089,14.6881508 113.73112,14.7311198 C113.688151,14.7740888 113.666667,14.8289927 113.666667,14.8958333 L113.666667,16.0416667 C113.666667,16.1085073 113.688151,16.1634112 113.73112,16.2063802 C113.774089,16.2493492 113.828993,16.2708333 113.895833,16.2708333 L114.583333,16.2708333 L114.583333,18.5625 L113.895833,18.5625 C113.828993,18.5625 113.774089,18.5839842 113.73112,18.6269531 C113.688151,18.6699221 113.666667,18.7248261 113.666667,18.7916667 L113.666667,19.9375 C113.666667,20.0043406 113.688151,20.0592446 113.73112,20.1022135 C113.774089,20.1451825 113.828993,20.1666667 113.895833,20.1666667 L117.104167,20.1666667 C117.171007,20.1666667 117.225911,20.1451825 117.26888,20.1022135 C117.311849,20.0592446 117.333333,20.0043406 117.333333,19.9375 Z M116.416667,13.5208333 L116.416667,12.375 C116.416667,12.3081594 116.395183,12.2532554 116.352214,12.2102865 C116.309245,12.1673175 116.254341,12.1458333 116.1875,12.1458333 L114.8125,12.1458333 C114.745659,12.1458333 114.690755,12.1673175 114.647786,12.2102865 C114.604817,12.2532554 114.583333,12.3081594 114.583333,12.375 L114.583333,13.5208333 C114.583333,13.5876739 114.604817,13.6425779 114.647786,13.6855469 C114.690755,13.7285158 114.745659,13.75 114.8125,13.75 L116.1875,13.75 C116.254341,13.75 116.309245,13.7285158 116.352214,13.6855469 C116.395183,13.6425779 116.416667,13.5876739 116.416667,13.5208333 Z M121,16.5 C121,17.4978349 120.754126,18.418073 120.26237,19.2607422 C119.770614,20.1034113 119.103411,20.7706139 118.260742,21.2623698 C117.418073,21.7541257 116.497835,22 115.5,22 C114.502165,22 113.581927,21.7541257 112.739258,21.2623698 C111.896589,20.7706139 111.229386,20.1034113 110.73763,19.2607422 C110.245874,18.418073 110,17.4978349 110,16.5 C110,15.5021651 110.245874,14.581927 110.73763,13.7392578 C111.229386,12.8965887 111.896589,12.2293861 112.739258,11.7376302 C113.581927,11.2458743 114.502165,11 115.5,11 C116.497835,11 117.418073,11.2458743 118.260742,11.7376302 C119.103411,12.2293861 119.770614,12.8965887 120.26237,13.7392578 C120.754126,14.581927 121,15.5021651 121,16.5 Z" id="icon-info-light"></path>
        </g>
    </g>
</svg>
