<?xml version="1.0" encoding="UTF-8"?>
<svg width="166px" height="19px" viewBox="0 0 166 19" version="1.1" xmlns="http://www.w3.org/2000/svg" xmlns:xlink="http://www.w3.org/1999/xlink">
    <!-- Generator: Sketch 41.2 (35397) - http://www.bohemiancoding.com/sketch -->
    <title>Group</title>
    <desc>Created with Sketch.</desc>
    <defs></defs>
    <g id="Logo" stroke="none" stroke-width="1" fill="none" fill-rule="evenodd">
        <g id="logoC-Copy-2" transform="translate(-22.000000, -24.000000)">
            <g id="Group" transform="translate(22.000000, 24.000000)">
                <path d="M16.8698347,5.64722222 C17.0282377,5.22499789 17.3274389,5.01388889 17.7674472,5.01388889 L18.6386593,5.01388889 C18.8146626,5.01388889 18.9642632,5.07546235 19.0874656,5.19861111 C19.2106679,5.32175988 19.2722681,5.47129542 19.2722681,5.64722222 L19.2458678,5.85833333 L15.2066116,17.9972222 C15.0482086,18.4898173 14.7842075,18.7361111 14.4146006,18.7361111 L13.5961892,18.7361111 C13.3849852,18.7361111 13.2177845,18.6701395 13.0945822,18.5381944 C12.9713799,18.4062493 12.8657794,18.2259271 12.7777778,17.9972222 L9.63613407,9.23611111 L6.49449036,17.9972222 C6.40648869,18.2259271 6.30088828,18.4062493 6.17768595,18.5381944 C6.05448362,18.6701395 5.88728297,18.7361111 5.67607897,18.7361111 L4.85766758,18.7361111 C4.48806059,18.7361111 4.22405956,18.4898173 4.06565657,17.9972222 L0.0264003673,5.85833333 L0,5.64722222 C0,5.47129542 0.061600241,5.32175988 0.184802571,5.19861111 C0.308004901,5.07546235 0.457605487,5.01388889 0.633608815,5.01388889 L1.50482094,5.01388889 C1.94482926,5.01388889 2.24403043,5.22499789 2.40243343,5.64722222 L5.35927456,14.4611111 L8.52731864,5.64722222 C8.68572164,5.22499789 8.9585227,5.01388889 9.34573003,5.01388889 L9.92653811,5.01388889 C10.3137454,5.01388889 10.5865465,5.22499789 10.7449495,5.64722222 L13.9129936,14.4611111 L16.8698347,5.64722222 Z M32.2568488,6.54444444 C33.3480694,7.74074672 33.8936716,9.36804526 33.8936716,11.4263889 L33.8936716,12.1388889 C33.8936716,12.3324084 33.8232713,12.4995363 33.6824686,12.6402778 C33.541666,12.7810192 33.3744653,12.8513889 33.1808616,12.8513889 L24.0991353,12.8513889 L24.0991353,13.0097222 C24.134336,14.1708391 24.4907374,15.0812467 25.1683502,15.7409722 C25.845963,16.4006977 26.7215664,16.7305556 27.7951867,16.7305556 C28.6752034,16.7305556 29.357206,16.6162048 29.8412152,16.3875 C30.3252243,16.1587952 30.760826,15.8333354 31.1480334,15.4111111 C31.288836,15.2703697 31.4164365,15.1736114 31.5308387,15.1208333 C31.6452409,15.0680553 31.7992415,15.0416667 31.9928451,15.0416667 L32.7848561,15.0416667 C32.9960601,15.0416667 33.1720608,15.1120363 33.3128635,15.2527778 C33.4536661,15.3935192 33.5152664,15.5606472 33.4976661,15.7541667 C33.4272647,16.229169 33.1676637,16.7173586 32.7188552,17.21875 C32.2700467,17.7201414 31.6276442,18.1423594 30.7916284,18.4854167 C29.9556126,18.8284739 28.9568087,19 27.7951867,19 C26.6687654,19 25.6655615,18.7405119 24.7855448,18.2215278 C23.9055282,17.7025437 23.2059255,16.9856527 22.6867156,16.0708333 C22.1675058,15.1560139 21.8551046,14.1268576 21.7495026,12.9833333 C21.7143019,12.4555529 21.6967019,12.0509273 21.6967019,11.7694444 C21.6967019,11.4879616 21.7143019,11.083336 21.7495026,10.5555556 C21.8551046,9.46480936 22.1675058,8.47963403 22.6867156,7.6 C23.2059255,6.72036597 23.9011282,6.02546551 24.7723447,5.51527778 C25.6435611,5.00509004 26.6511651,4.75 27.7951867,4.75 C29.6784223,4.75 31.1656282,5.34814217 32.2568488,6.54444444 Z M31.5176385,10.6347222 L31.5176385,10.5555556 C31.5176385,9.48240204 31.1788372,8.62477173 30.5012244,7.98263889 C29.8236115,7.34050605 28.921608,7.01944444 27.7951867,7.01944444 C26.7743674,7.01944444 25.907564,7.34490415 25.1947505,7.99583333 C24.4819371,8.64676251 24.1167356,9.49999472 24.0991353,10.5555556 L24.0991353,10.6347222 L31.5176385,10.6347222 Z M41.4661769,5.23819444 C41.9941869,4.91272985 42.6981897,4.75 43.5782063,4.75 C45.6374453,4.75 47.0806509,5.51527012 47.9078665,7.04583333 C48.4182762,6.30694075 48.9990785,5.73958531 49.6502908,5.34375 C50.3015031,4.94791469 51.1551064,4.75 52.2111264,4.75 C53.935959,4.75 55.216364,5.26897629 56.0523799,6.30694444 C56.8883957,7.3449126 57.3063973,8.81387939 57.3063973,10.7138889 L57.3063973,18.0236111 C57.3063973,18.2171306 57.235997,18.3842586 57.0951944,18.525 C56.9543917,18.6657414 56.7871911,18.7361111 56.5935874,18.7361111 L55.6167738,18.7361111 C55.4231701,18.7361111 55.2559695,18.6657414 55.1151668,18.525 C54.9743642,18.3842586 54.9039639,18.2171306 54.9039639,18.0236111 L54.9039639,10.9777778 C54.9039639,8.33887569 53.8655598,7.01944444 51.7887205,7.01944444 C50.8383026,7.01944444 50.0814996,7.33610794 49.518289,7.96944444 C48.9550783,8.60278094 48.6734772,9.54397524 48.6734772,10.7930556 L48.6734772,18.0236111 C48.6734772,18.2171306 48.6030769,18.3842586 48.4622743,18.525 C48.3214716,18.6657414 48.1542709,18.7361111 47.9606673,18.7361111 L46.9838537,18.7361111 C46.79025,18.7361111 46.6230494,18.6657414 46.4822467,18.525 C46.341444,18.3842586 46.2710438,18.2171306 46.2710438,18.0236111 L46.2710438,10.9777778 C46.2710438,8.33887569 45.2326397,7.01944444 43.1558004,7.01944444 C42.2053825,7.01944444 41.4485795,7.33610794 40.8853688,7.96944444 C40.3221582,8.60278094 40.0405571,9.54397524 40.0405571,10.7930556 L40.0405571,18.0236111 C40.0405571,18.2171306 39.9701568,18.3842586 39.8293541,18.525 C39.6885515,18.6657414 39.5213508,18.7361111 39.3277472,18.7361111 L38.3509336,18.7361111 C38.1573299,18.7361111 37.9901293,18.6657414 37.8493266,18.525 C37.7085239,18.3842586 37.6381237,18.2171306 37.6381237,18.0236111 L37.6381237,5.72638889 C37.6381237,5.5328694 37.7085239,5.36574144 37.8493266,5.225 C37.9901293,5.08425856 38.1573299,5.01388889 38.3509336,5.01388889 L39.3277472,5.01388889 C39.5213508,5.01388889 39.6885515,5.08425856 39.8293541,5.225 C39.9701568,5.36574144 40.0405571,5.5328694 40.0405571,5.72638889 L40.0405571,6.54444444 C40.4629651,5.99907135 40.9381669,5.56365903 41.4661769,5.23819444 Z M69.8421717,10.0541667 L69.8421717,9.71111111 C69.8421717,8.84906976 69.5561706,8.18495603 68.9841598,7.71875 C68.412149,7.25254397 67.6685461,7.01944444 66.7533287,7.01944444 C66.0493154,7.01944444 65.4993133,7.13819326 65.1033058,7.37569444 C64.7072983,7.61319563 64.3332968,7.96944207 63.9812902,8.44444444 C63.8756882,8.58518589 63.7612877,8.68194418 63.6380854,8.73472222 C63.5148831,8.78750026 63.3476824,8.81388889 63.1364784,8.81388889 L62.3444674,8.81388889 C62.1508637,8.81388889 61.9792631,8.74351922 61.8296602,8.60277778 C61.6800574,8.46203633 61.6140572,8.29490837 61.6316575,8.10138889 C61.6844585,7.57360847 61.9440595,7.05023408 62.4104683,6.53125 C62.8768771,6.01226592 63.4972796,5.58564982 64.2716942,5.25138889 C65.0461089,4.91712796 65.8733121,4.75 66.7533287,4.75 C68.3901597,4.75 69.7145649,5.20740283 70.726584,6.12222222 C71.7386032,7.03704161 72.2446051,8.32128803 72.2446051,9.975 L72.2446051,18.0236111 C72.2446051,18.2171306 72.1742049,18.3842586 72.0334022,18.525 C71.8925995,18.6657414 71.7253989,18.7361111 71.5317952,18.7361111 L70.5549816,18.7361111 C70.361378,18.7361111 70.1941773,18.6657414 70.0533747,18.525 C69.912572,18.3842586 69.8421717,18.2171306 69.8421717,18.0236111 L69.8421717,16.9416667 C69.5605664,17.5750032 68.962164,18.076387 68.0469467,18.4458333 C67.1317294,18.8152796 66.2165258,19 65.3013085,19 C64.4036916,19 63.6028884,18.8372701 62.8988751,18.5118056 C62.1948618,18.186341 61.6536597,17.7421324 61.2752525,17.1791667 C60.8968454,16.6162009 60.7076446,15.9828739 60.7076446,15.2791667 C60.7076446,13.9597156 61.2004466,12.9261611 62.1860652,12.1784722 C63.1716838,11.4307833 64.482889,10.9250013 66.1197199,10.6611111 L69.8421717,10.0541667 Z M69.8421717,12.1652778 L66.7269284,12.6666667 C65.5829067,12.8425935 64.6941033,13.1284702 64.0604913,13.5243056 C63.4268793,13.9201409 63.1100781,14.4171266 63.1100781,15.0152778 C63.1100781,15.4550948 63.3124788,15.8509242 63.7172865,16.2027778 C64.1220942,16.5546314 64.7380966,16.7305556 65.5653122,16.7305556 C66.8325362,16.7305556 67.8621402,16.369911 68.6541552,15.6486111 C69.4461702,14.9273112 69.8421717,13.9861169 69.8421717,12.825 L69.8421717,12.1652778 Z M80.5431206,15.8597222 C80.8511264,16.2643539 81.4363287,16.4666667 82.298745,16.4666667 L83.6979645,16.4666667 C83.8915682,16.4666667 84.0587688,16.5370363 84.1995715,16.6777778 C84.3403741,16.8185192 84.4107744,16.9856472 84.4107744,17.1791667 L84.4107744,18.0236111 C84.4107744,18.2171306 84.3403741,18.3842586 84.1995715,18.525 C84.0587688,18.6657414 83.8915682,18.7361111 83.6979645,18.7361111 L82.0347414,18.7361111 C80.5387131,18.7361111 79.4387088,18.3446798 78.7346954,17.5618056 C78.0306821,16.7789313 77.6786807,15.6310261 77.6786807,14.1180556 L77.6786807,7.28333333 L75.7250536,7.28333333 C75.5314499,7.28333333 75.3642493,7.21296367 75.2234466,7.07222222 C75.0826439,6.93148078 75.0122436,6.76435282 75.0122436,6.57083333 L75.0122436,5.72638889 C75.0122436,5.5328694 75.0826439,5.36574144 75.2234466,5.225 C75.3642493,5.08425856 75.5314499,5.01388889 75.7250536,5.01388889 L77.6786807,5.01388889 L77.6786807,0.7125 C77.6786807,0.518980514 77.749081,0.351852556 77.8898837,0.211111111 C78.0306863,0.0703696667 78.197887,0 78.3914907,0 L79.3683043,0 C79.5619079,0 79.7291086,0.0703696667 79.8699112,0.211111111 C80.0107139,0.351852556 80.0811142,0.518980514 80.0811142,0.7125 L80.0811142,5.01388889 L83.4339608,5.01388889 C83.6275645,5.01388889 83.7947651,5.08425856 83.9355678,5.225 C84.0763705,5.36574144 84.1467707,5.5328694 84.1467707,5.72638889 L84.1467707,6.57083333 C84.1467707,6.76435282 84.0763705,6.93148078 83.9355678,7.07222222 C83.7947651,7.21296367 83.6275645,7.28333333 83.4339608,7.28333333 L80.0811142,7.28333333 L80.0811142,14.1180556 C80.0811142,14.8745408 80.2351148,15.4550906 80.5431206,15.8597222 Z M96.7089455,14.6722222 C96.8321478,14.408332 96.9553483,14.2236116 97.0785507,14.1180556 C97.201753,14.0124995 97.3689536,13.9597222 97.5801576,13.9597222 L98.3721687,13.9597222 C98.5657723,13.9597222 98.732973,14.0256938 98.8737756,14.1576389 C99.0145783,14.289584 99.0849786,14.4435176 99.0849786,14.6194444 C99.0849786,15.2175956 98.8473776,15.8597188 98.3721687,16.5458333 C97.8969597,17.2319479 97.210557,17.8124976 96.31294,18.2875 C95.415323,18.7625024 94.3593189,19 93.1448959,19 C91.8952723,19 90.8128681,18.7361138 89.8976507,18.2083333 C88.9824334,17.6805529 88.2784307,16.9548657 87.7856214,16.03125 C87.292812,15.1076343 87.020011,14.0740798 86.96721,12.9305556 C86.9496096,12.7194434 86.9408096,12.3148178 86.9408096,11.7166667 C86.9408096,11.2944423 86.9496096,10.9953712 86.96721,10.8194444 C87.125613,9.02499103 87.7328154,7.56482044 88.7888353,6.43888889 C89.8448553,5.31295733 91.296861,4.75 93.1448959,4.75 C94.3593189,4.75 95.410923,4.98309952 96.2997398,5.44930556 C97.1885566,5.91551159 97.8661593,6.48726513 98.3325681,7.16458333 C98.7989769,7.84190153 99.0497779,8.47962664 99.0849786,9.07777778 C99.1025789,9.27129726 99.0365786,9.43842522 98.8869758,9.57916667 C98.737373,9.71990811 98.5657723,9.79027778 98.3721687,9.79027778 L97.5801576,9.79027778 C97.3689536,9.79027778 97.201753,9.73750053 97.0785507,9.63194444 C96.9553483,9.52638836 96.8321478,9.34166799 96.7089455,9.07777778 C96.0929339,7.70554869 94.9049292,7.01944444 93.1448959,7.01944444 C92.1768776,7.01944444 91.3320743,7.34490415 90.6104607,7.99583333 C89.888847,8.64676251 89.4752454,9.63193785 89.3696434,10.9513889 C89.3520431,11.1449084 89.343243,11.4615719 89.343243,11.9013889 C89.343243,12.3060205 89.3520431,12.6050916 89.3696434,12.7986111 C89.4928457,14.1180622 89.9108474,15.1032375 90.6236609,15.7541667 C91.3364743,16.4050958 92.1768776,16.7305556 93.1448959,16.7305556 C94.9049292,16.7305556 96.0929339,16.0444513 96.7089455,14.6722222 Z M114.788797,18.525 C114.647994,18.6657414 114.480794,18.7361111 114.28719,18.7361111 L113.310376,18.7361111 C113.116773,18.7361111 112.949572,18.6657414 112.80877,18.525 C112.667967,18.3842586 112.597567,18.2171306 112.597567,18.0236111 L112.597567,11.0569444 C112.597567,9.7374934 112.271965,8.73472565 111.620753,8.04861111 C110.969541,7.36249657 110.063137,7.01944444 108.901515,7.01944444 C107.757494,7.01944444 106.85549,7.36249657 106.195478,8.04861111 C105.535465,8.73472565 105.205464,9.7374934 105.205464,11.0569444 L105.205464,18.0236111 C105.205464,18.2171306 105.135063,18.3842586 104.994261,18.525 C104.853458,18.6657414 104.686257,18.7361111 104.492654,18.7361111 L103.51584,18.7361111 C103.322237,18.7361111 103.155036,18.6657414 103.014233,18.525 C102.873431,18.3842586 102.80303,18.2171306 102.80303,18.0236111 L102.80303,0.7125 C102.80303,0.518980514 102.873431,0.351852556 103.014233,0.211111111 C103.155036,0.0703696667 103.322237,0 103.51584,0 L104.492654,0 C104.686257,0 104.853458,0.0703696667 104.994261,0.211111111 C105.135063,0.351852556 105.205464,0.518980514 105.205464,0.7125 L105.205464,6.54444444 C105.592671,6.03425671 106.125073,5.6076406 106.802686,5.26458333 C107.480299,4.92152606 108.311902,4.75 109.297521,4.75 C110.406342,4.75 111.391945,4.98749763 112.254362,5.4625 C113.116778,5.93750238 113.789981,6.61920852 114.27399,7.50763889 C114.757999,8.39606926 115,9.44721615 115,10.6611111 L115,18.0236111 C115,18.2171306 114.9296,18.3842586 114.788797,18.525 Z" id="wematch" fill="#2C323F"></path>
                <path d="M121.950009,15.7541667 C122.089243,15.8949081 122.158859,16.0620361 122.158859,16.2555556 L122.158859,18.0236111 C122.158859,18.2171306 122.089243,18.3842586 121.950009,18.525 C121.810775,18.6657414 121.645437,18.7361111 121.45399,18.7361111 L119.704869,18.7361111 C119.513422,18.7361111 119.348084,18.6657414 119.20885,18.525 C119.069616,18.3842586 119,18.2171306 119,18.0236111 L119,16.2555556 C119,16.0620361 119.069616,15.8949081 119.20885,15.7541667 C119.348084,15.6134252 119.513422,15.5430556 119.704869,15.5430556 L121.45399,15.5430556 C121.645437,15.5430556 121.810775,15.6134252 121.950009,15.7541667 Z M128.472227,18.525 C128.332993,18.6657414 128.167655,18.7361111 127.976208,18.7361111 L127.010276,18.7361111 C126.818829,18.7361111 126.653491,18.6657414 126.514257,18.525 C126.375022,18.3842586 126.305406,18.2171306 126.305406,18.0236111 L126.305406,0.7125 C126.305406,0.518980514 126.375022,0.351852556 126.514257,0.211111111 C126.653491,0.0703696667 126.818829,0 127.010276,0 L127.976208,0 C128.167655,0 128.332993,0.0703696667 128.472227,0.211111111 C128.611462,0.351852556 128.681078,0.518980514 128.681078,0.7125 L128.681078,18.0236111 C128.681078,18.2171306 128.611462,18.3842586 128.472227,18.525 Z M135.568784,2.71805556 C135.429549,2.858797 135.264211,2.92916667 135.072764,2.92916667 L133.584707,2.92916667 C133.39326,2.92916667 133.227921,2.858797 133.088687,2.71805556 C132.949453,2.57731411 132.879837,2.41018615 132.879837,2.21666667 L132.879837,0.7125 C132.879837,0.518980514 132.949453,0.351852556 133.088687,0.211111111 C133.227921,0.0703696667 133.39326,0 133.584707,0 L135.072764,0 C135.264211,0 135.429549,0.0703696667 135.568784,0.211111111 C135.708018,0.351852556 135.777634,0.518980514 135.777634,0.7125 L135.777634,2.21666667 C135.777634,2.41018615 135.708018,2.57731411 135.568784,2.71805556 Z M135.307721,18.525 C135.168487,18.6657414 135.003149,18.7361111 134.811702,18.7361111 L133.845769,18.7361111 C133.654322,18.7361111 133.488984,18.6657414 133.34975,18.525 C133.210516,18.3842586 133.1409,18.2171306 133.1409,18.0236111 L133.1409,5.72638889 C133.1409,5.5328694 133.210516,5.36574144 133.34975,5.225 C133.488984,5.08425856 133.654322,5.01388889 133.845769,5.01388889 L134.811702,5.01388889 C135.003149,5.01388889 135.168487,5.08425856 135.307721,5.225 C135.446955,5.36574144 135.516571,5.5328694 135.516571,5.72638889 L135.516571,18.0236111 C135.516571,18.2171306 135.446955,18.3842586 135.307721,18.525 Z M146.607388,18.0763889 L151.802537,5.83194444 C151.819941,5.7791664 151.828643,5.71759294 151.828643,5.64722222 C151.828643,5.47129542 151.767729,5.32175988 151.645899,5.19861111 C151.524069,5.07546235 151.376135,5.01388889 151.202092,5.01388889 L150.131735,5.01388889 C149.783649,5.01388889 149.531291,5.22499789 149.374653,5.64722222 L145.32818,15.2263889 L141.281707,5.64722222 C141.125069,5.22499789 140.837902,5.01388889 140.4202,5.01388889 L139.454268,5.01388889 C139.280225,5.01388889 139.132291,5.07546235 139.010461,5.19861111 C138.888631,5.32175988 138.827717,5.47129542 138.827717,5.64722222 C138.827717,5.71759294 138.836419,5.7791664 138.853823,5.83194444 L144.048972,18.0763889 C144.223015,18.5162059 144.492777,18.7361111 144.858267,18.7361111 L145.824199,18.7361111 C146.172285,18.7361111 146.433345,18.5162059 146.607388,18.0763889 Z M164.381411,6.54444444 C165.460476,7.74074672 166,9.36804526 166,11.4263889 L166,12.1388889 C166,12.3324084 165.930384,12.4995363 165.79115,12.6402778 C165.651916,12.7810192 165.486578,12.8513889 165.295131,12.8513889 L156.314571,12.8513889 L156.314571,13.0097222 C156.34938,14.1708391 156.701811,15.0812467 157.371876,15.7409722 C158.04194,16.4006977 158.90779,16.7305556 159.96945,16.7305556 C160.839664,16.7305556 161.514069,16.6162048 161.992687,16.3875 C162.471304,16.1587952 162.902053,15.8333354 163.284947,15.4111111 C163.424181,15.2703697 163.55036,15.1736114 163.663488,15.1208333 C163.776616,15.0680553 163.928901,15.0416667 164.120348,15.0416667 L164.903536,15.0416667 C165.112388,15.0416667 165.286428,15.1120363 165.425662,15.2527778 C165.564896,15.3935192 165.62581,15.5606472 165.608406,15.7541667 C165.538789,16.229169 165.28208,16.7173586 164.838271,17.21875 C164.394462,17.7201414 163.759215,18.1423594 162.932512,18.4854167 C162.10581,18.8284739 161.118132,19 159.96945,19 C158.855577,19 157.863548,18.7405119 156.993335,18.2215278 C156.123121,17.7025437 155.431312,16.9856527 154.917886,16.0708333 C154.40446,15.1560139 154.095538,14.1268576 153.991113,12.9833333 C153.956304,12.4555529 153.9389,12.0509273 153.9389,11.7694444 C153.9389,11.4879616 153.956304,11.083336 153.991113,10.5555556 C154.095538,9.46480936 154.40446,8.47963403 154.917886,7.6 C155.431312,6.72036597 156.11877,6.02546551 156.980281,5.51527778 C157.841793,5.00509004 158.838172,4.75 159.96945,4.75 C161.831707,4.75 163.302346,5.34814217 164.381411,6.54444444 Z M163.650435,10.6347222 L163.650435,10.5555556 C163.650435,9.48240204 163.315408,8.62477173 162.645343,7.98263889 C161.975279,7.34050605 161.083323,7.01944444 159.96945,7.01944444 C158.960002,7.01944444 158.102855,7.34490415 157.397982,7.99583333 C156.693109,8.64676251 156.331976,9.49999472 156.314571,10.5555556 L156.314571,10.6347222 L163.650435,10.6347222 Z" id=".live" fill="#FF0927"></path>
            </g>
        </g>
    </g>
</svg>