<?xml version="1.0" encoding="UTF-8"?>
<svg width="390px" height="99px" viewBox="0 0 390 99" version="1.1" xmlns="http://www.w3.org/2000/svg" xmlns:xlink="http://www.w3.org/1999/xlink">
    <!-- Generator: Sketch 48.2 (47327) - http://www.bohemiancoding.com/sketch -->
    <title>logo-header-wd1</title>
    <desc>Created with Sketch.</desc>
    <defs></defs>
    <g id="Logo" stroke="none" stroke-width="1" fill="none" fill-rule="evenodd">
        <g id="logo-header-wd1">
            <g id="logo-template" transform="translate(20.000000, 14.000000)">
                <g id="Group" transform="translate(162.000000, 49.000000)">
                    <path d="M18.3367769,6.24166667 C18.508954,5.77499767 18.8341727,5.54166667 19.3124426,5.54166667 L20.2594123,5.54166667 C20.4507203,5.54166667 20.6133296,5.60972154 20.7472452,5.74583333 C20.8811608,5.88194513 20.9481175,6.04722125 20.9481175,6.24166667 L20.9194215,6.475 L16.5289256,19.8916667 C16.3567485,20.4361138 16.0697908,20.7083333 15.6680441,20.7083333 L14.7784665,20.7083333 C14.5488969,20.7083333 14.3671571,20.6354174 14.2332415,20.4895833 C14.0993259,20.3437493 13.9845429,20.1444457 13.8888889,19.8916667 L10.4740588,10.2083333 L7.05922865,19.8916667 C6.96357467,20.1444457 6.84879161,20.3437493 6.71487603,20.4895833 C6.58096046,20.6354174 6.39922062,20.7083333 6.16965106,20.7083333 L5.28007346,20.7083333 C4.87832673,20.7083333 4.59136909,20.4361138 4.41919192,19.8916667 L0.0286960514,6.475 L0,6.24166667 C0,6.04722125 0.0669567837,5.88194513 0.20087236,5.74583333 C0.334787936,5.60972154 0.497397268,5.54166667 0.688705234,5.54166667 L1.63567493,5.54166667 C2.11394485,5.54166667 2.43916351,5.77499767 2.61134068,6.24166667 L5.82529844,15.9833333 L9.26882461,6.24166667 C9.44100178,5.77499767 9.73752468,5.54166667 10.1584022,5.54166667 L10.7897153,5.54166667 C11.2105929,5.54166667 11.5071158,5.77499767 11.6792929,6.24166667 L15.1228191,15.9833333 L18.3367769,6.24166667 Z M35.0617922,7.23333333 C36.2479016,8.55556217 36.8409474,10.3541553 36.8409474,12.6291667 L36.8409474,13.4166667 C36.8409474,13.6305566 36.7644253,13.815277 36.6113789,13.9708333 C36.4583326,14.1263897 36.2765927,14.2041667 36.066154,14.2041667 L26.1947123,14.2041667 L26.1947123,14.3791667 C26.2329739,15.6625064 26.6203667,16.6687464 27.3569024,17.3979167 C28.093438,18.127087 29.0451809,18.4916667 30.2121595,18.4916667 C31.1686993,18.4916667 31.9100066,18.365279 32.4361035,18.1125 C32.9622004,17.859721 33.4356805,17.5000023 33.856558,17.0333333 C34.0096044,16.877777 34.1483006,16.7708336 34.2726507,16.7125 C34.3970009,16.6541664 34.5643929,16.625 34.7748316,16.625 L35.6357132,16.625 C35.8652828,16.625 36.0565878,16.702777 36.2096342,16.8583333 C36.3626806,17.0138897 36.4296374,17.19861 36.4105066,17.4125 C36.3339834,17.9375026 36.0518084,18.4770806 35.5639731,19.03125 C35.0761378,19.5854194 34.3778741,20.0520814 33.4691613,20.43125 C32.5604485,20.8104186 31.474792,21 30.2121595,21 C28.9877885,21 27.8973494,20.7131973 26.9408096,20.1395833 C25.9842698,19.5659694 25.223832,18.7736162 24.6594735,17.7625 C24.095115,16.7513838 23.7555485,15.6138952 23.6407637,14.35 C23.6025021,13.7666638 23.5833716,13.319446 23.5833716,13.0083333 C23.5833716,12.6972207 23.6025021,12.2500029 23.6407637,11.6666667 C23.7555485,10.4611051 24.095115,9.37222708 24.6594735,8.4 C25.223832,7.42777292 25.9794872,6.65972504 26.9264616,6.09583333 C27.873436,5.53194163 28.9686577,5.25 30.2121595,5.25 C32.2591547,5.25 33.8756828,5.9111045 35.0617922,7.23333333 Z M34.2583027,11.7541667 L34.2583027,11.6666667 C34.2583027,10.4805496 33.8900404,9.53264244 33.1535047,8.82291667 C32.4169691,8.1131909 31.4365305,7.75833333 30.2121595,7.75833333 C29.1025733,7.75833333 28.1603957,8.11805196 27.3855984,8.8375 C26.6108011,9.55694804 26.2138431,10.4999942 26.1947123,11.6666667 L26.1947123,11.7541667 L34.2583027,11.7541667 Z M45.0719314,5.78958333 C45.6458553,5.42985931 46.4110757,5.25 47.3676155,5.25 C49.6059188,5.25 51.1746205,6.09582488 52.073768,7.7875 C52.6285611,6.97082925 53.2598679,6.34375219 53.9677074,5.90625 C54.6755469,5.46874781 55.6033766,5.25 56.7512244,5.25 C58.6260424,5.25 60.017787,5.82360538 60.9264998,6.97083333 C61.8352127,8.11806129 62.2895623,9.74165617 62.2895623,11.8416667 L62.2895623,19.9208333 C62.2895623,20.1347233 62.2130403,20.3194437 62.0599939,20.475 C61.9069475,20.6305563 61.7252077,20.7083333 61.5147689,20.7083333 L60.453015,20.7083333 C60.2425762,20.7083333 60.0608364,20.6305563 59.90779,20.475 C59.7547436,20.3194437 59.6782216,20.1347233 59.6782216,19.9208333 L59.6782216,12.1333333 C59.6782216,9.21665208 58.5495215,7.75833333 56.2920875,7.75833333 C55.2590245,7.75833333 54.4364126,8.10832983 53.8242271,8.80833333 C53.2120416,9.50833683 52.9059535,10.5486042 52.9059535,11.9291667 L52.9059535,19.9208333 C52.9059535,20.1347233 52.8294314,20.3194437 52.6763851,20.475 C52.5233387,20.6305563 52.3415988,20.7083333 52.1311601,20.7083333 L51.0694062,20.7083333 C50.8589674,20.7083333 50.6772276,20.6305563 50.5241812,20.475 C50.3711348,20.3194437 50.2946128,20.1347233 50.2946128,19.9208333 L50.2946128,12.1333333 C50.2946128,9.21665208 49.1659127,7.75833333 46.9084787,7.75833333 C45.8754157,7.75833333 45.0528038,8.10832983 44.4406183,8.80833333 C43.8284328,9.50833683 43.5223447,10.5486042 43.5223447,11.9291667 L43.5223447,19.9208333 C43.5223447,20.1347233 43.4458226,20.3194437 43.2927762,20.475 C43.1397299,20.6305563 42.95799,20.7083333 42.7475513,20.7083333 L41.6857974,20.7083333 C41.4753586,20.7083333 41.2936188,20.6305563 41.1405724,20.475 C40.987526,20.3194437 40.911004,20.1347233 40.911004,19.9208333 L40.911004,6.32916667 C40.911004,6.11527671 40.987526,5.93055633 41.1405724,5.775 C41.2936188,5.61944367 41.4753586,5.54166667 41.6857974,5.54166667 L42.7475513,5.54166667 C42.95799,5.54166667 43.1397299,5.61944367 43.2927762,5.775 C43.4458226,5.93055633 43.5223447,6.11527671 43.5223447,6.32916667 L43.5223447,7.23333333 C43.9814838,6.63055254 44.4980075,6.14930735 45.0719314,5.78958333 Z M75.915404,11.1125 L75.915404,10.7333333 C75.915404,9.78055079 75.6045333,9.04653035 74.9827824,8.53125 C74.3610315,8.01596965 73.5527674,7.75833333 72.557966,7.75833333 C71.7927342,7.75833333 71.1949057,7.88958202 70.7644628,8.15208333 C70.3340199,8.41458465 69.9274966,8.80833071 69.5448806,9.33333333 C69.4300958,9.48888967 69.3057475,9.59583304 69.171832,9.65416667 C69.0379164,9.71250029 68.8561765,9.74166667 68.626607,9.74166667 L67.7657254,9.74166667 C67.5552867,9.74166667 67.3687642,9.66388967 67.2061524,9.50833333 C67.0435407,9.352777 66.9718013,9.16805663 66.990932,8.95416667 C67.0483244,8.37083042 67.3304995,7.79236398 67.8374656,7.21875 C68.3444317,6.64513602 69.0187821,6.17361296 69.8605372,5.80416667 C70.7022922,5.43472037 71.6014262,5.25 72.557966,5.25 C74.3371301,5.25 75.776701,5.7555505 76.8767218,6.76666667 C77.9767426,7.77778283 78.5267447,9.19721308 78.5267447,11.025 L78.5267447,19.9208333 C78.5267447,20.1347233 78.4502227,20.3194437 78.2971763,20.475 C78.1441299,20.6305563 77.9623901,20.7083333 77.7519513,20.7083333 L76.6901974,20.7083333 C76.4797587,20.7083333 76.2980188,20.6305563 76.1449725,20.475 C75.9919261,20.3194437 75.915404,20.1347233 75.915404,19.9208333 L75.915404,18.725 C75.6093113,19.4250035 74.958874,19.9791646 73.9640725,20.3875 C72.9692711,20.7958354 71.9744846,21 70.9796832,21 C70.0040126,21 69.1335744,20.8201407 68.3683425,20.4604167 C67.6031107,20.1006926 67.0148475,19.6097253 66.6035354,18.9875 C66.1922232,18.3652747 65.9865702,17.6652817 65.9865702,16.8875 C65.9865702,15.4291594 66.5222245,14.2868097 67.5935491,13.4604167 C68.6648737,12.6340236 70.0900967,12.0750015 71.8692608,11.7833333 L75.915404,11.1125 Z M75.915404,13.4458333 L72.52927,14 C71.2857682,14.1944454 70.3196775,14.5104145 69.6309688,14.9479167 C68.9422601,15.3854189 68.5979109,15.9347189 68.5979109,16.5958333 C68.5979109,17.0819469 68.8179118,17.5194425 69.2579201,17.9083333 C69.6979284,18.2972242 70.3674963,18.4916667 71.2666437,18.4916667 C72.6440611,18.4916667 73.7631959,18.0930595 74.6240817,17.2958333 C75.4849676,16.4986071 75.915404,15.4583398 75.915404,14.175 L75.915404,13.4458333 Z M87.5468702,17.5291667 C87.8816592,17.9763911 88.5177486,18.2 89.4551576,18.2 L90.9760484,18.2 C91.1864871,18.2 91.368227,18.277777 91.5212733,18.4333333 C91.6743197,18.5888897 91.7508418,18.77361 91.7508418,18.9875 L91.7508418,19.9208333 C91.7508418,20.1347233 91.6743197,20.3194437 91.5212733,20.475 C91.368227,20.6305563 91.1864871,20.7083333 90.9760484,20.7083333 L89.1681971,20.7083333 C87.5420794,20.7083333 86.3464226,20.2756988 85.5811907,19.4104167 C84.8159588,18.5451346 84.4333486,17.2763973 84.4333486,15.6041667 L84.4333486,8.05 L82.3098408,8.05 C82.0994021,8.05 81.9176622,7.972223 81.7646159,7.81666667 C81.6115695,7.66111033 81.5350474,7.47638996 81.5350474,7.2625 L81.5350474,6.32916667 C81.5350474,6.11527671 81.6115695,5.93055633 81.7646159,5.775 C81.9176622,5.61944367 82.0994021,5.54166667 82.3098408,5.54166667 L84.4333486,5.54166667 L84.4333486,0.7875 C84.4333486,0.573610042 84.5098707,0.388889667 84.662917,0.233333333 C84.8159634,0.077777 84.9977033,0 85.208142,0 L86.2698959,0 C86.4803347,0 86.6620745,0.077777 86.8151209,0.233333333 C86.9681673,0.388889667 87.0446893,0.573610042 87.0446893,0.7875 L87.0446893,5.54166667 L90.6890878,5.54166667 C90.8995266,5.54166667 91.0812665,5.61944367 91.2343128,5.775 C91.3873592,5.93055633 91.4638812,6.11527671 91.4638812,6.32916667 L91.4638812,7.2625 C91.4638812,7.47638996 91.3873592,7.66111033 91.2343128,7.81666667 C91.0812665,7.972223 90.8995266,8.05 90.6890878,8.05 L87.0446893,8.05 L87.0446893,15.6041667 C87.0446893,16.440282 87.2120813,17.0819422 87.5468702,17.5291667 Z M105.118419,16.2166667 C105.252335,15.9249985 105.386248,15.7208339 105.520164,15.6041667 C105.654079,15.4874994 105.835819,15.4291667 106.065389,15.4291667 L106.92627,15.4291667 C107.136709,15.4291667 107.318449,15.5020826 107.471495,15.6479167 C107.624542,15.7937507 107.701064,15.9638879 107.701064,16.1583333 C107.701064,16.8194478 107.442802,17.5291629 106.92627,18.2875 C106.409739,19.0458371 105.663649,19.6874974 104.687978,20.2125 C103.712308,20.7375026 102.564477,21 101.244452,21 C99.8861655,21 98.7096392,20.7083363 97.7148378,20.125 C96.7200363,19.5416638 95.954816,18.7395884 95.4191537,17.71875 C94.8834914,16.6979116 94.5869685,15.5555619 94.5295761,14.2916667 C94.5104453,14.0583322 94.50088,13.6111144 94.50088,12.95 C94.50088,12.483331 94.5104453,12.1527788 94.5295761,11.9583333 C94.7017532,9.97499008 95.3617558,8.36111733 96.5096036,7.11666667 C97.6574514,5.872216 99.2357185,5.25 101.244452,5.25 C102.564477,5.25 103.707525,5.50763631 104.67363,6.02291667 C105.639735,6.53819702 106.37626,7.17013515 106.883226,7.91875 C107.390192,8.66736485 107.662802,9.37221892 107.701064,10.0333333 C107.720194,10.2472233 107.648455,10.4319437 107.485843,10.5875 C107.323232,10.7430563 107.136709,10.8208333 106.92627,10.8208333 L106.065389,10.8208333 C105.835819,10.8208333 105.654079,10.7625006 105.520164,10.6458333 C105.386248,10.5291661 105.252335,10.3250015 105.118419,10.0333333 C104.448841,8.51665908 103.157532,7.75833333 101.244452,7.75833333 C100.192258,7.75833333 99.2739938,8.11805196 98.4896312,8.8375 C97.7052685,9.55694804 97.2557015,10.645826 97.1409167,12.1041667 C97.1217859,12.3180566 97.1122207,12.6680531 97.1122207,13.1541667 C97.1122207,13.6013911 97.1217859,13.9319434 97.1409167,14.1458333 C97.2748323,15.604174 97.7291819,16.693052 98.5039792,17.4125 C99.2787764,18.131948 100.192258,18.4916667 101.244452,18.4916667 C103.157532,18.4916667 104.448841,17.7333409 105.118419,16.2166667 Z M124.770432,20.475 C124.617385,20.6305563 124.435645,20.7083333 124.225207,20.7083333 L123.163453,20.7083333 C122.953014,20.7083333 122.771274,20.6305563 122.618228,20.475 C122.465181,20.3194437 122.388659,20.1347233 122.388659,19.9208333 L122.388659,12.2208333 C122.388659,10.7624927 122.034745,9.65417046 121.326905,8.89583333 C120.619066,8.13749621 119.633845,7.75833333 118.371212,7.75833333 C117.12771,7.75833333 116.147272,8.13749621 115.429867,8.89583333 C114.712462,9.65417046 114.353765,10.7624927 114.353765,12.2208333 L114.353765,19.9208333 C114.353765,20.1347233 114.277243,20.3194437 114.124197,20.475 C113.97115,20.6305563 113.78941,20.7083333 113.578972,20.7083333 L112.517218,20.7083333 C112.306779,20.7083333 112.125039,20.6305563 111.971993,20.475 C111.818946,20.3194437 111.742424,20.1347233 111.742424,19.9208333 L111.742424,0.7875 C111.742424,0.573610042 111.818946,0.388889667 111.971993,0.233333333 C112.125039,0.077777 112.306779,0 112.517218,0 L113.578972,0 C113.78941,0 113.97115,0.077777 114.124197,0.233333333 C114.277243,0.388889667 114.353765,0.573610042 114.353765,0.7875 L114.353765,7.23333333 C114.774642,6.66944163 115.35334,6.19791856 116.089876,5.81875 C116.826412,5.43958144 117.730328,5.25 118.801653,5.25 C120.006893,5.25 121.078202,5.51249738 122.015611,6.0375 C122.95302,6.56250263 123.684762,7.31596731 124.210859,8.29791667 C124.736955,9.27986602 125,10.44166 125,11.7833333 L125,19.9208333 C125,20.1347233 124.923478,20.3194437 124.770432,20.475 Z" id="wematch" fill="#2D3240"></path>
                    <path d="M132.201074,17.4125 C132.352158,17.5680563 132.427699,17.7527767 132.427699,17.9666667 L132.427699,19.9208333 C132.427699,20.1347233 132.352158,20.3194437 132.201074,20.475 C132.04999,20.6305563 131.870581,20.7083333 131.66284,20.7083333 L129.764858,20.7083333 C129.557118,20.7083333 129.377709,20.6305563 129.226625,20.475 C129.075541,20.3194437 129,20.1347233 129,19.9208333 L129,17.9666667 C129,17.7527767 129.075541,17.5680563 129.226625,17.4125 C129.377709,17.2569437 129.557118,17.1791667 129.764858,17.1791667 L131.66284,17.1791667 C131.870581,17.1791667 132.04999,17.2569437 132.201074,17.4125 Z M139.278374,20.475 C139.12729,20.6305563 138.947881,20.7083333 138.740141,20.7083333 L137.692001,20.7083333 C137.484261,20.7083333 137.304852,20.6305563 137.153768,20.475 C137.002684,20.3194437 136.927143,20.1347233 136.927143,19.9208333 L136.927143,0.7875 C136.927143,0.573610042 137.002684,0.388889667 137.153768,0.233333333 C137.304852,0.077777 137.484261,0 137.692001,0 L138.740141,0 C138.947881,0 139.12729,0.077777 139.278374,0.233333333 C139.429458,0.388889667 139.504999,0.573610042 139.504999,0.7875 L139.504999,19.9208333 C139.504999,20.1347233 139.429458,20.3194437 139.278374,20.475 Z M146.978893,3.00416667 C146.827809,3.159723 146.648399,3.2375 146.440659,3.2375 L144.825958,3.2375 C144.618218,3.2375 144.438808,3.159723 144.287724,3.00416667 C144.136641,2.84861033 144.0611,2.66388996 144.0611,2.45 L144.0611,0.7875 C144.0611,0.573610042 144.136641,0.388889667 144.287724,0.233333333 C144.438808,0.077777 144.618218,0 144.825958,0 L146.440659,0 C146.648399,0 146.827809,0.077777 146.978893,0.233333333 C147.129977,0.388889667 147.205517,0.573610042 147.205517,0.7875 L147.205517,2.45 C147.205517,2.66388996 147.129977,2.84861033 146.978893,3.00416667 Z M146.695612,20.475 C146.544528,20.6305563 146.365119,20.7083333 146.157378,20.7083333 L145.109239,20.7083333 C144.901499,20.7083333 144.722089,20.6305563 144.571005,20.475 C144.419921,20.3194437 144.344381,20.1347233 144.344381,19.9208333 L144.344381,6.32916667 C144.344381,6.11527671 144.419921,5.93055633 144.571005,5.775 C144.722089,5.61944367 144.901499,5.54166667 145.109239,5.54166667 L146.157378,5.54166667 C146.365119,5.54166667 146.544528,5.61944367 146.695612,5.775 C146.846696,5.93055633 146.922237,6.11527671 146.922237,6.32916667 L146.922237,19.9208333 C146.922237,20.1347233 146.846696,20.3194437 146.695612,20.475 Z M158.956952,19.9791667 L164.594242,6.44583333 C164.613127,6.38749971 164.62257,6.31944483 164.62257,6.24166667 C164.62257,6.04722125 164.556472,5.88194513 164.424273,5.74583333 C164.292075,5.60972154 164.131551,5.54166667 163.942696,5.54166667 L162.781244,5.54166667 C162.403534,5.54166667 162.129699,5.77499767 161.95973,6.24166667 L157.568876,16.8291667 L153.178023,6.24166667 C153.008053,5.77499767 152.696447,5.54166667 152.243196,5.54166667 L151.195056,5.54166667 C151.006202,5.54166667 150.845677,5.60972154 150.713479,5.74583333 C150.581281,5.88194513 150.515182,6.04722125 150.515182,6.24166667 C150.515182,6.31944483 150.524625,6.38749971 150.54351,6.44583333 L156.1808,19.9791667 C156.369655,20.4652802 156.662375,20.7083333 157.058971,20.7083333 L158.10711,20.7083333 C158.48482,20.7083333 158.768098,20.4652802 158.956952,19.9791667 Z M178.243659,7.23333333 C179.414559,8.55556217 180,10.3541553 180,12.6291667 L180,13.4166667 C180,13.6305566 179.924459,13.815277 179.773375,13.9708333 C179.622291,14.1263897 179.442882,14.2041667 179.235142,14.2041667 L169.49028,14.2041667 L169.49028,14.3791667 C169.528051,15.6625064 169.910476,16.6687464 170.637567,17.3979167 C171.364658,18.127087 172.304197,18.4916667 173.456212,18.4916667 C174.400486,18.4916667 175.132288,18.365279 175.651639,18.1125 C176.170989,17.859721 176.638398,17.5000023 177.053879,17.0333333 C177.204963,16.877777 177.341881,16.7708336 177.464636,16.7125 C177.587392,16.6541664 177.752637,16.625 177.960378,16.625 L178.81022,16.625 C179.036846,16.625 179.225698,16.702777 179.376782,16.8583333 C179.527866,17.0138897 179.593964,17.19861 179.575079,17.4125 C179.499537,17.9375026 179.22098,18.4770806 178.7394,19.03125 C178.25782,19.5854194 177.56851,20.0520814 176.67145,20.43125 C175.774389,20.8104186 174.702654,21 173.456212,21 C172.247541,21 171.171084,20.7131973 170.22681,20.1395833 C169.282536,19.5659694 168.531849,18.7736162 167.974727,17.7625 C167.417605,16.7513838 167.082393,15.6138952 166.96908,14.35 C166.931309,13.7666638 166.912424,13.319446 166.912424,13.0083333 C166.912424,12.6972207 166.931309,12.2500029 166.96908,11.6666667 C167.082393,10.4611051 167.417605,9.37222708 167.974727,8.4 C168.531849,7.42777292 169.277814,6.65972504 170.212646,6.09583333 C171.147477,5.53194163 172.228655,5.25 173.456212,5.25 C175.476959,5.25 177.072758,5.9111045 178.243659,7.23333333 Z M177.450472,11.7541667 L177.450472,11.6666667 C177.450472,10.4805496 177.086932,9.53264244 176.359841,8.82291667 C175.63275,8.1131909 174.664883,7.75833333 173.456212,7.75833333 C172.360854,7.75833333 171.430757,8.11805196 170.665895,8.8375 C169.901033,9.55694804 169.509165,10.4999942 169.49028,11.6666667 L169.49028,11.7541667 L177.450472,11.7541667 Z" id=".live" fill="#FF0928"></path>
                </g>
                <path d="M2.3125,30 L2.3125,7.25 L9.03125,7.25 C10.5520909,7.25 11.9400979,7.50520578 13.1953125,8.015625 C14.4505271,8.52604422 15.5286413,9.25259945 16.4296875,10.1953125 C17.3307337,11.1380255 18.0312475,12.276035 18.53125,13.609375 C19.0312525,14.942715 19.28125,16.4322834 19.28125,18.078125 L19.28125,19.203125 C19.28125,20.8489666 19.0338566,22.3359309 18.5390625,23.6640625 C18.0442684,24.9921941 17.3411504,26.1249953 16.4296875,27.0625 C15.5182246,28.0000047 14.4192773,28.7239558 13.1328125,29.234375 C11.8463477,29.7447942 10.4166745,30 8.84375,30 L2.3125,30 Z M6.265625,10.4375 L6.265625,26.84375 L8.84375,26.84375 C9.91667203,26.84375 10.8593709,26.6692726 11.671875,26.3203125 C12.4843791,25.9713524 13.1588515,25.4687533 13.6953125,24.8125 C14.2317735,24.1562467 14.6354153,23.3541714 14.90625,22.40625 C15.1770847,21.4583286 15.3125,20.3906309 15.3125,19.203125 L15.3125,18.046875 C15.3125,15.5781127 14.776047,13.6927148 13.703125,12.390625 C12.630203,11.0885352 11.0729269,10.4375 9.03125,10.4375 L6.265625,10.4375 Z M38.515625,19.84375 L29.171875,19.84375 L29.171875,26.84375 L40.09375,26.84375 L40.09375,30 L25.21875,30 L25.21875,7.25 L39.984375,7.25 L39.984375,10.4375 L29.171875,10.4375 L29.171875,16.71875 L38.515625,16.71875 L38.515625,19.84375 Z M49.265625,26.84375 L59.59375,26.84375 L59.59375,30 L45.3125,30 L45.3125,7.25 L49.265625,7.25 L49.265625,26.84375 Z M77.859375,10.4375 L70.765625,10.4375 L70.765625,30 L66.84375,30 L66.84375,10.4375 L59.8125,10.4375 L59.8125,7.25 L77.859375,7.25 L77.859375,10.4375 Z M93.703125,24.703125 L84.890625,24.703125 L83.046875,30 L78.9375,30 L87.53125,7.25 L91.078125,7.25 L99.6875,30 L95.5625,30 L93.703125,24.703125 Z M86,21.515625 L92.59375,21.515625 L89.296875,12.078125 L86,21.515625 Z M132.390625,19.21875 C132.390625,20.9479253 132.164065,22.497389 131.710938,23.8671875 C131.25781,25.236986 130.619796,26.3984327 129.796875,27.3515625 C128.973954,28.3046923 127.984381,29.0364558 126.828125,29.546875 C125.671869,30.0572942 124.390632,30.3125 122.984375,30.3125 C121.588535,30.3125 120.312506,30.0572942 119.15625,29.546875 C117.999994,29.0364558 117.002608,28.3046923 116.164062,27.3515625 C115.325517,26.3984327 114.674481,25.236986 114.210938,23.8671875 C113.747394,22.497389 113.515625,20.9479253 113.515625,19.21875 L113.515625,18.0625 C113.515625,16.3333247 113.747394,14.7812569 114.210938,13.40625 C114.674481,12.0312431 115.320308,10.8645881 116.148438,9.90625 C116.976567,8.94791187 117.968744,8.21354422 119.125,7.703125 C120.281256,7.19270578 121.557285,6.9375 122.953125,6.9375 C124.359382,6.9375 125.643223,7.19270578 126.804688,7.703125 C127.966152,8.21354422 128.960933,8.94791187 129.789062,9.90625 C130.617192,10.8645881 131.25781,12.0312431 131.710938,13.40625 C132.164065,14.7812569 132.390625,16.3333247 132.390625,18.0625 L132.390625,19.21875 Z M128.4375,18.03125 C128.4375,16.7604103 128.315105,15.6380257 128.070312,14.6640625 C127.82552,13.6900993 127.468752,12.8750033 127,12.21875 C126.531248,11.5624967 125.955733,11.0651059 125.273438,10.7265625 C124.591142,10.3880191 123.817713,10.21875 122.953125,10.21875 C122.109371,10.21875 121.348962,10.3880191 120.671875,10.7265625 C119.994788,11.0651059 119.419273,11.5624967 118.945312,12.21875 C118.471352,12.8750033 118.106772,13.6900993 117.851562,14.6640625 C117.596353,15.6380257 117.46875,16.7604103 117.46875,18.03125 L117.46875,19.21875 C117.46875,20.4895897 117.596353,21.6145784 117.851562,22.59375 C118.106772,23.5729216 118.473956,24.3932259 118.953125,25.0546875 C119.432294,25.7161491 120.013017,26.2161441 120.695312,26.5546875 C121.377608,26.8932309 122.140621,27.0625 122.984375,27.0625 C124.734384,27.0625 126.080724,26.39584 127.023438,25.0625 C127.966151,23.72916 128.4375,21.7812628 128.4375,19.21875 L128.4375,18.03125 Z M156.375,30 L152.421875,30 L142.28125,13.859375 L142.28125,30 L138.328125,30 L138.328125,7.25 L142.28125,7.25 L152.453125,23.453125 L152.453125,7.25 L156.375,7.25 L156.375,30 Z M176.34375,19.84375 L167,19.84375 L167,26.84375 L177.921875,26.84375 L177.921875,30 L163.046875,30 L163.046875,7.25 L177.8125,7.25 L177.8125,10.4375 L167,10.4375 L167,16.71875 L176.34375,16.71875 L176.34375,19.84375 Z" id="EQUITY-DERIVATIVES" fill="#2D3240" opacity="0.900000036"></path>
                <path d="M0.5,41.5 L341.536655,41.5" id="Line" stroke="#2D3240" opacity="0.100000001" stroke-linecap="square"></path>
            </g>
        </g>
    </g>
</svg>