<?xml version="1.0" encoding="UTF-8"?>
<svg width="390px" height="99px" viewBox="0 0 390 99" version="1.1" xmlns="http://www.w3.org/2000/svg" xmlns:xlink="http://www.w3.org/1999/xlink">
    <!-- Generator: Sketch 57.1 (83088) - https://sketch.com -->
    <title>logo-header-wedo</title>
    <desc>Created with Sketch.</desc>
    <g id="logo-header-wedo" stroke="none" stroke-width="1" fill="none" fill-rule="evenodd">
        <g id="logo-template" transform="translate(20.000000, 14.000000)">
            <g>
                <g id="Group" transform="translate(162.000000, 49.000000)">
                    <path d="M18.3367769,6.24166667 C18.508954,5.77499767 18.8341727,5.54166667 19.3124426,5.54166667 L20.2594123,5.54166667 C20.4507203,5.54166667 20.6133296,5.60972154 20.7472452,5.74583333 C20.8811608,5.88194513 20.9481175,6.04722125 20.9481175,6.24166667 L20.9194215,6.475 L16.5289256,19.8916667 C16.3567485,20.4361138 16.0697908,20.7083333 15.6680441,20.7083333 L14.7784665,20.7083333 C14.5488969,20.7083333 14.3671571,20.6354174 14.2332415,20.4895833 C14.0993259,20.3437493 13.9845429,20.1444457 13.8888889,19.8916667 L10.4740588,10.2083333 L7.05922865,19.8916667 C6.96357467,20.1444457 6.84879161,20.3437493 6.71487603,20.4895833 C6.58096046,20.6354174 6.39922062,20.7083333 6.16965106,20.7083333 L5.28007346,20.7083333 C4.87832673,20.7083333 4.59136909,20.4361138 4.41919192,19.8916667 L0.0286960514,6.475 L0,6.24166667 C0,6.04722125 0.0669567837,5.88194513 0.20087236,5.74583333 C0.334787936,5.60972154 0.497397268,5.54166667 0.688705234,5.54166667 L1.63567493,5.54166667 C2.11394485,5.54166667 2.43916351,5.77499767 2.61134068,6.24166667 L5.82529844,15.9833333 L9.26882461,6.24166667 C9.44100178,5.77499767 9.73752468,5.54166667 10.1584022,5.54166667 L10.7897153,5.54166667 C11.2105929,5.54166667 11.5071158,5.77499767 11.6792929,6.24166667 L15.1228191,15.9833333 L18.3367769,6.24166667 Z M35.0617922,7.23333333 C36.2479016,8.55556217 36.8409474,10.3541553 36.8409474,12.6291667 L36.8409474,13.4166667 C36.8409474,13.6305566 36.7644253,13.815277 36.6113789,13.9708333 C36.4583326,14.1263897 36.2765927,14.2041667 36.066154,14.2041667 L26.1947123,14.2041667 L26.1947123,14.3791667 C26.2329739,15.6625064 26.6203667,16.6687464 27.3569024,17.3979167 C28.093438,18.127087 29.0451809,18.4916667 30.2121595,18.4916667 C31.1686993,18.4916667 31.9100066,18.365279 32.4361035,18.1125 C32.9622004,17.859721 33.4356805,17.5000023 33.856558,17.0333333 C34.0096044,16.877777 34.1483006,16.7708336 34.2726507,16.7125 C34.3970009,16.6541664 34.5643929,16.625 34.7748316,16.625 L35.6357132,16.625 C35.8652828,16.625 36.0565878,16.702777 36.2096342,16.8583333 C36.3626806,17.0138897 36.4296374,17.19861 36.4105066,17.4125 C36.3339834,17.9375026 36.0518084,18.4770806 35.5639731,19.03125 C35.0761378,19.5854194 34.3778741,20.0520814 33.4691613,20.43125 C32.5604485,20.8104186 31.474792,21 30.2121595,21 C28.9877885,21 27.8973494,20.7131973 26.9408096,20.1395833 C25.9842698,19.5659694 25.223832,18.7736162 24.6594735,17.7625 C24.095115,16.7513838 23.7555485,15.6138952 23.6407637,14.35 C23.6025021,13.7666638 23.5833716,13.319446 23.5833716,13.0083333 C23.5833716,12.6972207 23.6025021,12.2500029 23.6407637,11.6666667 C23.7555485,10.4611051 24.095115,9.37222708 24.6594735,8.4 C25.223832,7.42777292 25.9794872,6.65972504 26.9264616,6.09583333 C27.873436,5.53194163 28.9686577,5.25 30.2121595,5.25 C32.2591547,5.25 33.8756828,5.9111045 35.0617922,7.23333333 Z M34.2583027,11.7541667 L34.2583027,11.6666667 C34.2583027,10.4805496 33.8900404,9.53264244 33.1535047,8.82291667 C32.4169691,8.1131909 31.4365305,7.75833333 30.2121595,7.75833333 C29.1025733,7.75833333 28.1603957,8.11805196 27.3855984,8.8375 C26.6108011,9.55694804 26.2138431,10.4999942 26.1947123,11.6666667 L26.1947123,11.7541667 L34.2583027,11.7541667 Z M45.0719314,5.78958333 C45.6458553,5.42985931 46.4110757,5.25 47.3676155,5.25 C49.6059188,5.25 51.1746205,6.09582488 52.073768,7.7875 C52.6285611,6.97082925 53.2598679,6.34375219 53.9677074,5.90625 C54.6755469,5.46874781 55.6033766,5.25 56.7512244,5.25 C58.6260424,5.25 60.017787,5.82360538 60.9264998,6.97083333 C61.8352127,8.11806129 62.2895623,9.74165617 62.2895623,11.8416667 L62.2895623,19.9208333 C62.2895623,20.1347233 62.2130403,20.3194437 62.0599939,20.475 C61.9069475,20.6305563 61.7252077,20.7083333 61.5147689,20.7083333 L60.453015,20.7083333 C60.2425762,20.7083333 60.0608364,20.6305563 59.90779,20.475 C59.7547436,20.3194437 59.6782216,20.1347233 59.6782216,19.9208333 L59.6782216,12.1333333 C59.6782216,9.21665208 58.5495215,7.75833333 56.2920875,7.75833333 C55.2590245,7.75833333 54.4364126,8.10832983 53.8242271,8.80833333 C53.2120416,9.50833683 52.9059535,10.5486042 52.9059535,11.9291667 L52.9059535,19.9208333 C52.9059535,20.1347233 52.8294314,20.3194437 52.6763851,20.475 C52.5233387,20.6305563 52.3415988,20.7083333 52.1311601,20.7083333 L51.0694062,20.7083333 C50.8589674,20.7083333 50.6772276,20.6305563 50.5241812,20.475 C50.3711348,20.3194437 50.2946128,20.1347233 50.2946128,19.9208333 L50.2946128,12.1333333 C50.2946128,9.21665208 49.1659127,7.75833333 46.9084787,7.75833333 C45.8754157,7.75833333 45.0528038,8.10832983 44.4406183,8.80833333 C43.8284328,9.50833683 43.5223447,10.5486042 43.5223447,11.9291667 L43.5223447,19.9208333 C43.5223447,20.1347233 43.4458226,20.3194437 43.2927762,20.475 C43.1397299,20.6305563 42.95799,20.7083333 42.7475513,20.7083333 L41.6857974,20.7083333 C41.4753586,20.7083333 41.2936188,20.6305563 41.1405724,20.475 C40.987526,20.3194437 40.911004,20.1347233 40.911004,19.9208333 L40.911004,6.32916667 C40.911004,6.11527671 40.987526,5.93055633 41.1405724,5.775 C41.2936188,5.61944367 41.4753586,5.54166667 41.6857974,5.54166667 L42.7475513,5.54166667 C42.95799,5.54166667 43.1397299,5.61944367 43.2927762,5.775 C43.4458226,5.93055633 43.5223447,6.11527671 43.5223447,6.32916667 L43.5223447,7.23333333 C43.9814838,6.63055254 44.4980075,6.14930735 45.0719314,5.78958333 Z M75.915404,11.1125 L75.915404,10.7333333 C75.915404,9.78055079 75.6045333,9.04653035 74.9827824,8.53125 C74.3610315,8.01596965 73.5527674,7.75833333 72.557966,7.75833333 C71.7927342,7.75833333 71.1949057,7.88958202 70.7644628,8.15208333 C70.3340199,8.41458465 69.9274966,8.80833071 69.5448806,9.33333333 C69.4300958,9.48888967 69.3057475,9.59583304 69.171832,9.65416667 C69.0379164,9.71250029 68.8561765,9.74166667 68.626607,9.74166667 L67.7657254,9.74166667 C67.5552867,9.74166667 67.3687642,9.66388967 67.2061524,9.50833333 C67.0435407,9.352777 66.9718013,9.16805663 66.990932,8.95416667 C67.0483244,8.37083042 67.3304995,7.79236398 67.8374656,7.21875 C68.3444317,6.64513602 69.0187821,6.17361296 69.8605372,5.80416667 C70.7022922,5.43472038 71.6014262,5.25 72.557966,5.25 C74.3371301,5.25 75.776701,5.7555505 76.8767218,6.76666667 C77.9767426,7.77778283 78.5267447,9.19721308 78.5267447,11.025 L78.5267447,19.9208333 C78.5267447,20.1347233 78.4502227,20.3194437 78.2971763,20.475 C78.1441299,20.6305563 77.9623901,20.7083333 77.7519513,20.7083333 L76.6901974,20.7083333 C76.4797587,20.7083333 76.2980188,20.6305563 76.1449725,20.475 C75.9919261,20.3194437 75.915404,20.1347233 75.915404,19.9208333 L75.915404,18.725 C75.6093113,19.4250035 74.958874,19.9791646 73.9640725,20.3875 C72.9692711,20.7958354 71.9744846,21 70.9796832,21 C70.0040126,21 69.1335744,20.8201407 68.3683425,20.4604167 C67.6031107,20.1006926 67.0148475,19.6097253 66.6035354,18.9875 C66.1922232,18.3652747 65.9865702,17.6652817 65.9865702,16.8875 C65.9865702,15.4291594 66.5222245,14.2868097 67.5935491,13.4604167 C68.6648737,12.6340236 70.0900967,12.0750015 71.8692608,11.7833333 L75.915404,11.1125 Z M75.915404,13.4458333 L72.52927,14 C71.2857682,14.1944454 70.3196775,14.5104145 69.6309688,14.9479167 C68.9422601,15.3854189 68.5979109,15.9347189 68.5979109,16.5958333 C68.5979109,17.0819469 68.8179118,17.5194425 69.2579201,17.9083333 C69.6979284,18.2972242 70.3674963,18.4916667 71.2666437,18.4916667 C72.6440611,18.4916667 73.7631959,18.0930595 74.6240817,17.2958333 C75.4849676,16.4986071 75.915404,15.4583398 75.915404,14.175 L75.915404,13.4458333 Z M87.5468702,17.5291667 C87.8816592,17.9763911 88.5177486,18.2 89.4551576,18.2 L90.9760484,18.2 C91.1864871,18.2 91.368227,18.277777 91.5212733,18.4333333 C91.6743197,18.5888897 91.7508418,18.77361 91.7508418,18.9875 L91.7508418,19.9208333 C91.7508418,20.1347233 91.6743197,20.3194437 91.5212733,20.475 C91.368227,20.6305563 91.1864871,20.7083333 90.9760484,20.7083333 L89.1681971,20.7083333 C87.5420794,20.7083333 86.3464226,20.2756988 85.5811907,19.4104167 C84.8159588,18.5451346 84.4333486,17.2763973 84.4333486,15.6041667 L84.4333486,8.05 L82.3098408,8.05 C82.0994021,8.05 81.9176622,7.972223 81.7646159,7.81666667 C81.6115695,7.66111033 81.5350474,7.47638996 81.5350474,7.2625 L81.5350474,6.32916667 C81.5350474,6.11527671 81.6115695,5.93055633 81.7646159,5.775 C81.9176622,5.61944367 82.0994021,5.54166667 82.3098408,5.54166667 L84.4333486,5.54166667 L84.4333486,0.7875 C84.4333486,0.573610042 84.5098707,0.388889667 84.662917,0.233333333 C84.8159634,0.077777 84.9977033,0 85.208142,0 L86.2698959,0 C86.4803347,0 86.6620745,0.077777 86.8151209,0.233333333 C86.9681673,0.388889667 87.0446893,0.573610042 87.0446893,0.7875 L87.0446893,5.54166667 L90.6890878,5.54166667 C90.8995266,5.54166667 91.0812665,5.61944367 91.2343128,5.775 C91.3873592,5.93055633 91.4638812,6.11527671 91.4638812,6.32916667 L91.4638812,7.2625 C91.4638812,7.47638996 91.3873592,7.66111033 91.2343128,7.81666667 C91.0812665,7.972223 90.8995266,8.05 90.6890878,8.05 L87.0446893,8.05 L87.0446893,15.6041667 C87.0446893,16.440282 87.2120813,17.0819422 87.5468702,17.5291667 Z M105.118419,16.2166667 C105.252335,15.9249985 105.386248,15.7208339 105.520164,15.6041667 C105.654079,15.4874994 105.835819,15.4291667 106.065389,15.4291667 L106.92627,15.4291667 C107.136709,15.4291667 107.318449,15.5020826 107.471495,15.6479167 C107.624542,15.7937507 107.701064,15.9638879 107.701064,16.1583333 C107.701064,16.8194478 107.442802,17.5291629 106.92627,18.2875 C106.409739,19.0458371 105.663649,19.6874974 104.687978,20.2125 C103.712308,20.7375026 102.564477,21 101.244452,21 C99.8861655,21 98.7096392,20.7083363 97.7148378,20.125 C96.7200363,19.5416638 95.954816,18.7395884 95.4191537,17.71875 C94.8834914,16.6979116 94.5869685,15.5555619 94.5295761,14.2916667 C94.5104453,14.0583322 94.50088,13.6111144 94.50088,12.95 C94.50088,12.483331 94.5104453,12.1527788 94.5295761,11.9583333 C94.7017532,9.97499008 95.3617558,8.36111733 96.5096036,7.11666667 C97.6574514,5.872216 99.2357185,5.25 101.244452,5.25 C102.564477,5.25 103.707525,5.50763631 104.67363,6.02291667 C105.639735,6.53819702 106.37626,7.17013515 106.883226,7.91875 C107.390192,8.66736485 107.662802,9.37221892 107.701064,10.0333333 C107.720194,10.2472233 107.648455,10.4319437 107.485843,10.5875 C107.323232,10.7430563 107.136709,10.8208333 106.92627,10.8208333 L106.065389,10.8208333 C105.835819,10.8208333 105.654079,10.7625006 105.520164,10.6458333 C105.386248,10.5291661 105.252335,10.3250015 105.118419,10.0333333 C104.448841,8.51665908 103.157532,7.75833333 101.244452,7.75833333 C100.192258,7.75833333 99.2739938,8.11805196 98.4896312,8.8375 C97.7052685,9.55694804 97.2557015,10.645826 97.1409167,12.1041667 C97.1217859,12.3180566 97.1122207,12.6680531 97.1122207,13.1541667 C97.1122207,13.6013911 97.1217859,13.9319434 97.1409167,14.1458333 C97.2748323,15.604174 97.7291819,16.693052 98.5039792,17.4125 C99.2787764,18.131948 100.192258,18.4916667 101.244452,18.4916667 C103.157532,18.4916667 104.448841,17.7333409 105.118419,16.2166667 Z M124.770432,20.475 C124.617385,20.6305563 124.435645,20.7083333 124.225207,20.7083333 L123.163453,20.7083333 C122.953014,20.7083333 122.771274,20.6305563 122.618228,20.475 C122.465181,20.3194437 122.388659,20.1347233 122.388659,19.9208333 L122.388659,12.2208333 C122.388659,10.7624927 122.034745,9.65417046 121.326905,8.89583333 C120.619066,8.13749621 119.633845,7.75833333 118.371212,7.75833333 C117.12771,7.75833333 116.147272,8.13749621 115.429867,8.89583333 C114.712462,9.65417046 114.353765,10.7624927 114.353765,12.2208333 L114.353765,19.9208333 C114.353765,20.1347233 114.277243,20.3194437 114.124197,20.475 C113.97115,20.6305563 113.78941,20.7083333 113.578972,20.7083333 L112.517218,20.7083333 C112.306779,20.7083333 112.125039,20.6305563 111.971993,20.475 C111.818946,20.3194437 111.742424,20.1347233 111.742424,19.9208333 L111.742424,0.7875 C111.742424,0.573610042 111.818946,0.388889667 111.971993,0.233333333 C112.125039,0.077777 112.306779,0 112.517218,0 L113.578972,0 C113.78941,0 113.97115,0.077777 114.124197,0.233333333 C114.277243,0.388889667 114.353765,0.573610042 114.353765,0.7875 L114.353765,7.23333333 C114.774642,6.66944163 115.35334,6.19791856 116.089876,5.81875 C116.826412,5.43958144 117.730328,5.25 118.801653,5.25 C120.006893,5.25 121.078202,5.51249738 122.015611,6.0375 C122.95302,6.56250263 123.684762,7.31596731 124.210859,8.29791667 C124.736955,9.27986602 125,10.44166 125,11.7833333 L125,19.9208333 C125,20.1347233 124.923478,20.3194437 124.770432,20.475 Z" id="wematch" fill="#2D3240"></path>
                    <path d="M132.201074,17.4125 C132.352158,17.5680563 132.427699,17.7527767 132.427699,17.9666667 L132.427699,19.9208333 C132.427699,20.1347233 132.352158,20.3194437 132.201074,20.475 C132.04999,20.6305563 131.870581,20.7083333 131.66284,20.7083333 L129.764858,20.7083333 C129.557118,20.7083333 129.377709,20.6305563 129.226625,20.475 C129.075541,20.3194437 129,20.1347233 129,19.9208333 L129,17.9666667 C129,17.7527767 129.075541,17.5680563 129.226625,17.4125 C129.377709,17.2569437 129.557118,17.1791667 129.764858,17.1791667 L131.66284,17.1791667 C131.870581,17.1791667 132.04999,17.2569437 132.201074,17.4125 Z M139.278374,20.475 C139.12729,20.6305563 138.947881,20.7083333 138.740141,20.7083333 L137.692001,20.7083333 C137.484261,20.7083333 137.304852,20.6305563 137.153768,20.475 C137.002684,20.3194437 136.927143,20.1347233 136.927143,19.9208333 L136.927143,0.7875 C136.927143,0.573610042 137.002684,0.388889667 137.153768,0.233333333 C137.304852,0.077777 137.484261,0 137.692001,0 L138.740141,0 C138.947881,0 139.12729,0.077777 139.278374,0.233333333 C139.429458,0.388889667 139.504999,0.573610042 139.504999,0.7875 L139.504999,19.9208333 C139.504999,20.1347233 139.429458,20.3194437 139.278374,20.475 Z M146.978893,3.00416667 C146.827809,3.159723 146.648399,3.2375 146.440659,3.2375 L144.825958,3.2375 C144.618218,3.2375 144.438808,3.159723 144.287724,3.00416667 C144.136641,2.84861033 144.0611,2.66388996 144.0611,2.45 L144.0611,0.7875 C144.0611,0.573610042 144.136641,0.388889667 144.287724,0.233333333 C144.438808,0.077777 144.618218,0 144.825958,0 L146.440659,0 C146.648399,0 146.827809,0.077777 146.978893,0.233333333 C147.129977,0.388889667 147.205517,0.573610042 147.205517,0.7875 L147.205517,2.45 C147.205517,2.66388996 147.129977,2.84861033 146.978893,3.00416667 Z M146.695612,20.475 C146.544528,20.6305563 146.365119,20.7083333 146.157378,20.7083333 L145.109239,20.7083333 C144.901499,20.7083333 144.722089,20.6305563 144.571005,20.475 C144.419921,20.3194437 144.344381,20.1347233 144.344381,19.9208333 L144.344381,6.32916667 C144.344381,6.11527671 144.419921,5.93055633 144.571005,5.775 C144.722089,5.61944367 144.901499,5.54166667 145.109239,5.54166667 L146.157378,5.54166667 C146.365119,5.54166667 146.544528,5.61944367 146.695612,5.775 C146.846696,5.93055633 146.922237,6.11527671 146.922237,6.32916667 L146.922237,19.9208333 C146.922237,20.1347233 146.846696,20.3194437 146.695612,20.475 Z M158.956952,19.9791667 L164.594242,6.44583333 C164.613127,6.38749971 164.62257,6.31944483 164.62257,6.24166667 C164.62257,6.04722125 164.556472,5.88194513 164.424273,5.74583333 C164.292075,5.60972154 164.131551,5.54166667 163.942696,5.54166667 L162.781244,5.54166667 C162.403534,5.54166667 162.129699,5.77499767 161.95973,6.24166667 L157.568876,16.8291667 L153.178023,6.24166667 C153.008053,5.77499767 152.696447,5.54166667 152.243196,5.54166667 L151.195056,5.54166667 C151.006202,5.54166667 150.845677,5.60972154 150.713479,5.74583333 C150.581281,5.88194513 150.515182,6.04722125 150.515182,6.24166667 C150.515182,6.31944483 150.524625,6.38749971 150.54351,6.44583333 L156.1808,19.9791667 C156.369655,20.4652802 156.662375,20.7083333 157.058971,20.7083333 L158.10711,20.7083333 C158.48482,20.7083333 158.768098,20.4652802 158.956952,19.9791667 Z M178.243659,7.23333333 C179.414559,8.55556217 180,10.3541553 180,12.6291667 L180,13.4166667 C180,13.6305566 179.924459,13.815277 179.773375,13.9708333 C179.622291,14.1263897 179.442882,14.2041667 179.235142,14.2041667 L169.49028,14.2041667 L169.49028,14.3791667 C169.528051,15.6625064 169.910476,16.6687464 170.637567,17.3979167 C171.364658,18.127087 172.304197,18.4916667 173.456212,18.4916667 C174.400486,18.4916667 175.132288,18.365279 175.651639,18.1125 C176.170989,17.859721 176.638398,17.5000023 177.053879,17.0333333 C177.204963,16.877777 177.341881,16.7708336 177.464636,16.7125 C177.587392,16.6541664 177.752637,16.625 177.960378,16.625 L178.81022,16.625 C179.036846,16.625 179.225698,16.702777 179.376782,16.8583333 C179.527866,17.0138897 179.593964,17.19861 179.575079,17.4125 C179.499537,17.9375026 179.22098,18.4770806 178.7394,19.03125 C178.25782,19.5854194 177.56851,20.0520814 176.67145,20.43125 C175.774389,20.8104186 174.702654,21 173.456212,21 C172.247541,21 171.171084,20.7131973 170.22681,20.1395833 C169.282536,19.5659694 168.531849,18.7736162 167.974727,17.7625 C167.417605,16.7513838 167.082393,15.6138952 166.96908,14.35 C166.931309,13.7666638 166.912424,13.319446 166.912424,13.0083333 C166.912424,12.6972207 166.931309,12.2500029 166.96908,11.6666667 C167.082393,10.4611051 167.417605,9.37222708 167.974727,8.4 C168.531849,7.42777292 169.277814,6.65972504 170.212646,6.09583333 C171.147477,5.53194163 172.228655,5.25 173.456212,5.25 C175.476959,5.25 177.072758,5.9111045 178.243659,7.23333333 Z M177.450472,11.7541667 L177.450472,11.6666667 C177.450472,10.4805496 177.086932,9.53264244 176.359841,8.82291667 C175.63275,8.1131909 174.664883,7.75833333 173.456212,7.75833333 C172.360854,7.75833333 171.430757,8.11805196 170.665895,8.8375 C169.901033,9.55694804 169.509165,10.4999942 169.49028,11.6666667 L169.49028,11.7541667 L177.450472,11.7541667 Z" id=".live" fill="#FF0928"></path>
                </g>
                <path d="M15.609375,19.84375 L6.265625,19.84375 L6.265625,26.84375 L17.1875,26.84375 L17.1875,30 L2.3125,30 L2.3125,7.25 L17.078125,7.25 L17.078125,10.4375 L6.265625,10.4375 L6.265625,16.71875 L15.609375,16.71875 L15.609375,19.84375 Z M40.484375,19.21875 C40.484375,21.3750108 40.1432326,23.2421796 39.4609375,24.8203125 C38.7786424,26.3984454 37.8229228,27.651037 36.59375,28.578125 L40.5,31.625 L37.9375,33.9375 L33.09375,30.109375 C32.4583302,30.2447923 31.7760453,30.3125 31.046875,30.3125 C29.6614514,30.3125 28.3906308,30.0572942 27.234375,29.546875 C26.0781192,29.0364558 25.0807334,28.3046923 24.2421875,27.3515625 C23.4036416,26.3984327 22.7526065,25.236986 22.2890625,23.8671875 C21.8255185,22.497389 21.59375,20.9479253 21.59375,19.21875 L21.59375,18.0625 C21.59375,16.3333247 21.8255185,14.7812569 22.2890625,13.40625 C22.7526065,12.0312431 23.3984334,10.8645881 24.2265625,9.90625 C25.0546916,8.94791187 26.0468692,8.21354422 27.203125,7.703125 C28.3593808,7.19270578 29.6302014,6.9375 31.015625,6.9375 C32.4322988,6.9375 33.7239525,7.19270578 34.890625,7.703125 C36.0572975,8.21354422 37.0546834,8.94791187 37.8828125,9.90625 C38.7109416,10.8645881 39.3515602,12.0312431 39.8046875,13.40625 C40.2578148,14.7812569 40.484375,16.3333247 40.484375,18.0625 L40.484375,19.21875 Z M36.515625,18.03125 C36.515625,15.4687372 36.0364631,13.5260483 35.078125,12.203125 C34.1197869,10.8802017 32.7656337,10.21875 31.015625,10.21875 C30.1718708,10.21875 29.4140659,10.3880191 28.7421875,10.7265625 C28.0703091,11.0651059 27.4973982,11.5624967 27.0234375,12.21875 C26.5494768,12.8750033 26.1848971,13.6900993 25.9296875,14.6640625 C25.6744779,15.6380257 25.546875,16.7604103 25.546875,18.03125 L25.546875,19.21875 C25.546875,20.4895897 25.677082,21.6145784 25.9375,22.59375 C26.197918,23.5729216 26.5651018,24.3932259 27.0390625,25.0546875 C27.5130232,25.7161491 28.0885383,26.2161441 28.765625,26.5546875 C29.4427117,26.8932309 30.2031208,27.0625 31.046875,27.0625 C32.8073005,27.0625 34.1588495,26.39584 35.1015625,25.0625 C36.0442755,23.72916 36.515625,21.7812628 36.515625,19.21875 L36.515625,18.03125 Z M46.5,30 L46.5,7.25 L53.21875,7.25 C54.7395909,7.25 56.1275979,7.50520578 57.3828125,8.015625 C58.6380271,8.52604422 59.7161413,9.25259945 60.6171875,10.1953125 C61.5182337,11.1380255 62.2187475,12.276035 62.71875,13.609375 C63.2187525,14.942715 63.46875,16.4322834 63.46875,18.078125 L63.46875,19.203125 C63.46875,20.8489666 63.2213566,22.3359309 62.7265625,23.6640625 C62.2317684,24.9921941 61.5286504,26.1249953 60.6171875,27.0625 C59.7057246,28.0000047 58.6067773,28.7239558 57.3203125,29.234375 C56.0338477,29.7447942 54.6041745,30 53.03125,30 L46.5,30 Z M50.453125,10.4375 L50.453125,26.84375 L53.03125,26.84375 C54.104172,26.84375 55.0468709,26.6692726 55.859375,26.3203125 C56.6718791,25.9713524 57.3463515,25.4687533 57.8828125,24.8125 C58.4192735,24.1562467 58.8229153,23.3541714 59.09375,22.40625 C59.3645847,21.4583286 59.5,20.3906309 59.5,19.203125 L59.5,18.046875 C59.5,15.5781127 58.963547,13.6927148 57.890625,12.390625 C56.817703,11.0885352 55.2604269,10.4375 53.21875,10.4375 L50.453125,10.4375 Z M97.53125,19.21875 C97.53125,20.9479253 97.3046898,22.497389 96.8515625,23.8671875 C96.3984352,25.236986 95.7604208,26.3984327 94.9375,27.3515625 C94.1145792,28.3046923 93.1250058,29.0364558 91.96875,29.546875 C90.8124942,30.0572942 89.531257,30.3125 88.125,30.3125 C86.7291597,30.3125 85.4531308,30.0572942 84.296875,29.546875 C83.1406192,29.0364558 82.1432334,28.3046923 81.3046875,27.3515625 C80.4661416,26.3984327 79.8151065,25.236986 79.3515625,23.8671875 C78.8880185,22.497389 78.65625,20.9479253 78.65625,19.21875 L78.65625,18.0625 C78.65625,16.3333247 78.8880185,14.7812569 79.3515625,13.40625 C79.8151065,12.0312431 80.4609334,10.8645881 81.2890625,9.90625 C82.1171916,8.94791187 83.1093692,8.21354422 84.265625,7.703125 C85.4218808,7.19270578 86.6979097,6.9375 88.09375,6.9375 C89.500007,6.9375 90.7838484,7.19270578 91.9453125,7.703125 C93.1067766,8.21354422 94.1015584,8.94791187 94.9296875,9.90625 C95.7578166,10.8645881 96.3984352,12.0312431 96.8515625,13.40625 C97.3046898,14.7812569 97.53125,16.3333247 97.53125,18.0625 L97.53125,19.21875 Z M93.578125,18.03125 C93.578125,16.7604103 93.4557304,15.6380257 93.2109375,14.6640625 C92.9661446,13.6900993 92.609375,12.8750033 92.140625,12.21875 C91.6718727,11.5624967 91.0963576,11.0651059 90.4140625,10.7265625 C89.7317674,10.3880191 88.9583377,10.21875 88.09375,10.21875 C87.2499958,10.21875 86.4895867,10.3880191 85.8125,10.7265625 C85.1354133,11.0651059 84.5598982,11.5624967 84.0859375,12.21875 C83.6119768,12.8750033 83.2473971,13.6900993 82.9921875,14.6640625 C82.7369779,15.6380257 82.609375,16.7604103 82.609375,18.03125 L82.609375,19.21875 C82.609375,20.4895897 82.7369779,21.6145784 82.9921875,22.59375 C83.2473971,23.5729216 83.6145809,24.3932259 84.09375,25.0546875 C84.5729191,25.7161491 85.1536424,26.2161441 85.8359375,26.5546875 C86.5182326,26.8932309 87.2812458,27.0625 88.125,27.0625 C89.8750088,27.0625 91.2213495,26.39584 92.1640625,25.0625 C93.1067755,23.72916 93.578125,21.7812628 93.578125,19.21875 L93.578125,18.03125 Z M107.421875,21.546875 L107.421875,30 L103.46875,30 L103.46875,7.25 L112.171875,7.25 C113.494798,7.25 114.669266,7.4296857 115.695312,7.7890625 C116.721359,8.1484393 117.588538,8.65103844 118.296875,9.296875 C119.005212,9.94271156 119.544269,10.7083289 119.914062,11.59375 C120.283856,12.4791711 120.46875,13.4427031 120.46875,14.484375 C120.46875,15.5885472 120.283856,16.5781206 119.914062,17.453125 C119.544269,18.3281294 119.005212,19.0677053 118.296875,19.671875 C117.588538,20.2760447 116.721359,20.7395817 115.695312,21.0625 C114.669266,21.3854183 113.494798,21.546875 112.171875,21.546875 L107.421875,21.546875 Z M107.421875,18.375 L112.171875,18.375 C112.932295,18.375 113.585935,18.2812509 114.132812,18.09375 C114.67969,17.9062491 115.130207,17.6406267 115.484375,17.296875 C115.838543,16.9531233 116.096353,16.5442732 116.257812,16.0703125 C116.419272,15.5963518 116.5,15.0781278 116.5,14.515625 C116.5,13.9843723 116.419272,13.4739608 116.257812,12.984375 C116.096353,12.4947892 115.838543,12.0598977 115.484375,11.6796875 C115.130207,11.2994773 114.67969,10.997397 114.132812,10.7734375 C113.585935,10.549478 112.932295,10.4375 112.171875,10.4375 L107.421875,10.4375 L107.421875,18.375 Z M142.359375,10.4375 L135.265625,10.4375 L135.265625,30 L131.34375,30 L131.34375,10.4375 L124.3125,10.4375 L124.3125,7.25 L142.359375,7.25 L142.359375,10.4375 Z M151.515625,30 L147.578125,30 L147.578125,7.25 L151.515625,7.25 L151.515625,30 Z M176.53125,19.21875 C176.53125,20.9479253 176.30469,22.497389 175.851562,23.8671875 C175.398435,25.236986 174.760421,26.3984327 173.9375,27.3515625 C173.114579,28.3046923 172.125006,29.0364558 170.96875,29.546875 C169.812494,30.0572942 168.531257,30.3125 167.125,30.3125 C165.72916,30.3125 164.453131,30.0572942 163.296875,29.546875 C162.140619,29.0364558 161.143233,28.3046923 160.304688,27.3515625 C159.466142,26.3984327 158.815106,25.236986 158.351562,23.8671875 C157.888019,22.497389 157.65625,20.9479253 157.65625,19.21875 L157.65625,18.0625 C157.65625,16.3333247 157.888019,14.7812569 158.351562,13.40625 C158.815106,12.0312431 159.460933,10.8645881 160.289062,9.90625 C161.117192,8.94791187 162.109369,8.21354422 163.265625,7.703125 C164.421881,7.19270578 165.69791,6.9375 167.09375,6.9375 C168.500007,6.9375 169.783848,7.19270578 170.945312,7.703125 C172.106777,8.21354422 173.101558,8.94791187 173.929688,9.90625 C174.757817,10.8645881 175.398435,12.0312431 175.851562,13.40625 C176.30469,14.7812569 176.53125,16.3333247 176.53125,18.0625 L176.53125,19.21875 Z M172.578125,18.03125 C172.578125,16.7604103 172.45573,15.6380257 172.210938,14.6640625 C171.966145,13.6900993 171.609375,12.8750033 171.140625,12.21875 C170.671873,11.5624967 170.096358,11.0651059 169.414062,10.7265625 C168.731767,10.3880191 167.958338,10.21875 167.09375,10.21875 C166.249996,10.21875 165.489587,10.3880191 164.8125,10.7265625 C164.135413,11.0651059 163.559898,11.5624967 163.085938,12.21875 C162.611977,12.8750033 162.247397,13.6900993 161.992188,14.6640625 C161.736978,15.6380257 161.609375,16.7604103 161.609375,18.03125 L161.609375,19.21875 C161.609375,20.4895897 161.736978,21.6145784 161.992188,22.59375 C162.247397,23.5729216 162.614581,24.3932259 163.09375,25.0546875 C163.572919,25.7161491 164.153642,26.2161441 164.835938,26.5546875 C165.518233,26.8932309 166.281246,27.0625 167.125,27.0625 C168.875009,27.0625 170.221349,26.39584 171.164062,25.0625 C172.106776,23.72916 172.578125,21.7812628 172.578125,19.21875 L172.578125,18.03125 Z M200.515625,30 L196.5625,30 L186.421875,13.859375 L186.421875,30 L182.46875,30 L182.46875,7.25 L186.421875,7.25 L196.59375,23.453125 L196.59375,7.25 L200.515625,7.25 L200.515625,30 Z M219.078125,24.140625 C219.078125,23.6822894 219.010417,23.2734393 218.875,22.9140625 C218.739583,22.5546857 218.492189,22.2239598 218.132812,21.921875 C217.773436,21.6197902 217.278649,21.3307305 216.648438,21.0546875 C216.018226,20.7786445 215.208338,20.4895848 214.21875,20.1875 C213.135411,19.8645817 212.135421,19.4947937 211.21875,19.078125 C210.302079,18.6614563 209.513024,18.1770861 208.851562,17.625 C208.190101,17.0729139 207.671877,16.4375 207.296875,15.71875 C206.921873,14.9999964 206.734375,14.177088 206.734375,13.25 C206.734375,12.3333287 206.929686,11.4895872 207.320312,10.71875 C207.710939,9.94791281 208.260413,9.28125281 208.96875,8.71875 C209.677087,8.15624719 210.526037,7.71875156 211.515625,7.40625 C212.505213,7.09374844 213.598952,6.9375 214.796875,6.9375 C216.078131,6.9375 217.229162,7.12239398 218.25,7.4921875 C219.270838,7.86198102 220.132809,8.36458016 220.835938,9 C221.539066,9.63541984 222.078123,10.3723916 222.453125,11.2109375 C222.828127,12.0494834 223.015625,12.9427036 223.015625,13.890625 L219.078125,13.890625 C219.078125,13.3385389 218.992188,12.8307315 218.820312,12.3671875 C218.648437,11.9036435 218.385418,11.5026059 218.03125,11.1640625 C217.677082,10.8255191 217.229169,10.5625009 216.6875,10.375 C216.145831,10.1874991 215.505212,10.09375 214.765625,10.09375 C214.067705,10.09375 213.463544,10.1718742 212.953125,10.328125 C212.442706,10.4843758 212.018231,10.7031236 211.679688,10.984375 C211.341144,11.2656264 211.091147,11.5989564 210.929688,11.984375 C210.768228,12.3697936 210.6875,12.7864561 210.6875,13.234375 C210.6875,14.0781292 211.085934,14.7812472 211.882812,15.34375 C212.679691,15.9062528 213.895825,16.4270809 215.53125,16.90625 C216.812506,17.2812519 217.92187,17.6979144 218.859375,18.15625 C219.79688,18.6145856 220.575518,19.1328096 221.195312,19.7109375 C221.815107,20.2890654 222.27604,20.9401005 222.578125,21.6640625 C222.88021,22.3880245 223.03125,23.2031205 223.03125,24.109375 C223.03125,25.0677131 222.841148,25.9296837 222.460938,26.6953125 C222.080727,27.4609413 221.539066,28.1119765 220.835938,28.6484375 C220.132809,29.1848985 219.281255,29.5963527 218.28125,29.8828125 C217.281245,30.1692723 216.166673,30.3125 214.9375,30.3125 C213.843745,30.3125 212.76563,30.164064 211.703125,29.8671875 C210.64062,29.570311 209.687504,29.1223988 208.84375,28.5234375 C207.999996,27.9244762 207.320315,27.1770878 206.804688,26.28125 C206.28906,25.3854122 206.03125,24.3333394 206.03125,23.125 L209.984375,23.125 C209.984375,23.8437536 210.111978,24.4609349 210.367188,24.9765625 C210.622397,25.4921901 210.971352,25.9140609 211.414062,26.2421875 C211.856773,26.5703141 212.380205,26.8098951 212.984375,26.9609375 C213.588545,27.1119799 214.23958,27.1875 214.9375,27.1875 C216.312507,27.1875 217.346351,26.908857 218.039062,26.3515625 C218.731774,25.794268 219.078125,25.0572963 219.078125,24.140625 Z" id="EQDOPTIONS" fill="#2D3240" fill-rule="nonzero" opacity="0.900000036"></path>
                <path d="M0.5,41.5 L341.536655,41.5" id="Line" stroke="#2D3240" opacity="0.100000001" stroke-linecap="square"></path>
            </g>
        </g>
    </g>
</svg>