<?xml version="1.0" encoding="UTF-8"?>
<svg width="128px" height="16px" viewBox="0 0 128 16" version="1.1" xmlns="http://www.w3.org/2000/svg" xmlns:xlink="http://www.w3.org/1999/xlink">
    <!-- Generator: Sketch 40.3 (33839) - http://www.bohemiancoding.com/sketch -->
    <title>logo-header</title>
    <desc>Created with Sketch.</desc>
    <defs></defs>
    <g id="V3" stroke="none" stroke-width="1" fill="none" fill-rule="evenodd">
        <g id="Desktop-V3" transform="translate(-22.000000, -10.000000)">
            <g id="Header">
                <g id="logo-header" transform="translate(22.000000, 10.000000)">
                    <path d="M93.7183334,12.74 C93.8250006,12.8466672 93.8783334,12.9733326 93.8783334,13.12 L93.8783334,14.46 C93.8783334,14.6066674 93.8250006,14.7333328 93.7183334,14.84 C93.6116662,14.9466672 93.4850008,15 93.3383334,15 L91.9983334,15 C91.851666,15 91.7250006,14.9466672 91.6183334,14.84 C91.5116662,14.7333328 91.4583334,14.6066674 91.4583334,14.46 L91.4583334,13.12 C91.4583334,12.9733326 91.5116662,12.8466672 91.6183334,12.74 C91.7250006,12.6333328 91.851666,12.58 91.9983334,12.58 L93.3383334,12.58 C93.4850008,12.58 93.6116662,12.6333328 93.7183334,12.74 L93.7183334,12.74 Z M98.715,14.84 C98.6083328,14.9466672 98.4816674,15 98.335,15 L97.595,15 C97.4483326,15 97.3216672,14.9466672 97.215,14.84 C97.1083328,14.7333328 97.055,14.6066674 97.055,14.46 L97.055,1.34 C97.055,1.1933326 97.1083328,1.0666672 97.215,0.96 C97.3216672,0.8533328 97.4483326,0.8 97.595,0.8 L98.335,0.8 C98.4816674,0.8 98.6083328,0.8533328 98.715,0.96 C98.8216672,1.0666672 98.875,1.1933326 98.875,1.34 L98.875,14.46 C98.875,14.6066674 98.8216672,14.7333328 98.715,14.84 L98.715,14.84 Z M104.151667,2.86 C104.044999,2.9666672 103.918334,3.02 103.771667,3.02 L102.631667,3.02 C102.484999,3.02 102.358334,2.9666672 102.251667,2.86 C102.144999,2.7533328 102.091667,2.6266674 102.091667,2.48 L102.091667,1.34 C102.091667,1.1933326 102.144999,1.0666672 102.251667,0.96 C102.358334,0.8533328 102.484999,0.8 102.631667,0.8 L103.771667,0.8 C103.918334,0.8 104.044999,0.8533328 104.151667,0.96 C104.258334,1.0666672 104.311667,1.1933326 104.311667,1.34 L104.311667,2.48 C104.311667,2.6266674 104.258334,2.7533328 104.151667,2.86 L104.151667,2.86 Z M103.951667,14.84 C103.844999,14.9466672 103.718334,15 103.571667,15 L102.831667,15 C102.684999,15 102.558334,14.9466672 102.451667,14.84 C102.344999,14.7333328 102.291667,14.6066674 102.291667,14.46 L102.291667,5.14 C102.291667,4.9933326 102.344999,4.8666672 102.451667,4.76 C102.558334,4.6533328 102.684999,4.6 102.831667,4.6 L103.571667,4.6 C103.718334,4.6 103.844999,4.6533328 103.951667,4.76 C104.058334,4.8666672 104.111667,4.9933326 104.111667,5.14 L104.111667,14.46 C104.111667,14.6066674 104.058334,14.7333328 103.951667,14.84 L103.951667,14.84 Z M112.608333,14.5 L116.588333,5.22 C116.601667,5.1799998 116.608333,5.1333336 116.608333,5.08 C116.608333,4.946666 116.561667,4.8333338 116.468333,4.74 C116.375,4.6466662 116.261667,4.6 116.128333,4.6 L115.308333,4.6 C115.041665,4.6 114.848334,4.7599984 114.728333,5.08 L111.628333,12.34 L108.528333,5.08 C108.408333,4.7599984 108.188335,4.6 107.868333,4.6 L107.128333,4.6 C106.994999,4.6 106.881667,4.6466662 106.788333,4.74 C106.695,4.8333338 106.648333,4.946666 106.648333,5.08 C106.648333,5.1333336 106.655,5.1799998 106.668333,5.22 L110.648333,14.5 C110.781667,14.833335 110.988332,15 111.268333,15 L112.008333,15 C112.275001,15 112.474999,14.833335 112.608333,14.5 L112.608333,14.5 Z M126.225,5.76 C127.051671,6.6666712 127.465,7.8999922 127.465,9.46 L127.465,10 C127.465,10.1466674 127.411667,10.2733328 127.305,10.38 C127.198333,10.4866672 127.071667,10.54 126.925,10.54 L120.045,10.54 L120.045,10.66 C120.071667,11.5400044 120.341664,12.2299975 120.855,12.73 C121.368336,13.2300025 122.031663,13.48 122.845,13.48 C123.51167,13.48 124.028331,13.3933342 124.395,13.22 C124.761668,13.0466658 125.091665,12.8000016 125.385,12.48 C125.491667,12.3733328 125.588333,12.3000002 125.675,12.26 C125.761667,12.2199998 125.878333,12.2 126.025,12.2 L126.625,12.2 C126.785001,12.2 126.918333,12.2533328 127.025,12.36 C127.131667,12.4666672 127.178333,12.5933326 127.165,12.74 C127.111666,13.1000018 126.915002,13.4699981 126.575,13.85 C126.234998,14.2300019 125.748336,14.5499987 125.115,14.81 C124.481663,15.0700013 123.725004,15.2 122.845,15.2 C121.991662,15.2 121.23167,15.0033353 120.565,14.61 C119.89833,14.2166647 119.368335,13.6733368 118.975,12.98 C118.581665,12.2866632 118.345,11.506671 118.265,10.64 C118.238333,10.239998 118.225,9.9333344 118.225,9.72 C118.225,9.5066656 118.238333,9.200002 118.265,8.8 C118.345,7.9733292 118.581665,7.22667 118.975,6.56 C119.368335,5.89333 119.894997,5.3666686 120.555,4.98 C121.215003,4.5933314 121.978329,4.4 122.845,4.4 C124.271674,4.4 125.398329,4.8533288 126.225,5.76 L126.225,5.76 Z M125.665,8.86 L125.665,8.8 C125.665,7.9866626 125.408336,7.3366691 124.895,6.85 C124.381664,6.3633309 123.698338,6.12 122.845,6.12 C122.071663,6.12 121.415003,6.3666642 120.875,6.86 C120.334997,7.3533358 120.058333,7.999996 120.045,8.8 L120.045,8.86 L125.665,8.86 Z" id=".live" fill="#FF0927"></path>
                    <path d="M13.1816667,5.08 C13.3016673,4.7599984 13.5283317,4.6 13.8616667,4.6 L14.5216667,4.6 C14.6550007,4.6 14.7683329,4.6466662 14.8616667,4.74 C14.9550005,4.8333338 15.0016667,4.946666 15.0016667,5.08 L14.9816667,5.24 L11.9216667,14.44 C11.8016661,14.8133352 11.6016681,15 11.3216667,15 L10.7016667,15 C10.5416659,15 10.4150005,14.9500005 10.3216667,14.85 C10.2283329,14.7499995 10.1483337,14.6133342 10.0816667,14.44 L7.7016667,7.8 L5.3216667,14.44 C5.2549997,14.6133342 5.1750005,14.7499995 5.0816667,14.85 C4.9883329,14.9500005 4.8616675,15 4.7016667,15 L4.0816667,15 C3.8016653,15 3.6016673,14.8133352 3.4816667,14.44 L0.421666701,5.24 L0.401666701,5.08 C0.401666701,4.946666 0.448332901,4.8333338 0.541666701,4.74 C0.635000501,4.6466662 0.748332701,4.6 0.881666701,4.6 L1.5416667,4.6 C1.8750017,4.6 2.1016661,4.7599984 2.2216667,5.08 L4.4616667,11.76 L6.8616667,5.08 C6.9816673,4.7599984 7.1883319,4.6 7.4816667,4.6 L7.9216667,4.6 C8.2150015,4.6 8.4216661,4.7599984 8.5416667,5.08 L10.9416667,11.76 L13.1816667,5.08 Z M24.8383334,5.76 C25.6650042,6.6666712 26.0783334,7.8999922 26.0783334,9.46 L26.0783334,10 C26.0783334,10.1466674 26.0250006,10.2733328 25.9183334,10.38 C25.8116662,10.4866672 25.6850008,10.54 25.5383334,10.54 L18.6583334,10.54 L18.6583334,10.66 C18.6850002,11.5400044 18.9549975,12.2299975 19.4683334,12.73 C19.9816693,13.2300025 20.644996,13.48 21.4583334,13.48 C22.1250034,13.48 22.6416649,13.3933342 23.0083334,13.22 C23.3750019,13.0466658 23.7049986,12.8000016 23.9983334,12.48 C24.1050006,12.3733328 24.2016663,12.3000002 24.2883334,12.26 C24.3750005,12.2199998 24.491666,12.2 24.6383334,12.2 L25.2383334,12.2 C25.3983342,12.2 25.5316662,12.2533328 25.6383334,12.36 C25.7450006,12.4666672 25.7916668,12.5933326 25.7783334,12.74 C25.7249998,13.1000018 25.5283351,13.4699981 25.1883334,13.85 C24.8483317,14.2300019 24.3616699,14.5499987 23.7283334,14.81 C23.0949969,15.0700013 22.3383378,15.2 21.4583334,15.2 C20.6049958,15.2 19.8450034,15.0033353 19.1783334,14.61 C18.5116634,14.2166647 17.9816687,13.6733368 17.5883334,12.98 C17.1949981,12.2866632 16.9583338,11.506671 16.8783334,10.64 C16.8516666,10.239998 16.8383334,9.9333344 16.8383334,9.72 C16.8383334,9.5066656 16.8516666,9.200002 16.8783334,8.8 C16.9583338,7.9733292 17.1949981,7.22667 17.5883334,6.56 C17.9816687,5.89333 18.5083301,5.3666686 19.1683334,4.98 C19.8283367,4.5933314 20.5916624,4.4 21.4583334,4.4 C22.8850072,4.4 24.0116626,4.8533288 24.8383334,5.76 L24.8383334,5.76 Z M24.2783334,8.86 L24.2783334,8.8 C24.2783334,7.9866626 24.0216693,7.3366691 23.5083334,6.85 C22.9949975,6.3633309 22.311671,6.12 21.4583334,6.12 C20.6849962,6.12 20.0283361,6.3666642 19.4883334,6.86 C18.9483307,7.3533358 18.6716668,7.999996 18.6583334,8.8 L18.6583334,8.86 L24.2783334,8.86 Z M31.815,4.77 C32.215002,4.5233321 32.74833,4.4 33.415,4.4 C34.9750078,4.4 36.0683302,4.9799942 36.695,6.14 C37.0816686,5.5799972 37.5216642,5.1500015 38.015,4.85 C38.5083358,4.5499985 39.154996,4.4 39.955,4.4 C41.2616732,4.4 42.2316635,4.7933294 42.865,5.58 C43.4983365,6.3666706 43.815,7.4799928 43.815,8.92 L43.815,14.46 C43.815,14.6066674 43.7616672,14.7333328 43.655,14.84 C43.5483328,14.9466672 43.4216674,15 43.275,15 L42.535,15 C42.3883326,15 42.2616672,14.9466672 42.155,14.84 C42.0483328,14.7333328 41.995,14.6066674 41.995,14.46 L41.995,9.12 C41.995,7.11999 41.2083412,6.12 39.635,6.12 C38.9149964,6.12 38.3416688,6.3599976 37.915,6.84 C37.4883312,7.3200024 37.275,8.0333286 37.275,8.98 L37.275,14.46 C37.275,14.6066674 37.2216672,14.7333328 37.115,14.84 C37.0083328,14.9466672 36.8816674,15 36.735,15 L35.995,15 C35.8483326,15 35.7216672,14.9466672 35.615,14.84 C35.5083328,14.7333328 35.455,14.6066674 35.455,14.46 L35.455,9.12 C35.455,7.11999 34.6683412,6.12 33.095,6.12 C32.3749964,6.12 31.8016688,6.3599976 31.375,6.84 C30.9483312,7.3200024 30.735,8.0333286 30.735,8.98 L30.735,14.46 C30.735,14.6066674 30.6816672,14.7333328 30.575,14.84 C30.4683328,14.9466672 30.3416674,15 30.195,15 L29.455,15 C29.3083326,15 29.1816672,14.9466672 29.075,14.84 C28.9683328,14.7333328 28.915,14.6066674 28.915,14.46 L28.915,5.14 C28.915,4.9933326 28.9683328,4.8666672 29.075,4.76 C29.1816672,4.6533328 29.3083326,4.6 29.455,4.6 L30.195,4.6 C30.3416674,4.6 30.4683328,4.6533328 30.575,4.76 C30.6816672,4.8666672 30.735,4.9933326 30.735,5.14 L30.735,5.76 C31.0550016,5.3466646 31.414998,5.0166679 31.815,4.77 L31.815,4.77 Z M53.3116667,8.42 L53.3116667,8.16 C53.3116667,7.5066634 53.0950022,7.0033351 52.6616667,6.65 C52.2283312,6.2966649 51.6650035,6.12 50.9716667,6.12 C50.4383307,6.12 50.0216682,6.2099991 49.7216667,6.39 C49.4216652,6.5700009 49.1383347,6.8399982 48.8716667,7.2 C48.7916663,7.3066672 48.7050005,7.3799998 48.6116667,7.42 C48.5183329,7.4600002 48.3916675,7.48 48.2316667,7.48 L47.6316667,7.48 C47.4849993,7.48 47.3550006,7.4266672 47.2416667,7.32 C47.1283328,7.2133328 47.0783333,7.0866674 47.0916667,6.94 C47.1316669,6.539998 47.3283316,6.1433353 47.6816667,5.75 C48.0350018,5.3566647 48.5049971,5.0333346 49.0916667,4.78 C49.6783363,4.5266654 50.3049967,4.4 50.9716667,4.4 C52.2116729,4.4 53.2149962,4.7466632 53.9816667,5.44 C54.7483372,6.1333368 55.1316667,7.1066604 55.1316667,8.36 L55.1316667,14.46 C55.1316667,14.6066674 55.0783339,14.7333328 54.9716667,14.84 C54.8649995,14.9466672 54.7383341,15 54.5916667,15 L53.8516667,15 C53.7049993,15 53.5783339,14.9466672 53.4716667,14.84 C53.3649995,14.7333328 53.3116667,14.6066674 53.3116667,14.46 L53.3116667,13.64 C53.0983323,14.1200024 52.6450035,14.4999986 51.9516667,14.78 C51.2583299,15.0600014 50.5650035,15.2 49.8716667,15.2 C49.1916633,15.2 48.5850027,15.0766679 48.0516667,14.83 C47.5183307,14.5833321 47.1083348,14.2466688 46.8216667,13.82 C46.5349986,13.3933312 46.3916667,12.913336 46.3916667,12.38 C46.3916667,11.379995 46.7649963,10.5966695 47.5116667,10.03 C48.2583371,9.4633305 49.2516605,9.080001 50.4916667,8.88 L53.3116667,8.42 Z M53.3116667,10.02 L50.9516667,10.4 C50.0849957,10.533334 49.4116691,10.7499985 48.9316667,11.05 C48.4516643,11.3500015 48.2116667,11.7266644 48.2116667,12.18 C48.2116667,12.513335 48.3649985,12.813332 48.6716667,13.08 C48.9783349,13.346668 49.4449969,13.48 50.0716667,13.48 C51.0316715,13.48 51.8116637,13.2066694 52.4116667,12.66 C53.0116697,12.1133306 53.3116667,11.4000044 53.3116667,10.52 L53.3116667,10.02 Z M61.4183333,12.82 C61.6516678,13.1266682 62.0949967,13.28 62.7483333,13.28 L63.8083333,13.28 C63.9550007,13.28 64.0816661,13.3333328 64.1883333,13.44 C64.2950005,13.5466672 64.3483333,13.6733326 64.3483333,13.82 L64.3483333,14.46 C64.3483333,14.6066674 64.2950005,14.7333328 64.1883333,14.84 C64.0816661,14.9466672 63.9550007,15 63.8083333,15 L62.5483333,15 C61.4149943,15 60.5816693,14.7033363 60.0483333,14.11 C59.5149973,13.5166637 59.2483333,12.6466724 59.2483333,11.5 L59.2483333,6.32 L57.7683333,6.32 C57.6216659,6.32 57.4950005,6.2666672 57.3883333,6.16 C57.2816661,6.0533328 57.2283333,5.9266674 57.2283333,5.78 L57.2283333,5.14 C57.2283333,4.9933326 57.2816661,4.8666672 57.3883333,4.76 C57.4950005,4.6533328 57.6216659,4.6 57.7683333,4.6 L59.2483333,4.6 L59.2483333,1.34 C59.2483333,1.1933326 59.3016661,1.0666672 59.4083333,0.96 C59.5150005,0.8533328 59.6416659,0.8 59.7883333,0.8 L60.5283333,0.8 C60.6750007,0.8 60.8016661,0.8533328 60.9083333,0.96 C61.0150005,1.0666672 61.0683333,1.1933326 61.0683333,1.34 L61.0683333,4.6 L63.6083333,4.6 C63.7550007,4.6 63.8816661,4.6533328 63.9883333,4.76 C64.0950005,4.8666672 64.1483333,4.9933326 64.1483333,5.14 L64.1483333,5.78 C64.1483333,5.9266674 64.0950005,6.0533328 63.9883333,6.16 C63.8816661,6.2666672 63.7550007,6.32 63.6083333,6.32 L61.0683333,6.32 L61.0683333,11.5 C61.0683333,12.0733362 61.1849988,12.5133318 61.4183333,12.82 L61.4183333,12.82 Z M73.665,11.92 C73.7583338,11.719999 73.8516662,11.5800004 73.945,11.5 C74.0383338,11.4199996 74.1649992,11.38 74.325,11.38 L74.925,11.38 C75.0716674,11.38 75.1983328,11.4299995 75.305,11.53 C75.4116672,11.6300005 75.465,11.746666 75.465,11.88 C75.465,12.3333356 75.2850018,12.8199974 74.925,13.34 C74.5649982,13.8600026 74.0450034,14.2999982 73.365,14.66 C72.6849966,15.0200018 71.8850046,15.2 70.965,15.2 C70.0183286,15.2 69.1983368,15.000002 68.505,14.6 C67.8116632,14.199998 67.2783352,13.6500035 66.905,12.95 C66.5316648,12.2499965 66.3250002,11.466671 66.285,10.6 C66.2716666,10.4399992 66.265,10.1333356 66.265,9.68 C66.265,9.3599984 66.2716666,9.133334 66.285,9 C66.4050006,7.6399932 66.864996,6.5333376 67.665,5.68 C68.465004,4.8266624 69.564993,4.4 70.965,4.4 C71.8850046,4.4 72.6816633,4.5766649 73.355,4.93 C74.0283367,5.2833351 74.5416649,5.7166641 74.895,6.23 C75.2483351,6.7433359 75.4383332,7.2266644 75.465,7.68 C75.4783334,7.8266674 75.4283339,7.9533328 75.315,8.06 C75.2016661,8.1666672 75.0716674,8.22 74.925,8.22 L74.325,8.22 C74.1649992,8.22 74.0383338,8.1800004 73.945,8.1 C73.8516662,8.0199996 73.7583338,7.880001 73.665,7.68 C73.198331,6.6399948 72.29834,6.12 70.965,6.12 C70.231663,6.12 69.5916694,6.3666642 69.045,6.86 C68.4983306,7.3533358 68.1850004,8.099995 68.105,9.1 C68.0916666,9.2466674 68.085,9.486665 68.085,9.82 C68.085,10.1266682 68.0916666,10.3533326 68.105,10.5 C68.1983338,11.500005 68.5149973,12.2466642 69.055,12.74 C69.5950027,13.2333358 70.231663,13.48 70.965,13.48 C72.29834,13.48 73.198331,12.9600052 73.665,11.92 L73.665,11.92 Z M87.3616666,14.84 C87.2549994,14.9466672 87.128334,15 86.9816666,15 L86.2416666,15 C86.0949992,15 85.9683338,14.9466672 85.8616666,14.84 C85.7549994,14.7333328 85.7016666,14.6066674 85.7016666,14.46 L85.7016666,9.18 C85.7016666,8.179995 85.4550024,7.4200026 84.9616666,6.9 C84.4683308,6.3799974 83.781671,6.12 82.9016666,6.12 C82.0349956,6.12 81.3516691,6.3799974 80.8516666,6.9 C80.3516641,7.4200026 80.1016666,8.179995 80.1016666,9.18 L80.1016666,14.46 C80.1016666,14.6066674 80.0483338,14.7333328 79.9416666,14.84 C79.8349994,14.9466672 79.708334,15 79.5616666,15 L78.8216666,15 C78.6749992,15 78.5483338,14.9466672 78.4416666,14.84 C78.3349994,14.7333328 78.2816666,14.6066674 78.2816666,14.46 L78.2816666,1.34 C78.2816666,1.1933326 78.3349994,1.0666672 78.4416666,0.96 C78.5483338,0.8533328 78.6749992,0.8 78.8216666,0.8 L79.5616666,0.8 C79.708334,0.8 79.8349994,0.8533328 79.9416666,0.96 C80.0483338,1.0666672 80.1016666,1.1933326 80.1016666,1.34 L80.1016666,5.76 C80.3950014,5.3733314 80.7983307,5.0500013 81.3116666,4.79 C81.8250025,4.5299987 82.4549962,4.4 83.2016666,4.4 C84.0416708,4.4 84.78833,4.5799982 85.4416666,4.94 C86.0950032,5.3000018 86.6049981,5.8166633 86.9716666,6.49 C87.3383351,7.1633367 87.5216666,7.9599954 87.5216666,8.88 L87.5216666,14.46 C87.5216666,14.6066674 87.4683338,14.7333328 87.3616666,14.84 L87.3616666,14.84 Z" fill="#2C323F"></path>
                </g>
            </g>
        </g>
    </g>
</svg>