<?xml version="1.0" encoding="UTF-8"?>
<svg width="390px" height="99px" viewBox="0 0 390 99" version="1.1" xmlns="http://www.w3.org/2000/svg" xmlns:xlink="http://www.w3.org/1999/xlink">
    <!-- Generator: Sketch 49.3 (51167) - http://www.bohemiancoding.com/sketch -->
    <title>logo-header-eqd</title>
    <desc>Created with Sketch.</desc>
    <defs></defs>
    <g id="logo-header-eqd" stroke="none" stroke-width="1" fill="none" fill-rule="evenodd">
        <g id="logo-template" transform="translate(20.000000, 20.000000)">
            <g id="Group" transform="translate(162.000000, 43.000000)">
                <path d="M18.3367769,6.24166667 C18.508954,5.77499767 18.8341727,5.54166667 19.3124426,5.54166667 L20.2594123,5.54166667 C20.4507203,5.54166667 20.6133296,5.60972154 20.7472452,5.74583333 C20.8811608,5.88194513 20.9481175,6.04722125 20.9481175,6.24166667 L20.9194215,6.475 L16.5289256,19.8916667 C16.3567485,20.4361138 16.0697908,20.7083333 15.6680441,20.7083333 L14.7784665,20.7083333 C14.5488969,20.7083333 14.3671571,20.6354174 14.2332415,20.4895833 C14.0993259,20.3437493 13.9845429,20.1444457 13.8888889,19.8916667 L10.4740588,10.2083333 L7.05922865,19.8916667 C6.96357467,20.1444457 6.84879161,20.3437493 6.71487603,20.4895833 C6.58096046,20.6354174 6.39922062,20.7083333 6.16965106,20.7083333 L5.28007346,20.7083333 C4.87832673,20.7083333 4.59136909,20.4361138 4.41919192,19.8916667 L0.0286960514,6.475 L0,6.24166667 C0,6.04722125 0.0669567837,5.88194513 0.20087236,5.74583333 C0.334787936,5.60972154 0.497397268,5.54166667 0.688705234,5.54166667 L1.63567493,5.54166667 C2.11394485,5.54166667 2.43916351,5.77499767 2.61134068,6.24166667 L5.82529844,15.9833333 L9.26882461,6.24166667 C9.44100178,5.77499767 9.73752468,5.54166667 10.1584022,5.54166667 L10.7897153,5.54166667 C11.2105929,5.54166667 11.5071158,5.77499767 11.6792929,6.24166667 L15.1228191,15.9833333 L18.3367769,6.24166667 Z M35.0617922,7.23333333 C36.2479016,8.55556217 36.8409474,10.3541553 36.8409474,12.6291667 L36.8409474,13.4166667 C36.8409474,13.6305566 36.7644253,13.815277 36.6113789,13.9708333 C36.4583326,14.1263897 36.2765927,14.2041667 36.066154,14.2041667 L26.1947123,14.2041667 L26.1947123,14.3791667 C26.2329739,15.6625064 26.6203667,16.6687464 27.3569024,17.3979167 C28.093438,18.127087 29.0451809,18.4916667 30.2121595,18.4916667 C31.1686993,18.4916667 31.9100066,18.365279 32.4361035,18.1125 C32.9622004,17.859721 33.4356805,17.5000023 33.856558,17.0333333 C34.0096044,16.877777 34.1483006,16.7708336 34.2726507,16.7125 C34.3970009,16.6541664 34.5643929,16.625 34.7748316,16.625 L35.6357132,16.625 C35.8652828,16.625 36.0565878,16.702777 36.2096342,16.8583333 C36.3626806,17.0138897 36.4296374,17.19861 36.4105066,17.4125 C36.3339834,17.9375026 36.0518084,18.4770806 35.5639731,19.03125 C35.0761378,19.5854194 34.3778741,20.0520814 33.4691613,20.43125 C32.5604485,20.8104186 31.474792,21 30.2121595,21 C28.9877885,21 27.8973494,20.7131973 26.9408096,20.1395833 C25.9842698,19.5659694 25.223832,18.7736162 24.6594735,17.7625 C24.095115,16.7513838 23.7555485,15.6138952 23.6407637,14.35 C23.6025021,13.7666638 23.5833716,13.319446 23.5833716,13.0083333 C23.5833716,12.6972207 23.6025021,12.2500029 23.6407637,11.6666667 C23.7555485,10.4611051 24.095115,9.37222708 24.6594735,8.4 C25.223832,7.42777292 25.9794872,6.65972504 26.9264616,6.09583333 C27.873436,5.53194163 28.9686577,5.25 30.2121595,5.25 C32.2591547,5.25 33.8756828,5.9111045 35.0617922,7.23333333 Z M34.2583027,11.7541667 L34.2583027,11.6666667 C34.2583027,10.4805496 33.8900404,9.53264244 33.1535047,8.82291667 C32.4169691,8.1131909 31.4365305,7.75833333 30.2121595,7.75833333 C29.1025733,7.75833333 28.1603957,8.11805196 27.3855984,8.8375 C26.6108011,9.55694804 26.2138431,10.4999942 26.1947123,11.6666667 L26.1947123,11.7541667 L34.2583027,11.7541667 Z M45.0719314,5.78958333 C45.6458553,5.42985931 46.4110757,5.25 47.3676155,5.25 C49.6059188,5.25 51.1746205,6.09582488 52.073768,7.7875 C52.6285611,6.97082925 53.2598679,6.34375219 53.9677074,5.90625 C54.6755469,5.46874781 55.6033766,5.25 56.7512244,5.25 C58.6260424,5.25 60.017787,5.82360538 60.9264998,6.97083333 C61.8352127,8.11806129 62.2895623,9.74165617 62.2895623,11.8416667 L62.2895623,19.9208333 C62.2895623,20.1347233 62.2130403,20.3194437 62.0599939,20.475 C61.9069475,20.6305563 61.7252077,20.7083333 61.5147689,20.7083333 L60.453015,20.7083333 C60.2425762,20.7083333 60.0608364,20.6305563 59.90779,20.475 C59.7547436,20.3194437 59.6782216,20.1347233 59.6782216,19.9208333 L59.6782216,12.1333333 C59.6782216,9.21665208 58.5495215,7.75833333 56.2920875,7.75833333 C55.2590245,7.75833333 54.4364126,8.10832983 53.8242271,8.80833333 C53.2120416,9.50833683 52.9059535,10.5486042 52.9059535,11.9291667 L52.9059535,19.9208333 C52.9059535,20.1347233 52.8294314,20.3194437 52.6763851,20.475 C52.5233387,20.6305563 52.3415988,20.7083333 52.1311601,20.7083333 L51.0694062,20.7083333 C50.8589674,20.7083333 50.6772276,20.6305563 50.5241812,20.475 C50.3711348,20.3194437 50.2946128,20.1347233 50.2946128,19.9208333 L50.2946128,12.1333333 C50.2946128,9.21665208 49.1659127,7.75833333 46.9084787,7.75833333 C45.8754157,7.75833333 45.0528038,8.10832983 44.4406183,8.80833333 C43.8284328,9.50833683 43.5223447,10.5486042 43.5223447,11.9291667 L43.5223447,19.9208333 C43.5223447,20.1347233 43.4458226,20.3194437 43.2927762,20.475 C43.1397299,20.6305563 42.95799,20.7083333 42.7475513,20.7083333 L41.6857974,20.7083333 C41.4753586,20.7083333 41.2936188,20.6305563 41.1405724,20.475 C40.987526,20.3194437 40.911004,20.1347233 40.911004,19.9208333 L40.911004,6.32916667 C40.911004,6.11527671 40.987526,5.93055633 41.1405724,5.775 C41.2936188,5.61944367 41.4753586,5.54166667 41.6857974,5.54166667 L42.7475513,5.54166667 C42.95799,5.54166667 43.1397299,5.61944367 43.2927762,5.775 C43.4458226,5.93055633 43.5223447,6.11527671 43.5223447,6.32916667 L43.5223447,7.23333333 C43.9814838,6.63055254 44.4980075,6.14930735 45.0719314,5.78958333 Z M75.915404,11.1125 L75.915404,10.7333333 C75.915404,9.78055079 75.6045333,9.04653035 74.9827824,8.53125 C74.3610315,8.01596965 73.5527674,7.75833333 72.557966,7.75833333 C71.7927342,7.75833333 71.1949057,7.88958202 70.7644628,8.15208333 C70.3340199,8.41458465 69.9274966,8.80833071 69.5448806,9.33333333 C69.4300958,9.48888967 69.3057475,9.59583304 69.171832,9.65416667 C69.0379164,9.71250029 68.8561765,9.74166667 68.626607,9.74166667 L67.7657254,9.74166667 C67.5552867,9.74166667 67.3687642,9.66388967 67.2061524,9.50833333 C67.0435407,9.352777 66.9718013,9.16805663 66.990932,8.95416667 C67.0483244,8.37083042 67.3304995,7.79236398 67.8374656,7.21875 C68.3444317,6.64513602 69.0187821,6.17361296 69.8605372,5.80416667 C70.7022922,5.43472037 71.6014262,5.25 72.557966,5.25 C74.3371301,5.25 75.776701,5.7555505 76.8767218,6.76666667 C77.9767426,7.77778283 78.5267447,9.19721308 78.5267447,11.025 L78.5267447,19.9208333 C78.5267447,20.1347233 78.4502227,20.3194437 78.2971763,20.475 C78.1441299,20.6305563 77.9623901,20.7083333 77.7519513,20.7083333 L76.6901974,20.7083333 C76.4797587,20.7083333 76.2980188,20.6305563 76.1449725,20.475 C75.9919261,20.3194437 75.915404,20.1347233 75.915404,19.9208333 L75.915404,18.725 C75.6093113,19.4250035 74.958874,19.9791646 73.9640725,20.3875 C72.9692711,20.7958354 71.9744846,21 70.9796832,21 C70.0040126,21 69.1335744,20.8201407 68.3683425,20.4604167 C67.6031107,20.1006926 67.0148475,19.6097253 66.6035354,18.9875 C66.1922232,18.3652747 65.9865702,17.6652817 65.9865702,16.8875 C65.9865702,15.4291594 66.5222245,14.2868097 67.5935491,13.4604167 C68.6648737,12.6340236 70.0900967,12.0750015 71.8692608,11.7833333 L75.915404,11.1125 Z M75.915404,13.4458333 L72.52927,14 C71.2857682,14.1944454 70.3196775,14.5104145 69.6309688,14.9479167 C68.9422601,15.3854189 68.5979109,15.9347189 68.5979109,16.5958333 C68.5979109,17.0819469 68.8179118,17.5194425 69.2579201,17.9083333 C69.6979284,18.2972242 70.3674963,18.4916667 71.2666437,18.4916667 C72.6440611,18.4916667 73.7631959,18.0930595 74.6240817,17.2958333 C75.4849676,16.4986071 75.915404,15.4583398 75.915404,14.175 L75.915404,13.4458333 Z M87.5468702,17.5291667 C87.8816592,17.9763911 88.5177486,18.2 89.4551576,18.2 L90.9760484,18.2 C91.1864871,18.2 91.368227,18.277777 91.5212733,18.4333333 C91.6743197,18.5888897 91.7508418,18.77361 91.7508418,18.9875 L91.7508418,19.9208333 C91.7508418,20.1347233 91.6743197,20.3194437 91.5212733,20.475 C91.368227,20.6305563 91.1864871,20.7083333 90.9760484,20.7083333 L89.1681971,20.7083333 C87.5420794,20.7083333 86.3464226,20.2756988 85.5811907,19.4104167 C84.8159588,18.5451346 84.4333486,17.2763973 84.4333486,15.6041667 L84.4333486,8.05 L82.3098408,8.05 C82.0994021,8.05 81.9176622,7.972223 81.7646159,7.81666667 C81.6115695,7.66111033 81.5350474,7.47638996 81.5350474,7.2625 L81.5350474,6.32916667 C81.5350474,6.11527671 81.6115695,5.93055633 81.7646159,5.775 C81.9176622,5.61944367 82.0994021,5.54166667 82.3098408,5.54166667 L84.4333486,5.54166667 L84.4333486,0.7875 C84.4333486,0.573610042 84.5098707,0.388889667 84.662917,0.233333333 C84.8159634,0.077777 84.9977033,0 85.208142,0 L86.2698959,0 C86.4803347,0 86.6620745,0.077777 86.8151209,0.233333333 C86.9681673,0.388889667 87.0446893,0.573610042 87.0446893,0.7875 L87.0446893,5.54166667 L90.6890878,5.54166667 C90.8995266,5.54166667 91.0812665,5.61944367 91.2343128,5.775 C91.3873592,5.93055633 91.4638812,6.11527671 91.4638812,6.32916667 L91.4638812,7.2625 C91.4638812,7.47638996 91.3873592,7.66111033 91.2343128,7.81666667 C91.0812665,7.972223 90.8995266,8.05 90.6890878,8.05 L87.0446893,8.05 L87.0446893,15.6041667 C87.0446893,16.440282 87.2120813,17.0819422 87.5468702,17.5291667 Z M105.118419,16.2166667 C105.252335,15.9249985 105.386248,15.7208339 105.520164,15.6041667 C105.654079,15.4874994 105.835819,15.4291667 106.065389,15.4291667 L106.92627,15.4291667 C107.136709,15.4291667 107.318449,15.5020826 107.471495,15.6479167 C107.624542,15.7937507 107.701064,15.9638879 107.701064,16.1583333 C107.701064,16.8194478 107.442802,17.5291629 106.92627,18.2875 C106.409739,19.0458371 105.663649,19.6874974 104.687978,20.2125 C103.712308,20.7375026 102.564477,21 101.244452,21 C99.8861655,21 98.7096392,20.7083363 97.7148378,20.125 C96.7200363,19.5416638 95.954816,18.7395884 95.4191537,17.71875 C94.8834914,16.6979116 94.5869685,15.5555619 94.5295761,14.2916667 C94.5104453,14.0583322 94.50088,13.6111144 94.50088,12.95 C94.50088,12.483331 94.5104453,12.1527788 94.5295761,11.9583333 C94.7017532,9.97499008 95.3617558,8.36111733 96.5096036,7.11666667 C97.6574514,5.872216 99.2357185,5.25 101.244452,5.25 C102.564477,5.25 103.707525,5.50763631 104.67363,6.02291667 C105.639735,6.53819702 106.37626,7.17013515 106.883226,7.91875 C107.390192,8.66736485 107.662802,9.37221892 107.701064,10.0333333 C107.720194,10.2472233 107.648455,10.4319437 107.485843,10.5875 C107.323232,10.7430563 107.136709,10.8208333 106.92627,10.8208333 L106.065389,10.8208333 C105.835819,10.8208333 105.654079,10.7625006 105.520164,10.6458333 C105.386248,10.5291661 105.252335,10.3250015 105.118419,10.0333333 C104.448841,8.51665908 103.157532,7.75833333 101.244452,7.75833333 C100.192258,7.75833333 99.2739938,8.11805196 98.4896312,8.8375 C97.7052685,9.55694804 97.2557015,10.645826 97.1409167,12.1041667 C97.1217859,12.3180566 97.1122207,12.6680531 97.1122207,13.1541667 C97.1122207,13.6013911 97.1217859,13.9319434 97.1409167,14.1458333 C97.2748323,15.604174 97.7291819,16.693052 98.5039792,17.4125 C99.2787764,18.131948 100.192258,18.4916667 101.244452,18.4916667 C103.157532,18.4916667 104.448841,17.7333409 105.118419,16.2166667 Z M124.770432,20.475 C124.617385,20.6305563 124.435645,20.7083333 124.225207,20.7083333 L123.163453,20.7083333 C122.953014,20.7083333 122.771274,20.6305563 122.618228,20.475 C122.465181,20.3194437 122.388659,20.1347233 122.388659,19.9208333 L122.388659,12.2208333 C122.388659,10.7624927 122.034745,9.65417046 121.326905,8.89583333 C120.619066,8.13749621 119.633845,7.75833333 118.371212,7.75833333 C117.12771,7.75833333 116.147272,8.13749621 115.429867,8.89583333 C114.712462,9.65417046 114.353765,10.7624927 114.353765,12.2208333 L114.353765,19.9208333 C114.353765,20.1347233 114.277243,20.3194437 114.124197,20.475 C113.97115,20.6305563 113.78941,20.7083333 113.578972,20.7083333 L112.517218,20.7083333 C112.306779,20.7083333 112.125039,20.6305563 111.971993,20.475 C111.818946,20.3194437 111.742424,20.1347233 111.742424,19.9208333 L111.742424,0.7875 C111.742424,0.573610042 111.818946,0.388889667 111.971993,0.233333333 C112.125039,0.077777 112.306779,0 112.517218,0 L113.578972,0 C113.78941,0 113.97115,0.077777 114.124197,0.233333333 C114.277243,0.388889667 114.353765,0.573610042 114.353765,0.7875 L114.353765,7.23333333 C114.774642,6.66944163 115.35334,6.19791856 116.089876,5.81875 C116.826412,5.43958144 117.730328,5.25 118.801653,5.25 C120.006893,5.25 121.078202,5.51249738 122.015611,6.0375 C122.95302,6.56250263 123.684762,7.31596731 124.210859,8.29791667 C124.736955,9.27986602 125,10.44166 125,11.7833333 L125,19.9208333 C125,20.1347233 124.923478,20.3194437 124.770432,20.475 Z" id="wematch" fill="#2D3240"></path>
                <path d="M132.201074,17.4125 C132.352158,17.5680563 132.427699,17.7527767 132.427699,17.9666667 L132.427699,19.9208333 C132.427699,20.1347233 132.352158,20.3194437 132.201074,20.475 C132.04999,20.6305563 131.870581,20.7083333 131.66284,20.7083333 L129.764858,20.7083333 C129.557118,20.7083333 129.377709,20.6305563 129.226625,20.475 C129.075541,20.3194437 129,20.1347233 129,19.9208333 L129,17.9666667 C129,17.7527767 129.075541,17.5680563 129.226625,17.4125 C129.377709,17.2569437 129.557118,17.1791667 129.764858,17.1791667 L131.66284,17.1791667 C131.870581,17.1791667 132.04999,17.2569437 132.201074,17.4125 Z M139.278374,20.475 C139.12729,20.6305563 138.947881,20.7083333 138.740141,20.7083333 L137.692001,20.7083333 C137.484261,20.7083333 137.304852,20.6305563 137.153768,20.475 C137.002684,20.3194437 136.927143,20.1347233 136.927143,19.9208333 L136.927143,0.7875 C136.927143,0.573610042 137.002684,0.388889667 137.153768,0.233333333 C137.304852,0.077777 137.484261,0 137.692001,0 L138.740141,0 C138.947881,0 139.12729,0.077777 139.278374,0.233333333 C139.429458,0.388889667 139.504999,0.573610042 139.504999,0.7875 L139.504999,19.9208333 C139.504999,20.1347233 139.429458,20.3194437 139.278374,20.475 Z M146.978893,3.00416667 C146.827809,3.159723 146.648399,3.2375 146.440659,3.2375 L144.825958,3.2375 C144.618218,3.2375 144.438808,3.159723 144.287724,3.00416667 C144.136641,2.84861033 144.0611,2.66388996 144.0611,2.45 L144.0611,0.7875 C144.0611,0.573610042 144.136641,0.388889667 144.287724,0.233333333 C144.438808,0.077777 144.618218,0 144.825958,0 L146.440659,0 C146.648399,0 146.827809,0.077777 146.978893,0.233333333 C147.129977,0.388889667 147.205517,0.573610042 147.205517,0.7875 L147.205517,2.45 C147.205517,2.66388996 147.129977,2.84861033 146.978893,3.00416667 Z M146.695612,20.475 C146.544528,20.6305563 146.365119,20.7083333 146.157378,20.7083333 L145.109239,20.7083333 C144.901499,20.7083333 144.722089,20.6305563 144.571005,20.475 C144.419921,20.3194437 144.344381,20.1347233 144.344381,19.9208333 L144.344381,6.32916667 C144.344381,6.11527671 144.419921,5.93055633 144.571005,5.775 C144.722089,5.61944367 144.901499,5.54166667 145.109239,5.54166667 L146.157378,5.54166667 C146.365119,5.54166667 146.544528,5.61944367 146.695612,5.775 C146.846696,5.93055633 146.922237,6.11527671 146.922237,6.32916667 L146.922237,19.9208333 C146.922237,20.1347233 146.846696,20.3194437 146.695612,20.475 Z M158.956952,19.9791667 L164.594242,6.44583333 C164.613127,6.38749971 164.62257,6.31944483 164.62257,6.24166667 C164.62257,6.04722125 164.556472,5.88194513 164.424273,5.74583333 C164.292075,5.60972154 164.131551,5.54166667 163.942696,5.54166667 L162.781244,5.54166667 C162.403534,5.54166667 162.129699,5.77499767 161.95973,6.24166667 L157.568876,16.8291667 L153.178023,6.24166667 C153.008053,5.77499767 152.696447,5.54166667 152.243196,5.54166667 L151.195056,5.54166667 C151.006202,5.54166667 150.845677,5.60972154 150.713479,5.74583333 C150.581281,5.88194513 150.515182,6.04722125 150.515182,6.24166667 C150.515182,6.31944483 150.524625,6.38749971 150.54351,6.44583333 L156.1808,19.9791667 C156.369655,20.4652802 156.662375,20.7083333 157.058971,20.7083333 L158.10711,20.7083333 C158.48482,20.7083333 158.768098,20.4652802 158.956952,19.9791667 Z M178.243659,7.23333333 C179.414559,8.55556217 180,10.3541553 180,12.6291667 L180,13.4166667 C180,13.6305566 179.924459,13.815277 179.773375,13.9708333 C179.622291,14.1263897 179.442882,14.2041667 179.235142,14.2041667 L169.49028,14.2041667 L169.49028,14.3791667 C169.528051,15.6625064 169.910476,16.6687464 170.637567,17.3979167 C171.364658,18.127087 172.304197,18.4916667 173.456212,18.4916667 C174.400486,18.4916667 175.132288,18.365279 175.651639,18.1125 C176.170989,17.859721 176.638398,17.5000023 177.053879,17.0333333 C177.204963,16.877777 177.341881,16.7708336 177.464636,16.7125 C177.587392,16.6541664 177.752637,16.625 177.960378,16.625 L178.81022,16.625 C179.036846,16.625 179.225698,16.702777 179.376782,16.8583333 C179.527866,17.0138897 179.593964,17.19861 179.575079,17.4125 C179.499537,17.9375026 179.22098,18.4770806 178.7394,19.03125 C178.25782,19.5854194 177.56851,20.0520814 176.67145,20.43125 C175.774389,20.8104186 174.702654,21 173.456212,21 C172.247541,21 171.171084,20.7131973 170.22681,20.1395833 C169.282536,19.5659694 168.531849,18.7736162 167.974727,17.7625 C167.417605,16.7513838 167.082393,15.6138952 166.96908,14.35 C166.931309,13.7666638 166.912424,13.319446 166.912424,13.0083333 C166.912424,12.6972207 166.931309,12.2500029 166.96908,11.6666667 C167.082393,10.4611051 167.417605,9.37222708 167.974727,8.4 C168.531849,7.42777292 169.277814,6.65972504 170.212646,6.09583333 C171.147477,5.53194163 172.228655,5.25 173.456212,5.25 C175.476959,5.25 177.072758,5.9111045 178.243659,7.23333333 Z M177.450472,11.7541667 L177.450472,11.6666667 C177.450472,10.4805496 177.086932,9.53264244 176.359841,8.82291667 C175.63275,8.1131909 174.664883,7.75833333 173.456212,7.75833333 C172.360854,7.75833333 171.430757,8.11805196 170.665895,8.8375 C169.901033,9.55694804 169.509165,10.4999942 169.49028,11.6666667 L169.49028,11.7541667 L177.450472,11.7541667 Z" id=".live" fill="#FF0928"></path>
            </g>
            <path d="M15.609375,13.84375 L6.265625,13.84375 L6.265625,20.84375 L17.1875,20.84375 L17.1875,24 L2.3125,24 L2.3125,1.25 L17.078125,1.25 L17.078125,4.4375 L6.265625,4.4375 L6.265625,10.71875 L15.609375,10.71875 L15.609375,13.84375 Z M40.484375,13.21875 C40.484375,15.3750108 40.1432326,17.2421796 39.4609375,18.8203125 C38.7786424,20.3984454 37.8229228,21.651037 36.59375,22.578125 L40.5,25.625 L37.9375,27.9375 L33.09375,24.109375 C32.4583302,24.2447923 31.7760453,24.3125 31.046875,24.3125 C29.6614514,24.3125 28.3906308,24.0572942 27.234375,23.546875 C26.0781192,23.0364558 25.0807334,22.3046923 24.2421875,21.3515625 C23.4036416,20.3984327 22.7526065,19.236986 22.2890625,17.8671875 C21.8255185,16.497389 21.59375,14.9479253 21.59375,13.21875 L21.59375,12.0625 C21.59375,10.3333247 21.8255185,8.78125688 22.2890625,7.40625 C22.7526065,6.03124313 23.3984334,4.86458813 24.2265625,3.90625 C25.0546916,2.94791187 26.0468692,2.21354422 27.203125,1.703125 C28.3593808,1.19270578 29.6302014,0.9375 31.015625,0.9375 C32.4322988,0.9375 33.7239525,1.19270578 34.890625,1.703125 C36.0572975,2.21354422 37.0546834,2.94791187 37.8828125,3.90625 C38.7109416,4.86458813 39.3515602,6.03124313 39.8046875,7.40625 C40.2578148,8.78125688 40.484375,10.3333247 40.484375,12.0625 L40.484375,13.21875 Z M36.515625,12.03125 C36.515625,9.46873719 36.0364631,7.52604828 35.078125,6.203125 C34.1197869,4.88020172 32.7656337,4.21875 31.015625,4.21875 C30.1718708,4.21875 29.4140659,4.38801914 28.7421875,4.7265625 C28.0703091,5.06510586 27.4973982,5.56249672 27.0234375,6.21875 C26.5494768,6.87500328 26.1848971,7.6900993 25.9296875,8.6640625 C25.6744779,9.6380257 25.546875,10.7604103 25.546875,12.03125 L25.546875,13.21875 C25.546875,14.4895897 25.677082,15.6145784 25.9375,16.59375 C26.197918,17.5729216 26.5651018,18.3932259 27.0390625,19.0546875 C27.5130232,19.7161491 28.0885383,20.2161441 28.765625,20.5546875 C29.4427117,20.8932309 30.2031208,21.0625 31.046875,21.0625 C32.8073005,21.0625 34.1588495,20.39584 35.1015625,19.0625 C36.0442755,17.72916 36.515625,15.7812628 36.515625,13.21875 L36.515625,12.03125 Z M63.140625,1.25 L63.140625,16.46875 C63.140625,17.7708398 62.919273,18.9114534 62.4765625,19.890625 C62.033852,20.8697966 61.4270872,21.6874967 60.65625,22.34375 C59.8854128,23.0000033 58.9843802,23.4921859 57.953125,23.8203125 C56.9218698,24.1484391 55.8177142,24.3125 54.640625,24.3125 C53.4218689,24.3125 52.294276,24.1484391 51.2578125,23.8203125 C50.221349,23.4921859 49.3229205,23.0000033 48.5625,22.34375 C47.8020795,21.6874967 47.2083355,20.8697966 46.78125,19.890625 C46.3541645,18.9114534 46.140625,17.7708398 46.140625,16.46875 L46.140625,1.25 L50.078125,1.25 L50.078125,16.46875 C50.078125,17.2812541 50.1848948,17.9817679 50.3984375,18.5703125 C50.6119802,19.1588571 50.9166647,19.6458314 51.3125,20.03125 C51.7083353,20.4166686 52.1874972,20.7005199 52.75,20.8828125 C53.3125028,21.0651051 53.9427048,21.15625 54.640625,21.15625 C55.3385452,21.15625 55.9713513,21.0651051 56.5390625,20.8828125 C57.1067737,20.7005199 57.5859355,20.4166686 57.9765625,20.03125 C58.3671895,19.6458314 58.6692698,19.1588571 58.8828125,18.5703125 C59.0963552,17.9817679 59.203125,17.2812541 59.203125,16.46875 L59.203125,1.25 L63.140625,1.25 Z M73.53125,24 L69.59375,24 L69.59375,1.25 L73.53125,1.25 L73.53125,24 Z M96.375,4.4375 L89.28125,4.4375 L89.28125,24 L85.359375,24 L85.359375,4.4375 L78.328125,4.4375 L78.328125,1.25 L96.375,1.25 L96.375,4.4375 Z M109.03125,12.03125 L114.265625,1.25 L118.640625,1.25 L111.015625,15.625 L111.015625,24 L107.046875,24 L107.046875,15.625 L99.40625,1.25 L103.796875,1.25 L109.03125,12.03125 Z M146.375,13.84375 L137.03125,13.84375 L137.03125,20.84375 L147.953125,20.84375 L147.953125,24 L133.078125,24 L133.078125,1.25 L147.84375,1.25 L147.84375,4.4375 L137.03125,4.4375 L137.03125,10.71875 L146.375,10.71875 L146.375,13.84375 Z M161,9.46875 L165.78125,1.25 L170.34375,1.25 L163.46875,12.53125 L170.5,24 L165.890625,24 L161,15.65625 L156.09375,24 L151.5,24 L158.546875,12.53125 L151.65625,1.25 L156.21875,1.25 L161,9.46875 Z M193.1875,13.21875 C193.1875,14.9479253 192.96094,16.497389 192.507812,17.8671875 C192.054685,19.236986 191.416671,20.3984327 190.59375,21.3515625 C189.770829,22.3046923 188.781256,23.0364558 187.625,23.546875 C186.468744,24.0572942 185.187507,24.3125 183.78125,24.3125 C182.38541,24.3125 181.109381,24.0572942 179.953125,23.546875 C178.796869,23.0364558 177.799483,22.3046923 176.960938,21.3515625 C176.122392,20.3984327 175.471356,19.236986 175.007812,17.8671875 C174.544269,16.497389 174.3125,14.9479253 174.3125,13.21875 L174.3125,12.0625 C174.3125,10.3333247 174.544269,8.78125688 175.007812,7.40625 C175.471356,6.03124313 176.117183,4.86458813 176.945312,3.90625 C177.773442,2.94791187 178.765619,2.21354422 179.921875,1.703125 C181.078131,1.19270578 182.35416,0.9375 183.75,0.9375 C185.156257,0.9375 186.440098,1.19270578 187.601562,1.703125 C188.763027,2.21354422 189.757808,2.94791187 190.585938,3.90625 C191.414067,4.86458813 192.054685,6.03124313 192.507812,7.40625 C192.96094,8.78125688 193.1875,10.3333247 193.1875,12.0625 L193.1875,13.21875 Z M189.234375,12.03125 C189.234375,10.7604103 189.11198,9.6380257 188.867188,8.6640625 C188.622395,7.6900993 188.265627,6.87500328 187.796875,6.21875 C187.328123,5.56249672 186.752608,5.06510586 186.070312,4.7265625 C185.388017,4.38801914 184.614588,4.21875 183.75,4.21875 C182.906246,4.21875 182.145837,4.38801914 181.46875,4.7265625 C180.791663,5.06510586 180.216148,5.56249672 179.742188,6.21875 C179.268227,6.87500328 178.903647,7.6900993 178.648438,8.6640625 C178.393228,9.6380257 178.265625,10.7604103 178.265625,12.03125 L178.265625,13.21875 C178.265625,14.4895897 178.393228,15.6145784 178.648438,16.59375 C178.903647,17.5729216 179.270831,18.3932259 179.75,19.0546875 C180.229169,19.7161491 180.809892,20.2161441 181.492188,20.5546875 C182.174483,20.8932309 182.937496,21.0625 183.78125,21.0625 C185.531259,21.0625 186.877599,20.39584 187.820312,19.0625 C188.763026,17.72916 189.234375,15.7812628 189.234375,13.21875 L189.234375,12.03125 Z M214.234375,4.4375 L207.140625,4.4375 L207.140625,24 L203.21875,24 L203.21875,4.4375 L196.1875,4.4375 L196.1875,1.25 L214.234375,1.25 L214.234375,4.4375 Z M223.390625,24 L219.453125,24 L219.453125,1.25 L223.390625,1.25 L223.390625,24 Z M247.609375,16.59375 C247.505208,17.7083389 247.244794,18.7369745 246.828125,19.6796875 C246.411456,20.6224005 245.833337,21.4374966 245.09375,22.125 C244.354163,22.8125034 243.450526,23.3489564 242.382812,23.734375 C241.315099,24.1197936 240.08334,24.3125 238.6875,24.3125 C237.29166,24.3125 236.028651,24.0598984 234.898438,23.5546875 C233.768224,23.0494766 232.804691,22.3307338 232.007812,21.3984375 C231.210934,20.4661412 230.59896,19.3385483 230.171875,18.015625 C229.74479,16.6927017 229.53125,15.2083416 229.53125,13.5625 L229.53125,11.71875 C229.53125,10.0833252 229.749998,8.60156914 230.1875,7.2734375 C230.625002,5.94530586 231.249996,4.81250469 232.0625,3.875 C232.875004,2.93749531 233.856765,2.21354422 235.007812,1.703125 C236.15886,1.19270578 237.44791,0.9375 238.875,0.9375 C240.229173,0.9375 241.427078,1.13281055 242.46875,1.5234375 C243.510422,1.91406445 244.393226,2.4557257 245.117188,3.1484375 C245.841149,3.8411493 246.408852,4.66666188 246.820312,5.625 C247.231773,6.58333812 247.494791,7.63020266 247.609375,8.765625 L243.671875,8.765625 C243.588541,8.04687141 243.445314,7.40104453 243.242188,6.828125 C243.039061,6.25520547 242.750002,5.76823117 242.375,5.3671875 C241.999998,4.96614383 241.526045,4.66145937 240.953125,4.453125 C240.380205,4.24479063 239.687504,4.140625 238.875,4.140625 C237.979162,4.140625 237.195316,4.30989414 236.523438,4.6484375 C235.851559,4.98698086 235.291669,5.4765593 234.84375,6.1171875 C234.395831,6.7578157 234.059897,7.54687031 233.835938,8.484375 C233.611978,9.42187969 233.5,10.4895773 233.5,11.6875 L233.5,13.5625 C233.5,14.6979223 233.598957,15.729162 233.796875,16.65625 C233.994793,17.583338 234.302081,18.3776009 234.71875,19.0390625 C235.135419,19.7005241 235.671872,20.2135398 236.328125,20.578125 C236.984378,20.9427102 237.770829,21.125 238.6875,21.125 C239.541671,21.125 240.263018,21.0260427 240.851562,20.828125 C241.440107,20.6302073 241.927081,20.3385436 242.3125,19.953125 C242.697919,19.5677064 242.997395,19.0937528 243.210938,18.53125 C243.42448,17.9687472 243.578125,17.3229203 243.671875,16.59375 L247.609375,16.59375 Z M265.03125,18.140625 C265.03125,17.6822894 264.963542,17.2734393 264.828125,16.9140625 C264.692708,16.5546857 264.445314,16.2239598 264.085938,15.921875 C263.726561,15.6197902 263.231774,15.3307305 262.601562,15.0546875 C261.971351,14.7786445 261.161463,14.4895848 260.171875,14.1875 C259.088536,13.8645817 258.088546,13.4947937 257.171875,13.078125 C256.255204,12.6614563 255.466149,12.1770861 254.804688,11.625 C254.143226,11.0729139 253.625002,10.4375036 253.25,9.71875 C252.874998,8.99999641 252.6875,8.17708797 252.6875,7.25 C252.6875,6.33332875 252.882811,5.48958719 253.273438,4.71875 C253.664064,3.94791281 254.213538,3.28125281 254.921875,2.71875 C255.630212,2.15624719 256.479162,1.71875156 257.46875,1.40625 C258.458338,1.09374844 259.552077,0.9375 260.75,0.9375 C262.031256,0.9375 263.182287,1.12239398 264.203125,1.4921875 C265.223963,1.86198102 266.085934,2.36458016 266.789062,3 C267.492191,3.63541984 268.031248,4.37239164 268.40625,5.2109375 C268.781252,6.04948336 268.96875,6.94270359 268.96875,7.890625 L265.03125,7.890625 C265.03125,7.33853891 264.945313,6.83073148 264.773438,6.3671875 C264.601562,5.90364352 264.338543,5.50260586 263.984375,5.1640625 C263.630207,4.82551914 263.182294,4.56250094 262.640625,4.375 C262.098956,4.18749906 261.458337,4.09375 260.71875,4.09375 C260.02083,4.09375 259.416669,4.17187422 258.90625,4.328125 C258.395831,4.48437578 257.971356,4.70312359 257.632812,4.984375 C257.294269,5.26562641 257.044272,5.59895641 256.882812,5.984375 C256.721353,6.36979359 256.640625,6.78645609 256.640625,7.234375 C256.640625,8.07812922 257.039059,8.78124719 257.835938,9.34375 C258.632816,9.90625281 259.84895,10.4270809 261.484375,10.90625 C262.765631,11.2812519 263.874995,11.6979144 264.8125,12.15625 C265.750005,12.6145856 266.528643,13.1328096 267.148438,13.7109375 C267.768232,14.2890654 268.229165,14.9401005 268.53125,15.6640625 C268.833335,16.3880245 268.984375,17.2031205 268.984375,18.109375 C268.984375,19.0677131 268.794273,19.9296837 268.414062,20.6953125 C268.033852,21.4609413 267.492191,22.1119765 266.789062,22.6484375 C266.085934,23.1848985 265.23438,23.5963527 264.234375,23.8828125 C263.23437,24.1692723 262.119798,24.3125 260.890625,24.3125 C259.79687,24.3125 258.718755,24.164064 257.65625,23.8671875 C256.593745,23.570311 255.640629,23.1223988 254.796875,22.5234375 C253.953121,21.9244762 253.27344,21.1770878 252.757812,20.28125 C252.242185,19.3854122 251.984375,18.3333394 251.984375,17.125 L255.9375,17.125 C255.9375,17.8437536 256.065103,18.4609349 256.320312,18.9765625 C256.575522,19.4921901 256.924477,19.9140609 257.367188,20.2421875 C257.809898,20.5703141 258.33333,20.8098951 258.9375,20.9609375 C259.54167,21.1119799 260.192705,21.1875 260.890625,21.1875 C262.265632,21.1875 263.299476,20.908857 263.992188,20.3515625 C264.684899,19.794268 265.03125,19.0572963 265.03125,18.140625 Z" id="EQUITY-DERIVATIVES" fill="#2D3240" opacity="0.900000036"></path>
            <path d="M0.5,35.5 L341.536655,35.5" id="Line" stroke="#2D3240" opacity="0.100000001" stroke-linecap="square"></path>
        </g>
    </g>
</svg>