<?xml version="1.0" encoding="UTF-8"?>
<svg width="390px" height="99px" viewBox="0 0 390 99" version="1.1" xmlns="http://www.w3.org/2000/svg" xmlns:xlink="http://www.w3.org/1999/xlink">
    <!-- Generator: Sketch 48.2 (47327) - http://www.bohemiancoding.com/sketch -->
    <title>logo-header-wir</title>
    <desc>Created with Sketch.</desc>
    <defs></defs>
    <g id="Logo" stroke="none" stroke-width="1" fill="none" fill-rule="evenodd">
        <g id="logo-header-wir">
            <g id="logo-template" transform="translate(20.000000, 14.000000)">
                <g id="Group" transform="translate(162.000000, 49.000000)">
                    <path d="M18.3367769,6.24166667 C18.508954,5.77499767 18.8341727,5.54166667 19.3124426,5.54166667 L20.2594123,5.54166667 C20.4507203,5.54166667 20.6133296,5.60972154 20.7472452,5.74583333 C20.8811608,5.88194513 20.9481175,6.04722125 20.9481175,6.24166667 L20.9194215,6.475 L16.5289256,19.8916667 C16.3567485,20.4361138 16.0697908,20.7083333 15.6680441,20.7083333 L14.7784665,20.7083333 C14.5488969,20.7083333 14.3671571,20.6354174 14.2332415,20.4895833 C14.0993259,20.3437493 13.9845429,20.1444457 13.8888889,19.8916667 L10.4740588,10.2083333 L7.05922865,19.8916667 C6.96357467,20.1444457 6.84879161,20.3437493 6.71487603,20.4895833 C6.58096046,20.6354174 6.39922062,20.7083333 6.16965106,20.7083333 L5.28007346,20.7083333 C4.87832673,20.7083333 4.59136909,20.4361138 4.41919192,19.8916667 L0.0286960514,6.475 L0,6.24166667 C0,6.04722125 0.0669567837,5.88194513 0.20087236,5.74583333 C0.334787936,5.60972154 0.497397268,5.54166667 0.688705234,5.54166667 L1.63567493,5.54166667 C2.11394485,5.54166667 2.43916351,5.77499767 2.61134068,6.24166667 L5.82529844,15.9833333 L9.26882461,6.24166667 C9.44100178,5.77499767 9.73752468,5.54166667 10.1584022,5.54166667 L10.7897153,5.54166667 C11.2105929,5.54166667 11.5071158,5.77499767 11.6792929,6.24166667 L15.1228191,15.9833333 L18.3367769,6.24166667 Z M35.0617922,7.23333333 C36.2479016,8.55556217 36.8409474,10.3541553 36.8409474,12.6291667 L36.8409474,13.4166667 C36.8409474,13.6305566 36.7644253,13.815277 36.6113789,13.9708333 C36.4583326,14.1263897 36.2765927,14.2041667 36.066154,14.2041667 L26.1947123,14.2041667 L26.1947123,14.3791667 C26.2329739,15.6625064 26.6203667,16.6687464 27.3569024,17.3979167 C28.093438,18.127087 29.0451809,18.4916667 30.2121595,18.4916667 C31.1686993,18.4916667 31.9100066,18.365279 32.4361035,18.1125 C32.9622004,17.859721 33.4356805,17.5000023 33.856558,17.0333333 C34.0096044,16.877777 34.1483006,16.7708336 34.2726507,16.7125 C34.3970009,16.6541664 34.5643929,16.625 34.7748316,16.625 L35.6357132,16.625 C35.8652828,16.625 36.0565878,16.702777 36.2096342,16.8583333 C36.3626806,17.0138897 36.4296374,17.19861 36.4105066,17.4125 C36.3339834,17.9375026 36.0518084,18.4770806 35.5639731,19.03125 C35.0761378,19.5854194 34.3778741,20.0520814 33.4691613,20.43125 C32.5604485,20.8104186 31.474792,21 30.2121595,21 C28.9877885,21 27.8973494,20.7131973 26.9408096,20.1395833 C25.9842698,19.5659694 25.223832,18.7736162 24.6594735,17.7625 C24.095115,16.7513838 23.7555485,15.6138952 23.6407637,14.35 C23.6025021,13.7666638 23.5833716,13.319446 23.5833716,13.0083333 C23.5833716,12.6972207 23.6025021,12.2500029 23.6407637,11.6666667 C23.7555485,10.4611051 24.095115,9.37222708 24.6594735,8.4 C25.223832,7.42777292 25.9794872,6.65972504 26.9264616,6.09583333 C27.873436,5.53194163 28.9686577,5.25 30.2121595,5.25 C32.2591547,5.25 33.8756828,5.9111045 35.0617922,7.23333333 Z M34.2583027,11.7541667 L34.2583027,11.6666667 C34.2583027,10.4805496 33.8900404,9.53264244 33.1535047,8.82291667 C32.4169691,8.1131909 31.4365305,7.75833333 30.2121595,7.75833333 C29.1025733,7.75833333 28.1603957,8.11805196 27.3855984,8.8375 C26.6108011,9.55694804 26.2138431,10.4999942 26.1947123,11.6666667 L26.1947123,11.7541667 L34.2583027,11.7541667 Z M45.0719314,5.78958333 C45.6458553,5.42985931 46.4110757,5.25 47.3676155,5.25 C49.6059188,5.25 51.1746205,6.09582488 52.073768,7.7875 C52.6285611,6.97082925 53.2598679,6.34375219 53.9677074,5.90625 C54.6755469,5.46874781 55.6033766,5.25 56.7512244,5.25 C58.6260424,5.25 60.017787,5.82360538 60.9264998,6.97083333 C61.8352127,8.11806129 62.2895623,9.74165617 62.2895623,11.8416667 L62.2895623,19.9208333 C62.2895623,20.1347233 62.2130403,20.3194437 62.0599939,20.475 C61.9069475,20.6305563 61.7252077,20.7083333 61.5147689,20.7083333 L60.453015,20.7083333 C60.2425762,20.7083333 60.0608364,20.6305563 59.90779,20.475 C59.7547436,20.3194437 59.6782216,20.1347233 59.6782216,19.9208333 L59.6782216,12.1333333 C59.6782216,9.21665208 58.5495215,7.75833333 56.2920875,7.75833333 C55.2590245,7.75833333 54.4364126,8.10832983 53.8242271,8.80833333 C53.2120416,9.50833683 52.9059535,10.5486042 52.9059535,11.9291667 L52.9059535,19.9208333 C52.9059535,20.1347233 52.8294314,20.3194437 52.6763851,20.475 C52.5233387,20.6305563 52.3415988,20.7083333 52.1311601,20.7083333 L51.0694062,20.7083333 C50.8589674,20.7083333 50.6772276,20.6305563 50.5241812,20.475 C50.3711348,20.3194437 50.2946128,20.1347233 50.2946128,19.9208333 L50.2946128,12.1333333 C50.2946128,9.21665208 49.1659127,7.75833333 46.9084787,7.75833333 C45.8754157,7.75833333 45.0528038,8.10832983 44.4406183,8.80833333 C43.8284328,9.50833683 43.5223447,10.5486042 43.5223447,11.9291667 L43.5223447,19.9208333 C43.5223447,20.1347233 43.4458226,20.3194437 43.2927762,20.475 C43.1397299,20.6305563 42.95799,20.7083333 42.7475513,20.7083333 L41.6857974,20.7083333 C41.4753586,20.7083333 41.2936188,20.6305563 41.1405724,20.475 C40.987526,20.3194437 40.911004,20.1347233 40.911004,19.9208333 L40.911004,6.32916667 C40.911004,6.11527671 40.987526,5.93055633 41.1405724,5.775 C41.2936188,5.61944367 41.4753586,5.54166667 41.6857974,5.54166667 L42.7475513,5.54166667 C42.95799,5.54166667 43.1397299,5.61944367 43.2927762,5.775 C43.4458226,5.93055633 43.5223447,6.11527671 43.5223447,6.32916667 L43.5223447,7.23333333 C43.9814838,6.63055254 44.4980075,6.14930735 45.0719314,5.78958333 Z M75.915404,11.1125 L75.915404,10.7333333 C75.915404,9.78055079 75.6045333,9.04653035 74.9827824,8.53125 C74.3610315,8.01596965 73.5527674,7.75833333 72.557966,7.75833333 C71.7927342,7.75833333 71.1949057,7.88958202 70.7644628,8.15208333 C70.3340199,8.41458465 69.9274966,8.80833071 69.5448806,9.33333333 C69.4300958,9.48888967 69.3057475,9.59583304 69.171832,9.65416667 C69.0379164,9.71250029 68.8561765,9.74166667 68.626607,9.74166667 L67.7657254,9.74166667 C67.5552867,9.74166667 67.3687642,9.66388967 67.2061524,9.50833333 C67.0435407,9.352777 66.9718013,9.16805663 66.990932,8.95416667 C67.0483244,8.37083042 67.3304995,7.79236398 67.8374656,7.21875 C68.3444317,6.64513602 69.0187821,6.17361296 69.8605372,5.80416667 C70.7022922,5.43472037 71.6014262,5.25 72.557966,5.25 C74.3371301,5.25 75.776701,5.7555505 76.8767218,6.76666667 C77.9767426,7.77778283 78.5267447,9.19721308 78.5267447,11.025 L78.5267447,19.9208333 C78.5267447,20.1347233 78.4502227,20.3194437 78.2971763,20.475 C78.1441299,20.6305563 77.9623901,20.7083333 77.7519513,20.7083333 L76.6901974,20.7083333 C76.4797587,20.7083333 76.2980188,20.6305563 76.1449725,20.475 C75.9919261,20.3194437 75.915404,20.1347233 75.915404,19.9208333 L75.915404,18.725 C75.6093113,19.4250035 74.958874,19.9791646 73.9640725,20.3875 C72.9692711,20.7958354 71.9744846,21 70.9796832,21 C70.0040126,21 69.1335744,20.8201407 68.3683425,20.4604167 C67.6031107,20.1006926 67.0148475,19.6097253 66.6035354,18.9875 C66.1922232,18.3652747 65.9865702,17.6652817 65.9865702,16.8875 C65.9865702,15.4291594 66.5222245,14.2868097 67.5935491,13.4604167 C68.6648737,12.6340236 70.0900967,12.0750015 71.8692608,11.7833333 L75.915404,11.1125 Z M75.915404,13.4458333 L72.52927,14 C71.2857682,14.1944454 70.3196775,14.5104145 69.6309688,14.9479167 C68.9422601,15.3854189 68.5979109,15.9347189 68.5979109,16.5958333 C68.5979109,17.0819469 68.8179118,17.5194425 69.2579201,17.9083333 C69.6979284,18.2972242 70.3674963,18.4916667 71.2666437,18.4916667 C72.6440611,18.4916667 73.7631959,18.0930595 74.6240817,17.2958333 C75.4849676,16.4986071 75.915404,15.4583398 75.915404,14.175 L75.915404,13.4458333 Z M87.5468702,17.5291667 C87.8816592,17.9763911 88.5177486,18.2 89.4551576,18.2 L90.9760484,18.2 C91.1864871,18.2 91.368227,18.277777 91.5212733,18.4333333 C91.6743197,18.5888897 91.7508418,18.77361 91.7508418,18.9875 L91.7508418,19.9208333 C91.7508418,20.1347233 91.6743197,20.3194437 91.5212733,20.475 C91.368227,20.6305563 91.1864871,20.7083333 90.9760484,20.7083333 L89.1681971,20.7083333 C87.5420794,20.7083333 86.3464226,20.2756988 85.5811907,19.4104167 C84.8159588,18.5451346 84.4333486,17.2763973 84.4333486,15.6041667 L84.4333486,8.05 L82.3098408,8.05 C82.0994021,8.05 81.9176622,7.972223 81.7646159,7.81666667 C81.6115695,7.66111033 81.5350474,7.47638996 81.5350474,7.2625 L81.5350474,6.32916667 C81.5350474,6.11527671 81.6115695,5.93055633 81.7646159,5.775 C81.9176622,5.61944367 82.0994021,5.54166667 82.3098408,5.54166667 L84.4333486,5.54166667 L84.4333486,0.7875 C84.4333486,0.573610042 84.5098707,0.388889667 84.662917,0.233333333 C84.8159634,0.077777 84.9977033,0 85.208142,0 L86.2698959,0 C86.4803347,0 86.6620745,0.077777 86.8151209,0.233333333 C86.9681673,0.388889667 87.0446893,0.573610042 87.0446893,0.7875 L87.0446893,5.54166667 L90.6890878,5.54166667 C90.8995266,5.54166667 91.0812665,5.61944367 91.2343128,5.775 C91.3873592,5.93055633 91.4638812,6.11527671 91.4638812,6.32916667 L91.4638812,7.2625 C91.4638812,7.47638996 91.3873592,7.66111033 91.2343128,7.81666667 C91.0812665,7.972223 90.8995266,8.05 90.6890878,8.05 L87.0446893,8.05 L87.0446893,15.6041667 C87.0446893,16.440282 87.2120813,17.0819422 87.5468702,17.5291667 Z M105.118419,16.2166667 C105.252335,15.9249985 105.386248,15.7208339 105.520164,15.6041667 C105.654079,15.4874994 105.835819,15.4291667 106.065389,15.4291667 L106.92627,15.4291667 C107.136709,15.4291667 107.318449,15.5020826 107.471495,15.6479167 C107.624542,15.7937507 107.701064,15.9638879 107.701064,16.1583333 C107.701064,16.8194478 107.442802,17.5291629 106.92627,18.2875 C106.409739,19.0458371 105.663649,19.6874974 104.687978,20.2125 C103.712308,20.7375026 102.564477,21 101.244452,21 C99.8861655,21 98.7096392,20.7083363 97.7148378,20.125 C96.7200363,19.5416638 95.954816,18.7395884 95.4191537,17.71875 C94.8834914,16.6979116 94.5869685,15.5555619 94.5295761,14.2916667 C94.5104453,14.0583322 94.50088,13.6111144 94.50088,12.95 C94.50088,12.483331 94.5104453,12.1527788 94.5295761,11.9583333 C94.7017532,9.97499008 95.3617558,8.36111733 96.5096036,7.11666667 C97.6574514,5.872216 99.2357185,5.25 101.244452,5.25 C102.564477,5.25 103.707525,5.50763631 104.67363,6.02291667 C105.639735,6.53819702 106.37626,7.17013515 106.883226,7.91875 C107.390192,8.66736485 107.662802,9.37221892 107.701064,10.0333333 C107.720194,10.2472233 107.648455,10.4319437 107.485843,10.5875 C107.323232,10.7430563 107.136709,10.8208333 106.92627,10.8208333 L106.065389,10.8208333 C105.835819,10.8208333 105.654079,10.7625006 105.520164,10.6458333 C105.386248,10.5291661 105.252335,10.3250015 105.118419,10.0333333 C104.448841,8.51665908 103.157532,7.75833333 101.244452,7.75833333 C100.192258,7.75833333 99.2739938,8.11805196 98.4896312,8.8375 C97.7052685,9.55694804 97.2557015,10.645826 97.1409167,12.1041667 C97.1217859,12.3180566 97.1122207,12.6680531 97.1122207,13.1541667 C97.1122207,13.6013911 97.1217859,13.9319434 97.1409167,14.1458333 C97.2748323,15.604174 97.7291819,16.693052 98.5039792,17.4125 C99.2787764,18.131948 100.192258,18.4916667 101.244452,18.4916667 C103.157532,18.4916667 104.448841,17.7333409 105.118419,16.2166667 Z M124.770432,20.475 C124.617385,20.6305563 124.435645,20.7083333 124.225207,20.7083333 L123.163453,20.7083333 C122.953014,20.7083333 122.771274,20.6305563 122.618228,20.475 C122.465181,20.3194437 122.388659,20.1347233 122.388659,19.9208333 L122.388659,12.2208333 C122.388659,10.7624927 122.034745,9.65417046 121.326905,8.89583333 C120.619066,8.13749621 119.633845,7.75833333 118.371212,7.75833333 C117.12771,7.75833333 116.147272,8.13749621 115.429867,8.89583333 C114.712462,9.65417046 114.353765,10.7624927 114.353765,12.2208333 L114.353765,19.9208333 C114.353765,20.1347233 114.277243,20.3194437 114.124197,20.475 C113.97115,20.6305563 113.78941,20.7083333 113.578972,20.7083333 L112.517218,20.7083333 C112.306779,20.7083333 112.125039,20.6305563 111.971993,20.475 C111.818946,20.3194437 111.742424,20.1347233 111.742424,19.9208333 L111.742424,0.7875 C111.742424,0.573610042 111.818946,0.388889667 111.971993,0.233333333 C112.125039,0.077777 112.306779,0 112.517218,0 L113.578972,0 C113.78941,0 113.97115,0.077777 114.124197,0.233333333 C114.277243,0.388889667 114.353765,0.573610042 114.353765,0.7875 L114.353765,7.23333333 C114.774642,6.66944163 115.35334,6.19791856 116.089876,5.81875 C116.826412,5.43958144 117.730328,5.25 118.801653,5.25 C120.006893,5.25 121.078202,5.51249738 122.015611,6.0375 C122.95302,6.56250263 123.684762,7.31596731 124.210859,8.29791667 C124.736955,9.27986602 125,10.44166 125,11.7833333 L125,19.9208333 C125,20.1347233 124.923478,20.3194437 124.770432,20.475 Z" id="wematch" fill="#2D3240"></path>
                    <path d="M132.201074,17.4125 C132.352158,17.5680563 132.427699,17.7527767 132.427699,17.9666667 L132.427699,19.9208333 C132.427699,20.1347233 132.352158,20.3194437 132.201074,20.475 C132.04999,20.6305563 131.870581,20.7083333 131.66284,20.7083333 L129.764858,20.7083333 C129.557118,20.7083333 129.377709,20.6305563 129.226625,20.475 C129.075541,20.3194437 129,20.1347233 129,19.9208333 L129,17.9666667 C129,17.7527767 129.075541,17.5680563 129.226625,17.4125 C129.377709,17.2569437 129.557118,17.1791667 129.764858,17.1791667 L131.66284,17.1791667 C131.870581,17.1791667 132.04999,17.2569437 132.201074,17.4125 Z M139.278374,20.475 C139.12729,20.6305563 138.947881,20.7083333 138.740141,20.7083333 L137.692001,20.7083333 C137.484261,20.7083333 137.304852,20.6305563 137.153768,20.475 C137.002684,20.3194437 136.927143,20.1347233 136.927143,19.9208333 L136.927143,0.7875 C136.927143,0.573610042 137.002684,0.388889667 137.153768,0.233333333 C137.304852,0.077777 137.484261,0 137.692001,0 L138.740141,0 C138.947881,0 139.12729,0.077777 139.278374,0.233333333 C139.429458,0.388889667 139.504999,0.573610042 139.504999,0.7875 L139.504999,19.9208333 C139.504999,20.1347233 139.429458,20.3194437 139.278374,20.475 Z M146.978893,3.00416667 C146.827809,3.159723 146.648399,3.2375 146.440659,3.2375 L144.825958,3.2375 C144.618218,3.2375 144.438808,3.159723 144.287724,3.00416667 C144.136641,2.84861033 144.0611,2.66388996 144.0611,2.45 L144.0611,0.7875 C144.0611,0.573610042 144.136641,0.388889667 144.287724,0.233333333 C144.438808,0.077777 144.618218,0 144.825958,0 L146.440659,0 C146.648399,0 146.827809,0.077777 146.978893,0.233333333 C147.129977,0.388889667 147.205517,0.573610042 147.205517,0.7875 L147.205517,2.45 C147.205517,2.66388996 147.129977,2.84861033 146.978893,3.00416667 Z M146.695612,20.475 C146.544528,20.6305563 146.365119,20.7083333 146.157378,20.7083333 L145.109239,20.7083333 C144.901499,20.7083333 144.722089,20.6305563 144.571005,20.475 C144.419921,20.3194437 144.344381,20.1347233 144.344381,19.9208333 L144.344381,6.32916667 C144.344381,6.11527671 144.419921,5.93055633 144.571005,5.775 C144.722089,5.61944367 144.901499,5.54166667 145.109239,5.54166667 L146.157378,5.54166667 C146.365119,5.54166667 146.544528,5.61944367 146.695612,5.775 C146.846696,5.93055633 146.922237,6.11527671 146.922237,6.32916667 L146.922237,19.9208333 C146.922237,20.1347233 146.846696,20.3194437 146.695612,20.475 Z M158.956952,19.9791667 L164.594242,6.44583333 C164.613127,6.38749971 164.62257,6.31944483 164.62257,6.24166667 C164.62257,6.04722125 164.556472,5.88194513 164.424273,5.74583333 C164.292075,5.60972154 164.131551,5.54166667 163.942696,5.54166667 L162.781244,5.54166667 C162.403534,5.54166667 162.129699,5.77499767 161.95973,6.24166667 L157.568876,16.8291667 L153.178023,6.24166667 C153.008053,5.77499767 152.696447,5.54166667 152.243196,5.54166667 L151.195056,5.54166667 C151.006202,5.54166667 150.845677,5.60972154 150.713479,5.74583333 C150.581281,5.88194513 150.515182,6.04722125 150.515182,6.24166667 C150.515182,6.31944483 150.524625,6.38749971 150.54351,6.44583333 L156.1808,19.9791667 C156.369655,20.4652802 156.662375,20.7083333 157.058971,20.7083333 L158.10711,20.7083333 C158.48482,20.7083333 158.768098,20.4652802 158.956952,19.9791667 Z M178.243659,7.23333333 C179.414559,8.55556217 180,10.3541553 180,12.6291667 L180,13.4166667 C180,13.6305566 179.924459,13.815277 179.773375,13.9708333 C179.622291,14.1263897 179.442882,14.2041667 179.235142,14.2041667 L169.49028,14.2041667 L169.49028,14.3791667 C169.528051,15.6625064 169.910476,16.6687464 170.637567,17.3979167 C171.364658,18.127087 172.304197,18.4916667 173.456212,18.4916667 C174.400486,18.4916667 175.132288,18.365279 175.651639,18.1125 C176.170989,17.859721 176.638398,17.5000023 177.053879,17.0333333 C177.204963,16.877777 177.341881,16.7708336 177.464636,16.7125 C177.587392,16.6541664 177.752637,16.625 177.960378,16.625 L178.81022,16.625 C179.036846,16.625 179.225698,16.702777 179.376782,16.8583333 C179.527866,17.0138897 179.593964,17.19861 179.575079,17.4125 C179.499537,17.9375026 179.22098,18.4770806 178.7394,19.03125 C178.25782,19.5854194 177.56851,20.0520814 176.67145,20.43125 C175.774389,20.8104186 174.702654,21 173.456212,21 C172.247541,21 171.171084,20.7131973 170.22681,20.1395833 C169.282536,19.5659694 168.531849,18.7736162 167.974727,17.7625 C167.417605,16.7513838 167.082393,15.6138952 166.96908,14.35 C166.931309,13.7666638 166.912424,13.319446 166.912424,13.0083333 C166.912424,12.6972207 166.931309,12.2500029 166.96908,11.6666667 C167.082393,10.4611051 167.417605,9.37222708 167.974727,8.4 C168.531849,7.42777292 169.277814,6.65972504 170.212646,6.09583333 C171.147477,5.53194163 172.228655,5.25 173.456212,5.25 C175.476959,5.25 177.072758,5.9111045 178.243659,7.23333333 Z M177.450472,11.7541667 L177.450472,11.6666667 C177.450472,10.4805496 177.086932,9.53264244 176.359841,8.82291667 C175.63275,8.1131909 174.664883,7.75833333 173.456212,7.75833333 C172.360854,7.75833333 171.430757,8.11805196 170.665895,8.8375 C169.901033,9.55694804 169.509165,10.4999942 169.49028,11.6666667 L169.49028,11.7541667 L177.450472,11.7541667 Z" id=".live" fill="#FF0928"></path>
                </g>
                <path d="M6.484375,30 L2.546875,30 L2.546875,7.25 L6.484375,7.25 L6.484375,30 Z M31.390625,30 L27.4375,30 L17.296875,13.859375 L17.296875,30 L13.34375,30 L13.34375,7.25 L17.296875,7.25 L27.46875,23.453125 L27.46875,7.25 L31.390625,7.25 L31.390625,30 Z M54.046875,10.4375 L46.953125,10.4375 L46.953125,30 L43.03125,30 L43.03125,10.4375 L36,10.4375 L36,7.25 L54.046875,7.25 L54.046875,10.4375 Z M72.328125,19.84375 L62.984375,19.84375 L62.984375,26.84375 L73.90625,26.84375 L73.90625,30 L59.03125,30 L59.03125,7.25 L73.796875,7.25 L73.796875,10.4375 L62.984375,10.4375 L62.984375,16.71875 L72.328125,16.71875 L72.328125,19.84375 Z M87.484375,21.234375 L83.078125,21.234375 L83.078125,30 L79.125,30 L79.125,7.25 L87.125,7.25 C88.4270898,7.25 89.5885366,7.39843602 90.609375,7.6953125 C91.6302134,7.99218898 92.492184,8.42968461 93.1953125,9.0078125 C93.898441,9.58594039 94.4322898,10.3020791 94.796875,11.15625 C95.1614602,12.0104209 95.34375,12.9999944 95.34375,14.125 C95.34375,15.6458409 94.9765662,16.9192657 94.2421875,17.9453125 C93.5078088,18.9713593 92.4843816,19.7604139 91.171875,20.3125 L96.28125,29.796875 L96.28125,30 L92.046875,30 L87.484375,21.234375 Z M83.078125,18.0625 L87.140625,18.0625 C87.8489619,18.0625 88.4687473,17.9687509 89,17.78125 C89.5312527,17.5937491 89.9739566,17.333335 90.328125,17 C90.6822934,16.666665 90.9479158,16.2708356 91.125,15.8125 C91.3020842,15.3541644 91.390625,14.8489611 91.390625,14.296875 C91.390625,13.7135387 91.3072925,13.1848982 91.140625,12.7109375 C90.9739575,12.2369768 90.7187517,11.8307309 90.375,11.4921875 C90.0312483,11.1536441 89.5911485,10.8932301 89.0546875,10.7109375 C88.5182265,10.5286449 87.8750038,10.4375 87.125,10.4375 L83.078125,10.4375 L83.078125,18.0625 Z M114.390625,19.84375 L105.046875,19.84375 L105.046875,26.84375 L115.96875,26.84375 L115.96875,30 L101.09375,30 L101.09375,7.25 L115.859375,7.25 L115.859375,10.4375 L105.046875,10.4375 L105.046875,16.71875 L114.390625,16.71875 L114.390625,19.84375 Z M133.078125,24.140625 C133.078125,23.6822894 133.010417,23.2734393 132.875,22.9140625 C132.739583,22.5546857 132.492189,22.2239598 132.132812,21.921875 C131.773436,21.6197902 131.278649,21.3307305 130.648438,21.0546875 C130.018226,20.7786445 129.208338,20.4895848 128.21875,20.1875 C127.135411,19.8645817 126.135421,19.4947937 125.21875,19.078125 C124.302079,18.6614563 123.513024,18.1770861 122.851562,17.625 C122.190101,17.0729139 121.671877,16.4375036 121.296875,15.71875 C120.921873,14.9999964 120.734375,14.177088 120.734375,13.25 C120.734375,12.3333287 120.929686,11.4895872 121.320312,10.71875 C121.710939,9.94791281 122.260413,9.28125281 122.96875,8.71875 C123.677087,8.15624719 124.526037,7.71875156 125.515625,7.40625 C126.505213,7.09374844 127.598952,6.9375 128.796875,6.9375 C130.078131,6.9375 131.229162,7.12239398 132.25,7.4921875 C133.270838,7.86198102 134.132809,8.36458016 134.835938,9 C135.539066,9.63541984 136.078123,10.3723916 136.453125,11.2109375 C136.828127,12.0494834 137.015625,12.9427036 137.015625,13.890625 L133.078125,13.890625 C133.078125,13.3385389 132.992188,12.8307315 132.820312,12.3671875 C132.648437,11.9036435 132.385418,11.5026059 132.03125,11.1640625 C131.677082,10.8255191 131.229169,10.5625009 130.6875,10.375 C130.145831,10.1874991 129.505212,10.09375 128.765625,10.09375 C128.067705,10.09375 127.463544,10.1718742 126.953125,10.328125 C126.442706,10.4843758 126.018231,10.7031236 125.679688,10.984375 C125.341144,11.2656264 125.091147,11.5989564 124.929688,11.984375 C124.768228,12.3697936 124.6875,12.7864561 124.6875,13.234375 C124.6875,14.0781292 125.085934,14.7812472 125.882812,15.34375 C126.679691,15.9062528 127.895825,16.4270809 129.53125,16.90625 C130.812506,17.2812519 131.92187,17.6979144 132.859375,18.15625 C133.79688,18.6145856 134.575518,19.1328096 135.195312,19.7109375 C135.815107,20.2890654 136.27604,20.9401005 136.578125,21.6640625 C136.88021,22.3880245 137.03125,23.2031205 137.03125,24.109375 C137.03125,25.0677131 136.841148,25.9296837 136.460938,26.6953125 C136.080727,27.4609413 135.539066,28.1119765 134.835938,28.6484375 C134.132809,29.1848985 133.281255,29.5963527 132.28125,29.8828125 C131.281245,30.1692723 130.166673,30.3125 128.9375,30.3125 C127.843745,30.3125 126.76563,30.164064 125.703125,29.8671875 C124.64062,29.570311 123.687504,29.1223988 122.84375,28.5234375 C121.999996,27.9244762 121.320315,27.1770878 120.804688,26.28125 C120.28906,25.3854122 120.03125,24.3333394 120.03125,23.125 L123.984375,23.125 C123.984375,23.8437536 124.111978,24.4609349 124.367188,24.9765625 C124.622397,25.4921901 124.971352,25.9140609 125.414062,26.2421875 C125.856773,26.5703141 126.380205,26.8098951 126.984375,26.9609375 C127.588545,27.1119799 128.23958,27.1875 128.9375,27.1875 C130.312507,27.1875 131.346351,26.908857 132.039062,26.3515625 C132.731774,25.794268 133.078125,25.0572962 133.078125,24.140625 Z M158.9375,10.4375 L151.84375,10.4375 L151.84375,30 L147.921875,30 L147.921875,10.4375 L140.890625,10.4375 L140.890625,7.25 L158.9375,7.25 L158.9375,10.4375 Z M181.3125,21.234375 L176.90625,21.234375 L176.90625,30 L172.953125,30 L172.953125,7.25 L180.953125,7.25 C182.255215,7.25 183.416662,7.39843602 184.4375,7.6953125 C185.458338,7.99218898 186.320309,8.42968461 187.023438,9.0078125 C187.726566,9.58594039 188.260415,10.3020791 188.625,11.15625 C188.989585,12.0104209 189.171875,12.9999944 189.171875,14.125 C189.171875,15.6458409 188.804691,16.9192657 188.070313,17.9453125 C187.335934,18.9713593 186.312507,19.7604139 185,20.3125 L190.109375,29.796875 L190.109375,30 L185.875,30 L181.3125,21.234375 Z M176.90625,18.0625 L180.96875,18.0625 C181.677087,18.0625 182.296872,17.9687509 182.828125,17.78125 C183.359378,17.5937491 183.802082,17.333335 184.15625,17 C184.510418,16.666665 184.776041,16.2708356 184.953125,15.8125 C185.130209,15.3541644 185.21875,14.8489611 185.21875,14.296875 C185.21875,13.7135387 185.135418,13.1848982 184.96875,12.7109375 C184.802083,12.2369768 184.546877,11.8307309 184.203125,11.4921875 C183.859373,11.1536441 183.419274,10.8932301 182.882813,10.7109375 C182.346351,10.5286449 181.703129,10.4375 180.953125,10.4375 L176.90625,10.4375 L176.90625,18.0625 Z M207.65625,24.703125 L198.84375,24.703125 L197,30 L192.890625,30 L201.484375,7.25 L205.03125,7.25 L213.640625,30 L209.515625,30 L207.65625,24.703125 Z M199.953125,21.515625 L206.546875,21.515625 L203.25,12.078125 L199.953125,21.515625 Z M232.78125,10.4375 L225.6875,10.4375 L225.6875,30 L221.765625,30 L221.765625,10.4375 L214.734375,10.4375 L214.734375,7.25 L232.78125,7.25 L232.78125,10.4375 Z M251.0625,19.84375 L241.71875,19.84375 L241.71875,26.84375 L252.640625,26.84375 L252.640625,30 L237.765625,30 L237.765625,7.25 L252.53125,7.25 L252.53125,10.4375 L241.71875,10.4375 L241.71875,16.71875 L251.0625,16.71875 L251.0625,19.84375 Z M269.75,24.140625 C269.75,23.6822894 269.682292,23.2734393 269.546875,22.9140625 C269.411458,22.5546857 269.164064,22.2239598 268.804688,21.921875 C268.445311,21.6197902 267.950524,21.3307305 267.320312,21.0546875 C266.690101,20.7786445 265.880213,20.4895848 264.890625,20.1875 C263.807286,19.8645817 262.807296,19.4947937 261.890625,19.078125 C260.973954,18.6614563 260.184899,18.1770861 259.523438,17.625 C258.861976,17.0729139 258.343752,16.4375036 257.96875,15.71875 C257.593748,14.9999964 257.40625,14.177088 257.40625,13.25 C257.40625,12.3333287 257.601561,11.4895872 257.992188,10.71875 C258.382814,9.94791281 258.932288,9.28125281 259.640625,8.71875 C260.348962,8.15624719 261.197912,7.71875156 262.1875,7.40625 C263.177088,7.09374844 264.270827,6.9375 265.46875,6.9375 C266.750006,6.9375 267.901037,7.12239398 268.921875,7.4921875 C269.942713,7.86198102 270.804684,8.36458016 271.507812,9 C272.210941,9.63541984 272.749998,10.3723916 273.125,11.2109375 C273.500002,12.0494834 273.6875,12.9427036 273.6875,13.890625 L269.75,13.890625 C269.75,13.3385389 269.664063,12.8307315 269.492188,12.3671875 C269.320312,11.9036435 269.057293,11.5026059 268.703125,11.1640625 C268.348957,10.8255191 267.901044,10.5625009 267.359375,10.375 C266.817706,10.1874991 266.177087,10.09375 265.4375,10.09375 C264.73958,10.09375 264.135419,10.1718742 263.625,10.328125 C263.114581,10.4843758 262.690106,10.7031236 262.351562,10.984375 C262.013019,11.2656264 261.763022,11.5989564 261.601562,11.984375 C261.440103,12.3697936 261.359375,12.7864561 261.359375,13.234375 C261.359375,14.0781292 261.757809,14.7812472 262.554688,15.34375 C263.351566,15.9062528 264.5677,16.4270809 266.203125,16.90625 C267.484381,17.2812519 268.593745,17.6979144 269.53125,18.15625 C270.468755,18.6145856 271.247393,19.1328096 271.867188,19.7109375 C272.486982,20.2890654 272.947915,20.9401005 273.25,21.6640625 C273.552085,22.3880245 273.703125,23.2031205 273.703125,24.109375 C273.703125,25.0677131 273.513023,25.9296837 273.132812,26.6953125 C272.752602,27.4609413 272.210941,28.1119765 271.507812,28.6484375 C270.804684,29.1848985 269.95313,29.5963527 268.953125,29.8828125 C267.95312,30.1692723 266.838548,30.3125 265.609375,30.3125 C264.51562,30.3125 263.437505,30.164064 262.375,29.8671875 C261.312495,29.570311 260.359379,29.1223988 259.515625,28.5234375 C258.671871,27.9244762 257.99219,27.1770878 257.476562,26.28125 C256.960935,25.3854122 256.703125,24.3333394 256.703125,23.125 L260.65625,23.125 C260.65625,23.8437536 260.783853,24.4609349 261.039062,24.9765625 C261.294272,25.4921901 261.643227,25.9140609 262.085938,26.2421875 C262.528648,26.5703141 263.05208,26.8098951 263.65625,26.9609375 C264.26042,27.1119799 264.911455,27.1875 265.609375,27.1875 C266.984382,27.1875 268.018226,26.908857 268.710938,26.3515625 C269.403649,25.794268 269.75,25.0572962 269.75,24.140625 Z" id="EQUITY-DERIVATIVES" fill="#2D3240" opacity="0.900000036"></path>
                <path d="M0.5,41.5 L341.536655,41.5" id="Line" stroke="#2D3240" opacity="0.100000001" stroke-linecap="square"></path>
            </g>
        </g>
    </g>
</svg>