<?xml version="1.0" encoding="UTF-8"?>
<svg width="13px" height="12px" viewBox="0 0 13 12" version="1.1" xmlns="http://www.w3.org/2000/svg" xmlns:xlink="http://www.w3.org/1999/xlink">
    <!-- Generator: Sketch 41 (35326) - http://www.bohemiancoding.com/sketch -->
    <title>search-icon</title>
    <desc>Created with Sketch.</desc>
    <defs></defs>
    <g id="V2" stroke="none" stroke-width="1" fill="none" fill-rule="evenodd" opacity="0.5">
        <g id="Matches-Panel" transform="translate(-156.000000, -626.000000)" fill="#2C323F">
            <g id="Group" transform="translate(10.000000, 10.000000)">
                <g id="Group-10" transform="translate(0.000000, 604.000000)">
                    <g id="Group-11" transform="translate(8.000000, 6.000000)">
                        <path d="M146.676228,11.2857143 C146.676228,10.4598173 146.382704,9.75335115 145.795648,9.16629464 C145.208591,8.57923814 144.502125,8.28571429 143.676228,8.28571429 C142.850331,8.28571429 142.143865,8.57923814 141.556809,9.16629464 C140.969752,9.75335115 140.676228,10.4598173 140.676228,11.2857143 C140.676228,12.1116113 140.969752,12.8180774 141.556809,13.4051339 C142.143865,13.9921904 142.850331,14.2857143 143.676228,14.2857143 C144.502125,14.2857143 145.208591,13.9921904 145.795648,13.4051339 C146.382704,12.8180774 146.676228,12.1116113 146.676228,11.2857143 Z M150.1048,16.8571429 C150.1048,17.0892869 150.019979,17.2901777 149.850335,17.4598214 C149.680692,17.6294651 149.479801,17.7142857 149.247657,17.7142857 C149.006584,17.7142857 148.805693,17.6294651 148.644978,17.4598214 L146.348103,15.1696429 C145.548992,15.7232171 144.658376,16 143.676228,16 C143.037832,16 142.427347,15.8761173 141.844755,15.6283482 C141.262163,15.3805791 140.759936,15.045761 140.338059,14.6238839 C139.916181,14.2020068 139.581363,13.6997797 139.333594,13.1171875 C139.085825,12.5345953 138.961942,11.9241103 138.961942,11.2857143 C138.961942,10.6473182 139.085825,10.0368333 139.333594,9.45424107 C139.581363,8.87164887 139.916181,8.36942175 140.338059,7.94754464 C140.759936,7.52566753 141.262163,7.19084945 141.844755,6.94308036 C142.427347,6.69531126 143.037832,6.57142857 143.676228,6.57142857 C144.314624,6.57142857 144.925109,6.69531126 145.507701,6.94308036 C146.090294,7.19084945 146.592521,7.52566753 147.014398,7.94754464 C147.436275,8.36942175 147.771093,8.87164887 148.018862,9.45424107 C148.266631,10.0368333 148.390514,10.6473182 148.390514,11.2857143 C148.390514,12.2678621 148.113731,13.1584781 147.560157,13.9575893 L149.857032,16.2544643 C150.022211,16.4196437 150.1048,16.6205345 150.1048,16.8571429 Z" id="search-icon"></path>
                    </g>
                </g>
            </g>
        </g>
    </g>
</svg>