<?xml version="1.0" encoding="UTF-8"?>
<svg width="14px" height="14px" viewBox="0 0 14 14" version="1.1" xmlns="http://www.w3.org/2000/svg" xmlns:xlink="http://www.w3.org/1999/xlink">
    <!-- Generator: Sketch 42 (36781) - http://www.bohemiancoding.com/sketch -->
    <title>search-icon-big</title>
    <desc>Created with Sketch.</desc>
    <defs></defs>
    <g id="Icons" stroke="none" stroke-width="1" fill="none" fill-rule="evenodd" opacity="0.300000012">
        <g id="Artboard-3" transform="translate(-15.000000, -18.000000)" fill="#2C323F">
            <path d="M24.6923077,23.9230769 C24.6923077,22.8854115 24.3235213,21.9978002 23.5859375,21.2602163 C22.8483537,20.5226325 21.9607424,20.1538462 20.9230769,20.1538462 C19.8854115,20.1538462 18.9978002,20.5226325 18.2602163,21.2602163 C17.5226325,21.9978002 17.1538462,22.8854115 17.1538462,23.9230769 C17.1538462,24.9607424 17.5226325,25.8483537 18.2602163,26.5859375 C18.9978002,27.3235213 19.8854115,27.6923077 20.9230769,27.6923077 C21.9607424,27.6923077 22.8483537,27.3235213 23.5859375,26.5859375 C24.3235213,25.8483537 24.6923077,24.9607424 24.6923077,23.9230769 Z M29,30.9230769 C29,31.214745 28.8934306,31.4671464 28.6802885,31.6802885 C28.4671464,31.8934306 28.214745,32 27.9230769,32 C27.6201908,32 27.3677895,31.8934306 27.1658654,31.6802885 L24.2800481,28.8028846 C23.2760366,29.4984009 22.1570575,29.8461538 20.9230769,29.8461538 C20.1209896,29.8461538 19.35397,29.6905064 18.6219952,29.3792067 C17.8900204,29.0679071 17.2590171,28.6472382 16.7289663,28.1171875 C16.1989156,27.5871368 15.7782467,26.9561335 15.4669471,26.2241587 C15.1556475,25.4921838 15,24.7251643 15,23.9230769 C15,23.1209896 15.1556475,22.35397 15.4669471,21.6219952 C15.7782467,20.8900204 16.1989156,20.2590171 16.7289663,19.7289663 C17.2590171,19.1989156 17.8900204,18.7782467 18.6219952,18.4669471 C19.35397,18.1556475 20.1209896,18 20.9230769,18 C21.7251643,18 22.4921838,18.1556475 23.2241587,18.4669471 C23.9561335,18.7782467 24.5871368,19.1989156 25.1171875,19.7289663 C25.6472382,20.2590171 26.0679071,20.8900204 26.3792067,21.6219952 C26.6905064,22.35397 26.8461538,23.1209896 26.8461538,23.9230769 C26.8461538,25.1570575 26.4984009,26.2760366 25.8028846,27.2800481 L28.6887019,30.1658654 C28.896235,30.3733985 29,30.6257998 29,30.9230769 Z" id="search-icon-big"></path>
        </g>
    </g>
</svg>