<?xml version="1.0" encoding="UTF-8"?>
<svg width="10px" height="10px" viewBox="0 0 10 10" version="1.1" xmlns="http://www.w3.org/2000/svg" xmlns:xlink="http://www.w3.org/1999/xlink">
    <!-- Generator: Sketch 57.1 (83088) - https://sketch.com -->
    <title>search-input-icon</title>
    <desc>Created with Sketch.</desc>
    <g id="Icons" stroke="none" stroke-width="1" fill="none" fill-rule="evenodd">
        <g id="Artboard-3" transform="translate(-57.000000, -67.000000)" fill="#B1B4B9">
            <path d="M63.9230769,71.2307692 C63.9230769,70.4895796 63.6596581,69.8555715 63.1328125,69.328726 C62.6059669,68.8018804 61.9719588,68.5384615 61.2307692,68.5384615 C60.4895796,68.5384615 59.8555715,68.8018804 59.328726,69.328726 C58.8018804,69.8555715 58.5384615,70.4895796 58.5384615,71.2307692 C58.5384615,71.9719588 58.8018804,72.6059669 59.328726,73.1328125 C59.8555715,73.6596581 60.4895796,73.9230769 61.2307692,73.9230769 C61.9719588,73.9230769 62.6059669,73.6596581 63.1328125,73.1328125 C63.6596581,72.6059669 63.9230769,71.9719588 63.9230769,71.2307692 Z M67,76.2307692 C67,76.4391036 66.923879,76.6193903 66.7716346,76.7716346 C66.6193903,76.923879 66.4391036,77 66.2307692,77 C66.014422,77 65.8341353,76.923879 65.6899038,76.7716346 L63.6286058,74.7163462 C62.9114547,75.2131435 62.1121839,75.4615385 61.2307692,75.4615385 C60.6578497,75.4615385 60.1099786,75.3503617 59.5871394,75.1280048 C59.0643003,74.9056479 58.6135836,74.6051702 58.234976,74.2265625 C57.8563683,73.8479548 57.5558905,73.3972382 57.3335337,72.874399 C57.1111768,72.3515599 57,71.8036888 57,71.2307692 C57,70.6578497 57.1111768,70.1099786 57.3335337,69.5871394 C57.5558905,69.0643003 57.8563683,68.6135836 58.234976,68.234976 C58.6135836,67.8563683 59.0643003,67.5558905 59.5871394,67.3335337 C60.1099786,67.1111768 60.6578497,67 61.2307692,67 C61.8036888,67 62.3515599,67.1111768 62.874399,67.3335337 C63.3972382,67.5558905 63.8479548,67.8563683 64.2265625,68.234976 C64.6051702,68.6135836 64.9056479,69.0643003 65.1280048,69.5871394 C65.3503617,70.1099786 65.4615385,70.6578497 65.4615385,71.2307692 C65.4615385,72.1121839 65.2131435,72.9114547 64.7163462,73.6286058 L66.7776442,75.6899038 C66.9258822,75.8381418 67,76.0184284 67,76.2307692 Z" id="search-input-icon"></path>
        </g>
    </g>
</svg>