<?xml version="1.0" encoding="UTF-8"?>
<svg width="85px" height="15px" viewBox="0 0 85 15" version="1.1" xmlns="http://www.w3.org/2000/svg" xmlns:xlink="http://www.w3.org/1999/xlink">
    <title>voice-on</title>
    <defs>
        <path d="M71.4941406,12.1269531 C72.0654297,12.1269531 72.5859375,12.0232747 73.0556641,11.815918 C73.5253906,11.6085612 73.9274089,11.3112793 74.2617188,10.9240723 C74.5960286,10.5368652 74.8552246,10.0650228 75.0393066,9.50854492 C75.2233887,8.95206706 75.3154297,8.32259115 75.3154297,7.62011719 L75.3154297,7.62011719 L75.3154297,7.15039062 C75.3154297,6.44791667 75.2233887,5.81738281 75.0393066,5.25878906 C74.8552246,4.70019531 74.5949707,4.22623698 74.2585449,3.83691406 C73.9221191,3.44759115 73.517985,3.1492513 73.0461426,2.94189453 C72.5743001,2.73453776 72.0527344,2.63085938 71.4814453,2.63085938 C70.914388,2.63085938 70.3959961,2.73453776 69.9262695,2.94189453 C69.456543,3.1492513 69.0534668,3.44759115 68.717041,3.83691406 C68.3806152,4.22623698 68.1182454,4.70019531 67.9299316,5.25878906 C67.7416178,5.81738281 67.6474609,6.44791667 67.6474609,7.15039062 L67.6474609,7.15039062 L67.6474609,7.62011719 C67.6474609,8.32259115 67.7416178,8.95206706 67.9299316,9.50854492 C68.1182454,10.0650228 68.3827311,10.5368652 68.7233887,10.9240723 C69.0640462,11.3112793 69.4692383,11.6085612 69.9389648,11.815918 C70.4086914,12.0232747 70.9270833,12.1269531 71.4941406,12.1269531 Z M71.4941406,10.8066406 C71.1513672,10.8066406 70.84139,10.7378743 70.564209,10.6003418 C70.287028,10.4628092 70.0511068,10.2596842 69.8564453,9.9909668 C69.6617839,9.72224935 69.5126139,9.3889974 69.4089355,8.99121094 C69.3052572,8.59342448 69.253418,8.13639323 69.253418,7.62011719 L69.253418,7.62011719 L69.253418,7.13769531 C69.253418,6.62141927 69.3052572,6.16544596 69.4089355,5.76977539 C69.5126139,5.37410482 69.6607259,5.04296875 69.8532715,4.77636719 C70.0458171,4.50976562 70.2796224,4.30769857 70.5546875,4.17016602 C70.8297526,4.03263346 71.1386719,3.96386719 71.4814453,3.96386719 C71.8326823,3.96386719 72.1468913,4.03263346 72.4240723,4.17016602 C72.7012533,4.30769857 72.9350586,4.50976562 73.1254883,4.77636719 C73.315918,5.04296875 73.4608561,5.37410482 73.5603027,5.76977539 C73.6597493,6.16544596 73.7094727,6.62141927 73.7094727,7.13769531 L73.7094727,7.13769531 L73.7094727,7.62011719 C73.7094727,8.66113281 73.517985,9.45247396 73.1350098,9.99414062 C72.7520345,10.5358073 72.2050781,10.8066406 71.4941406,10.8066406 Z M78.5209961,12 L78.5209961,5.44287109 L82.640625,12 L84.246582,12 L84.246582,2.7578125 L82.6533203,2.7578125 L82.6533203,9.34033203 L78.5209961,2.7578125 L76.9150391,2.7578125 L76.9150391,12 L78.5209961,12 Z" id="path-1"></path>
    </defs>
    <g id="VOICE-ICON" stroke="none" stroke-width="1" fill="none" fill-rule="evenodd">
        <g id="Artboard" transform="translate(-92.000000, -1011.000000)" fill-rule="nonzero">
            <g id="voice-on" transform="translate(92.000000, 1011.000000)">
                <path d="M10.2816558,0.127472648 C10.4967532,-0.0227549005 10.7763799,-0.044215979 10.9914773,0.0845504916 C11.2065747,0.213316962 11.3356331,0.449388825 11.3571429,0.685460688 L11.3571429,0.685460688 L11.3571429,14.3132455 C11.3571429,14.5707784 11.2065747,14.7853892 10.9914773,14.9141557 C10.8839286,14.9785389 10.7763799,15 10.6688312,15 C10.5397727,15 10.3892045,14.9785389 10.2816558,14.8926946 L10.2816558,14.8926946 L4.79667208,11.2013891 L0.688311688,11.2013891 C0.301136364,11.2013891 0,10.900934 0,10.5146346 L0,10.5146346 L0,4.50553265 C0,4.11923324 0.301136364,3.81877814 0.688311688,3.81877814 L0.688311688,3.81877814 L4.79667208,3.81877814 Z M17.1636518,1.01827059 C17.4422751,0.783902977 17.8709263,0.805209124 18.1281169,1.08218903 C19.7141262,2.85059924 20.5714286,5.13035696 20.5714286,7.49533928 C20.5714286,9.8603216 19.6926937,12.1400793 18.1281169,13.9084895 C17.9995216,14.0576326 17.8066286,14.1428571 17.6137356,14.1428571 C17.4637076,14.1428571 17.2922472,14.0789387 17.1636518,13.972408 C16.8850286,13.7167342 16.8421635,13.2906113 17.0993542,13.0136314 C18.4496053,11.4795888 19.1997449,9.51942324 19.1997449,7.49533928 C19.1997449,5.44994917 18.4496053,3.48978365 17.0993542,1.97704721 C16.863596,1.7000673 16.8850286,1.27394436 17.1636518,1.01827059 Z M9.98051948,1.97312539 L5.67857143,4.87037098 L5.67857143,10.1497963 L9.98051948,13.0470419 L9.98051948,1.97312539 Z M15.0258214,2.9372582 C15.327568,2.70379178 15.7586346,2.74624022 15.9957213,3.02215507 C17.0518344,4.25315982 17.612221,5.80252785 17.5691144,7.39434433 C17.5691144,8.98616081 17.0087278,10.5355288 15.9741679,11.7665336 C15.844848,11.9151031 15.650868,12 15.456888,12 C15.3060147,12 15.1551414,11.9575516 15.0258214,11.8514305 C14.7456281,11.5967398 14.7025215,11.1722554 14.9396081,10.8963406 C15.780188,9.92002647 16.2328079,8.66779751 16.2328079,7.39434433 C16.2328079,6.12089115 15.780188,4.86866219 14.9396081,3.89234808 C14.7025215,3.59520901 14.7456281,3.17072461 15.0258214,2.9372582 Z M13.1354398,5.06165266 C13.4278935,4.8301084 13.8456845,4.91430631 14.05458,5.20899901 C14.5350397,5.88258233 14.7857143,6.68246251 14.7857143,7.50339218 C14.7857143,8.32432185 14.5350397,9.12420203 14.05458,9.79778535 C13.9292427,9.96618118 13.7203472,10.0714286 13.5114517,10.0714286 C13.3861144,10.0714286 13.2607771,10.0293296 13.1354398,9.9451317 C12.8429861,9.73463691 12.7803175,9.31364734 12.989213,9.01895464 C13.3025562,8.57691559 13.4696726,8.05067862 13.4696726,7.50339218 C13.4696726,6.95610574 13.3025562,6.42986877 12.989213,5.98782972 C12.7594279,5.69313702 12.8429861,5.27214745 13.1354398,5.06165266 Z M4.30194805,5.19228716 L1.35511364,5.19228716 L1.35511364,9.8278801 L4.30194805,9.8278801 L4.30194805,5.19228716 Z" id="Combined-Shape" fill="#2B5FD9"></path>
                <path d="M30.9829102,12 L34.309082,2.7578125 L32.5444336,2.7578125 L30.1958008,9.98779297 L27.8725586,2.7578125 L26.1142578,2.7578125 L29.4277344,12 L30.9829102,12 Z M38.8222656,12.1269531 C39.3935547,12.1269531 39.9140625,12.0232747 40.3837891,11.815918 C40.8535156,11.6085612 41.2555339,11.3112793 41.5898438,10.9240723 C41.9241536,10.5368652 42.1833496,10.0650228 42.3674316,9.50854492 C42.5515137,8.95206706 42.6435547,8.32259115 42.6435547,7.62011719 L42.6435547,7.62011719 L42.6435547,7.15039062 C42.6435547,6.44791667 42.5515137,5.81738281 42.3674316,5.25878906 C42.1833496,4.70019531 41.9230957,4.22623698 41.5866699,3.83691406 C41.2502441,3.44759115 40.84611,3.1492513 40.3742676,2.94189453 C39.9024251,2.73453776 39.3808594,2.63085938 38.8095703,2.63085938 C38.242513,2.63085938 37.7241211,2.73453776 37.2543945,2.94189453 C36.784668,3.1492513 36.3815918,3.44759115 36.045166,3.83691406 C35.7087402,4.22623698 35.4463704,4.70019531 35.2580566,5.25878906 C35.0697428,5.81738281 34.9755859,6.44791667 34.9755859,7.15039062 L34.9755859,7.15039062 L34.9755859,7.62011719 C34.9755859,8.32259115 35.0697428,8.95206706 35.2580566,9.50854492 C35.4463704,10.0650228 35.7108561,10.5368652 36.0515137,10.9240723 C36.3921712,11.3112793 36.7973633,11.6085612 37.2670898,11.815918 C37.7368164,12.0232747 38.2552083,12.1269531 38.8222656,12.1269531 Z M38.8222656,10.8066406 C38.4794922,10.8066406 38.169515,10.7378743 37.892334,10.6003418 C37.615153,10.4628092 37.3792318,10.2596842 37.1845703,9.9909668 C36.9899089,9.72224935 36.8407389,9.3889974 36.7370605,8.99121094 C36.6333822,8.59342448 36.581543,8.13639323 36.581543,7.62011719 L36.581543,7.62011719 L36.581543,7.13769531 C36.581543,6.62141927 36.6333822,6.16544596 36.7370605,5.76977539 C36.8407389,5.37410482 36.9888509,5.04296875 37.1813965,4.77636719 C37.3739421,4.50976562 37.6077474,4.30769857 37.8828125,4.17016602 C38.1578776,4.03263346 38.4667969,3.96386719 38.8095703,3.96386719 C39.1608073,3.96386719 39.4750163,4.03263346 39.7521973,4.17016602 C40.0293783,4.30769857 40.2631836,4.50976562 40.4536133,4.77636719 C40.644043,5.04296875 40.7889811,5.37410482 40.8884277,5.76977539 C40.9878743,6.16544596 41.0375977,6.62141927 41.0375977,7.13769531 L41.0375977,7.13769531 L41.0375977,7.62011719 C41.0375977,8.66113281 40.84611,9.45247396 40.4631348,9.99414062 C40.0801595,10.5358073 39.5332031,10.8066406 38.8222656,10.8066406 Z M45.9379883,12 L45.9379883,2.7578125 L44.3383789,2.7578125 L44.3383789,12 L45.9379883,12 Z M51.3398438,12.1269531 C51.906901,12.1269531 52.4073079,12.0486654 52.8410645,11.8920898 C53.274821,11.7355143 53.6419271,11.5175781 53.9423828,11.2382812 C54.2428385,10.9589844 54.4777018,10.6278483 54.6469727,10.244873 C54.8162435,9.86189779 54.9220378,9.44401042 54.9643555,8.99121094 L54.9643555,8.99121094 L53.3647461,8.99121094 C53.3266602,9.2874349 53.2642415,9.54980469 53.1774902,9.77832031 C53.0907389,10.0068359 52.9690755,10.1993815 52.8125,10.355957 C52.6559245,10.5125326 52.4580892,10.6310221 52.2189941,10.7114258 C51.9798991,10.7918294 51.686849,10.8320312 51.3398438,10.8320312 C50.9674479,10.8320312 50.6479492,10.7579753 50.3813477,10.6098633 C50.1147461,10.4617513 49.8968099,10.2533366 49.7275391,9.98461914 C49.5582682,9.71590169 49.433431,9.39322917 49.3530273,9.01660156 C49.2726237,8.63997396 49.2324219,8.22102865 49.2324219,7.75976563 L49.2324219,7.75976563 L49.2324219,6.99804688 C49.2324219,6.51139323 49.2779134,6.07763672 49.3688965,5.69677734 C49.4598796,5.31591797 49.5963542,4.99536133 49.7783203,4.73510742 C49.9602865,4.47485352 50.1877441,4.27596029 50.4606934,4.13842773 C50.7336426,4.00089518 51.0520833,3.93212891 51.4160156,3.93212891 C51.7460938,3.93212891 52.0275065,3.97444661 52.2602539,4.05908203 C52.4930013,4.14371745 52.6855469,4.26749674 52.8378906,4.43041992 C52.9902344,4.5933431 53.107666,4.79117839 53.1901855,5.02392578 C53.2727051,5.25667318 53.3308919,5.51904297 53.3647461,5.81103516 L53.3647461,5.81103516 L54.9643555,5.81103516 C54.917806,5.34977214 54.8109538,4.92447917 54.6437988,4.53515625 C54.4766439,4.14583333 54.2460124,3.81046549 53.9519043,3.52905273 C53.6577962,3.24763997 53.2991536,3.02758789 52.8759766,2.86889648 C52.4527995,2.71020508 51.9661458,2.63085938 51.4160156,2.63085938 C50.836263,2.63085938 50.3125814,2.73453776 49.8449707,2.94189453 C49.37736,3.1492513 48.9785156,3.44335938 48.6484375,3.82421875 C48.3183594,4.20507812 48.0644531,4.6652832 47.8867188,5.20483398 C47.7089844,5.74438477 47.6201172,6.34635417 47.6201172,7.01074219 L47.6201172,7.01074219 L47.6201172,7.75976563 C47.6201172,8.42838542 47.7068685,9.03141276 47.8803711,9.56884766 C48.0538737,10.1062826 48.3024902,10.5643717 48.6262207,10.9431152 C48.9499512,11.3218587 49.34139,11.6138509 49.8005371,11.8190918 C50.2596842,12.0243327 50.7727865,12.1269531 51.3398438,12.1269531 Z M62.4418945,12 L62.4418945,10.7177734 L58.0048828,10.7177734 L58.0048828,7.87402344 L61.8007812,7.87402344 L61.8007812,6.60449219 L58.0048828,6.60449219 L58.0048828,4.05273438 L62.3974609,4.05273438 L62.3974609,2.7578125 L56.3989258,2.7578125 L56.3989258,12 L62.4418945,12 Z" id="VOICE" fill="#2D3240"></path>
                <g id="ON">
                    <use fill="#FF4C4C" xlink:href="#path-1"></use>
                    <use fill="#2B5FD9" xlink:href="#path-1"></use>
                </g>
            </g>
        </g>
    </g>
</svg>