<?xml version="1.0" encoding="UTF-8"?>
<svg width="90px" height="15px" viewBox="0 0 90 15" version="1.1" xmlns="http://www.w3.org/2000/svg" xmlns:xlink="http://www.w3.org/1999/xlink">
    <title>voice-off</title>
    <defs>
        <filter color-interpolation-filters="auto" id="filter-1">
            <feColorMatrix in="SourceGraphic" type="matrix" values="0 0 0 0 0.175000 0 0 0 0 0.197500 0 0 0 0 0.250000 0 0 0 1.000000 0"></feColorMatrix>
        </filter>
    </defs>
    <g id="VOICE-ICON" stroke="none" stroke-width="1" fill="none" fill-rule="evenodd" opacity="0.5">
        <g id="Artboard" transform="translate(-92.000000, -1038.000000)">
            <g id="voice-off" transform="translate(92.000000, 1038.000000)">
                <g filter="url(#filter-1)" id="speaker-open">
                    <g>
                        <path d="M10.9914773,0.0845504916 C10.7763799,-0.044215979 10.4967532,-0.0227549005 10.2816558,0.127472648 L4.79667208,3.81877814 L0.688311688,3.81877814 C0.301136364,3.81877814 0,4.11923324 0,4.50553265 L0,10.5146346 C0,10.900934 0.301136364,11.2013891 0.688311688,11.2013891 L4.79667208,11.2013891 L10.2816558,14.8926946 C10.3892045,14.9785389 10.5397727,15 10.6688312,15 C10.7763799,15 10.8839286,14.9785389 10.9914773,14.9141557 C11.2065747,14.7853892 11.3571429,14.5707784 11.3571429,14.3132455 L11.3571429,0.685460688 C11.3356331,0.449388825 11.2065747,0.213316962 10.9914773,0.0845504916 Z M1.35511364,5.19228716 L4.30194805,5.19228716 L4.30194805,9.8278801 L1.35511364,9.8278801 L1.35511364,5.19228716 Z M9.98051948,13.0470419 L5.67857143,10.1497963 L5.67857143,4.87037098 L9.98051948,1.97312539 L9.98051948,13.0470419 Z" id="Combined-Shape" fill="#2D3240" fill-rule="nonzero"></path>
                        <path d="M13.8684843,4.11291787 L13.9192113,4.15771173 L16.5,6.738 L19.0807887,4.15771173 C19.291071,3.94742942 19.632006,3.94742942 19.8422883,4.15771173 C20.036395,4.35181848 20.0513263,4.65725059 19.8870821,4.86848432 L19.8422883,4.91921134 L17.262,7.5 L19.8422883,10.0807887 C20.0525706,10.291071 20.0525706,10.632006 19.8422883,10.8422883 C19.6481815,11.036395 19.3427494,11.0513263 19.1315157,10.8870821 L19.0807887,10.8422883 L16.5,8.262 L13.9192113,10.8422883 C13.708929,11.0525706 13.367994,11.0525706 13.1577117,10.8422883 C12.963605,10.6481815 12.9486737,10.3427494 13.1129179,10.1315157 L13.1577117,10.0807887 L15.738,7.5 L13.1577117,4.91921134 C12.9474294,4.70892903 12.9474294,4.36799404 13.1577117,4.15771173 C13.3518185,3.96360498 13.6572506,3.9486737 13.8684843,4.11291787 Z" id="Combined-Shape" fill="#2D3240" fill-rule="nonzero"></path>
                    </g>
                </g>
                <path d="M30.9829102,12 L34.309082,2.7578125 L32.5444336,2.7578125 L30.1958008,9.98779297 L27.8725586,2.7578125 L26.1142578,2.7578125 L29.4277344,12 L30.9829102,12 Z M38.8222656,12.1269531 C39.3935547,12.1269531 39.9140625,12.0232747 40.3837891,11.815918 C40.8535156,11.6085612 41.2555339,11.3112793 41.5898438,10.9240723 C41.9241536,10.5368652 42.1833496,10.0650228 42.3674316,9.50854492 C42.5515137,8.95206706 42.6435547,8.32259115 42.6435547,7.62011719 L42.6435547,7.62011719 L42.6435547,7.15039062 C42.6435547,6.44791667 42.5515137,5.81738281 42.3674316,5.25878906 C42.1833496,4.70019531 41.9230957,4.22623698 41.5866699,3.83691406 C41.2502441,3.44759115 40.84611,3.1492513 40.3742676,2.94189453 C39.9024251,2.73453776 39.3808594,2.63085938 38.8095703,2.63085938 C38.242513,2.63085938 37.7241211,2.73453776 37.2543945,2.94189453 C36.784668,3.1492513 36.3815918,3.44759115 36.045166,3.83691406 C35.7087402,4.22623698 35.4463704,4.70019531 35.2580566,5.25878906 C35.0697428,5.81738281 34.9755859,6.44791667 34.9755859,7.15039062 L34.9755859,7.15039062 L34.9755859,7.62011719 C34.9755859,8.32259115 35.0697428,8.95206706 35.2580566,9.50854492 C35.4463704,10.0650228 35.7108561,10.5368652 36.0515137,10.9240723 C36.3921712,11.3112793 36.7973633,11.6085612 37.2670898,11.815918 C37.7368164,12.0232747 38.2552083,12.1269531 38.8222656,12.1269531 Z M38.8222656,10.8066406 C38.4794922,10.8066406 38.169515,10.7378743 37.892334,10.6003418 C37.615153,10.4628092 37.3792318,10.2596842 37.1845703,9.9909668 C36.9899089,9.72224935 36.8407389,9.3889974 36.7370605,8.99121094 C36.6333822,8.59342448 36.581543,8.13639323 36.581543,7.62011719 L36.581543,7.62011719 L36.581543,7.13769531 C36.581543,6.62141927 36.6333822,6.16544596 36.7370605,5.76977539 C36.8407389,5.37410482 36.9888509,5.04296875 37.1813965,4.77636719 C37.3739421,4.50976562 37.6077474,4.30769857 37.8828125,4.17016602 C38.1578776,4.03263346 38.4667969,3.96386719 38.8095703,3.96386719 C39.1608073,3.96386719 39.4750163,4.03263346 39.7521973,4.17016602 C40.0293783,4.30769857 40.2631836,4.50976562 40.4536133,4.77636719 C40.644043,5.04296875 40.7889811,5.37410482 40.8884277,5.76977539 C40.9878743,6.16544596 41.0375977,6.62141927 41.0375977,7.13769531 L41.0375977,7.13769531 L41.0375977,7.62011719 C41.0375977,8.66113281 40.84611,9.45247396 40.4631348,9.99414062 C40.0801595,10.5358073 39.5332031,10.8066406 38.8222656,10.8066406 Z M45.9379883,12 L45.9379883,2.7578125 L44.3383789,2.7578125 L44.3383789,12 L45.9379883,12 Z M51.3398438,12.1269531 C51.906901,12.1269531 52.4073079,12.0486654 52.8410645,11.8920898 C53.274821,11.7355143 53.6419271,11.5175781 53.9423828,11.2382812 C54.2428385,10.9589844 54.4777018,10.6278483 54.6469727,10.244873 C54.8162435,9.86189779 54.9220378,9.44401042 54.9643555,8.99121094 L54.9643555,8.99121094 L53.3647461,8.99121094 C53.3266602,9.2874349 53.2642415,9.54980469 53.1774902,9.77832031 C53.0907389,10.0068359 52.9690755,10.1993815 52.8125,10.355957 C52.6559245,10.5125326 52.4580892,10.6310221 52.2189941,10.7114258 C51.9798991,10.7918294 51.686849,10.8320312 51.3398438,10.8320312 C50.9674479,10.8320312 50.6479492,10.7579753 50.3813477,10.6098633 C50.1147461,10.4617513 49.8968099,10.2533366 49.7275391,9.98461914 C49.5582682,9.71590169 49.433431,9.39322917 49.3530273,9.01660156 C49.2726237,8.63997396 49.2324219,8.22102865 49.2324219,7.75976563 L49.2324219,7.75976563 L49.2324219,6.99804688 C49.2324219,6.51139323 49.2779134,6.07763672 49.3688965,5.69677734 C49.4598796,5.31591797 49.5963542,4.99536133 49.7783203,4.73510742 C49.9602865,4.47485352 50.1877441,4.27596029 50.4606934,4.13842773 C50.7336426,4.00089518 51.0520833,3.93212891 51.4160156,3.93212891 C51.7460938,3.93212891 52.0275065,3.97444661 52.2602539,4.05908203 C52.4930013,4.14371745 52.6855469,4.26749674 52.8378906,4.43041992 C52.9902344,4.5933431 53.107666,4.79117839 53.1901855,5.02392578 C53.2727051,5.25667318 53.3308919,5.51904297 53.3647461,5.81103516 L53.3647461,5.81103516 L54.9643555,5.81103516 C54.917806,5.34977214 54.8109538,4.92447917 54.6437988,4.53515625 C54.4766439,4.14583333 54.2460124,3.81046549 53.9519043,3.52905273 C53.6577962,3.24763997 53.2991536,3.02758789 52.8759766,2.86889648 C52.4527995,2.71020508 51.9661458,2.63085938 51.4160156,2.63085938 C50.836263,2.63085938 50.3125814,2.73453776 49.8449707,2.94189453 C49.37736,3.1492513 48.9785156,3.44335938 48.6484375,3.82421875 C48.3183594,4.20507812 48.0644531,4.6652832 47.8867188,5.20483398 C47.7089844,5.74438477 47.6201172,6.34635417 47.6201172,7.01074219 L47.6201172,7.01074219 L47.6201172,7.75976563 C47.6201172,8.42838542 47.7068685,9.03141276 47.8803711,9.56884766 C48.0538737,10.1062826 48.3024902,10.5643717 48.6262207,10.9431152 C48.9499512,11.3218587 49.34139,11.6138509 49.8005371,11.8190918 C50.2596842,12.0243327 50.7727865,12.1269531 51.3398438,12.1269531 Z M62.4418945,12 L62.4418945,10.7177734 L58.0048828,10.7177734 L58.0048828,7.87402344 L61.8007812,7.87402344 L61.8007812,6.60449219 L58.0048828,6.60449219 L58.0048828,4.05273438 L62.3974609,4.05273438 L62.3974609,2.7578125 L56.3989258,2.7578125 L56.3989258,12 L62.4418945,12 Z M70.5415039,12.1269531 C71.112793,12.1269531 71.6333008,12.0232747 72.1030273,11.815918 C72.5727539,11.6085612 72.9747721,11.3112793 73.309082,10.9240723 C73.6433919,10.5368652 73.9025879,10.0650228 74.0866699,9.50854492 C74.270752,8.95206706 74.362793,8.32259115 74.362793,7.62011719 L74.362793,7.62011719 L74.362793,7.15039062 C74.362793,6.44791667 74.270752,5.81738281 74.0866699,5.25878906 C73.9025879,4.70019531 73.642334,4.22623698 73.3059082,3.83691406 C72.9694824,3.44759115 72.5653483,3.1492513 72.0935059,2.94189453 C71.6216634,2.73453776 71.1000977,2.63085938 70.5288086,2.63085938 C69.9617513,2.63085938 69.4433594,2.73453776 68.9736328,2.94189453 C68.5039062,3.1492513 68.1008301,3.44759115 67.7644043,3.83691406 C67.4279785,4.22623698 67.1656087,4.70019531 66.9772949,5.25878906 C66.7889811,5.81738281 66.6948242,6.44791667 66.6948242,7.15039062 L66.6948242,7.15039062 L66.6948242,7.62011719 C66.6948242,8.32259115 66.7889811,8.95206706 66.9772949,9.50854492 C67.1656087,10.0650228 67.4300944,10.5368652 67.770752,10.9240723 C68.1114095,11.3112793 68.5166016,11.6085612 68.9863281,11.815918 C69.4560547,12.0232747 69.9744466,12.1269531 70.5415039,12.1269531 Z M70.5415039,10.8066406 C70.1987305,10.8066406 69.8887533,10.7378743 69.6115723,10.6003418 C69.3343913,10.4628092 69.0984701,10.2596842 68.9038086,9.9909668 C68.7091471,9.72224935 68.5599772,9.3889974 68.4562988,8.99121094 C68.3526204,8.59342448 68.3007812,8.13639323 68.3007812,7.62011719 L68.3007812,7.62011719 L68.3007812,7.13769531 C68.3007812,6.62141927 68.3526204,6.16544596 68.4562988,5.76977539 C68.5599772,5.37410482 68.7080892,5.04296875 68.9006348,4.77636719 C69.0931803,4.50976562 69.3269857,4.30769857 69.6020508,4.17016602 C69.8771159,4.03263346 70.1860352,3.96386719 70.5288086,3.96386719 C70.8800456,3.96386719 71.1942546,4.03263346 71.4714355,4.17016602 C71.7486165,4.30769857 71.9824219,4.50976562 72.1728516,4.77636719 C72.3632812,5.04296875 72.5082194,5.37410482 72.607666,5.76977539 C72.7071126,6.16544596 72.7568359,6.62141927 72.7568359,7.13769531 L72.7568359,7.13769531 L72.7568359,7.62011719 C72.7568359,8.66113281 72.5653483,9.45247396 72.182373,9.99414062 C71.7993978,10.5358073 71.2524414,10.8066406 70.5415039,10.8066406 Z M77.5683594,12 L77.5683594,8.08349609 L81.2880859,8.08349609 L81.2880859,6.80126953 L77.5683594,6.80126953 L77.5683594,4.05273438 L81.8339844,4.05273438 L81.8339844,2.7578125 L75.9624023,2.7578125 L75.9624023,12 L77.5683594,12 Z M84.7094727,12 L84.7094727,8.08349609 L88.4291992,8.08349609 L88.4291992,6.80126953 L84.7094727,6.80126953 L84.7094727,4.05273438 L88.9750977,4.05273438 L88.9750977,2.7578125 L83.1035156,2.7578125 L83.1035156,12 L84.7094727,12 Z" id="VOICEOFF" fill="#2D3240" fill-rule="nonzero"></path>
            </g>
        </g>
    </g>
</svg>